<svg version="1.1" id="Calque_1" xmlns="http://www.w3.org/2000/svg" x="0" y="0" viewBox="0 0 95.3 95.5" xml:space="preserve"><style>.st0{fill:#4baed4}.st1{fill:#fdfefe}</style><path class="st0" d="M47.7 95.5H0C.1 65 .1 30.5 0 0c0 0 64.8.1 95.3 0v95.5H47.7zm-.3-15.3c11.6 0 23.1-.1 34.7 0 2.4 0 3.3-.4 3.3-3.1-.2-18.9-.2-37.8-.1-56.8 0-2.7-.9-3.1-3.3-3.1-23.1.1-46.2.1-69.3 0-2.4 0-3.3.4-3.3 3.1.1 19 .1 37.9 0 56.9 0 2.7.9 3.1 3.3 3.1 11.6-.1 23.1-.1 34.7-.1z"/><path class="st1" d="M47.4 80.2c-11.6 0-23.1-.1-34.7 0-2.4 0-3.3-.4-3.3-3.1.1-19 .1-37.9 0-56.9 0-2.6.9-3.1 3.3-3.1 23.1.1 46.2.1 69.3 0 2.4 0 3.3.4 3.3 3.1-.1 19-.1 37.9 0 56.9 0 2.6-.9 3.1-3.3 3.1H47.4zm2.8-13.9l.4.4c.4-.2.2-.5 0-.8-1.8-3.2-3.7-6.5-6-9.3-1.1-1.3-.9-2 .1-3.1 3.1-3.1 6.3-6 9.7-8.6 8.1-6.1 9.2-6.1 16.4 1.1 3 3 5.9 6.3 9.2 9.9V24c0-2.2-1.7-1.5-2.8-1.5-19.9 0-39.8 0-59.8-.1-2.3 0-3.1.6-3 3 .1 14.9.1 29.9.1 44.8 0 .8-.4 1.7.5 2.3 1.5-.3 2.7-1.3 3.9-2.1 4.6-3.1 9.4-6.2 13.8-9.6 2.5-1.9 4.7-1.9 7.3-.6 3.7 1.7 6.8 4.2 10.2 6.1z"/><path class="st0" d="M50.2 66.3c-3.4-1.9-6.4-4.4-10-6.1-2.6-1.3-4.9-1.3-7.3.6-4.5 3.4-9.2 6.4-13.8 9.6-1.2.8-2.4 1.8-3.9 2.1-.9-.7-.5-1.6-.5-2.3 0-14.9 0-29.9-.1-44.8 0-2.4.7-3 3-3 19.9.1 39.8 0 59.8.1 1.1 0 2.8-.7 2.8 1.5v31.9C76.8 52.3 74 49.1 71 46c-7.2-7.2-8.3-7.2-16.4-1.1-3.5 2.6-6.7 5.6-9.7 8.6-1.1 1.1-1.2 1.8-.1 3.1 2.4 2.8 4.2 6.1 6 9.3-.3.2-.5.3-.6.4zM34.3 35.9c.1-3.1-2.4-5.7-5.5-5.9-3.2-.1-5.9 2.5-6 5.7 0 3.1 2.6 5.7 5.6 5.7 3.2.1 5.8-2.5 5.9-5.5z"/><path class="st0" d="M50.6 65.9c.2.3.3.6 0 .8-.1 0-.3-.2-.4-.4.1-.1.3-.2.4-.4z"/><path class="st1" d="M34.3 35.9c-.1 3.1-2.7 5.6-5.8 5.5-3.1 0-5.6-2.7-5.6-5.7 0-3.2 2.8-5.9 6-5.7 3 .1 5.5 2.8 5.4 5.9z"/></svg>