<svg version="1.1" id="systeme" xmlns="http://www.w3.org/2000/svg" x="0" y="0" viewBox="-341 342 117 117" xml:space="preserve"><style>.st0{fill:#209dcc}</style><path class="st0" d="M-282.1 344.5c-31 0-56 25.1-56 55.9 0 30.8 25.1 55.9 56 55.9s56-25.1 56-55.9c0-30.8-25-55.9-56-55.9zm29.3 60.3l-5.9 1.5c-.6.2-1.1.6-1.3 1.2-.4 1.3-.9 2.5-1.5 3.7-.3.6-.3 1.3 0 1.8l3.1 5.2c.4.7.3 1.5-.2 2.1-1.1 1.4-2.4 2.6-3.8 3.8-.6.5-1.5.6-2.1.2l-5.2-3.1c-.6-.3-1.2-.3-1.8 0-1.2.6-2.4 1.1-3.7 1.5-.6.2-1.1.7-1.2 1.3l-1.5 5.9c-.2.8-.8 1.3-1.6 1.4-.9.1-1.8.1-2.7.1s-1.8-.1-2.7-.1c-.8-.1-1.4-.6-1.6-1.4l-1.5-5.9c-.2-.6-.6-1.1-1.2-1.3-1.3-.4-2.5-.9-3.7-1.5-.6-.3-1.3-.3-1.8 0l-5.2 3.1c-.7.4-1.5.3-2.1-.2-1.4-1.1-2.6-2.4-3.8-3.8-.5-.6-.6-1.5-.2-2.1l3.1-5.2c.3-.6.3-1.2 0-1.8-.6-1.2-1.1-2.4-1.5-3.7-.2-.6-.7-1.1-1.3-1.2l-5.9-1.5c-.8-.2-1.3-.8-1.4-1.6-.1-.9-.1-1.8-.1-2.7s.1-1.8.1-2.7c.1-.8.6-1.4 1.4-1.6l5.9-1.5c.6-.2 1.1-.6 1.3-1.2.4-1.3.9-2.5 1.5-3.7.3-.6.3-1.3 0-1.8l-3.1-5.2c-.4-.7-.3-1.5.2-2.1 1.1-1.4 2.4-2.6 3.8-3.8.6-.5 1.5-.6 2.1-.2l5.2 3.1c.6.3 1.2.3 1.8 0 1.2-.6 2.4-1.1 3.7-1.5.6-.2 1.1-.7 1.2-1.3l1.5-5.9c.2-.8.8-1.3 1.6-1.4.9-.1 1.8-.1 2.7-.1.9 0 1.8.1 2.7.1.8.1 1.4.6 1.6 1.4l1.5 5.9c.2.6.6 1.1 1.2 1.3 1.3.4 2.5.9 3.7 1.5.6.3 1.3.3 1.8 0l5.2-3.1c.7-.4 1.5-.3 2.1.2 1.4 1.1 2.6 2.4 3.8 3.8.5.6.6 1.5.2 2.1l-3.1 5.2c-.3.6-.3 1.2 0 1.8.6 1.2 1.1 2.4 1.5 3.7.2.6.7 1.1 1.3 1.2l5.9 1.5c.8.2 1.3.8 1.4 1.6.1.9.1 1.8.1 2.7s-.1 1.8-.1 2.7c-.1.7-.7 1.3-1.4 1.6z"/><path class="st0" d="M-282.1 417.7c7.3 0 13.5-4.4 15.3-10.4h-30.6c1.9 6 8 10.4 15.3 10.4zm10.2-26.8c-3.1 0-5.6 2.5-5.6 5.6 0 3.1 2.5 5.6 5.6 5.6 3.1 0 5.6-2.5 5.6-5.6 0-3.1-2.5-5.6-5.6-5.6zm0 8.2c-1.4 0-2.6-1.2-2.6-2.6 0-1.4 1.2-2.6 2.6-2.6 1.4 0 2.6 1.2 2.6 2.6 0 1.4-1.2 2.6-2.6 2.6zm-20.6 3c3.1 0 5.6-2.5 5.6-5.6 0-3.1-2.6-5.6-5.6-5.6-3.1 0-5.6 2.5-5.6 5.6 0 3.1 2.5 5.6 5.6 5.6zm0-8.2c1.4 0 2.6 1.2 2.6 2.6 0 1.4-1.2 2.6-2.6 2.6-1.4 0-2.6-1.2-2.6-2.6 0-1.4 1.1-2.6 2.6-2.6z"/></svg>