<svg xmlns="http://www.w3.org/2000/svg" viewBox="0 0 625 625"><path d="M312.5 419.5c68 0 204 33.4 204 101.4v104h-408v-104c0-68 136-101.4 204-101.4zm0-51.3c-55.9.1-101.3-45.2-101.4-101.2v-.3c0-56.1 45.3-102.6 101.4-102.6s101.4 46.5 101.4 102.6c0 56-45.3 101.4-101.3 101.4 0 .1 0 .1-.1.1zm158.1-92.3c-8.5 0-13.2 3.4-15.7 6.3-3.4 4-5.2 9-5.1 14.3-.1 5.2 1.8 10.1 5.2 13.9l.1.1c3.7 4 8.9 6 15.5 6s11.8-2 15.5-5.9c3.6-3.8 5.6-8.9 5.5-14.1.1-5.3-1.8-10.4-5.4-14.4-3.6-4.1-8.9-6.2-15.6-6.2zm58.7-131.1s0-.1 0 0c-2.7-6.7-7-12.6-12.4-17.4-5.6-4.9-12.1-8.5-19.2-10.7-8-2.4-16.2-3.6-24.5-3.5-7.8-.1-15.6 1-23.1 3.3-7 2.1-13.5 5.5-19.3 10.1-5.5 4.5-9.9 10-13.2 16.4-2.1 4.3-3.6 8.8-4.3 13.5-.1.7-.2 1.5-.2 2.2 0 7 5.7 12.7 12.7 12.7h10.7c6.1 0 11.3-4.3 12.4-10.4.3-1.5.8-2.9 1.5-4.1 1.2-2.2 3-4.2 5-5.7 2.3-1.6 4.9-2.8 7.6-3.5h.1c3.2-.8 6.5-1.3 9.8-1.3 8.2 0 14.1 1.8 18.1 5.5 3.9 3.6 5.8 8.9 5.8 16.1 0 3.2-.6 6.3-1.8 9.3-1.4 3.3-3.2 6.5-5.3 9.4-2.3 3.2-4.9 6.2-7.5 9l-8.6 8.8c-3.6 3.3-7.1 6.7-10.3 10.3-2.9 3.1-5.2 6.7-7 10.5 0 .1 0 .1-.1.2-1.6 3.9-2.7 8-3.1 12.2-.3 2.5-.5 5.4-.6 8.7v.7c0 3.4 1.3 6.6 3.8 9 1.8 1.8 4.1 3 6.6 3.5.7.3 1.5.4 2.4.4h10.9c6.8 0 12.4-5.3 12.7-12.1 0-.5.1-1 .1-1.4 0-.3 0-.7.1-1v-.5c.1-1.9.4-3.7.9-5.5 0-.1 0-.1.1-.2.5-1.7 1.2-3.4 2.2-4.8 1.4-2.1 3-4 4.8-5.7 4-3.6 8.1-7.5 12.2-11.6 4.3-4.3 8.2-9.1 11.7-14.1 3.5-5.1 6.5-10.6 8.8-16.4 2.4-6.2 3.6-12.7 3.6-19.3.1-7.9-1.2-15.4-4.1-22.6z" fill="#c7edfc"/></svg>