<svg version="1.1" id="Calque_1" xmlns="http://www.w3.org/2000/svg" x="0" y="0" width="225" height="150" viewBox="0 0 225 150" xml:space="preserve"><style>.st0{fill:#fec300}.st3{fill:#a61718}.st4{fill:#ae1d18}.st5{fill:#c4c4c4}.st6{fill:#c1ab00}.st7{fill:#c9c9c9}.st8{fill:#bba400}.st9{fill:#614b03}.st10{fill:#7b6a15}.st11{fill:#391905}.st12{fill:#154b80}.st13{fill:#572d06}.st14{fill:#846d01}.st15{fill:#6d6c6a}.st16{fill:#0254ac}.st17{fill:#473b03}.st18{fill:#c7b000}.st19{fill:#9f1418}.st20{fill:#c49f03}.st21{fill:#a08d00}.st22{fill:#57420c}.st23{fill:#67464b}.st24{fill:#cacaca}.st25{fill:#90908d}.st26{fill:#ab1519}.st27{fill:#12755e}.st28{fill:#1243d7}.st29{fill:#e76fa6}</style><g id="spain"><path class="st0" d="M0 112.5V37.6h224.9v74.9H0zm61.3-14.1c0 .1.1.2.1.3.1.1.2.3.4.4 0 .1.1.1.1.1.1.1.2.2.3.2.1.2.2.3.4.2-.1.6.6.5.8.8.2.1.4.4.7.4.3.3.7.4 1.1.5.5.2 1 .6 1.6.5 2 1 4.1 1.1 6.2 1.4 1.2.3 2.4.2 3.6.1.8-.1 1.7 0 2.4-.4.7 0 1.5-.1 2.1-.5.7-.2 1.4-.4 2.1-.7.3.1.6 0 .9-.2.6-.2 1.3-.3 1.8-.8.2.1.4 0 .5-.2.3.1.5-.1.6-.4.3-.1.6-.2.8-.4 1.1-1.3 2.1-2.6 2.5-4.3.2-3.7.1-7.5.1-11.2.1-1.3-.1-2.5.1-3.8 1.5-.6 3-.6 4.5-.7 0 .6 0 1.2.2 1.8-.4.1-.7-.1-1 .2-.2 0-.4 0-.6.2-.8.5-.3 1.3-.6 2s.1 1.3.6 1.7c.4.4 1 .7 1.4 1 0 2.9 0 5.8.1 8.7v.2c-.2.1-.5.2-.2.5v.7c-.2.2-.7 0-.8.4 0 .5.1 1-.1 1.5-.3.3-.7.2-1.1.5.2.8-.2 1.6.2 2.3-.2.4-.2.8-.1 1.2.3.1.6 0 .8-.1 1-.5 2-.5 3 0 .3.1.7.2 1.1.1 1.4-.6 2.8-.5 4.2 0 0 0 .1-.1.2-.1 0-.4.1-.8-.1-1.1.4-.8 0-1.6.2-2.4-.4-.1-.7-.1-1-.2-.3-.6.1-1.3-.3-1.9-.2-.1-.4-.2-.7-.3v-.7c.3-.3 0-.4-.2-.5v-5.8c0-.3-.2-.8.4-.8.2.1.4.3.6.2.2.2.1.4-.1.7-.5.9-.4 1.3.4 2.2.1-.7.6-1 1.1-1.5.3-.2.2-.5.2-.8v-.3c.1-.2.1-.4.2-.6.3-.9.1-1.4-.8-1.9-.7-.4-1.5-.3-2.1-.9v-2.6c.1 0 .3-.1.4-.1.3-.2.6-.4 1-.3.4 0 .6-.1.8-.5.4-.8.8-1.5 1.1-2.4.2-.6.1-1.1-.4-1.4-.4-.4-.9-.7-1.5-.8-.5-.1-.9-.2-1.2-.6-.3-.3-.2-.7-.2-1v-5.1l.3-.3.1-.1c0-.1-.1-.1-.1-.1l-.3-.3V70c.1-.1.1-.2.2-.3l.6-.3v-1.7c-.4-.2-.8 0-1.2-.3.2-.3.2-.7.5-.9.3-.3.7-.5.8-.9.1-1-.2-1.3-1.1-1.5-.4-.1-.8-.1-1.2-.2-.7.1-.8-.6-1.1-.9-.5.1-.3.6-.6.8-.7-.1-1.4.2-2 .3-.7.1-1.1.6-.8 1.4.1.4.4.6.8.8.3.3.5.7.4 1.1-.4 0-.7.1-1.2.1.1.8-.5 1.7.6 2.1.1.1.1.2.2.3v.3c-.1.1-.1.3-.2.4 0 .2.1.3.2.4v5.4c-.9.1-1.8-.1-2.7.3-.6-.1-1.2.2-1.8.3-.2-2.9 0-5.7-.1-8.6 0-.4.2-.8-.2-1.1-.4-.2-.8-.1-1.2-.1h-5.4c-.4 0-.8.2-1.1-.3h.3c.3 0 .6-.1.8-.1 1.3-.3 1.3-.3 1.1-1.6.2-.2.6-.3.3-.7l.4-.4c.1 0 .2 0 .2-.1.3-.3.6-.6 1-.8.2 0 .3 0 .4-.2.3-.3.6-.5.8-.8.2-.2.6-.1.8-.3.2-.1.2-.2.2-.4s.1-.3.1-.5c.3-.2.6-.4.8-.6.2 0 .4 0 .7-.1.4-1 .8-1.9 1.1-2.9 0-.3-.4-.1-.5-.3.1 0 .2-.1.3-.1.2-.1.2-.2.1-.4-.5-.1-.7-.6-.8-1.1-.1-.4-.4-.7-.6-1.1.2-.8-.4-1-1-1.3-.2.2-.4.4-.5.7-.1 0-.2 0-.3-.1-.2-.4.4-.7.1-1.1-.6-.1-1.2-.4-1.7.3-.3-.1-.5-.5-1.1-.1-.4.3-.4-.4-.6-.5-.8-.6-1 .6-1.6.5-.6-.3-.6-1.2-1.3-1.3-.3-.6-.9-.2-1.3-.4 0-.2 0-.4-.2-.4-.3-.4-.5-.1-.6.2 0 .2 0 .4-.3.4-.4 0-.1-.7-.5-.7-.6-.1-.8.6-1.3.7-.4-.6-.4-.6-1.1-.3-.3.1-.4 0-.6-.3l.1-.1c.4-.3.4-.6.1-1-.1-.4-.4-.6-.8-.8 0-.4-.1-.8.4-1 .4-.2.4-.6-.1-.8-.3-.1-.3-.4-.6-.5-.8-.7-.9.4-1.4.6-.3.1-.1.6.3.8.3.1.2.5.2.8-.4.3-.7.6-.8 1.1-.1.3-.1.6.2.8v.1c0 .3-.2.4-.5.6-.1-.3-.1-.6-.5-.6-.2.2-.1.6-.4.8-.1 0-.4 0-.3-.2.1-.4.1-.7-.4-.7-.6 0-.3.5-.4.8-.7 0-1.3 0-1.8-.6-.3.2-.2.4-.2.6l-.3.3c-1.3-.3-2.2.1-2.5 1.2-.8 0-.8 0-1.6-.4-.4-.2-.8-.3-1.1.1-.2.3-.6.3-.7.6-.6.1-1.2.3-1.8.4v-.4c.3 0 .5-.1.4-.5-.3 0-.3.3-.3.5-.5 0-1-.1-.9.7-.8-.1-.5 1-1.3 1 .3.3.3.5.4.8-.3 0-.6-.4-.9 0 .3.5-.2 1.2.4 1.6-.2.3-.8.2-.5.8.2.1.4-.2.6-.2.1.1.2.2.2.3-.2.3-.6.3-.7.6.2.3.5.5.8.8.1.3.1.6.3.9.2 0 .4.1.6.1.3.1.6.3.9.6.1.2.2.4.2.6 0 .1 0 .2.2.3.2.3.7.2.9.4.5 1.1 1.7 1.4 2.5 2.3-.2.4.1.5.4.6.2.4-.3.8.1 1.2.3.3.8.3 1.3.4.1.1.3.2.6.4h-3.3c-1.2 0-2.5-.2-3.7.1-.6 0-.5.5-.5.8v8.9H59c-.3-.3-.7-.2-1.1-.2-.9-.4-1.9-.1-2.9-.4v-5.3c.4-.2.4-.2.2-.5 0-.2-.1-.2-.2-.3v-.3c.1-.1.1-.2.2-.3.2-.2.4-.3.6-.5.4-.5.2-1.1.1-1.6-.2-.2-.5-.1-.8-.2-.3 0-.4-.2-.4-.4.1-.3.3-.6.6-.9.5-.4.7-.8.3-1.4-.1-.2-.2-.3-.4-.4-.2-.4-.5-.5-.9-.4h-.4c-.8-.1-1.1-.7-1.3-1.6-.4.8-.6 1.5-1.4 1.5-.1 0-.2 0-.3.1-.4 0-.8 0-1.1.4-.2.1-.4.1-.5.3-.2.4-.6.8.2 1.1 0 .5.6.5.7.8-.1.3.3.5.1.8-.3.1-.7 0-1.1.2-.1.6-.2 1.1.1 1.7.2 0 .3.1.5.1.1.3.4.5.7.7-.1.1-.3.1-.4.2-.4.4-.3.6.2.7v.1c-.3.3-.2.7-.2 1v4c0 .4.1.8-.3 1.1-1.3.4-2.6.9-3.2 2.2.3.8.7 1.4 1 2.2.3.8.9 1.4 1.8 1.4.2.1.5.2.7.2v2c0 .4-.2.7-.5.9-1 .3-1.8.8-2.5 1.6.3.3 0 .9.3 1.3.2.5-.1 1.2.5 1.5.1.2.2.3.4.2 0 .2.1.2.2.2 0 .2.1.3.2.5.2.8.3-.1.4 0 .5-.6.3-1.2 0-1.7 0-.1-.1-.2-.2-.3 0-.4.4-.5.6-.6.6.1.4.6.4.9 0 1.8 0 3.6.1 5.4-.3.3-.5.6-.1 1-.2.1-.3.3-.5.5-.4 0-.4.3-.4.6 0 .5.1.9-.2 1.4-.4.1-.7 0-1.1.2 0 .8-.2 1.5.1 2.3-.2.4-.2.8 0 1.2.3.1.6 0 .8 0 1-.5 2-.5 3 0 .5.2 1 .2 1.5 0 1.2-.6 2.3-.4 3.5 0 .2.1.4.3.5 0 .3-1.2.3-2.4 0-3.5.1.1-.1.1-.3.2-.1 0-.3 0-.4-.1-.3-.6-.1-1.2-.2-1.8-.3-.1-.7-.2-.8-.6.4-.4.2-.8-.2-1v-.4c.2-.4.1-.8.1-1.2v-5.5c0-.4.1-.8-.1-1.2v-.4c.4-.3.7-.6 1.1-.9 1.1-.8 1.3-1.3.8-2.6v-.3c0-.2.2-.6-.2-.7 0-.2-.1-.2-.2-.2-.2-.2-.4-.2-.6-.2-.2-.2-.4-.2-.6-.2-.3-.6-.2-1.2 0-1.8h2.2c.7.3 1.4.3 2.1.4.3.2.3.5.3.9 0 1 0 2-.1 3.1 0 .2-.1.4-.1.5v8.9c0 .3 0 .5.1.7 0 1 .1 2 .7 2.9 0 .2 0 .4.2.4 0 .2.1.3.2.4 0 .1 0 .2.2.2z"/><path d="M0 112.5h224.9V150H-.1c.1-12.5.1-25 .1-37.5zm225-74.9H.1C0 25 0 12.5 0 0h225v37.6z" fill="#c50b1e"/><path d="M90.2 95.6c-.4 1.7-1.4 3-2.5 4.3-.2.2-.5.3-.8.4-.3 0-.5.1-.6.4-.2 0-.4 0-.5.2-.9.2-1.8.4-2.8.6-.9.1-1.8-.3-2.7-.2-.8-.1-1.4-.4-2-.9-1.5-1-2.7-2.2-3.1-4.1-.2-2.1-.3-4.2-.1-6.2.4-.3.7-.3 1.1-.3h.4c.6.5.7 1 .3 1.6-.3.4-.4.7-.1 1.1.4.4.3.8 0 1.3-.3.4-.3 1 .2 1.5.4.3.5.8.4 1.3-.2.6.1 1 .7 1.1.5.1.8.4 1 .9.2.7.8.9 1.5.8.5-.1.9-.1 1.3.3s.9.4 1.3 0 .8-.5 1.4-.3 1.2-.1 1.3-.7c.2-.6.5-.9 1-1 .6-.2.8-.6.7-1.2-.1-.3-.1-.7.1-.9.8-.8.8-1.6 0-2.4.6-.7.9-1.3.1-2-.2-.2-.2-.7.2-1.1.5-.5.5-1 0-1.5s-.4-1 0-1.4c.3-.4.4-.7.1-1.1s-.8-.4-1.2-.1c-.4.3-.8.3-1.3 0s-1-.1-1.5 0c-1.1.2-2.2.1-3.3 0-.3 0-.6-.2-.9-.2.1-.4.1-.7.2-1.1H90v9.8c.1.3 0 .7.2 1.1z" fill="#ab1718"/><path class="st3" d="M58 77.1c.4 0 .7-.1 1.1.2.2.3.7.2.8.5.2 1.7.1 1.9-.3 2.6-.7-.1-1.4-.1-2.1-.4-.8-.4-1.7-.2-2.6-.2h-.2c-.3-.1-.5.1-.7.2h-.4c-1.2-.3-2.1.4-3.2.6-.5 0-1 .2-1.4.5.3.3.8 0 1 .4s.1.9.1 1.4-.3.6-.7.6c-1 0-1.6-.6-1.8-1.4-.3-.7-.7-1.4-1-2.2.6-1.3 1.9-1.8 3.2-2.2.3 0 .5 0 .8-.2.7-.3 1.4-.4 2.2-.4H58zm-8 3.2c0-.7.2-1.2.8-1.5-.5-.8-.6-.8-1.7-.1.2.5.3 1.1.9 1.6zm7.3-2.7c-.5 0-1-.2-1.2.2-.4.7.7.8.6 1.2-.2.5-.6 0-.7.4.6.1 1.2.2 1.3-.4 0-.7-.7-.7-.7-1.1.1-.3.4 0 .7-.3zm-5.8.2c-.3.7 0 1.3.2 1.8.4.1.7 0 1.1-.3-1 .1-.5-1.1-1.3-1.5zm3.2.9c-.7 0-.5-1.2-1.5-1.1.4.7.6 1.4 1.2 1.8.1-.2.3-.3.3-.7zm.4-1.1c-.2.2-.5.4-.2.7.1-.2.2-.4.2-.7z"/><path class="st4" d="M100.2 77.6c.3.4.8.5 1.2.6.6.1 1.1.4 1.5.8s.6.8.4 1.4c-.3.8-.7 1.6-1.1 2.4-.2.3-.4.5-.8.5-.4-.1-.7.1-1 .3-.8-.6-.3-1.4-.3-2.1.4-.4 1 0 1.2-.5.8-.5.4-1.3.5-2-.5 0-.8.1-1 .6.1.5.5.9.5 1.4-.7 0-1.3-.7-2-.6h-.1c-.3-.1-.5-.2-.8-.2-1.1-.2-2.3-.3-3.4-.3-1.5.1-3.1.1-4.5.7-.1-1.1-.1-2.1 0-3.2.6-.1 1.2-.4 1.8-.3h4.2c.4 0 .7-.1 1 .2h1c.1 0 .2.1.3.1.1.1.1.1.2 0h.2c.1.3.4.2.6.2 0 .1.2.1.4 0zm-.8 2.3c-.2-.6.1-1 .4-1.5-.4-.6-.9-.5-1.4-.6-.3.6-.5 1.2-.4 1.8.5.2.4-.3.7-.3.2.1.1.7.7.6zm-3.5-2.3c1 .4.2 1.4.9 2 .3-.7.1-1.4.6-2h-1.5zm-4.3.1c.5.7.7 1.4 1.5 1.7-.1-.7-.6-1.4-1.5-1.7zm3.8 1.6c-1-.2-.2-1.3-.8-1.7-.3.8-.3.8-.1 1.6.3.2.6.2.9.1z"/><path class="st5" d="M75.4 96.3c.4 1.9 1.6 3 3.1 4.1.6.4 1.3.8 2 .9.2.2.5.2.7.2.7.2 1.4 0 2.1.4-.7.2-1.4.4-2.1.7-.8 0-1.6.2-2.3.4-.7.1-1.5-.1-2.2.3-1.2 0-2.4-.1-3.6 0-2.1-.3-4.3-.4-6.2-1.4.5-.4 1.3.1 1.8-.4.3-.1.7.1 1-.3.2 0 .4 0 .6-.1.3-.1.6-.1.9-.4.2 0 .4 0 .4-.2.1 0 .2-.1.3-.1.1-.1.3-.2.4-.3.3-.2.5-.3.7-.6.2-.1.4-.2.4-.4.2 0 .2-.1.2-.2.3-.1.5-.4.6-.7.1-.1.2-.3.2-.5.2-.1.2-.3.2-.5.3-.2.3-.5.2-.7.1-.2.3-.3.3-.6.1.1.1.3.3.4zm-1.6 4.8c-.6.1-1.2.2-2 .2.4.6.9.9 1.5 1s1.3-.2 1.8.5c.1-.1.2-.1.2-.2.3-.3.6-.3 1-.3s.9.1 1.3-.1c.3-.4 1-.2 1.1-.9-1-.2-2-.4-2.8.4-.6.1-.2-.5-.6-.6.4-.7.6-1.3-.1-1.9-.8.3-.9.6-.5 1.7-.1.5-.4 0-.6.1 0-.3-.2-.4-.3.1zm0-.6v-1.2c-.3.7-.3.7 0 1.2z"/><path class="st6" d="M85.5 64.3c-.1 0-.2 0-.2.1-.2-.2-.4-.3-.6-.1.1.2.1.3.2.5-.4-.3-.7-.1-1.1.1 0 .3.2.4.3.5 0 .2-.1.3-.2.4H83c-.3-.4-.7-.2-1.1-.2-.4-.4-.9-.2-1.3-.2-.9-.4-1.9-.4-2.9-.4h-5.5c-1 0-1.9 0-2.9.4-.5 0-.9-.2-1.3.2-.4 0-.8-.2-1.1.2-.4-.1-.9.1-1.2-.3.1-.2.5-.2.5-.6-.3-.2-.6-.2-1-.2-.1-.3-.7-.3-.5-.8.8-.4 1.8-.3 2.7-.8.6 0 1.3.1 1.8-.2h.1c1.1.1 2.2-.2 3.4-.2 2.7 0 5.3 0 8 .2.1 0 .2.1.4.1.5.1 1 .2 1.6.1.8.5 1.8.5 2.6.7 0 .1.1.3.2.5zm-2-.4c.2.3.4.3.7.1-.2-.2-.5-.1-.7-.1-.3-.3-.6-.3-1-.1.4.2.7.1 1 .1zM69 63.7c1.1-.3 2.2-.1 3.3-.4h5.3c1.2.4 2.4.1 3.5.4.3 0 .6.1 1-.1-.3-.2-.6-.1-1-.1-1.1-.4-2.3-.4-3.5-.4h-5.3c-1.1.1-2.2 0-3.3.4-.3 0-.6-.1-1 .1.4.1.7.1 1 .1zm7.4.4c.1-.2.1-.3 0-.4-.8-.3-1.7-.4-2.5 0-.2.1-.2.3 0 .4.7.4 1.6.4 2.5 0zm2.5 0c.9.7 1.9.7 2.1 0-1.4-.4-1.4-.4-2.1 0zm-9.9 0c.5.6 1.5.6 2.1 0-.6-.4-.7-.4-2.1 0zm3.1-.2c.3.5.5.5.9.1-.3-.4-.6-.3-.9-.1zm-5.4-.1c.3.2.5.2.7 0-.1-.1-.4-.1-.7 0z"/><path class="st3" d="M49.2 91.8c-.2-.1-.2.8-.4 0 0-.2-.1-.3-.2-.5l-.2-.2c-.1-.2-.3-.2-.4-.2.1-.6 0-1.1-.5-1.5-.3-.4 0-.9-.3-1.3.7-.9 1.6-1.4 2.5-1.6.4 0 .8-.1 1.1-.4.9-.4 1.9-.8 2.8-1.3.2 0 .3-.1.4-.2l.6-.3c.1 0 .2-.1.2-.1.2 0 .4-.1.5-.3h.1c.1-.1.2-.1.3-.2l.1-.1c.1 0 .1-.1.1-.1.1 0 .2-.1.2-.2.2 0 .3-.1.4-.2h.4v.3c.4 1.3.3 1.8-.8 2.6-.4.3-.7.6-1.1.9-.3 0-.6.1-.8.4-.2.1-.4.1-.6.2-.3.1-.6.2-.8.4-.9.5-1.9.6-2.7 1.1-.3 0-.5 0-.7.2-.3.2-.6.3-.6.6.1.1.1.2.2.3.2.5.2 1.1.2 1.7zm45.7-5c-.5-.3-1-.6-1.4-1-.5-.4-.9-.9-.6-1.7.5-.6.3-1.3.6-2 .2 0 .4 0 .6-.2.3 0 .6-.1.8.2.1.6.1 1.2-.2 1.8.2.2.3.2.5.2 1.1.5 2.2 1 3.2 1.7.3.1.7.2 1 .2.1.2.4.2.6.3.5.6 1.4.6 2.1.9.9.5 1.1 1 .8 1.9-.1.2 0 .4-.2.6v.3h-.4c-.1-.2-.3-.2-.4-.2-.1-.3-.4-.4-.7-.4-.3 0-.4-.1-.6-.2-.3-.2-.6-.4-1-.4-.2-.1-.4-.2-.6-.2-.2-.1-.4-.2-.6-.2-.9-.3-1.9-.7-2.7-1.3-.4-.3-.6-.3-.8-.3zm-33 12.5c-.1 0-.1 0 0 0-.1-.3-.1-.5-.1-.6v-.3c.3-.4.1-.9.1-1.3V84.6h1.3v15.3c-.2-.1-.5-.1-.7-.2-.1-.2-.2-.3-.4-.2 0-.2-.1-.2-.2-.2z"/><path class="st7" d="M98.4 85.8c-1-.7-2.1-1.2-3.2-1.7-.2-.8 0-1.6-.1-2.4-.2-.6-.2-1.2-.2-1.8 1.2 0 2.3.2 3.4.3.2 1.9.1 3.7.1 5.6z"/><path class="st8" d="M64.8 63.8c-.3.5.4.5.5.8-.1.1-.1.2-.2.2-.8-.8-2-1.2-2.5-2.3 0-.6.3-.2.5-.2 1.3 1 1.6 1 2.3-.3 1.1.8 1.6.7 2.5-.1.4-.3.1-.8.3-1.1.4-.1.4.3.6.4 1.1 1.3 2 1.2 3-.3.4.7.9 1.2 1.8.9.6-.2 1.2-.4 1.2-1.2.2-.2.2-.6.6-.4-.1.8.2 1.3.9 1.6.9.3 1.6-.2 2.1-.9.7 1.5 1.9 1.6 3 .4.2-.1.2-.5.6-.4.2.3 0 .8.3 1.1.5.7 1.2.7 2 .5.2-.1.3-.3.6-.2 0 .2.1.4.3.5.9.6 1.3-.1 1.9-.5.2-.1.5-.1.7-.2v.3c-.3.3-.6.5-.8.8-.1.1-.3.2-.4.2h-1.3c-.4-.1-.5-.5-.8-.7-.6.3-1.2.2-1.8.2-.2-.3-.5-.3-.7-.5s-.2-.5-.5-.5c-.2.2-.5.4-.7.6-.9.1-1.7-.1-2.5-.7-.8.6-1.6.6-2.5.3-.3-.2-.4-.5-.8-.6l-.6.6c-.9.4-1.8.2-2.6-.2-.7.6-1.5.7-2.4.7-.4 0-.4-.5-.7-.6-.3 0-.3.3-.5.5s-.5.3-.7.5c-.6 0-1.3.1-1.9-.2-.2.5-.7.6-.8 1z"/><path class="st9" d="M100.8 65.9c-.1.4-.5.6-.8.9s-.3.6-.5.9c.4.3.8.1 1.2.3v1.7l-.6.3c-.3-.3-.6-.2-.9-.2h-3.7c-.3 0-.7-.1-.9.2-1.1-.4-.5-1.4-.6-2.1.4 0 .8-.1 1.2-.1.1-.5-.2-.8-.4-1.1l.2-.2c.3-.3.4-.8.8-1 .5.1 1 .6 1.5.1.4.1.2-.4.5-.4 0 .3.1.6.5.8.2-.2.4-.4.8-.5.3 0 .3.5.7.5.3-.1.6-.2.6-.6.2.2.3.3.4.5zm-4.6 1.5c.6.6 1.7.6 2.4 0-.2-.8-.2-.8-1.2-.3-.5-.2-1.1-.9-1.2.3zm-1.8 2.1h6.2c.1-.5.2-1 0-1.4h-6.1c-.3.5-.3.9-.1 1.4z"/><path class="st8" d="M83.9 65.7c.1-.1.2-.2.2-.4.2.1.3.1.5.2.2 1.3.2 1.2-1.1 1.6-.3.1-.5.2-.8.1-.1-.2-.2-.2-.3 0-1.1 0-2 .6-3.1.4-.1-.1-.3-.2-.4-.4.5-.1 1.1.1 1.6-.2.8-.4 1.7-.4 2.6-.6.2 0 .5.1.7-.1-.4-.3-.9-.3-1.3-.3-.1-.1-.2-.2-.3-.2-3.7-.6-7.4-.7-11.1-.4-1.6.1-3.2.3-4.7.8-.2-.1-.4.2-.6-.1.3-.5.9-.2 1.2-.6.4 0 .8.1 1.1-.2.4-.1.9.2 1.3-.2 1 .1 1.9-.1 2.9-.3h5.5c1 .1 1.9.4 2.9.3.4.4.9.2 1.3.2.3.3.7.2 1.1.2.2.4.5.5.8.2z"/><path class="st10" d="M63.3 53.4c.2-.3.5-.3.7-.6.2-.4.7-.3 1.1-.1.8.4.8.5 1.6.4.3-1.1 1.2-1.5 2.5-1.2-.1.2-.1.4-.2.6-.5.3-.6.9-1.1 1.1 0-.1-.1-.3-.1-.3-.3 0-.3.3-.4.4-.6 1-.2 1.8.3 2.7l-.1.1c0 .1.1.1.1.2v.4c-.5.5-.6-.3-.9-.3-.3-.1-.4-.2-.5-.5-.2-.8-.3-1.6-.1-2.4h-2.3c.5-.6 1.3 0 2.1-.5h-2.7zm1.3-.3c.1 0 .1 0 .2-.1v-.1h-.2c-.1.1-.1.1 0 .2z"/><path class="st11" d="M65.2 101.4c-.4-.2-.8-.2-1.1-.5l.1-.1c.2 0 .5.1.8 0V84.4c.6.1 1.3-.2 1.8.2 0 .2-.1.4-.1.5v15.5c0 .3.1.6.1.9-.3 0-.6 0-.8-.2.7-.1.5-.6.5-1V85.6c0-.3.1-.6-.2-.9-.3-.1-.7-.2-1.1 0 0 .1-.1.3-.1.4v15.3c0 .4.2.7.5.9 0 0-.2 0-.4.1z"/><path class="st12" d="M102 101.6c.2.4.2.8.1 1.1-.1.1-.2.1-.2.1-1.4-.5-2.8-.6-4.2 0-.3.1-.8 0-1.1-.1-1-.5-2-.5-3 0-.2.1-.5.2-.8.1-.2-.4-.1-.8.1-1.2.1.5.5.3.8.3 1-.2 1.9-.3 2.8.2.5.2 1.1.3 1.6 0 .9-.5 1.7-.4 2.6-.2.5 0 1 .3 1.3-.3zm-45.1 1.2c-1.1-.4-2.3-.6-3.5 0-.5.2-1 .2-1.5 0-1-.5-2-.5-3 0-.2.1-.5.2-.8 0-.2-.4-.2-.8 0-1.2.4.5.9.3 1.4.2.6-.1 1.2-.2 1.8 0 .9.4 1.8.4 2.6 0 .8-.3 1.5-.2 2.2 0 .3.1.6.4 1 .2.3.2.2.5.2.7-.1.1-.3.1-.4.1z"/><path class="st10" d="M81.9 51.8c.8.1.7 1 1.3 1.3.6 0 .7-1.1 1.6-.5.1.1.2.8.6.5.5-.4.7.1 1.1.1-.8.4-1.7 0-2.6.3.6.2 1.1.1 1.6.1.3 0 .7 0 .8.4-.8-.2-1.6-.1-2.5-.1v2.2c.6.3 1.3-.1 1.9.3-.9 0-1.8 0-2.7.2-.2-.4-.3-.8-.2-1.1.2-1.4-.4-2.4-1.5-3.2.4 0 .5-.3.6-.5zm1.4 3.3c-.1.1-.2.2-.1.4 0-.1.1-.2.1-.4z"/><path class="st13" d="M59.6 80.4c.4-.7.4-.9.3-2.6-.2-.4-.6-.2-.8-.5h.9v-8.9c0-.3-.1-.8.5-.8 2.8.2 5.6.1 8.4 0 .2 0 .4-.1.6-.2h1.1c.4.2.8.2 1.2.2h3.3v.2c-4.9-.1-9.7 0-14.6 0-.2 1-.1 1.8-.1 2.6v13.8l-.1.1c-.1 0-.1-.1-.2-.1 0-1 0-2 .1-3.1-.2-.2-.3-.5-.6-.7z"/><path class="st8" d="M63.3 53.4H66c-.8.5-1.6-.1-2.1.5-.9.1-1.7.5-2.4 1-1 .8-1.2 1.8-.4 2.6-.2.6 0 1.4-.5 1.9-.3-.1-.1-.6-.5-.5-.2.3-.4.5-.5.8l-.8-.8c.1-.4.6-.3.7-.6-.1-.1-.2-.2-.2-.3.3-.3.1-.8.3-1.1.4.1.2.6.6.6 0-.5 0-.9-.1-1.3 0-.8.8-1.2 1-1.9.4.1.5-.1.4-.5.6-.1 1.2-.3 1.8-.4z"/><path class="st9" d="M55.8 65.2c.4.6.2 1-.3 1.4-.3.2-.5.5-.6.9-.3-.5-.6 0-.9 0h-.1c-.1-.2-.1-.4-.3-.4-.8.1-1.7-.2-2.4.4h-.1c-.1-.5-.3-.8-.8-.5-.1-.3-.7-.3-.7-.8.5-.2 1.1-.1 1.3-.8.5.1.4.7.7.9.8.2 1.5-.5 2.2 0 .2-.3.3-.6.6-.7.3.2.3.6.8.4.6-.2.6-.5.6-.8z"/><path class="st5" d="M57.1 102.1c-.4.2-.7-.1-1-.2-.7-.2-1.5-.3-2.2 0-.9.3-1.8.4-2.6 0-.6-.3-1.2-.2-1.8 0-.5.1-1 .3-1.4-.2.2-.2.6-.1.8-.3 1-.5 2-.3 3 0 .5.3 1 .3 1.5 0 .3 0 .5 0 .7-.2.8-.1 1.7-.1 2.5.2.3.1.5.2.7.3.1.1-.1.2-.2.4z"/><path class="st14" d="M54.5 65.5c-.3.2-.4.5-.6.7-.7-.5-1.5.2-2.2 0-.3-.2-.2-.8-.7-.9-.2-.4-.5-.6-1-.7.3-.4.6-.4 1.1-.4.3.5.6 1 1.3 1.3.1-.5-.1-.8-.2-1.2-.3 0-.5-.1-.8-.1.8 0 1-.7 1.4-1.5.3.9.6 1.4 1.3 1.6-1 .1-1 .1-.9 1 .5.1.5-.5.9-.6l.4-.4c.4-.1.7 0 .9.4-.4.2-1 .1-.9.8z"/><path class="st5" d="M102 101.6c-.3.6-.9.3-1.3.2-.9-.1-1.7-.3-2.6.2-.5.3-1.1.2-1.6 0-.9-.5-1.9-.4-2.8-.2-.3.1-.7.2-.8-.3.2-.1.5-.2.7-.3.2 0 .4 0 .4-.2h2.1c.1.2.3.2.5.3.4.3.9.3 1.3.1 1.1-.5 2.2-.4 3.3-.1.2.2.6.1.8.3z"/><path class="st10" d="M79.3 67.6c1.1.2 2-.4 3.1-.4.3.4.7.3 1.1.3h5.4c.4 0 .8-.1 1.2.1 0 .1 0 .1-.1.2H75.2s-.1-.1-.1-.2h4.2zM80.4 51c.2 0 .2.2.2.4l-.4.4c-1 0-2.1.2-3.1-.2-.3 0-.6 0-.4.4 0 .2-.6.3-.2.7-.3.4-.2.9-.2 1.4-.4-.3-.3-.8-.3-1.2 0-.5 0-1-.6-1.2-.5-.2-1-.1-1.4.4h-.5c-.1-.2-.2-.4-.2-.6.2-.1.4-.3.5-.6 1 .8 1.2.8 2.2.1.1.2.3.4.6.3.7-.3.7-.3 1.1.3.5-.1.7-.8 1.3-.7.4 0 0 .6.5.7.3 0 .2-.2.3-.4.2 0 .4 0 .6-.2z"/><path class="st15" d="M54.4 87.3c.2-.3.4-.4.8-.4v.4c-.1 2.6-.1 5.2 0 7.8v.4h-4.8v-.2h3.2v-7c0-.4-.2-.4-.5-.4.2-.2.5-.3.8-.4v7.1c0 .2-.1.5.2.7h.5c.3 0 .4-.2.4-.5v-7.1c0-.3-.1-.6-.6-.4z"/><path class="st8" d="M76.4 49.8c.2.4.2.7-.1 1-.8-.2-1.6-.2-2.4 0-.3-.2-.3-.5-.2-.8.3 0 .7.1 1.1-.2V49c.1-.6.1-1.1-.7-1.4.7-.2.7-.9 1.4-.9-.1.5.3.6.5.9-.5.5-.5.5-.5 1.3 0 .3-.1.6.1.9.2.3.5.3.8 0z"/><path class="st11" d="M90.2 95.6c-.2-.4-.1-.8-.1-1.2v-9.8h-9.9c-.1-.1-.1-.2 0-.3h10.1c0 3.8.1 7.5-.1 11.3z"/><path class="st16" d="M56.4 99c.1 0 .3 0 .4.1.2.2.4.2.6.2 0 .2-.1.3-.1.5-.4.2-.7.2-1.1 0-.6-.3-1.2-.4-1.8-.2-.2 0-.4 0-.5.2-.7.1-1.5.1-2.2 0-.1-.2-.3-.2-.5-.2-.5-.3-1-.4-1.4 0-.2.1-.4.1-.5.2-.3-.1-.6.1-.9-.3.3-.2.5-.3.8-.4 2.3.1 4.8 0 7.2-.1z"/><path class="st10" d="M90.5 55.8c.1.5.3 1 .8 1.1.1.2 0 .4-.1.4s-.2.1-.3.1c.1.2.5 0 .5.3-.4 1-.8 1.9-1.1 2.9-.2 0-.4 0-.7.1.1-.2.5-.3.3-.6-.5-.4-1.1.1-1.6 0 .2-.4 1-.2.9-.8.7.3.1-.3.2-.4 1.2-.3.8-1.2.8-2 0-.2 0-.5-.2-.7.1-.2.3-.3.5-.4zm.3 2.2c-.1 0-.2.1-.2.2 0 0 .1.1.2.1s.2-.1.2-.2c-.1 0-.2 0-.2-.1z"/><path class="st14" d="M59.9 84.3c.1 0 .1.1.2.1 0 .1.1.1.1.2v9.8h-.3c-.2-.2-.1-.5-.1-.7v-8.9c0-.1.1-.3.1-.5z"/><path class="st17" d="M56.4 99c-2.4.1-4.9.2-7.3 0 .3-.4.2-.9.2-1.4 0-.3 0-.6.4-.6h5c.4 0 .8 0 .7-.5.1.4.4.5.8.6.1.7-.1 1.3.2 1.9zm-.4-1.6h-6.5c0 .5-.2 1 .1 1.4 2.1.1 4.2.1 6.4 0 .1-.5.1-.9 0-1.4zm34.3-13.1h-.2V67.8c0-.1 0-.1.1-.2.4.3.2.7.2 1.1.1 2.9-.1 5.7.1 8.6-.1 1.1-.1 2.1 0 3.2-.3 1.3-.1 2.6-.2 3.8z"/><path class="st18" d="M55.4 96.6c0 .6-.4.5-.7.5h-4.5v-.6c1.8 0 3.5 0 5.2.1 0-.1 0-.1 0 0z"/><path class="st9" d="M100.8 97.1c.4.6 0 1.3.3 1.9l-.1.1c-.5 0-1.1 0-1.6-.1-.8-.1-1.6.4-2.4.2-1.1-.3-2.2-.2-3.2-.2v-.2c.1-.5.1-1 .1-1.5h.4c-.1.5-.2.9.1 1.5 2.1.1 4.3.1 6.4 0 .2-.5.1-1 .1-1.5-.1-.1-.1-.1-.1-.2z"/><path class="st19" d="M102.4 90.8c-.4.4-.9.8-1.1 1.5-.8-.9-.9-1.3-.4-2.2.3-.1.5-.1.8-.2.1.2.3.2.4.2.1.2.2.5.3.7z"/><path class="st20" d="M73.4 51.4c.1.2.2.4.2.6-.1.3-.3.5-.7.4-.2 0-.5 0-.6-.1-.7-.5-1.5-.4-2.2 0-.3.3-.7.1-1.1.2.1-.2.1-.4.2-.6l.3-.3c1 .4 2 .4 3 0 .3-.2.2-.6.4-.8.4 0 .4.3.5.6z"/><path class="st21" d="M69.4 67.4c-.2.1-.4.2-.6.2-2.8 0-5.6.1-8.4 0 1.2-.3 2.5-.1 3.7-.1h3.3c-.3-.2-.4-.3-.6-.4V67h1.3c.4.4.9.2 1.3.2.1 0 0 .1 0 .2z"/><path class="st17" d="M55.4 70.1c-.1.1-.1.2-.2.3-1.4-.2-2.8-.1-4.2-.1-.2 0-.4 0-.5.3-.2-.2-.6-.4-.7-.7v-.2h6.1c-.1.1-.3.2-.5.4-1.7-.5-3.4-.1-5-.2v.2h5z"/><path class="st20" d="M86.3 54c-.1-.4-.5-.4-.8-.4-.5 0-1 .1-1.6-.1.9-.3 1.8.1 2.6-.3.5-.7 1.1-.4 1.7-.3.3.4-.3.7-.1 1.1-.3 0-.7-.4-.9.2-.2-.2-.6-.2-.9-.2z"/><path class="st21" d="M50.3 95.5h4.8c.4.3.6.6.2 1v-.4c-1.7-.2-3.5-.2-5.2 0v.4c-.4-.4-.2-.7.1-1h.1z"/><path class="st10" d="M60.2 56.2c0 .4 0 .9.1 1.3-.4-.1-.2-.6-.6-.6-.2.3 0 .8-.3 1.1-.2 0-.3.3-.6.2-.3-.5.3-.5.5-.8-.7-.4-.1-1.1-.4-1.6.4-.4.6 0 .9 0 .1.1.2.3.4.4z"/><path class="st21" d="M94 65.9c-.3-.8.2-1.3.8-1.4.7-.1 1.3-.4 2-.3-.1.1-.1.3-.2.4-.1 0-.2 0-.2.2h.4v.2c-.8 0-1.6.2-2.4.4-.1.2-.2.3-.4.5z"/><path class="st22" d="M58 77.1h-5.3c.3-.2.6-.2.9-.2H55c.1-.1.2-.1.2-.2.1-1.6.2-3.1-.1-4.7 0-.1 0-.1-.1-.2v-.2h.2v5.1c1 .3 2 0 2.8.4z"/><path class="st19" d="M56 81.9c.2 0 .5 0 .6.2l.2.2c-.1.2-.3.4-.3.7-.2 0-.3.1-.4.2-.1.1-.1.2-.2.2s-.1.1-.1.1l-.1.1c-.1 0-.3 0-.3.2h-.1c-.3-.3-.1-.8-.2-1.1 0-.6.3-.9.9-.8z"/><path class="st18" d="M100 70.4v.3c-1.7.2-3.4.1-5.1 0v-.3c1.7-.2 3.4-.2 5.1 0z"/><path class="st14" d="M96.9 65v-.2l-.2-.2c.1-.1.1-.3.2-.4.3-.2.1-.8.6-.8.3.3.4 1 1.1.9v.4c-.2 0-.5-.1-.6.2v.2c-.1.1-.2.1-.2.2-.2 0-.1.5-.5.4 0-.4-.2-.6-.4-.7z"/><path class="st21" d="M98.7 64.6v-.4c.4.1.8.1 1.2.2.9.2 1.1.5 1.1 1.5-.1-.2-.3-.3-.4-.5-1-.2-1.8-.4-2.6-.4v-.2c.3 0 .5 0 .7-.2z"/><path class="st18" d="M50.5 70.6c.1-.3.3-.3.5-.3 1.4 0 2.8-.1 4.2.1v.3c-1.6.1-3.1.1-4.7-.1z"/><path class="st23" d="M94.9 86.8c.2 0 .4 0 .5.2-.4.1-.3.5-.3.7v7.8h-.2v-8.7z"/><path class="st6" d="M88.3 60c.5.2 1.1-.3 1.6 0 .2.3-.2.4-.3.6-.3.2-.6.4-.8.6-1 0-.7-.6-.6-1.2 0 .1.1.1.1 0z"/><path class="st22" d="M60.2 56.2c-.1-.1-.2-.3-.4-.4 0-.3-.1-.5-.4-.8.8 0 .4-1.1 1.3-1 .2.1.3.1.5.2-.3.8-1.1 1.2-1 2z"/><path class="st6" d="M61.3 61.3c-.2-.3-.5-.4-.9-.6 0-.2-.4-.3-.2-.6.2-.2.4-.2.7-.2.3.1.7 0 1 .3 0 .3.1.7.1 1-.2.1-.5.1-.7.1z"/><path class="st21" d="M55.2 95.1c-.1-2.6-.1-5.2 0-7.8.2.4.1.8.1 1.2V94c0 .3.1.7-.1 1.1z"/><path class="st10" d="M72.5 51.6c-1 .4-2 .3-3 0 0-.2-.1-.4.2-.6.4.6 1.1.6 1.8.6.1-.3-.2-.8.4-.8.5 0 .5.3.4.7-.2.1.1.1.2.1z"/><path class="st23" d="M99.4 88.7c.4 0 .7.2 1 .4-.6 0-.4.5-.4.8v5.6h-.2v-5.8c0-.3 0-.7-.4-1z"/><path class="st17" d="M94.3 97.3h-.4c.2-.4.6-.2.8-.4.2.3.4.2.7.2h4.1c.2 0 .5.1.7-.2.2.1.4.2.7.3v.2c-2.2-.1-4.4-.1-6.6-.1z"/><path class="st3" d="M50 64.7c.5 0 .7.3 1 .7-.2.7-.9.6-1.3.8-.1-.3-.3-.7-.2-1.1.1-.3.3-.3.5-.4z"/><path class="st10" d="M50.3 95.5h-.2c0-1.8 0-3.6-.1-5.4 0-.3.2-.8-.4-.9.2-.2.5-.2.7-.2v6.5c0-.1 0-.1 0 0z"/><path class="st13" d="M99.3 80.4c.8 0 1.3.6 2 .6-.3.5-.8.1-1.2.5 0 .7-.5 1.4.3 2.1-.1 0-.3.1-.4.1h-.2c0-.8-.1-1.6 0-2.5 0-.4-.2-.6-.5-.8z"/><path class="st14" d="M94.7 96.2c-.3-.3 0-.4.2-.5 1.7.1 3.4.1 5.1 0 .2.1.5.2.2.5h-.2c-.4-.4-1-.2-1.5-.2-1.2.1-2.4-.2-3.5.2h-.3z"/><path class="st21" d="M88.4 54.1c0-.3.2-.5.5-.7.6.2 1.1.5 1 1.3h-1.1c0-.3-.2-.4-.4-.6z"/><path class="st10" d="M50.5 77.5c-.2.2-.5.2-.8.2.4-.3.3-.7.3-1.1v-4c0-.3-.1-.7.2-1v5.2c.1.2 0 .5.3.7z"/><path class="st12" d="M102 101.6c-.2-.2-.5-.1-.7-.3.1-.2.4 0 .6-.2 0-.3-.4-.2-.5-.4.2-.2.6.1.7-.4-.3-.4-1.1-.2-1.4-.7.4-.2.8.3 1.2 0-.2-.3-.6-.2-.8-.5l.1-.1c.3.1.6.1 1 .2-.2.8.2 1.6-.2 2.4z"/><path class="st13" d="M49.4 83.5c.4 0 .7-.1.7-.6s.1-.9-.1-1.4c-.3-.4-.7-.1-1-.4.5-.3.9-.5 1.4-.5 0 1-.1 2.1-.1 3.1h-.2c-.3-.1-.5-.2-.7-.2z"/><path class="st17" d="M100 96.2h.2v.7c-.2-.3-.5-.5-.9-.4h-3.7c-.4 0-.7.2-.9.4v-.7h5.3z"/><path class="st9" d="M50.3 71.4c-.5-.1-.6-.3-.2-.7v.2c.2.3.4.2.7.2h3.9c.2 0 .5 0 .7-.2.2.3.2.3-.2.5-1.7 0-3.3-.1-4.9 0z"/><path class="st23" d="M100.2 77.6c-.2.1-.4.1-.5-.1.2-1.9.1-3.8.1-5.7v-.2h.2v4.9c0 .4-.2.8.2 1.1z"/><path class="st3" d="M54.5 65.5c-.1-.7.5-.6.9-.7.2.1.4.2.4.4 0 .4-.1.6-.5.8-.4.1-.5-.3-.8-.5z"/><path class="st14" d="M67 65.7c-.3.4-.9.2-1.2.6.2.3.4 0 .6.1.1.1.2.2.2.3.1.1.1.3.2.4v.1c-.5-.1-1-.1-1.3-.4-.3-.5.2-.8-.1-1.2.1 0 .2 0 .3-.1.4.3.9.1 1.3.2z"/><path class="st12" d="M93.8 98.8v.2c-.1.3-.6.2-.8.5.2.3.6 0 .8.2-.2.4-1 0-.9.7.2.2.4 0 .6.1.2.3-1.1.2-.2.7h.3c-.2.1-.5.2-.7.3-.4-.7 0-1.5-.2-2.3.4-.2.8-.1 1.1-.4z"/><path class="st14" d="M50.3 67c.5-.3.7.1.7.5 0 .2 0 .4-.1.6-.5.1-1-.1-1.5.2-.1.4-.1.9-.1 1.3l-.1.1c-.2-.6-.2-1.2-.1-1.7.4-.3.8-.1 1.1-.2.4-.3 0-.5.1-.8z"/><path class="st6" d="M100.3 70.9c.1.1.1.1 0 .2-1.9 0-3.8.2-5.6-.1 1.8-.2 3.7 0 5.6-.1z"/><path class="st9" d="M94.7 71c1.9.3 3.8.1 5.6.1l-.3.3h-5.1c-.2-.1-.2-.2-.2-.4z"/><path class="st22" d="M97.4 77.3c-.3-.3-.7-.2-1-.2h-4.2c.9-.4 1.8-.1 2.7-.3h1.7c.3.1.7 0 .8.5z"/><path class="st17" d="M100 70.4c-1.7-.2-3.4-.1-5.1 0-.1-.1-.1-.2-.2-.3h5.5c-.1.1-.1.2-.2.3zm.3.5c-1.9.1-3.7-.1-5.6.1.1-.1.1-.3.2-.4 1.7.1 3.4.1 5.1 0l.3.3z"/><path class="st12" d="M49.1 99c-.3.1-.5.3-.8.4.2.4.6.2.9.3-.2.4-1 0-1 .6.1.3.5.2.7.3-.1.2-.5.1-.5.5.2.2.4.1.6.2-.2.3-.5.1-.8.3-.4-.8-.1-1.6-.1-2.3.3-.3.6-.2 1-.3z"/><path class="st17" d="M89.4 54.7h.5c.2.4.5.7.6 1.1-.2.1-.3.2-.4.4v.7c-.1.1.1.4-.4.4.5-1-.2-1.7-.3-2.6z"/><path class="st19" d="M51.4 64.3c.3 0 .5.1.8.1.2.4.3.7.2 1.2-.7-.2-1-.8-1.3-1.3h.3z"/><path class="st17" d="M50.1 70.9v-.2c.1-.1.3-.1.4-.2 1.5.2 3.1.2 4.6 0 .1.1.2.2.2.3-1.7.1-3.4.1-5.2.1z"/><path class="st16" d="M73.8 50.8c.8-.2 1.6-.2 2.4 0l-.1.1c-1.1.7-1.2.7-2.3-.1z"/><path class="st23" d="M95.2 76.9h-.3v-5.2h.2v.2c.1 1.6.1 3.3.1 5z"/><path class="st20" d="M100 95.7c-1.7.1-3.4.1-5.1 0v-.2h.2c1.5.1 3 .1 4.5 0h.2c.2.1.2.1.2.2zm-4.9-24h-.2v-.2h5.1v.2h-.2c-1.6-.1-3.1-.1-4.7 0z"/><path class="st10" d="M60.9 59.9c-.2 0-.5 0-.7.2-.2.3.2.4.2.6-.2 0-.4-.1-.6-.1-.2-.2-.1-.6-.3-.9.2-.3.4-.5.5-.8.4-.1.2.4.5.5.2.2.3.3.4.5zm-3.6 39.9c0-.2.1-.3.1-.5.3 1.2.3 2.4 0 3.5 0-.3.1-.5-.2-.7 0-.2.2-.3.1-.5-.2-.1-.5-.2-.7-.3.8 0 .8 0 .6-.5.2-.3.1-.7.1-1z"/><path class="st21" d="M80.2 51.8l.4-.4c.4.2 1-.2 1.3.4-.2.2-.2.5-.6.5s-.7-.5-1.1-.5z"/><path class="st20" d="M50.3 71.4c1.6-.1 3.2-.1 4.9 0v.2h-4.9v-.2c0 .1 0 .1 0 0z"/><path class="st23" d="M83.3 101.9c-.6-.4-1.4-.2-2.1-.4-.2-.1-.5 0-.7-.2.9-.1 1.8.3 2.7.2.3 0 .7-.1 1 .2-.3.2-.6.3-.9.2z"/><path class="st11" d="M84.2 101.7c-.3-.3-.6-.2-1-.2.9-.2 1.8-.4 2.8-.6-.5.5-1.2.5-1.8.8z"/><path class="st23" d="M66.1 101.3c.2.2.5.2.8.2h1.3c.1 0 .2 0 .4.1-.5.5-1.2 0-1.8.4-.6.1-1.1-.3-1.6-.5.2 0 .4-.1.5-.1.2-.1.3-.1.4-.1z"/><path class="st21" d="M75.4 46.8c-.6-.1-.7.7-1.4.9.7.3.7.8.7 1.4-.1 0-.2 0-.3-.1 0-.3.2-.6-.2-.8-.4-.2-.6-.6-.3-.8.5-.2.6-1.3 1.5-.6z"/><path class="st12" d="M74.4 49c.1 0 .2 0 .3.1v.8c-.4.2-.7.1-1.1.1.1-.5.5-.7.8-1z"/><path class="st9" d="M55 79.8c.9 0 1.8-.2 2.6.2h-2.2c-.2.6-.3 1.2 0 1.8H55c.1-.7.2-1.4 0-2z"/><path class="st13" d="M65.8 65.4c-.1 0-.2 0-.3.1-.3-.1-.5-.2-.4-.6.1-.1.1-.2.2-.2.3 0 .7 0 1 .2 0 .2-.3.3-.5.5z"/><path class="st11" d="M95.1 81.7c.1.8-.1 1.6.1 2.4-.2 0-.4 0-.5-.2.3-.6.3-1.2.2-1.8-.2-.3-.5-.2-.8-.2.3-.3.6-.1 1-.2z"/><path class="st9" d="M73 103.3c1.2-.1 2.4 0 3.6 0v.2c-1.1-.1-2.4.1-3.6-.2z"/><path class="st14" d="M54 67.4c.3 0 .6-.5.9 0 0 .3.1.4.4.4.3 0 .6-.1.8.2l-.1.1c-.6 0-1.2 0-1.7-.1-.1-.1-.2-.4-.3-.6z"/><path class="st13" d="M84.6 65.5c-.2-.1-.3-.1-.5-.2-.1-.1-.4-.2-.3-.5.3-.2.7-.3 1.1-.1v.1c.3.4-.1.5-.3.7z"/><path class="st17" d="M59.9 94.4h.3c0 1 .3 1.9.6 2.7-.1 0-.1.1-.2.1-.6-.7-.6-1.7-.7-2.8z"/><path class="st6" d="M88.4 54.1c.2.2.4.3.3.6-.6 0-1-.2-1.5-.5.2-.6.6-.2.9-.2.1.1.2.1.3.1z"/><path class="st10" d="M50.1 83.7h.2v1.8c0 .3 0 .6.4.6-.3.3-.7.4-1.1.4.3-.2.5-.4.5-.9v-1.9z"/><path class="st23" d="M55.1 81.7h.4c.2 0 .4 0 .6.2-.6-.1-.9.2-.9.9 0 .4-.1.8.2 1.1-.1.2-.3.3-.5.3.3-.8-.2-1.7.2-2.5z"/><path class="st21" d="M75.4 49c0-.8 0-.8.5-1.3-.2-.3-.7-.4-.5-.9.2.1.3.4.6.5.4.2.5.6.1.8-.5.2-.4.6-.4 1-.2-.1-.2-.1-.3-.1z"/><path class="st12" d="M75.4 49h.2c.3.2.7.4.8.8-.2.3-.6.2-.9.1-.2-.2-.1-.6-.1-.9z"/><path class="st10" d="M61.1 54.3c-.2-.1-.3-.1-.5-.2-.1-.7.4-.7.9-.7v.4c.2.4 0 .5-.4.5z"/><path class="st23" d="M99.8 83.7h.2v2.6c-.2 0-.5 0-.6-.3.3 0 .4-.2.4-.5v-1.8z"/><path class="st10" d="M76.7 103.4v-.2c.7-.3 1.5-.2 2.2-.3.1 0 .1 0 .2.1-.8.4-1.6.2-2.4.4z"/><path class="st23" d="M79.1 103c-.1 0-.1 0-.2-.1.7-.2 1.5-.4 2.3-.4-.7.4-1.4.5-2.1.5z"/><path class="st13" d="M93.4 82.1c-.3.6-.1 1.4-.6 2 .3-.6-.2-1.5.6-2z"/><path class="st19" d="M88.7 61.8c0 .2-.1.3-.2.4h-.8c0-.2 0-.4.1-.6.3-.1.6-.1.9.2z"/><path class="st13" d="M47.4 89.4c.5.4.6.9.5 1.5-.6-.3-.3-1-.5-1.5z"/><path class="st9" d="M94 65.9c.1-.2.3-.3.4-.5 0 .4.6.6.5 1.1l-.2.2c-.2-.2-.6-.4-.7-.8z"/><path class="st13" d="M63.1 62.4c-.2 0-.5-.4-.5.2-.3-.2-.7-.1-.9-.4.4 0 .7-.1.7-.6.3.3.7.4 1.2.4-.2.1-.4.2-.5.4z"/><path class="st19" d="M62.4 61.5c0 .5-.2.7-.7.6-.1 0-.2-.1-.2-.3.2-.3.5-.3.9-.3z"/><path class="st14" d="M85.2 63.5h1.3c-.3.3-.6.6-1 .8-.1-.2-.2-.4-.3-.5v-.3z"/><path class="st13" d="M88.7 61.8c-.3-.3-.6-.2-.9-.2.2-.3 0-.5-.2-.7.4-.1.3-.5.7-.7-.1.5-.4 1.2.6 1.2-.2 0-.2.2-.2.4zm-39.5 30v-1.7c.3.5.5 1.1 0 1.7zm52.5-2c-.3.1-.5.1-.8.2.1-.2.2-.4.1-.7.3.1.6.2.7.5z"/><path class="st14" d="M56.1 68c.1.6.3 1.1-.1 1.6 0-.5 0-1 .1-1.6z"/><path class="st11" d="M62.6 99.7c.2.1.5.1.7.2h.2c0 .1.1.3.1.4l-.1.1c-.3-.2-1-.1-.9-.7z"/><path class="st13" d="M62.3 61.5c-.3 0-.7-.1-.8.4-.1-.2-.2-.4-.2-.6.2 0 .5 0 .7-.1h.2c0 .1.1.2.1.3z"/><path class="st9" d="M49.4 65.1c-.1.4 0 .7.2 1.1-.7-.3-.4-.7-.2-1.1zm35.5-.3c-.1-.2-.2-.4-.2-.5.2-.2.4-.1.6.1-.1.1-.3.2-.4.4z"/><path class="st13" d="M56.7 83c0-.3.1-.5.3-.7.4.2.1.5.2.7h-.5z"/><path class="st8" d="M61.5 53.4c0-.2 0-.4.3-.5.2.4 0 .5-.3.5z"/><path class="st11" d="M86.4 100.6c.1-.3.3-.4.6-.4-.1.3-.3.5-.6.4z"/><path class="st13" d="M102.4 90.8c-.1-.3-.1-.5-.2-.8h.4c0 .3.1.6-.2.8z"/><path class="st21" d="M80.4 51c-.2.2-.4.1-.6.2.1-.3.3-.6.6-.2z"/><path class="st11" d="M64.1 100.8c-.3 0-.5-.2-.7-.4l.1-.1c.3.1.6.2.6.5z"/><path class="st13" d="M87.7 62.2h.8c-.2.3-.5.2-.8.3v-.3z"/><path class="st21" d="M50.1 96.5v.5h-.5c.2-.2.3-.4.5-.5z"/><path class="st9" d="M54.5 64.4l-.4.4v-.4h.4z"/><path class="st11" d="M62.2 99.5c.2 0 .4 0 .4.2-.2.1-.3 0-.4-.2z"/><path class="st13" d="M94.1 81.9c-.1.2-.4.2-.6.2.1-.2.3-.2.6-.2z"/><path class="st10" d="M56.9 102.8h.5c-.2.3-.4.2-.5 0z"/><path class="st11" d="M85.9 100.8c.1-.2.3-.3.5-.2-.1.3-.3.3-.5.2z"/><path class="st14" d="M49.9 69.6v.2c-.2 0-.3-.1-.5-.1 0-.1.1-.1.1-.1h.4z"/><path class="st17" d="M60.8 97.8c-.2-.1-.2-.3-.2-.4.1 0 .1-.1.2-.1.1.2.1.3.2.5-.1-.1-.1-.1-.2 0z"/><path class="st17" d="M61.1 98.2c-.2-.1-.2-.3-.2-.4.1 0 .1-.1.2-.1.1.1.2.3.2.4-.1 0-.2 0-.2.1z"/><path class="st13" d="M48.5 91.4c.2.1.2.3.2.5-.1-.2-.2-.3-.2-.5zm-.6-.5c.2 0 .3.1.4.2-.2.1-.3 0-.4-.2z"/><path class="st17" d="M61.8 98.6v.5c-.1-.1-.2-.3-.4-.4l.1-.1h.3z"/><path class="st10" d="M57.4 99.3c-.2 0-.4 0-.6-.2.2-.1.4-.1.6.2z"/><path class="st14" d="M86.5 63.5c.1-.1.3-.2.4-.2-.1.1-.3.2-.4.2z"/><path class="st13" d="M48.3 91.1l.2.2c-.1.1-.2 0-.2-.2zm8.6-8.7l-.2-.2c.1-.1.2 0 .2.2zm-7.7 7.7c-.1-.1-.1-.2-.2-.3.1 0 .2.1.2.3zm7.9-6.7c.1-.1.1-.1 0 0z"/><path class="st11" d="M61.9 99.3c.1 0 .3.1.3.2-.1-.1-.2-.2-.3-.2z"/><path class="st17" d="M61.4 98.7c0-.1-.1-.2-.1-.3l.1-.1c.1.1.1.2.2.2l-.2.2zm-.1-.3c-.1 0-.2-.1-.2-.2l.2-.2s.1.1.1.2c-.1.1-.1.1-.1.2z"/><path class="st10" d="M82.4 67.2c.1-.2.2-.2.3 0h-.3z"/><path class="st20" d="M80 85.7c.3 0 .7.2.9.2 1.1 0 2.2.2 3.3 0 .6-.1 1.1-.3 1.5 0 .5.4.9.3 1.3 0s.8-.2 1.2.1c.3.4.2.7-.1 1.1-.4.5-.5.9 0 1.4s.5 1.1 0 1.5c-.4.3-.4.9-.2 1.1.7.7.5 1.3-.1 2 .8.8.8 1.6 0 2.4-.2.2-.2.6-.1.9.1.6-.1 1-.7 1.2-.5.1-.8.4-1 1-.2.5-.7.8-1.3.7-.6-.1-1-.1-1.4.3s-.9.4-1.3 0-.8-.4-1.3-.3c-.7.2-1.2-.1-1.5-.8-.2-.5-.5-.8-1-.9-.6-.1-.9-.5-.7-1.1.2-.5 0-.9-.4-1.3-.5-.4-.5-1-.2-1.5s.4-.8 0-1.3c-.3-.4-.2-.7.1-1.1.4-.6.3-1.2-.3-1.6.1-.1.2-.2.2-.3.3-.1.9.2.9-.5.1 0 .2-.1.3-.2.6.5.4.9 0 1.4-.3.4-.3.8 0 1.2.2.3.6.6.9.4.6-.5 1.3-.5 2-.7-.3-.7-1.3-.5-1.5-1.2-.2-.6-.6-1.2-.6-1.9.1 0 .1-.1.2-.1.3.3.6.7 1.1.8.5.1 1 .5 1 1.1 0 .7.5 1 1 1.5 0-.6.2-1.1-.1-1.4-.6-.8-.4-1.5.1-2.2-.2-.3-.4-.7-1-.7-.4.7-1.1.6-1.9.5.1-.2.1-.4.2-.6.2-.1.6 0 .8-.2-.1-.3-.5-.2-.5-.5.1-.1.2-.2.2-.4zm1.8 6v.8c-.2-.1-.4-.2-.6 0-.7.5-1.3.5-2.1 0-.6-.4-1.1 0-1.3.8.6.5.9 1.2.3 1.9-.2.3-.1.6.4.8.4-.4.9-.6.8-1.3 0-.5.4-1 .8-1 .8-.1 1.1-.7 1.6-1.2.3.2.7.4 1.1.3-.1.9-.4 1.7.4 2.5.3.3.3.9-.2 1.3s-.4 1-.2 1.5c.1.5.7.7.9.3.5-.8 1.2-.9 2-.9.3-1.3.1-1.7-1-2-.5-.2-1-.6-1-.9 0-.8-.6-1.2-1-1.7.2-.1.3-.3.5-.4.4.5.7 1 1.5 1.2.5.1.9.5.9 1.2 0 .6.4 1 1 1.1.3-.3.3-.5.1-.8-.3-.5-.2-1 0-1.4s.5-.7.1-1-.7-.4-1.2-.1c-.6.4-1.1.4-1.7 0-.2-.2-.5-.2-.7-.1v-.8c.3.1.6.1.9-.2.4-.4 1-.4 1.5-.1.4.4.8.5 1.2.1.5-.4.5-1 .1-1.5s-.4-1.1 0-1.6c.2-.3.3-.6 0-1-.4.7-1.3 1-1.2 2 0 .4-.4.8-.7.9-.9.1-1.3.8-1.8 1.3-.4-.5-.9-.4-1.4 0-.2-.1-.3-.5-.7-.2.2.4.4.3.7.2zm-2.5 6c.7-.2 1.3 0 1.7.5.2.3.4.7.8.5s.4-.6.4-.9c0-.4 0-.7-.3-1-.4-.4-.4-1 0-1.4.5-.6.3-1.3.2-2-.5.3-.8.6-.9 1.2 0 .7-.4 1-1.1 1.2-.9 0-1.1.5-.8 1.9zM83 91c.4-.4 1-.6 1-1.4 0-.5.4-1 .9-1.1 1-.2 1.3-1 1.8-1.8-1 .6-2 1-2.9 0-.4.2-.8.4-.9.9.6.4.9 1.1.4 1.6-.6.7-.4 1.2-.3 1.8zm4.8 3.4c0-.1-.1-.2-.1-.2-.2-.1-.3 0-.3.2 0 .1.1.2.1.2.2.1.3 0 .3-.2z"/><path class="st19" d="M76.9 89.5c-.1.1-.2.2-.2.3h-.4c-.8-.4-1.7-.1-2.5-.2-.4.2-.3.5-.3.8v8.4l-.2.2c-.2.1-.3.3-.4.4-.2.3-.4.5-.7.6-.3-.2-.3-.6-.3-.9 0-3.5-.1-7.1.1-10.6 0-.3-.1-.5-.3-.6 0-.1-.2-.2-.3-.2-.4-.5-.6-1.1-.8-1.7 0-.3.1-.7-.2-1-.1-.5.2-1.1-.2-1.6 0-.2 0-.5.2-.6.1.1.2.1.3 0 .1-.2 0-.3-.2-.4V82h.3c-.1-.6.7-.9.8-1.4l.2-.2c.3-.3.7-.5.9-.9.1 0 .2-.1.2-.3.1-.1.2-.1.4-.2.2 0 .4 0 .5-.2h3.1c.1.2.3.2.4.3 1.3.7 2.2 1.7 2.6 3.1v3.7c-.3.2-.2.4-.2.7-.3.1-.4.4-.4.7-.2.1-.2.3-.2.6 0 .7.4 1.2.6 1.9.2.7 1.2.4 1.5 1.2-.7.3-1.5.2-2 .7-.3.2-.7-.1-.9-.4-.3-.4-.3-.8 0-1.2.5-.5.6-.9 0-1.4-.1 0-.3.1-.3.2-.6.1-.9.2-1.1.6zm1.6-4.2c.3-.7.4-1.4-.1-2.1 0-.1-.1-.2-.1-.3-.2-1.4-1.2-2.2-2.4-2.5-1.3-.3-2.5.1-3.3 1.2-.9 1.3-1 2.8-.5 4.3.5 1.4 1.5 2.2 3 2.3 1.3.1 2.5-.8 3.1-2.2.1-.1.1-.4.3-.7z"/><path class="st11" d="M73.8 89.6c.8.1 1.7-.2 2.5.2-.3 0-.7 0-1.1.3-.1 2-.1 4.1.1 6.2-.1-.1-.2-.3-.4-.3v-6c-.4-.2-.9-.1-1.1-.4z"/><path class="st13" d="M79.8 86.1v-3.7c.4.6.2 1.3.5 1.9-.1.1-.1.2 0 .3-.1.4-.1.7-.2 1.1-.1.2-.2.3-.3.4z"/><path class="st24" d="M50.8 86.1c-.4 0-.4-.3-.4-.6v-1.8c0-1 .1-2.1.1-3.1 1.1-.2 2-.9 3.2-.6-.1 1.6.1 3.2-.1 4.8-1 .5-1.9.8-2.8 1.3zm-.3-8.6c-.3-.2-.2-.5-.2-.8v-4.9c1.1 0 2.1-.1 3.2 0v5c-.3.1-.6 0-.9.2-.6.1-1.4.2-2.1.5z"/><path class="st5" d="M55.1 81.7c-.3.8.1 1.7-.3 2.5-.1 0-.2.1-.2.1-.2-1.3 0-2.5-.1-3.8 0-.3.1-.5.3-.7h.2c.2.6.1 1.3.1 1.9z"/><path class="st20" d="M50 80.3c-.6-.4-.7-1-.9-1.6 1-.7 1.1-.7 1.7.1-.6.3-.8.8-.8 1.5z"/><path class="st25" d="M54.8 79.8c-.2.2-.3.4-.3.7 0 1.3-.1 2.5.1 3.8l-.6.3c.2-1.5.1-3.1.1-4.6.2-.1.4-.3.7-.2z"/><path class="st20" d="M57.3 77.6c-.3.3-.6 0-.8.3 0 .5.7.4.7 1.1-.2.6-.7.5-1.3.4.2-.4.5.1.7-.4.1-.4-1-.5-.6-1.2.3-.4.8-.2 1.3-.2zm-5.8.2c.8.4.2 1.6 1.3 1.5-.4.3-.7.4-1.1.3-.1-.5-.4-1.1-.2-1.8zm3.2.9c0 .3-.1.5-.3.7-.6-.5-.8-1.1-1.2-1.8 1 0 .8 1.1 1.5 1.1z"/><path class="st15" d="M53.5 84.8c.2-1.6 0-3.2.1-4.8h.2c.1 1.5-.1 3.1.1 4.6-.1.1-.2.2-.4.2z"/><path class="st24" d="M53.9 84.6c-.2-1.5 0-3.1-.1-4.6h.2c.1 1.5.2 3-.1 4.6z"/><path class="st20" d="M55.1 77.6c.1.3 0 .5-.2.7-.3-.3-.1-.5.2-.7z"/><path class="st24" d="M95.2 76.9v-5c1.1-.1 2.1-.1 3.3 0v5.4h-1c-.1-.5-.5-.4-.9-.4h-1.4zm4.5-5.1c0 1.9.1 3.8-.1 5.7-.2 0-.5.1-.6-.2V72c.4-.2.6-.2.7-.2zm.1 11.9v1.9c0 .3-.1.5-.4.5-.1-.2-.3-.3-.2-.6 0-1.7-.1-3.4.1-5.1h.1c.3.2.5.4.5.8-.2.8-.1 1.6-.1 2.5z"/><path class="st15" d="M99.7 71.8c-.2 0-.4 0-.7.1v5.3h-.2v-5.3h-.2v5.4c-.1 0-.2-.1-.3-.1v-5.4c-1.1-.1-2.2-.1-3.3 0v-.2c1.5-.1 3.1-.1 4.6 0 .2.1.2.2.1.2z"/><path class="st20" d="M99.4 79.9c-.6.1-.5-.4-.8-.6-.2 0-.2.6-.7.3 0-.6.1-1.2.4-1.8.5.1 1 .1 1.4.6-.2.5-.5.9-.3 1.5z"/><path class="st15" d="M99.2 80.4c-.2 1.7 0 3.4-.1 5.1 0 .2.1.4.2.6-.3-.1-.7-.2-1-.2.1-1.9.1-3.8 0-5.6.4-.1.6-.1.9.1zm-.4.2c-.1 1.6-.1 3.2-.1 4.8h.1v-4.8z"/><path class="st20" d="M101.3 81c0-.5-.4-.9-.5-1.4.1-.4.4-.6 1-.6-.1.8.3 1.5-.5 2zm-5.4-3.4h1.5c-.5.6-.4 1.3-.6 2-.7-.7.1-1.6-.9-2z"/><path class="st7" d="M98.7 77.4V72h.2v5.3c-.1.2-.1.2-.2.1z"/><path class="st20" d="M91.6 77.7c1 .3 1.5 1 1.5 1.7-.8-.2-1-.9-1.5-1.7zm3.8 1.6c-.4.1-.7.1-.9-.1-.1-.9-.1-.9.1-1.6.7.4-.1 1.4.8 1.7z"/><path class="st26" d="M69.5 101.3c-.3 0-.6.1-.9-.2V84.7c.4-.1.8-.2 1.2.1 0 .1.1.3.1.4v15.2c0 .3-.1.6-.4.9z"/><path class="st18" d="M73.8 89.6c.3.3.7.2 1.2.4v6c0 .2-.1.4-.3.6-.2.2-.3.5-.2.7-.3 0-.3.2-.2.5-.3 0-.3.2-.2.5-.5-.1-.4-.5-.4-.8v-4.7c-.1-1.2-.2-2.2.1-3.2z"/><path class="st11" d="M69.5 101.3c.3-.2.3-.5.3-.9V85.2c0-.1 0-.3-.1-.4-.4-.2-.7-.2-1.2-.1v16.4c.4.2.7.1 1 .2-.2.3-.6.1-.9.2-.1 0-.2 0-.4-.1 0-.2.1-.4.1-.6V85.3c0-.3.1-.6-.2-.8.4-.4.9-.2 1.4-.2s.7-.2.6-.7c.4.5.2 1 .2 1.6-.3.4-.2.8-.2 1.3v14.7c-.2 0-.4 0-.6.1z"/><path class="st17" d="M71.6 88.1c.3.1.4.3.3.6-.2 3.5 0 7.1-.1 10.6 0 .3 0 .7.3.9-.1.1-.3.2-.4.3l-.1-.1c.1-4.1.1-8.2 0-12.3z"/><path class="st27" d="M76 101.7c.9-.8 1.8-.6 2.8-.4-.1.6-.8.5-1.1.9-.6-.2-1.4.4-1.7-.5z"/><path class="st22" d="M73.7 89.6c-.3 1-.1 2-.1 3v4.7c0 .3-.1.7.4.8-.1.3-.3.6-.6.7v-8.4c0-.3-.1-.6.3-.8z"/><path class="st23" d="M76 101.7c.3.9 1.1.3 1.7.5-.4.3-.8.1-1.3.1-.4 0-.7 0-1 .3-.3-.2-.3-.9-.8-.9-.2 0-.4-.1-.5-.4v-.3h.2c.2-.1.5.4.6-.1.2.1.4.1.5.2.4 0 0 .7.6.6z"/><path class="st27" d="M74.1 101.3c.1.3.3.3.5.4 0 .2.1.5-.3.5-.3 0-.6-.1-.9.1-.6-.1-1.1-.4-1.5-1 .7 0 1.4-.1 2-.2-.1.2.1.1.2.2z"/><path class="st19" d="M75.4 101.1c-.2-.1-.4-.1-.5-.2-.4-1.1-.3-1.4.5-1.7.6.6.4 1.2 0 1.9z"/><path class="st11" d="M73.4 102.3c.3-.2.6-.1.9-.1.4 0 .3-.3.3-.5.6 0 .5.7.8.9-.1.1-.2.1-.2.2-.5-.7-1.2-.4-1.8-.5z"/><path class="st15" d="M73.8 100.5c-.3-.5-.3-.5 0-1.2v1.2z"/><path class="st17" d="M70.1 101.2v-.4c.3 0 .5-.1.8-.1l.1.1c-.2.3-.6.3-.9.4z"/><path class="st22" d="M74.5 97.3c-.1-.3 0-.5.2-.7.1.3.1.5-.2.7z"/><path class="st15" d="M74.3 101h-.5c.1-.4.3-.3.5 0z"/><path class="st17" d="M71.4 100.6c-.1.2-.3.2-.4.2l-.1-.1c.1-.1.3-.1.5-.1 0-.1 0 0 0 0z"/><path class="st22" d="M74.3 97.7c0-.2-.1-.4.2-.5 0 .3 0 .5-.2.5zm-.3.5c-.1-.2-.1-.4.2-.5.1.2 0 .4-.2.5zm-1.2 1.3c.1-.2.2-.3.4-.4 0 .2-.1.3-.4.4zm.4-.4l.2-.2c0 .1 0 .2-.2.2z"/><path class="st17" d="M71.7 100.5c-.1 0-.2.1-.3.1l-.1-.1c.1-.1.2-.1.3-.2 0 .1.1.1.1.2z"/><path class="st13" d="M75.7 62.2c.9.4 1.7.3 2.5-.3.7.5 1.6.8 2.5.7v.2c-2.7-.2-5.3-.2-8-.2-1.1 0-2.2.4-3.4.2v-.2c.9 0 1.7-.1 2.4-.7.8.4 1.7.7 2.6.2.5.4 1 .4 1.4.1z"/><path class="st27" d="M78.9 64.1c.7-.4.7-.4 2.1 0-.2.7-1.2.7-2.1 0zm-9.9 0c1.5-.5 1.5-.5 2.1 0-.6.6-1.6.7-2.1 0z"/><path class="st19" d="M76.3 63.7c.2.1.2.3 0 .4h-2.6c-.2-.2-.1-.3 0-.4h2.6z"/><path class="st17" d="M77.8 65h-5.5v-.2h5.5v.2zm-5.5-1.9h5.3v.2h-5.3v-.2z"/><path class="st13" d="M85.2 63.5v.2c-.9-.3-1.8-.3-2.6-.7.6 0 1.2.1 1.8-.2.4.2.4.6.8.7z"/><path class="st9" d="M77.6 63.2V63c1.2.1 2.4 0 3.5.4v.2c-1.2-.2-2.4 0-3.5-.4z"/><path class="st13" d="M64.8 63.8c.1-.4.6-.5.7-1 .7.3 1.3.2 1.9.2-.7.5-1.7.4-2.6.8z"/><path class="st9" d="M72.3 63.1v.2c-1.1.3-2.2.2-3.3.4v-.2c1.1-.4 2.2-.3 3.3-.4z"/><path class="st19" d="M80.7 62.8v-.2c.2-.2.5-.4.7-.6.3 0 .4.3.5.5-.2.4-.6.2-.9.4-.1 0-.2 0-.3-.1z"/><path class="st9" d="M77.8 65v-.2c1 0 1.9 0 2.9.4-1 .1-2-.1-2.9-.2zm-5.5-.2v.2c-1 .1-1.9.4-2.9.3.9-.4 1.9-.5 2.9-.5z"/><path class="st19" d="M69.4 62.6v.2h-.1c-.4-.1-.9.2-1.2-.3.2-.2.2-.5.5-.5.4.1.4.6.8.6z"/><path class="st10" d="M72.1 63.9c.3-.3.6-.3.9.1-.4.4-.6.5-.9-.1z"/><path class="st13" d="M73.8 64.1h2.6c-.9.4-1.8.4-2.6 0z"/><path class="st22" d="M76.3 63.7h-2.5c.8-.4 1.7-.3 2.5 0z"/><path class="st13" d="M68.1 62.5c.3.4.8.2 1.2.3-.6.3-1.2.2-1.8.2.2-.1.4-.3.6-.5zm13 .4c.3-.2.7 0 .9-.4.2.2.5.2.7.5-.6.1-1.1 0-1.6-.1z"/><path class="st9" d="M82 65.5c-.4-.1-.9.2-1.3-.2.4 0 .9-.2 1.3.2zm-12.6-.3c-.4.4-.9.2-1.3.2.4-.3.9-.1 1.3-.2zm13.7.5c-.4 0-.8.1-1.1-.2.3 0 .8-.2 1.1.2zm-15-.3c-.3.3-.7.2-1.1.2.3-.3.7-.1 1.1-.2z"/><path class="st22" d="M83.5 63.9c-.3 0-.6.1-1-.1.4-.2.7-.2 1 .1zm-16.8-.1c.3-.1.5-.1.7 0-.1.2-.4.2-.7 0zm2.3-.3v.2c-.3.1-.6.1-1-.1.3-.2.7-.1 1-.1zm12.1.1v-.2c.3 0 .6-.1 1 .1-.4.3-.7.2-1 .1z"/><path class="st9" d="M83.5 63.9c.2 0 .5-.1.7.1-.3.2-.5.2-.7-.1zm.4 1.8c-.3.4-.6.3-.9 0h.9z"/><path class="st24" d="M50.3 95.3v-6.4c.8-.5 1.9-.6 2.7-1.1.3 0 .5 0 .5.4v7c-1.1.1-2.1.1-3.2.1zm4.1-8c.4-.1.5.1.5.4v7.1c0 .3-.1.5-.4.5 0-2.7 0-5.3-.1-8z"/><path class="st25" d="M54.5 87.3c0 2.7 0 5.3.1 8h-.5v-7c0-.2 0-.4-.2-.6v-.2c.2-.1.4-.2.6-.2z"/><path class="st13" d="M56.2 83.2c.1-.2.3-.2.4-.2 0 .2-.2.2-.4.2z"/><path class="st23" d="M55.4 83.9c.1-.1.2-.1.3-.2-.1.1-.2.1-.3.2zm.5-.3c0-.1.1-.1 0 0 .1 0 0 0 0 0z"/><path class="st13" d="M56 83.5c.1-.1.1-.2.2-.2 0 .1-.1.1-.2.2z"/><path class="st24" d="M95.2 95.3v-7.6c0-.2-.2-.6.3-.7.8.6 1.8.9 2.7 1.3.3.3.3.6.3 1v5.3c0 .2.1.5-.2.7h-3.1zm4.2-6.6c.3.2.3.6.3 1v5.6h-.6v-6.1c0-.2.1-.4.3-.5z"/><path class="st15" d="M99.4 88.7c-.2 0-.3.2-.3.4v6.1h.6v.2c-1.5.1-3 .1-4.5 0v-.2h3c.3-.2.2-.5.2-.7v-5.3c0-.4 0-.7-.3-1 .2 0 .4.1.6.2-.2 2.2 0 4.4 0 6.6.1-2.2.2-4.4 0-6.6.3.1.5.2.7.3z"/><path class="st24" d="M98.8 88.5c.2 2.2 0 4.4 0 6.6-.1-2.2-.2-4.4 0-6.6z"/><path class="st13" d="M102.2 90c-.2 0-.3-.1-.4-.2.1 0 .3.1.4.2zm-40.9 8.4v-.2c.4-.2.2-.7.2-1V85.6c0-.3.1-.7-.2-1-.4-.1-.8-.1-1.2 0 0-.1-.1-.1-.1-.2l.1-.1h4.8v.3h-3.1c-.2.2-.2.4-.2.6v13.4h-.2c.1-.1 0-.1-.1-.2z"/><path class="st22" d="M63.2 84.6h.3v8.6c0 2.3 0 4.5-.1 6.8h-.2c.1-5.2.1-10.3 0-15.4z"/><path class="st19" d="M61.8 98.4V85.3c0-.2 0-.4.2-.6v12.5c0 .3.1.8-.2 1.2z"/><path class="st3" d="M74.7 60.7c0 .8-.6 1-1.2 1.2-.8.2-1.4-.3-1.8-.9-1 1.5-1.9 1.6-3 .3 0-.3 0-.6.4-.6 1.2.7.9-.7 1.6-.9-.5-.3-.8-.5-1.1-.7-.7.1-.6-.6-.7-.9-.2 0-.4 0-.7.1 0-.1-.1-.2-.1-.3v-.4c.1-.2.2-.4.3-.7l-.3-.6c1.6-.7 3.3-1.2 5-1.4.4 0 .5.4.5.7 0 .4-.4.8.1 1.1.1.1.1.2.2.2-.1.4-.3.7 0 1.1 0 .5-.4.6-.8.6-.5.2-.8.6-1.2.9.4.4.8.7 1.1 1.1.4-.2.7-.3 1-.4.5 0 .7.2.7.5zm-11.6 1.7c0-.2.3-.3.4-.5.5-.1.4-.7.8-1-.7-.1-1.2-1-1.8-.2-.4 0-.4-.5-.6-.6-.3-.3-.7-.2-1-.3-.1-.2-.2-.3-.3-.5.5-.5.3-1.3.5-1.9 1.6-.9 3.3-1.4 5.2-1.3.1.2.2.4.5.5-.1.6.6.8.7 1.3 0 .4-.6.7-.3 1.2-.2.5-.7.2-1.1.4l-.3.6c-.2.1-.3.2-.3.4.5.6 1.1.8 1.7.3.9 0 .5.7.6 1.2-.9.8-1.4.8-2.5.1-.6 1.3-.9 1.3-2.2.3zm18.2-1.1c-1.1 1.2-2.3 1.1-3-.4-.5.8-1.1 1.3-2.1.9-.7-.3-1-.8-.9-1.6.2 0 .3-.1.5-.1 0 .1.1.1.1.2.9.4 1.5-.3 2.2-.9-.7 0-.9-.5-1.3-.8-.4 0-.7 0-.8-.5v-.4c-.1-.3-.1-.6-.2-.9.2 0 .2-.1.2-.2.5-.1.4-.3.3-.7s-.2-.8.2-1.2c.2.2.4.3.7.3 1.7-.2 3.1.5 4.5 1.1 0 .3-.3.7 0 1 0 .1.1.3.2.3v.4c-.2.3-.9.2-.7.9 0 .2-.1.4-.3.5-.2 0-.4 0-.6-.2-.5-.4-.6.3-1 .4-.3.1-.4.2-.1.5.5.3.8.9 1.5.6.6.1.6.5.6.8zm6.9-1.2c-.3.1-.3.6-.7.7-.6-.5-1.2-.3-1.7.1.1.5.4.8.8 1l.4.4c-.6.4-1.1 1.1-1.9.5-.2-.5.4-1.1-.1-1.7-.7.2-.6.9-.8 1.3-.8.3-1.4.3-2-.5.1-.4-.3-1 .4-1.2.1.1.2.2.3.2.5.6.8.2 1.2-.2.5-.2.3-.4 0-.6-.1-.4-.2-.8-.8-.7-.2 0-.4-.1-.5-.3.4-.5-.3-.8-.2-1.2 0-.4.5-.6.4-1v-.3c.9-.3 1.8-.3 2.7-.2 1.3.1 2.3.8 3.5 1.3 0 .3-.4.4-.4.7.2.3.3.5.4.7 0 .7-.7.4-.9.8 0 .2-.1.2-.1.2z"/><path class="st13" d="M75.8 60.2c-.2 0-.3.1-.5.1-.4-.1-.5.2-.6.4 0-.3-.2-.5-.5-.6.1-.4.2-.8 0-.9-.3-.4-.8-.3-1-.6.4 0 .8 0 .8-.6.2.2.2.5.5.7.6.1 1.2.1 1.5-.6.1.5.4.5.8.5-.2.3-.7.1-1 .6v1zm-.3-.7c-.1-.3-.3-.4-.6-.4-.2 0-.4.2-.4.4 0 .3.3.4.6.4s.4-.2.4-.4zm7.1 1.3c-.7.2-.4.8-.4 1.2-.3-.3-.1-.8-.3-1.1-.4-.2-.3.3-.6.4 0-.3-.1-.6-.5-.7.1-.2.3-.4.4-.7.1.4.2.7.7.6.3-.1.4-.3.3-.7-.3-.3-.7-.1-1 .1 0-.3-.1-.4-.3-.6.2-.1.3-.3.3-.5.5.8.7.9 1.6.4.1.2.3.3.5.3.6-.1.7.3.8.7-.4-.2-.8-.8-1.4-.3-.1.3-.1.6-.1.9z"/><path class="st22" d="M84.2 62.5c.3-.4.2-1.1.8-1.3.5.6-.2 1.2.1 1.7-.2-.2-.2-.3-.3-.5-.3-.2-.5 0-.6.1z"/><path class="st13" d="M67.9 62c-.1-.4.3-1.1-.6-1.2.1-.1.2-.3.3-.4h.1c.7.4 1 .2 1.1-.6.1.3.3.5.4.8-.4 0-.4.3-.4.6-.2-.1-.2-.4-.6-.4-.2.4.1.9-.3 1.2z"/><path class="st19" d="M75.7 62.2c-.5.3-.9.3-1.4 0l.6-.6c.4.1.6.4.8.6z"/><path class="st13" d="M87 62.3l-.4-.4c.4 0 .8 0 1.2-.4 0 .2 0 .4-.1.6-.3.1-.5.2-.7.2z"/><path class="st18" d="M94.4 69.5c-.1-.5-.2-.9 0-1.4h6.1c.2.5.2.9 0 1.4h-6.1z"/><path class="st19" d="M94.9 66.5c.1-.5-.5-.7-.5-1.1.8-.2 1.6-.4 2.4-.4.2.1.4.3.4.6-.5.5-1.1 0-1.5-.1-.4.3-.4.7-.8 1zM98 65c.8 0 1.6.2 2.4.4 0 .4-.3.6-.6.6-.4 0-.4-.5-.7-.5-.4.1-.6.3-.8.5-.4-.2-.5-.5-.5-.8l.2-.2z"/><path class="st14" d="M96.2 67.4c.1-1.2.7-.5 1.2-.3 1-.5 1-.5 1.2.3-.8.1-1.6 0-2.4 0z"/><path class="st8" d="M100.2 70.1h-5.5c.3-.3.6-.2.9-.2h3.7c.3 0 .6-.1.9.2z"/><path class="st13" d="M96.2 67.4h2.4c-.6.7-1.7.6-2.4 0z"/><path class="st3" d="M83.1 66.5c-.9.2-1.8.2-2.6.6-.5.2-1.1.1-1.6.2h-.7c-1.3 0-2.5.1-3.8-.1-.2-.5-.2-.9 0-1.4.6-.1 1.2-.1 1.8-.1 2.1-.1 4.1.4 6.2.5.1.2.5.1.7.3z"/><path class="st11" d="M82.4 66.1c-2.1-.1-4.1-.6-6.2-.5-.6 0-1.2 0-1.8.1-.3.5-.2.9 0 1.4 1.2.1 2.5 0 3.8.1-1.6.3-3.2.1-4.9.2-.5 0-1 .1-1.5-.2h2c.5-.5.5-1 0-1.5-.5-.1-1 .2-1.5 0-.3 0-.6-.1-.8.2v1.2c-.1 0-.2 0-.3.1-.6 0-1.1-.1-1.7-.1-.5-.3-.9-.1-1.4-.1-.5-.3-1-.3-1.5-.4-.1-.1-.2-.2-.2-.3 1.5-.5 3.1-.7 4.7-.8 3.7-.3 7.4-.2 11.1.4l.2.2zM71 65.7c-.2.5-.4.8 0 1.1.2-.3.2-.6 0-1.1z"/><path class="st14" d="M71.2 67.2c.1 0 .2 0 .3-.1h.4c.5.3 1 .2 1.5.2 1.6 0 3.3.2 4.9-.2h.7c.1.1.3.2.4.4h-7.7c-.4 0-.8 0-1.2-.2.2.1.5.1.7-.1z"/><path class="st11" d="M83.1 66.5c-.2-.2-.5-.1-.7-.4.5 0 .9 0 1.3.3-.2.2-.4.1-.6.1z"/><path class="st0" d="M73.1 54.9c-1.7.2-3.4.6-5 1.4-.1-.2-.2-.4-.4-.7-.1-.7-.1-1.3.2-2 .5-.2.6-.8 1.1-1.1.4 0 .8.1 1.1-.2.7-.1 1.5-.1 2.2 0 .2.2.4.1.6.1.9.8 1 1.7.2 2.5zm-6.8 1.3c-1.9-.1-3.6.4-5.2 1.3-.7-.8-.6-1.8.4-2.6.7-.6 1.5-.9 2.4-1h2.3c-.2.8-.1 1.5.1 2.3z"/><path class="st8" d="M67.8 55.6c.1.2.2.4.4.7l.3.6c-.1.2-.2.4-.3.7-.3-.1-.2-.4-.4-.5.2-.1.3-.2 0-.4v-.2c-.5-.8-.9-1.7-.3-2.7l.1.1c-.1.5-.4 1.2.2 1.7z"/><path class="st22" d="M67.7 57c.3.1.1.5.4.5v.4c-.2-.2-.4-.1-.6.1-.1-.5-.8-.7-.7-1.3.3 0 .4.8.9.3z"/><path class="st8" d="M67.4 53.8c.1-.2.1-.4.4-.4 0 0 .1.2.1.3-.1 0-.3.1-.5.1.1 0 0 0 0 0z"/><path class="st0" d="M64.6 53.1c.1-.1.1-.1.2-.1v.1c-.1-.1-.2 0-.2 0z"/><path class="st22" d="M67.7 56.4v.2s-.1 0 0-.2c-.1.1 0 .1 0 0zm0 .3c.3.1.2.2 0 .4v-.4z"/><path class="st26" d="M65 84.3h-4.8V70.5c0-.8-.1-1.6.1-2.6h14.6v10.7c-.4.1-.9.1-1.3.4-.2 0-.4 0-.5.2-.1.1-.2.1-.4.2-.1 0-.2.1-.2.3-.2 0-.5 0-.7.1-.4-.1-.7-.1-1.1-.2-.2-.2-.2-.5 0-.7.2-.7-.2-1.4 0-2.1v-1.1c.1-.2.2-.3.4-.4.5-.7.2-1.4.2-2.1-.3-.4-.7-.2-1-.6.3-.2.5-.6.3-1 0-.1 0-.1.1-.2-.6-.8-1.4-.1-2-.3-.3.6 0 1.1.2 1.6-.6.2-.7 0-.8-.4v-.7c.1-.4.1-.8.5-1 .3-.2.3-.7.1-1-.2-.3-.4-.2-.6 0h-1.4c-.4.3-.4.7 0 1 .7.5.4 1.3.3 1.9 0 .4-.4.4-.8.2.5-.5.5-1 .2-1.6-.7.1-1.3-.1-1.9.1-.2.6-.1 1 .3 1.4-.2.3-.6.2-.8.4-.4 1-.3 1.7.2 2.2.4.4.2.8.2 1.2.1.6-.1 1.2.2 1.8v.1c-.3.3-.1.8-.3 1.1-.3.2-.7 0-.9.4 0 .7-.2 1.4.1 2.1 1.1.1 2.2.1 3.3 0h1.8c.6 0 1.2 0 1.8.1v.4c0 .2 0 .3-.1.5s-.2.4-.2.6c0 .5-.2.6-.6.7-.5 0-1-.2-1.4.2h-1.2c-.6-.3-1.3 0-1.9-.1z"/><path class="st18" d="M66.9 84.6h1.2c.4.2.2.5.2.8v15.5c0 .2-.1.4-.1.6h-1.3c0-.3-.1-.6-.1-.9V85.1c0-.2 0-.4.1-.5zm-3.5 15.3c0-2.3 0-4.5.1-6.8v-8.6H65v16.1c-.3.2-.6 0-.8 0-.1-.3-.4-.4-.7-.4 0 0 0-.1-.1-.3z"/><path class="st26" d="M66.1 101.3h-.3c-.4-.2-.5-.5-.5-.9V85.1c0-.1.1-.3.1-.4.4-.2.7-.2 1.1 0 .2.3.2.6.2.9v14.7c-.1.3.1.9-.6 1z"/><path class="st0" d="M89.2 57.7c-1.1-.5-2.2-1.2-3.5-1.3-.6-.4-1.3 0-1.9-.3v-2.2c.9-.1 1.7-.1 2.5.1.3 0 .7 0 .9.3.5.2 1 .5 1.5.5.1.5.3.9.6 1.3.4.6.3 1.1-.1 1.6z"/><path class="st8" d="M81.7 57.2c-.3-.3 0-.7 0-1 1.2-1.1 1.2-1.5 0-2.9-.5-.5-1.2-.7-1.8-1-.7-.4-1.5-.3-2.2-.1-.5-.1-.8.5-1.3.5-.5-.4.1-.4.2-.7.3 0 .4-.1.4-.4 1 .3 2 .1 3.1.2.5 0 .7.5 1.2.5 1.1.8 1.7 1.8 1.5 3.2-.1.4 0 .8.2 1.1-.2 0-.5-.1-.7-.1-.1 0-.2.1-.2.2 0 .2.2.2.3.2-.2.2-.3.4-.5.6 0-.1-.1-.2-.2-.3zm1.6-2.1c0 .1 0 .3-.1.4-.1-.1 0-.2.1-.4z"/><path class="st11" d="M74.9 78.6V67.7h.2c0 .1 0 .1.1.2-.1 3.6 0 7.2 0 10.8-.1-.1-.2-.1-.3-.1z"/><path class="st6" d="M71.2 67.2c-.2.2-.4.2-.7.2h-1.1v-.3c.6.1 1.2.1 1.8.1z"/><path class="st13" d="M54 67.4l.3.6H51c0-.2 0-.4.1-.6H54z"/><path class="st14" d="M53.9 67.4h-2.7c.7-.6 1.6-.3 2.4-.4.1 0 .2.3.3.4z"/><path class="st16" d="M57.1 100.8c.3.5.3.5-.6.5-.8-.3-1.6-.4-2.5-.2-.3-.1-.5 0-.7.2h-1.5c-1-.3-2-.5-3 0-.2 0-.4 0-.6-.2 0-.3.4-.2.5-.5 1.1-.8 2.2-.4 3.3 0 .4.3.7.3 1.1 0 .3 0 .6.1.9-.2.4-.3.8-.3 1.3-.2l1.8.6z"/><path class="st23" d="M51.9 101.3h1.5c-.5.3-1 .3-1.5 0zm1.5 0c.2-.2.4-.3.7-.2-.2.2-.4.2-.7.2z"/><path class="st3" d="M54.1 64.4v.4c-.4.1-.4.8-.9.6-.1-1-.1-1 .9-1z"/><path class="st16" d="M93.4 101.2c-.9-.5.4-.4.2-.7.1-.1.2-.1.4-.1.8 0 1.5 0 2.3.1.8.5 1.6.3 2.4-.1.7 0 1.5-.1 2.2.1.2.1.3.1.5.2.1.2.5.1.5.4-.1.2-.4 0-.6.2-1.1-.3-2.2-.4-3.3.1-.4.2-.9.2-1.3-.1-.1-.2-.3-.2-.5-.3-.7-.3-1.4-.3-2.1 0-.3 0-.5.2-.7.2z"/><path class="st23" d="M94 101c.7-.3 1.4-.3 2.1 0H94zm-.6.2c.2-.1.4-.2.7-.2-.1.2-.2.2-.4.2-.1.1-.2.1-.3 0zm2.7-.2c.2 0 .4 0 .5.3-.2 0-.4 0-.5-.3z"/><path class="st7" d="M75.2 78.6c0-3.6-.1-7.2 0-10.8H90v16.5h-9.9c-.2-.6-.1-1.3-.5-1.9-.5-1.4-1.3-2.4-2.6-3.1 0-.3-.2-.3-.4-.3-.4-.3-.9-.2-1.4-.4zm7.9 1.3c0-.3.1-.6-.2-.9v-.2c.4-.1.7-.1.7.4 0 .2.1.3.2.5 0 .1.1.2.2.2.2.7.6.7 1.1.2 0 .2.2.4 0 .7-.5 0-1-.1-1.3.4.1.4.5.1.6.5 0 .2-.2.5.1.8.5-.6.8.1 1.3.2.5-.6.1-1.2.1-1.8.2-.3.4-.6.4-1-.1-.4-.5-.4-.6-.7 0-.4-.1-.9.1-1.3 1.8-.8 2.1-1.3 1.3-3.1-.1-.6-.3-1.3-.2-2 .5-.2.6-.7.9-1.1.5-.3.4-.7.2-1.1.2 0 .2-.1.2-.2-.2-.3-.5-.2-.7 0-.2-.1-.3-.2-.5-.4-.1.5-.2.9-.3 1.3-.4.5-.1 1.2-.2 1.8-.3.4-.3.7 0 1.1 0 .2.1.4.1.6.2.7.2 1.4.1 2.1-.6.6-1.2.3-1.7-.2-.3-.3-.5-.8-.7-1.2 0-.4.4-.8.2-1.2.8 0 1-.4.9-1.1 0-.1-.1-.2-.1-.3.2-.6 0-1.2.1-1.8.3-.1.7 0 1.2-.2-.5-.2-.5-.8-1.2-.8v-.2c0-.2 0-.3-.2-.4-.5-.4-1.1-.6-1.7-.8.1.3.1.6.2.8 0 .1 0 .1-.1.2-.2.2-.4.3-.6.5-.3 0-.7-.1-1 .2-.2.2.3.7-.3.7-.4-.1-.7-.6-1.2-.4.2.4.4.6.7.8.1.3.5.2.8.4-.1.3.3.6.1 1h-1.5c-.4-.3-1-.4-1.2-.9-.5-.5.4-1.3-.4-1.8-.1.3-.3.6-.5.7-.4.1-.8-.2-1.1.1 0 .4.4.4.4.8-.1.3-.7.3-.4.8.4.2 1-.1 1.4.3-.1.8.2 1.1 1 .9v.1h.1c0 .3.3.4.5.5 0 .2 0 .3-.1.4-.1.2-.2.5-.5.5-.6.2-1-.9-1.7-.2 0 .3.5.2.4.5 0 .4-.6.3-.5.8.7-.1.8.7 1.3 1 .3-.4.4-.8.5-1.3.7.1 1.3.3 1.8-.4 1 0 1.1 1.1 1.8 1.4-.4.6-1.1.1-1.4.6-.3.3-.2.7-.1 1.1.1.2.5.4.2.7-.1-.1-.3-.1-.4-.2-.3-.5-.7-.9-1.3-.4 0 .3.4.3.2.6-.1.3-.8.2-.7.8.8-.3.9.6 1.3 1 .3-.3.5-.5.5-.9h.4c.5.2 1 .6 1.4-.2l.1-.1c-.5-.1-.5-.1-.5-.2z"/><path class="st0" d="M80 52.3c.6.3 1.3.5 1.8 1 1.1 1.3 1.2 1.8 0 2.9-1.5-.6-2.9-1.3-4.5-1.1-.3 0-.5-.1-.7-.3-.1-.2 0-.5-.2-.7-.1-.5-.2-.9.2-1.4.5.1.8-.5 1.3-.5.6.1 1.4.1 2.1.1z"/><path class="st8" d="M76.3 54.1c.2.2.1.5.2.7-.4.3-.3.8-.2 1.2.1.4.2.6-.3.7 0-.5.1-1-.2-1.4v-2.5h-.2c0 .5-.1 1-.1 1.4-.3-.1-.6-.2-1-.3.2-.5-.1-.9-.2-1.4 0 1.4-.3 2.8-.6 4.2-.5-.3-.1-.7-.1-1.1.4-1.2 0-2.4.4-3.5.4-.5.9-.5 1.4-.4.5.2.5.7.6 1.2 0 .4-.1.9.3 1.2zM75.2 52c-.1-.1-.2-.1-.4 0 .2.1.3.1.4 0z"/><path class="st14" d="M74.1 52.1c-.4 1.2 0 2.4-.4 3.5 0-.3-.1-.7-.5-.7.7-.7.7-1.7-.2-2.4.4.1.5-.2.7-.4h.4z"/><path class="st0" d="M77.1 51.7c0 .3-.2.4-.4.4-.2-.5.1-.5.4-.4z"/><path class="st24" d="M53.9 87.7c.2.1.2.4.2.6v7c-.3-.2-.2-.5-.2-.7-.1-2.3 0-4.6 0-6.9z"/><path class="st5" d="M57.1 100.8l-1.8-.6c-.5-.1-.9-.1-1.3.2-.3-.1-.6-.1-.9.2H52c-1.1-.4-2.2-.8-3.3 0-.2-.1-.5 0-.7-.3.1-.6.8-.2 1-.6.2-.1.4-.1.5-.2h1.4c.1.2.3.2.5.2.7.4 1.5.4 2.2 0 .2 0 .4 0 .5-.2.6-.1 1.3-.1 1.8.2.4.2.7.2 1.1 0 .3.4.4.8.1 1.1z"/><path class="st23" d="M53.8 99.7c-.7.4-1.5.4-2.2 0 .8.1 1.5.1 2.2 0z"/><path class="st12" d="M51.1 99.5h-1.4c.4-.4.9-.3 1.4 0zm.5.2c-.2 0-.4 0-.5-.2.2 0 .4 0 .5.2z"/><path class="st23" d="M54.3 99.5c-.1.2-.3.2-.5.2.1-.2.3-.2.5-.2z"/><path class="st6" d="M89.2 57.7c.5-.6.6-1.1.1-1.8-.2-.4-.5-.8-.6-1.3h.6c.2.9.8 1.6.4 2.6.4-.1.3-.3.4-.4h.2c-.1.7.3 1.7-.8 2-.2 0 .4.6-.2.4-.1-.2-.3-.5-.4-.7-.1-.3.3-.4.3-.8z"/><path class="st0" d="M90.8 58c.1 0 .2 0 .2.1s0 .2-.2.2c-.1 0-.2 0-.2-.1s0-.1.2-.2z"/><path class="st8" d="M90.3 56.9h-.2v-.7c.2.2.2.5.2.7z"/><path class="st18" d="M60.2 84.6c.4-.1.8-.1 1.2 0 .2.3.2.6.2 1v11.6c0 .3.2.7-.2 1 0-.1 0-.1-.1-.2s-.2-.3-.2-.4c-.1-.2-.1-.3-.2-.5-.3-.9-.6-1.8-.6-2.7-.1-3.2-.1-6.5-.1-9.8zM56 97.4c.2.5.1.9 0 1.4-2.2.1-4.3.1-6.4 0-.3-.5-.2-.9-.1-1.4H56z"/><path class="st17" d="M50.1 96.4v-.3c1.7.1 3.5.1 5.2 0v.3h-5.2z"/><path class="st18" d="M94.3 97.3h6.6c0 .5.1.9-.1 1.5-2.1.1-4.3.1-6.4 0-.3-.6-.2-1-.1-1.5z"/><path class="st16" d="M93.9 99.7c-.2-.2-.6.1-.8-.2.2-.3.6-.2.8-.5 1.1.1 2.2-.1 3.2.2.8.2 1.6-.3 2.4-.2.5 0 1.1 0 1.6.1.2.3.6.1.8.5-.4.3-.8-.2-1.2 0-.5-.4-1-.4-1.6 0-.9.5-1.9.7-2.9.3-.8-.5-1.6-.5-2.3-.2z"/><path class="st9" d="M72.3 52.4c-.7-.1-1.5-.1-2.2 0 .7-.5 1.5-.5 2.2 0z"/><path class="st6" d="M66.6 66.6c.5.1 1.1 0 1.5.4h-1.3c-.1-.1-.1-.3-.2-.4zm1.5.4c.5 0 .9-.1 1.3.2-.4-.1-.9.1-1.3-.2z"/><path class="st18" d="M51 68.1h3.3c.6 0 1.2 0 1.7.1v1.5h-6.5c0-.4-.1-.9.1-1.3.4-.5.9-.2 1.4-.3z"/><path class="st8" d="M55.4 70.1h-5v-.2c1.6.1 3.3-.4 5 .2z"/><path class="st18" d="M55.4 96.1c-1.7.1-3.5.1-5.2 0 1.7-.2 3.4-.2 5.2 0z"/><path class="st0" d="M96.7 64.6l.2.2h-.4c0-.2.1-.2.2-.2z"/><path class="st25" d="M53.9 71.6H55v.2c-.6.1-.5.6-.5.9v4.1H54v-4c0-.3.1-.7-.2-1 .1 0 .1-.1.1-.2z"/><path class="st24" d="M54.5 76.8v-4.1c0-.4-.1-.8.5-.9 0 0 .1.1.1.2-.3 1.6 0 3.3-.1 4.9-.2-.1-.4-.1-.5-.1z"/><path class="st15" d="M53.9 71.6v5.2h-.3v-5c-1.1-.1-2.2-.1-3.2 0v-.2h3.5z"/><path class="st24" d="M53.9 76.9v-5c.3.3.2.7.2 1v4h-.2z"/><path class="st25" d="M54.9 76.8c.1-1.6-.1-3.3.1-4.9.3 1.6.2 3.1.1 4.7 0 .1-.1.2-.2.2z"/><path class="st0" d="M98.7 64.6c-.2.2-.4.2-.6.2.1-.3.3-.2.6-.2z"/><path class="st13" d="M61.9 60.2c.3.1.3.6.6.6-.1.1-.2.3-.4.4h-.2c.1-.4 0-.7 0-1z"/><path class="st18" d="M94.7 96.9c.2-.3.5-.5.9-.4h3.7c.4 0 .7.2.9.4-.2.3-.4.2-.7.2h-4.1c-.3 0-.5 0-.7-.2zm5.3-.7h-5c1.2-.4 2.4-.1 3.5-.2.5 0 1-.2 1.5.2z"/><path class="st5" d="M93.9 99.7c.8-.3 1.5-.3 2.3 0 1 .4 2 .3 2.9-.3h1.6c.3.5 1 .2 1.4.7 0 .5-.5.2-.7.4-.2-.1-.3-.1-.5-.2-.7-.7-1.5-.4-2.2-.1-.8.3-1.6.5-2.4.1-.7-.6-1.5-.5-2.3-.1-.1 0-.3 0-.4.1-.2 0-.4.1-.6-.1-.2-.5.7-.1.9-.5z"/><path class="st18" d="M50.1 70.9h5.3c-.2.3-.4.2-.7.2h-3.9c-.3.1-.6.1-.7-.2z"/><path class="st8" d="M87.7 61.5c-.3.4-.7.4-1.2.4-.4-.2-.7-.5-.8-1 .5-.4 1.1-.6 1.7-.1.3.2.6.4.3.7zm-25.5-.3c.1-.1.2-.3.4-.4.6-.8 1.1.1 1.8.2-.4.3-.3.8-.8 1-.4 0-.9 0-1.2-.4-.1-.2-.2-.3-.2-.4z"/><path class="st4" d="M79.3 97.7c-.3-1.3-.1-1.8.9-2.1.6-.2 1-.5 1.1-1.2 0-.6.4-.8.9-1.2.1.8.3 1.4-.2 2-.3.4-.3 1 0 1.4.3.3.3.7.3 1 0 .4 0 .8-.4.9-.5.2-.6-.2-.8-.5-.5-.3-1.1-.5-1.8-.3zm3.6-4.8c.4.5 1 .9 1 1.7 0 .4.4.8 1 .9 1.1.3 1.3.7 1 2-.8 0-1.5.1-2 .9-.3.4-.8.2-.9-.3s-.3-1.1.2-1.5.5-1 .2-1.3c-.9-.7-.5-1.6-.5-2.4zM83 91c-.1-.6-.3-1.1.3-1.7.5-.5.2-1.2-.4-1.6.2-.5.5-.7.9-.9.9 1 1.9.6 2.9 0-.5.8-.8 1.6-1.8 1.8-.5.1-.9.5-.9 1.1 0 .7-.6.9-1 1.3zm.4.7c.5-.5.9-1.2 1.8-1.3.3 0 .8-.5.7-.9-.1-1 .8-1.3 1.2-2 .2.4.2.7 0 1-.4.5-.4 1 0 1.6.3.5.4 1-.1 1.5-.4.4-.8.3-1.2-.1-.4-.4-1-.4-1.5.1-.3.2-.6.2-.9.1zm-4-4.4c.7 0 1.5.2 1.9-.5.6 0 .7.4 1 .7-.5.7-.7 1.4-.1 2.2.3.3.1.8.1 1.4-.5-.5-1-.7-1-1.5 0-.5-.5-1-1-1.1-.6-.1-.8-.4-1.1-.8v-.4c0 .1.1.1.2 0zm4 5.2c.3-.1.5-.1.7.1.5.4 1.1.4 1.7 0 .4-.3.8-.3 1.2.1.4.4.2.6-.1 1-.3.4-.4.9 0 1.4.2.3.2.5-.1.8-.6-.1-1-.5-1-1.1 0-.7-.5-1.1-.9-1.2-.8-.1-1.1-.6-1.5-1.1zm-1.6 0c-.5.4-.8 1.1-1.6 1.2-.4.1-.8.5-.8 1 0 .7-.5.9-.8 1.3-.5-.2-.6-.4-.4-.8.5-.8.3-1.4-.3-1.9.2-.8.7-1.1 1.3-.8.8.5 1.4.5 2.1 0 .1-.1.3 0 .5 0z"/><path class="st27" d="M81.8 92.5v-.8c.5-.5 1-.6 1.6 0v.8c-.2.1-.3.3-.5.4-.4 0-.7-.2-1.1-.4z"/><path class="st13" d="M79.5 86.8c0-.3-.1-.5.2-.7.1.3.4.2.5.5-.1.2-.4 0-.7.2z"/><path class="st14" d="M87.8 94.4c-.1.2-.1.3-.3.2-.1 0-.1-.2-.1-.2 0-.2.1-.3.3-.2 0 0 .1.1.1.2z"/><path class="st13" d="M76.9 89.5c.2-.4.5-.5.9-.5 0 .7-.5.4-.9.5z"/><path class="st19" d="M81.8 91.7c-.3 0-.5.1-.7-.2.4-.3.5.1.7.2z"/><path class="st11" d="M79.4 87.3c-.1 0-.2.1-.3.1 0-.3.1-.6.4-.7 0 .2-.1.4-.1.6zm-.3.1v.4c-.1 0-.1.1-.2.1 0-.2 0-.4.2-.5z"/><path class="st13" d="M77.8 89c0-.2.2-.2.3-.2-.1.1-.2.2-.3.2z"/><path class="st17" d="M68.1 72.4c.1.4.3.7.8.4-.2-.5-.6-1-.2-1.6.6.2 1.4-.5 2 .3h-1.9c.6.4 1.2.3 1.8.2.3.4 0 .7-.3 1 .3.3.7.2 1 .6 0 .6.3 1.4-.2 2.1.1-.6-.4-.5-.6-.4-1.6.4-3.3.3-4.9 0-.5-.1-.9 0-1 .5.6.4 1.2.2 1.8.2.7 0 1.5.2 2.2.1.7-.2 1.4 0 2.2 0v.3c-.3-.1-.6-.1-.9.2-1.1-.1-1.3.3-.9 1.8.3 0 .7.1 1-.1.2-.5.1-1 .1-1.5.3 0 .3.5.7.3-.2.7.2 1.4 0 2.1-.8 0-1.6-.1-2.5 0 .8 1 1.7.5 2.5.6.4.1.7.1 1.1.2-.2.3-.2.5-.2.8l-.2.2-.1-.1c0-.2-.1-.5-.3-.5-.8.1-1.6-.5-2.3.2-.4-.1-.4-.6-.9-.6 0-.2.1-.5-.3-.6l-.9.6c-.3.2-.3.3 0 .5 0 .1 0 .2-.1.4-.2 0-.3.1-.5.3-.4.1-1-.4-1.1.4-.2 0-.4-.1-.4.3.6.3 1.3.1 2 .1 0 .1.1.1.1.2-1.1.1-2.2.1-3.3 0-.3-.7-.1-1.4-.1-2.1.2-.4.6-.2.9-.4.3-.3 0-.8.3-1.1.2.2.4.2.6.1v-.5c.4 0 .8.1 1.2-.2v-1.2c0-.4-.2-.6-.6-.6s-.6.3-.6.6v1.3l-.6.3c-.3-.6-.1-1.2-.2-1.8 0-.4.1-.9-.2-1.2-.1-.2-.1-.4-.2-.6.3 0 .6.1.8-.2 0-.2 0-.5.1-.7h.2c0 .6.3.7.8.5 0-.4.1-.7-.1-1-.3-.1-.6-.1-.8.2-.1 0-.2 0-.2.1h-.1c0-.5-.3-.4-.6-.4.2-.3.6-.1.8-.4-.4-.4-.5-.9-.3-1.4.6-.3 1.3-.1 1.9-.1.3.6.2 1.1-.2 1.6.4.2.8.3.8-.2 0-.6.4-1.4-.3-1.9-.4-.3-.3-.7 0-1 0 .1 0 .3.1.4.6.1 1.2.2 1.7 0-.1-.3-.3-.3-.4-.3.2-.2.5-.3.6 0 .2.3.2.8-.1 1-.4.3-.4.7-.5 1-.7-.1-.7-.1-.8.6.3-.3.5.3.8.1zm-4.6 7.9v.6c.8-.3 1.5.1 2.3-.2 0-.2.1-.5-.2-.8-.5.5-1.3-.2-2.1.4zm1.2-.6c1 .2 1.7.1 2.2-.8-.7.4-1.5-.3-2.3.3 0 .1.1.3.1.5zm3.8-3c0-.2.1-.4-.2-.7-.5.5-1.1-.1-1.7.1v.8c.7-.5 1.2.3 1.9-.2zm-1.4-3.4c-.1 1.2-.1 1.3.9.9.1-.3.2-.7-.1-1-.2-.1-.5-.1-.8.1zm2.3 1.1c.3 0 .6.1.8-.3.1-.3.2-.5 0-.8-.3-.1-.6-.2-1 .1 0 .3-.1.6.2 1zm-3.1-2.8c-.5 0-1.1-.2-1.6.1.5.1 1.1.2 1.6-.1zm4.6 2c-.1.5-.3.7-.5.9.3.2.5.2.7.1.1-.2.1-.5-.2-1zm-2 .4c-.2.2-.4-.1-.6.1.1.2-.1.6.3.6.5 0 .3-.4.3-.7zm-2.8-.1c.1.4-.1.8.4.8.3 0 .2-.2.2-.4.1-.6-.4-.1-.6-.4zm1.2 5.1c.1.2.3.2.5 0-.1-.2-.3-.2-.5 0zm-1.1-.5c-.2-.1-.3-.1-.5.1.3 0 .4.1.5-.1z"/><path class="st16" d="M78.5 85.3c-.1.3-.2.6-.3.8-.6 1.4-1.9 2.3-3.1 2.2-1.5-.1-2.5-.9-3-2.3-.5-1.5-.4-2.9.5-4.3.8-1.1 2-1.6 3.3-1.2 1.2.3 2.2 1.1 2.4 2.5 0 .1.1.2.1.3.1.6 0 1.3.1 2zm-5.3-1.5c-.6.2-.4.5-.1.8.2.3.6.4.8.1.2-.3.6-.6 0-.9.3-.2 1.1-.3.7-.6-.6-.4-.4-1.2-1-1.5-.5.3-.3.8-.5 1.1-.7.7-.7.7.1 1zm3.1.1c-.3.4-.1.7.2.9.2.1.4.1.6-.1.2-.3.3-.6-.1-.8.1-.4.8 0 .8-.6-.6-.3-.7-1-1.1-1.8-.3.8-.4 1.5-.9 1.7-.2.6.4.4.5.7zm-.8 2.9c-.2-.5.6-.3.5-.8.1-.4-.5-.3-.5-.7 0-.3 0-.7-.5-.8-.2.6-.4 1.2-.9 1.5-.2.7.7.3.5.8-.4.4-.1.6.2.8.3.1.6.1.8-.1.1-.3.4-.6-.1-.7z"/><path class="st18" d="M71.6 100.3c-.1.1-.2.1-.3.2-.1.1-.3.1-.4.2-.3 0-.5.1-.8.1V86.5c0-.4-.1-.9.2-1.3 0 .4-.1.7.2 1 .2.6.4 1.2.8 1.7.1.1.1.2.3.2.1 4.1.1 8.2 0 12.2z"/><path class="st17" d="M70.3 82.2c-.6 0-1.2 0-1.8-.1 0-.1.1-.1.1-.2.7-.2.4-.7.3-1.1.8-.3 1.7.1 2.5-.1l.1.1c-.1.5-.9.7-.8 1.4h-.4z"/><path class="st13" d="M75.2 78.6c.5.2 1.1.1 1.5.4h-3.1c.4-.3.8-.3 1.3-.4h.3z"/><path class="st11" d="M78.5 85.3c0-.7.1-1.4-.1-2.1.5.7.3 1.4.1 2.1zm-6.9-4.7c0-.3 0-.6.2-.8.2 0 .5 0 .7-.1-.2.4-.5.7-.9.9zm-1.1 5.6c-.3-.3-.3-.6-.2-1 .3.3.2.7.2 1zm-.3-3.2c0-.2 0-.3.1-.5.2.1.2.3.2.4-.1.2-.2.2-.3.1z"/><path class="st13" d="M73.1 79.3c.1-.2.3-.2.5-.2-.1.2-.3.2-.5.2zm3.6-.2c.2 0 .4 0 .4.3-.2-.1-.4-.1-.4-.3z"/><path class="st17" d="M71.6 88.1c-.2 0-.2-.1-.3-.2.2 0 .3 0 .3.2z"/><path class="st11" d="M72.5 79.7c0-.1.1-.2.2-.3 0 .2-.1.3-.2.3z"/><path class="st24" d="M98.8 80.6v4.8h-.1c0-1.6 0-3.2.1-4.8z"/><path class="st5" d="M73.8 101h.3v.3c-.1-.1-.3 0-.3-.3z"/><path class="st10" d="M73.8 56.7c.2-1.4.5-2.8.6-4.2.1.5.5.9.2 1.4.4.1.7.2 1 .3v.5c-.2.1-.3.2-.4.4-.4 0-.6.2-.7.6.2.4.5.4.9.3.1.2.1.3.4.2v-.9c.3.4.2.9.2 1.4l-.2.2h-.7c0-.1 0-.2-.2-.2-.1.1-.2.3-.3.5-.1-.2 0-.5-.4-.3-.1 0-.2.1-.3.1 0-.1 0-.2-.1-.3z"/><path class="st6" d="M73.3 58.6c.2.3.6.1 1 .6.1.2 0 .6 0 .9-.3.1-.7.3-1 .4-.3-.3-.7-.6-1.1-1.1.3-.2.6-.6 1.1-.8zm1.4-1.5c.1-.2.2-.3.3-.5.1 0 .1.2.2.2.2.4.2.9.8.9v.4c-.3.7-.8.8-1.5.6-.3-.2-.3-.5-.5-.7-.3-.5.7-.3.4-.7.2 0 .3-.1.3-.2z"/><path class="st8" d="M69.2 60.6c-.1-.3-.3-.5-.4-.8.1-.5.6-.5.8-.7.3.2.7.4 1.1.7-.6.1-.3 1.5-1.5.8z"/><path class="st6" d="M67.5 58c.2-.1.4-.3.6-.1 0 .1.1.2.1.3.2.3.7.3.5.8-.1.4-.4.5-.7.5-.3 0-.6-.1-.8-.3-.3-.5.3-.8.3-1.2z"/><path class="st13" d="M67.2 59.2c.2.2.4.3.8.3s.6-.1.7-.5c.2-.5-.3-.5-.5-.8.2 0 .4 0 .7-.1.2.4 0 1 .7.9-.2.3-.8.2-.8.7-.5-.1-1-.2-1.1.6h-.1c-.4-.9-.6-.9-1.4-.3-.1.1-.2 0-.3 0l.3-.6c.3 0 .8.3 1-.2zm7.3-1.9c.2.5-.7.2-.4.7-.4-.3-.1-.7 0-1.1.1.2.2.3.4.4z"/><path class="st8" d="M74.5 57.3c-.2-.1-.3-.2-.5-.3.1 0 .2-.1.3-.1.2.1.2.2.2.4z"/><path class="st6" d="M65.9 60.1h.3c.8-.6.9-.5 1.4.3-.1.1-.2.3-.3.4-.7.4-1.3.3-1.7-.3 0-.2.1-.3.3-.4zm9.9.1v-.9c.3-.5.8-.3 1-.6.4.2.6.8 1.3.8-.7.6-1.2 1.3-2.2.9 0-.1-.1-.2-.1-.2zm7.1-1c-.9.5-1.1.5-1.6-.4-.2-.6.5-.5.7-.9.2-.2.4-.2.6 0 0 .5.6.8.3 1.3zm-1.6.7c-.1.2-.3.4-.4.7-.7.3-1.1-.3-1.5-.6 0-.2.1-.3.1-.5.4.1.7-.1 1-.4.2.2.4.1.6.2.1.2.2.4.2.6z"/><path class="st22" d="M82.6 58c-.2-.2-.4-.2-.6 0v-.4c.2-.2.3-.4.5-.6h.6c0 .4-.5.6-.5 1z"/><path class="st8" d="M76 57.8c-.6.1-.6-.5-.8-.9h.7c0 .3 0 .6.1.9z"/><path class="st13" d="M80.4 59.2c-.3.3-.6.4-1 .4.4-.1.5-.9 1-.4zm-1 .3c0 .2-.1.3-.1.5-.2-.3-.2-.4.1-.5zm-3.6.7c0 .1.1.1.1.2 0-.1-.1-.2-.1-.2z"/><path class="st8" d="M75.8 56.9l.2-.2c0 .1 0 .2-.2.2z"/><path class="st22" d="M81.7 57.2c.1.1.2.2.2.3-.1 0-.1-.1-.2-.3z"/><path class="st6" d="M82.6 60.8c0-.3 0-.6.1-.9.6-.5 1 .1 1.4.3.3.2.5.4 0 .6-.4-.1-.8.3-1.2.2 0-.1-.1-.1-.3-.2z"/><path class="st13" d="M83 61c.4.1.8-.3 1.2-.2-.4.4-.7.8-1.2.2z"/><path class="st10" d="M83 57h-.6c-.1 0-.3 0-.3-.2 0-.1.1-.2.2-.2.2 0 .5.1.7.1v.3z"/><path class="st13" d="M82.6 60.8c.1 0 .3.1.3.2-.1 0-.2 0-.3-.2z"/><path class="st26" d="M75.5 59.5c0 .3-.1.4-.4.4s-.5-.1-.6-.4c0-.2.1-.4.4-.4.3 0 .5.1.6.4zm5.8.5c.3-.1.6-.3 1-.1.2.4 0 .6-.3.7-.5.1-.6-.3-.7-.6zm-13.6.4c.1-.8.6-.7 1.1-.6-.1.8-.5 1-1.1.6z"/><path class="st13" d="M72.3 65.7c.5.1 1-.1 1.5 0v1.5h-1.5v-1.5z"/><path class="st19" d="M72.3 65.7v1.5h-.9V66c.3-.3.6-.3.9-.3zm-1.3 0c.2.5.2.8 0 1.1-.3-.3-.2-.6 0-1.1z"/><path class="st3" d="M73.8 67.2v-1.5c.5.5.5 1 0 1.5z"/><path class="st10" d="M67.5 53.8c.1-.1.3-.2.4-.2-.3.6-.3 1.3-.2 2-.5-.5-.2-1.2-.2-1.8z"/><path class="st28" d="M68.6 81.9c0 .1-.1.1-.1.2h-1.8c0-.1-.1-.1-.1-.2.1-.4.1-.7 0-1.1 0-.1 0-.2.1-.4.1-.1.1-.2.2-.2.3-.1.7-.3 1-.3.5 0 .5.5.9.6-.1.1-.2.2-.2.3v1.1z"/><path class="st14" d="M70.8 75.7c-.7 0-1.4-.1-2.2 0-.7.2-1.5-.1-2.2-.1-.6 0-1.2.2-1.8-.2.2-.5.5-.6 1-.5 1.6.3 3.3.3 4.9 0 .3-.1.7-.2.6.4-.1.1-.3.2-.3.4z"/><path class="st21" d="M70.7 79.6c-.8-.1-1.7.4-2.5-.6.9-.1 1.7-.1 2.5 0-.2.2-.2.4 0 .6zM68 69.7c.2 0 .4 0 .4.3-.6.2-1.2.1-1.7 0-.2 0-.1-.2-.1-.4.5 0 1 0 1.4.1z"/><path class="st13" d="M64 74.7c.1.2.1.4.2.6-.5-.5-.6-1.1-.2-2.2-.1.6.3.4.6.4h.1c0 .1 0 .2.1.2-.2.4-.5.1-.8.1v.9z"/><path class="st21" d="M68.1 72.4c-.3.3-.5-.4-.8-.1 0-.7 0-.7.8-.6v.7z"/><path class="st8" d="M70.7 71.7c-.6.1-1.2.2-1.8-.2h1.9c-.1.1-.1.2-.1.2z"/><path class="st14" d="M70.8 76.8c-.4.2-.4-.3-.7-.3-.1-.1-.1-.2-.2-.3.3-.3.6-.3.9-.2v.8z"/><path class="st8" d="M64.6 78.3l.6-.3-.1.1h.1v.5c-.2.1-.4.1-.6-.1v-.2z"/><path class="st9" d="M80 52.3c-.7 0-1.5 0-2.2-.1.7-.2 1.5-.3 2.2.1z"/><path class="st12" d="M52.1 100.6h1.1c-.4.3-.8.3-1.1 0zm1.1 0c.2-.3.5-.2.9-.2-.3.3-.6.2-.9.2zm45.4-.2c.8-.4 1.5-.6 2.2.1-.7-.2-1.4-.1-2.2-.1zm-4.6 0c.8-.4 1.5-.6 2.3.1-.8-.1-1.6-.1-2.3-.1z"/><path class="st29" d="M85.1 72.9c0 .1.1.2.1.3-.7 0-.5.9-.9 1.1-.2.3-.6-.3-.8.4.4.1.4.6.6.9.2.4.4.8.7 1.2.5.5 1 .8 1.7.2.7-.6.2-1.4.2-2.1h.2c.8 1.8.6 2.3-1.3 3.1-.5.4-.6.9-.1 1.3.1.3.5.3.6.7 0 .4-.3.7-.4 1-.3.2-.1.6-.3.9-.3 0-.6-.1-.8-.1.1-.3-.2-.8.3-1 .2-.2-.1-.4 0-.7-.2-.7-.7-.2-1.1-.2 0-.1-.1-.2-.2-.2 0-.4 0-.8.3-1.3-.5.1-.9 0-1.1.5l-.1.1c0 .1 0 .1.1.2 0 .3-.1.7.2.9v.2c-.4.3-.9.2-1.4.2h-.4c-.6.4-.6-.4-1.1-.4.4-.1.2-1 .9-.7.1.1.3.1.4.2.6-.1.7-.4.4-.9-.2-.3-.5-.5-.5-.9.4-.4 1 0 1.4-.6-.8-.3-.8-1.4-1.8-1.4-.7-.1-1.2.2-1.8.4-.3 0-.2.4-.5.4-.2-.1-.4-.3-.6-.4.2-.5.6-.6 1-.8.3 0 .4-.2.5-.5.4.1.6-.1.8-.4l.2-.2c.4-.2.2.6.8.3-.1-.4-.1-.8-.1-1.1-.4-.2-.8.1-1.1-.3.5-.1 1 .1 1.4-.2.4-.1.2-.5.4-.6 1-.6.5-1.1-.1-1.5.2-.3.5-.2.7-.4.2-.2.4-.3.6-.5.4.6 1.1.8 1.5 1.4 0 .3-.1.6-.2.8.1.2.2.6.7.7zm-2.9 1.2c-.2.3-.1.6.1 1 .6-.5-.1-.6-.1-1z"/><path class="st29" d="M79.5 73.9c-.6-.2-.5-1-1.1-1 .1-.5-.5-.4-.6-.6.2-.3.1-.6.1-1 .3.4.5-.1.8 0 .3.2 0 .7.5.8.2.5.8.6 1.2.9v.2c-.1.1-.2.2-.2.3.2.3.7-.1.9.2 0 .3-.3.3-.3.5-.1 0-.2.1-.2.2h-.7c.1-.3-.2-.4-.4-.5z"/><path class="st23" d="M79.2 72c-.5-.1-.2-.6-.5-.8-.3-.1-.5.4-.8 0 0 .4.1.7-.1 1 .2.3.7.1.6.6-.4-.4-.9-.1-1.4-.3-.2-.5.4-.5.4-.8 0-.4-.4-.4-.4-.8.3-.3.8 0 1.1-.1.3-.1.4-.5.5-.7 1.1.6.1 1.4.6 1.9zm.1 3.4c-.4.2-.8.3-1 .8.2.1.4.3.6.4.3 0 .2-.4.5-.4-.1.4-.2.8-.5 1.3-.5-.4-.6-1.2-1.3-1-.1-.5.4-.5.4-.8.1-.3-.4-.2-.4-.5.7-.7 1.1.3 1.7.2zm5.8 5.4c-.5.2-.2.7-.3 1 .3 0 .6.1.8.1.3-.2 0-.7.3-.9 0 .6.4 1.2-.1 1.8-.4-.1-.7-.8-1.3-.2-.3-.3-.1-.6-.1-.8-.2-.4-.6-.1-.6-.5.2-.6.8-.5 1.3-.5zm-3.9-1.5c-.7-.3-.5.5-.9.7.4.1.5.8 1.1.4 0 .4-.2.6-.5.9-.4-.4-.5-1.3-1.3-1-.1-.6.5-.5.7-.8.1-.3-.3-.3-.2-.6.4-.5.8-.1 1.1.4zm1.6-9c-.1.3-.5.1-.7.4.6.4 1.1.9.1 1.5-.2.1 0 .6-.4.6.3-.4-.2-.6-.1-1-.2-.2-.6-.1-.8-.4.2 0 .5.1.7-.1-.1-.1-.2-.2-.2-.3.6-.1 0-.6.3-.7.4-.1.8 0 1.1 0z"/><path class="st29" d="M87.7 71.8c-.2.4-.4.9-.9 1.1-.4-.5-.2-1.1-.2-1.6.2-.2.4-.6.9-.5 0 .4.1.7.2 1z"/><path class="st21" d="M84.9 71.2c-.3-.6-1.1-.8-1.5-1.4 0-.1 0-.1.1-.2.6-.2.9.4 1.3.4.1.2.2.1.2 0v-.2s.1 0 .1.1v.2c0 .3.1.7 0 1 0 .1-.1.1-.2.1z"/><path class="st23" d="M85.1 69.9v.2h-.2c-.5 0-.8-.6-1.3-.4 0-.3-.1-.5-.2-.8.7.2 1.2.4 1.7.8v.2zm1.5 1.5c.1.5-.2 1.1.2 1.6-.1.7.1 1.3.2 2h-.6c0-.2-.1-.4-.1-.6.3-.4.4-.7 0-1.1.2-.7-.2-1.4.3-1.9z"/><path class="st15" d="M84.9 71.2h.3c-.1.6.1 1.2-.1 1.8-.5-.2-.6-.5-.4-.9s.2-.6.2-.9zm.3 0c.1-.3 0-.7 0-1 .6-.1.7.5 1.2.8-.5.2-.8.1-1.2.2z"/><path class="st23" d="M81.5 77.7c0 .4.3.6.5.9.4.5.2.8-.4.9.3-.3-.2-.5-.2-.7-.1-.4-.2-.7.1-1.1z"/><path class="st4" d="M81.5 71.2c.1.1.1.2.2.3-.3.2-.5.1-.7.1-.3-.2-.5-.4-.7-.8.5-.2.8.3 1.2.4z"/><path class="st23" d="M84.2 75.6c-.3-.3-.2-.8-.6-.9.2-.6.6-.1.8-.4.2.5-.3.8-.2 1.3zm-5.8-2.7c.6 0 .5.8 1 .9-.7.2-1-.1-1-.9z"/><path class="st15" d="M84.4 74.4c.5-.3.2-1.1.9-1.1.1.7-.2 1.1-.9 1.1z"/><path class="st23" d="M83.9 79.9c.4.1.9-.5 1.1.2-.5.6-.8.5-1.1-.2zm-4.6-3.7c.6-.2 1.1-.6 1.8-.4-.4.7-1.1.5-1.8.4z"/><path class="st15" d="M86.4 74.9h.4c-.1.7.5 1.4-.2 2.1.1-.7 0-1.4-.2-2.1z"/><path class="st23" d="M82.8 78.9c.2-.5.6-.3 1.1-.5-.3.5-.3.9-.3 1.3-.1-.2-.2-.3-.2-.5.1-.5-.2-.4-.6-.3zm4.7-8c-.5-.2-.6.2-.9.5.1-.4.2-.8.3-1.3.2.2.4.3.5.4 0 .1 0 .3.1.4z"/><path class="st25" d="M86.3 73.1c.4.4.3.7 0 1.1-.3-.3-.3-.7 0-1.1z"/><path class="st15" d="M87.7 71.8c-.1-.3-.2-.6-.2-.9.2-.1.3-.1.5-.2.1.4.2.8-.3 1.1zm-2 7.5c-.5-.5-.4-.9.1-1.3-.2.4-.2.9-.1 1.3zm-4 1.1c.5 0 .9 0 1.4-.2-.4.8-.9.4-1.4.2z"/><path class="st23" d="M80.4 73.1v-.2h1.5c-.5.3-1 .2-1.5.2z"/><path class="st29" d="M87.9 70.7c-.2.1-.3.1-.5.2v-.5c.2-.2.5-.3.7 0-.1.1-.2.2-.2.3z"/><path class="st15" d="M80 74.4h.7c-.2.3-.4.5-.8.4.1 0 .1-.2.1-.4zm3.1 5.6c-.4-.2-.2-.6-.2-.9.2.2.2.5.2.9zm-3.6-6.1c.2.1.5.2.5.5-.2-.1-.5-.2-.5-.5z"/><path class="st23" d="M82.8 79.1c0-.1 0-.1-.1-.2 0 0 0-.1.1-.1v.3zm.9.6c.2 0 .2.1.2.2-.1.1-.2-.1-.2-.2z"/><path class="st15" d="M87.9 70.7c0-.1.1-.2.2-.2 0 .1 0 .3-.2.2zm-2.8-.8v-.4c.1.1.2.2.2.4h-.2z"/><path class="st21" d="M75.2 55.1c.1-.2.2-.3.4-.4.1.1.2.1.2.2v1.3c-.3.1-.3 0-.4-.2.2-.4 0-.6-.2-.9z"/><path class="st9" d="M75.8 54.9c-.1-.1-.2-.1-.2-.2v-.5c0-.5.1-1 .1-1.4h.2c-.1.7-.1 1.4-.1 2.1z"/><path class="st10" d="M75.2 52c-.1.1-.2.1-.4 0 .2-.2.3-.2.4 0z"/><path class="st12" d="M100.6 99.5H99c.6-.3 1.1-.4 1.6 0z"/><path class="st28" d="M65.1 78.1v-1.3c0-.4.2-.6.6-.6s.6.3.6.6V78c-.3.2-.8.1-1.2.1zm4.8-1.9c.1.1.1.2.2.3 0 .5.1 1-.1 1.5-.4.2-.7.1-1 .1-.4-1.6-.2-2 .9-1.9z"/><path class="st21" d="M63.5 80.3c.8-.6 1.5.1 2.1-.4.3.3.2.6.2.8-.7.2-1.5-.1-2.3.2.1-.3 0-.6 0-.6zm1.2-.6c0-.2 0-.4-.1-.5.7-.7 1.5.1 2.3-.3-.5.8-1.2 1-2.2.8z"/><path class="st14" d="M68.8 80.5c.7-.7 1.5-.1 2.3-.2.2 0 .3.3.3.5-.8.2-1.7-.3-2.5.1h-.1v-.4z"/><path class="st21" d="M68.5 76.7c-.7.6-1.2-.3-1.8.2v-.8c.6-.3 1.2.3 1.7-.1.2.3.1.5.1.7z"/><path class="st8" d="M67.1 73.3c.3-.2.5-.1.8-.1.3.3.2.7.1 1-1 .4-1 .3-.9-.9zm2.3 1.1c-.3-.4-.1-.7-.1-1.1.3-.2.6-.2 1-.1.2.3 0 .6 0 .8-.3.6-.6.5-.9.4z"/><path class="st9" d="M66.6 80.8c.1.4.1.7 0 1.1-.7 0-1.3.2-2-.1.1-.4.3-.3.4-.3.4-.1.9.2 1.1-.4.1-.2.3-.3.5-.3z"/><path class="st18" d="M65 73.5c.2-.3.5-.3.8-.2.2.3.1.6.1 1-.6.2-.9.1-.8-.5-.1-.1-.1-.2-.1-.3z"/><path class="st21" d="M64 74.7c0-.2 0-.5.1-.8.3 0 .6.3.8-.1 0 .2 0 .5-.1.7-.3.3-.6.2-.8.2zm3.9 5.2c-.4 0-.7.1-1 .3-.1-.1-.1-.2-.2-.3l.9-.6c.4.1.3.4.3.6z"/><path class="st6" d="M66.3 71.6c-.5.3-1.1.2-1.6.1.5-.3 1.1-.1 1.6-.1z"/><path class="st21" d="M70.9 73.6c.3.5.3.7.2 1-.2.1-.4.1-.7-.1.2-.2.4-.4.5-.9zm-2 .4c0 .3.2.7-.3.6-.4 0-.2-.4-.3-.6.2-.1.5.2.6 0zm-2.8-.1c.2.3.7-.2.6.4 0 .2 0 .4-.2.4-.4 0-.3-.4-.4-.8z"/><path class="st8" d="M66.1 81.1c-.2.6-.7.3-1.1.4.2-.8.7-.4 1.1-.4z"/><path class="st21" d="M64.6 73.6c-.3 0-.7.1-.6-.4.3 0 .6-.1.6.4z"/><path class="st9" d="M66.7 79.9c.1.1.1.2.2.3-.1.1-.1.2-.2.2-.3-.2-.3-.3 0-.5z"/><path class="st21" d="M67.3 79c.2-.1.3-.1.5 0-.2.1-.3.1-.5 0z"/><path class="st8" d="M66.2 78.5c-.1.2-.3.1-.5.1.2-.3.4-.2.5-.1z"/><path class="st21" d="M65 73.5v.3h-.2c0-.1 0-.2-.1-.2.1-.1.2-.1.3-.1zm9.6 13.3c.2-.6-.7-.2-.5-.8.5-.3.6-.9.9-1.5.5.1.5.5.5.8 0 .4.6.3.5.7.1.5-.7.3-.5.8-.3.3-.6.2-.9 0zm1.7-2.9c-.1-.4-.7-.1-.6-.7.6-.2.7-.9.9-1.7.5.8.6 1.5 1.1 1.8 0 .6-.7.2-.8.6-.2.3-.4.2-.6 0zm-3.1-.1c-.8-.3-.8-.3-.2-1 .3-.3 0-.9.5-1.1.6.3.4 1.1 1 1.5.4.3-.4.4-.7.6-.2.1-.4.1-.6 0z"/><path class="st9" d="M73.2 83.8c.2.1.4.1.7 0 .7.3.3.6 0 .9-.2.3-.6.2-.8-.1-.3-.2-.5-.6.1-.8z"/><path class="st22" d="M74.6 86.8c.3.3.6.3.9 0 .5.2.2.5.1.6-.2.3-.5.3-.8.1-.3-.1-.6-.3-.2-.7z"/><path class="st14" d="M76.3 83.9c.2.1.5.3.7 0 .4.2.3.5.1.8-.1.2-.4.3-.6.1-.3-.2-.6-.5-.2-.9z"/><path class="st8" d="M68.8 80.8c.2.4.5.9-.2 1.1v-1.1h.2z"/><path class="st24" d="M75.2 55.1c.3.2.4.5.2.9-.4.1-.7.1-.9-.3.1-.4.3-.6.7-.6z"/><path class="st13" d="M74.5 57.3c0-.2 0-.4-.2-.5.4-.3.3.1.4.3 0 .1-.1.2-.2.2z"/><path class="st17" d="M68.8 80.8h-.2c0-.2.1-.3.2-.3v.3z"/><path class="st23" d="M80.8 74.2c0-.2.3-.3.3-.5-.2-.3-.7 0-.9-.2-.1-.2 0-.3.2-.3.2.4.7.2 1.1.3 0 .4 0 .8.1 1.1-.5.3-.3-.5-.8-.4zm1.4-.1c-.1.3.7.5.1 1-.1-.3-.2-.6-.1-1z"/><path class="st15" d="M80.6 74.5c0-.1.1-.2.2-.2l-.2.2zm4.2-4.4h.2c0 .1-.1.2-.2 0z"/></g></svg>