<svg xmlns="http://www.w3.org/2000/svg" width="225" height="150" viewBox="0 0 225 150"><path d="M146.2.1c25.1 0 50.2 0 75.2-.1 2.5 0 3.6.1 3.5 3.4-.2 47.7-.2 95.5 0 143.2 0 3.4-1.1 3.4-3.5 3.4-25.1-.1-50.2-.1-75.2-.1-.1-22.7-.2-45.5-.1-68.2 0-27.2.1-54.4.1-81.6z" fill="#ec2939"/><path d="M146.2.1c-.1 27.2-.2 54.5-.2 81.7 0 22.7.1 45.5.2 68.2H70c-.2-1.5-.5-2.9-.5-4.4V4.4c0-1.5.3-2.9.5-4.4 25.4.1 50.8.1 76.2.1z" fill="#fefefe"/><path d="M70 .1c-.2 1.5-.5 2.9-.5 4.4v141.2c0 1.5.3 2.9.5 4.4H0V.1h70z" fill="#002394"/></svg>