<svg version="1.1" id="Calque_1" xmlns="http://www.w3.org/2000/svg" x="0" y="0" width="225" height="150" viewBox="0 0 225 150" xml:space="preserve"><style>.st0{fill:#fe0000}.st2{fill:#fefefe}.st3{fill:#fefe00}.st4{fill:#fdfd00}.st5{fill:#ebeb00}.st6{fill:#e3e300}.st7{fill:#949300}.st8{fill:#695800}.st9{fill:#8a8a00}.st11{fill:#e5e500}.st13{fill:#eded00}.st15{fill:#6b4300}.st19{fill:#f0f000}.st20{fill:#704200}.st22{fill:#633d00}.st28{fill:#f1f000}.st34{fill:#dada00}.st43{fill:#5b3c00}.st59{fill:#989800}.st70{fill:#868600}.st72{fill:#783600}.st81{fill:#fcfc00}.st82{fill:#fbfb00}.st84{fill:#e8e800}.st86{fill:#e4e400}.st88{fill:#7b7b00}.st90{fill:#f4f400}.st91{fill:#6e6e00}.st92{fill:#9c9c00}.st94{fill:#f3f300}.st95{fill:#880}.st96{fill:#909000}.st97{fill:#8d8d00}.st98{fill:#797900}.st99{fill:#8e8e00}.st100{fill:#fafa00}.st102{fill:#f8f800}.st103{fill:#9b9b00}.st104{fill:#929200}.st105{fill:#efef00}.st106{fill:#78781e}.st109{fill:#949400}.st110{fill:#919100}.st111{fill:#858500}.st112{fill:#898900}.st113{fill:#8b8b00}.st114{fill:#828200}.st115{fill:#979700}.st116{fill:#e6e600}.st117{fill:#e1e100}.st118{fill:#818100}.st119{fill:#ee0}.st120{fill:#878700}.st121{fill:#8c8c00}.st122{fill:olive}.st123{fill:#7a7a00}.st124{fill:#707000}.st125{fill:#7f7f00}.st126{fill:#770}.st127{fill:#717100}.st129{fill:#f1f100}.st131{fill:#7a7200}.st135{fill:#484d1a}.st136{fill:#7c7c00}.st137{fill:#8e8e0d}.st139{fill:#7d7d00}.st140{fill:#838400}.st142{fill:#6f6f00}.st143{fill:#727200}.st144{fill:#747400}.st145{fill:#757500}.st149{fill:#e7e700}.st150{fill:#016500}.st153{fill:#5b3a13}.st155{fill:#626200}.st169{fill:#848400}.st174{fill:#6f6900}.st184{fill:#8f8f00}.st185{fill:#f2f200}.st186{fill:#8b8c00}.st189{fill:#525a00}.st194{fill:#9e9e00}.st196{fill:#636500}.st207{fill:#eeed00}.st212{fill:#842929}.st214{fill:#826111}.st225{fill:#9e9d00}.st242{fill:#7b6d00}.st254{fill:#7c3800}.st260{fill:#643200}.st277{fill:#837300}.st281{fill:#743c00}.st287{fill:#754200}.st297{fill:#979200}.st298{fill:#a99e00}.st301{fill:#a80c00}.st332{fill:#f9f900}.st344{fill:#b9b700}.st352{fill:#c4d0e7}.st354{fill:#dbe2f0}.st355{fill:#d7dfef}.st363{fill:#d8dfef}</style><g id="portugal"><path class="st0" d="M224.6 150H89.8c-.7-.7-.7-1.7-.7-2.6v-32.3c0-.7 0-1.5.3-2.2.2-.4.6-.6 1-.7 1.5-.1 2.9-.6 4.3-.7.2-.1.3-.1.5-.1.6-.1 1.1 0 1.7-.2.1-.1.3-.1.4-.1.4-.1.9-.1 1.3-.3.1 0 .3-.1.4-.1.3-.1.6-.1.8-.2.1 0 .3-.1.4-.1.3-.1.5-.1.8-.2.1-.1.3-.1.4-.1.3-.1.5-.2.8-.3.1-.1.3-.1.4-.1.2-.1.4-.1.6-.2.1-.1.2-.1.4-.1.2-.1.4-.2.5-.2.1-.1.2-.1.3-.2.1-.1.2-.1.3-.2.1-.1.2-.1.3-.2.2-.1.3-.2.5-.3.1-.1.2-.1.3-.2.2-.1.3-.2.5-.2.2-.1.3-.2.5-.3.1-.1.2-.1.3-.2.2-.1.3-.2.5-.3.1-.1.2-.1.3-.2.2-.1.3-.2.5-.4.2-.1.3-.2.5-.3l.6-.3c.1-.1.3-.1.4-.2.3-.1.5-.4.7-.6s.4-.3.6-.4c.4-.2.7-.4.9-.7.2-.2.4-.3.6-.4.5-.2.9-.6 1.2-1.1.9-1.1 1.9-2.1 3-3 .5-.3 1-.7 1.6-1 .3-.2.6-.4.7-.8l.6-1.5c.1-.1.1-.3.2-.4.2-.2.4-.5.5-.7.1-.1.1-.3.2-.4.1-.3.3-.5.4-.8.1-.2.3-.3.5-.5.3-.2.6-.3.8-.7.1-.3.1-.5.1-.8 0-.2 0-.4.1-.7l.3-.9c.1-.3.3-.6.4-.8.3-.5.5-1.1.7-1.7.2-.4.2-.8.4-1.1.2-.4.2-.8.4-1.2.2-.5.2-1 .4-1.5s.2-1 .4-1.5c.3-.6.2-1.2.3-1.8 0-.2 0-.3.1-.5.1-1.3.8-2.4.7-3.7-.3-1 .3-2.1-.1-3.1-.1-.2-.2-.5-.3-.8-.2-.9.1-1.9-.3-2.8-.2-.7 0-1.5-.3-2.2-.2-.5-.1-1.1-.4-1.5-.2-.5-.1-1-.4-1.5-.1-.4-.2-.8-.4-1.1-.1-.4-.2-.8-.4-1.1-.1-.3-.2-.6-.4-.8-.1-.4-.2-.7-.4-1.1l-.3-.9c-.1-.5-.1-1.1-.5-1.5-.2-.2-.3-.4-.4-.6-.4-.9-.6-1.9-1.2-2.6-.2-.2-.5-.4-.7-.6-.4-.3-.8-.7-1.2-1.1-.2-.3-.5-.6-.8-.8-.4-.3-.7-.7-.9-1.1-.2-.5-.5-1-1-1.2-.7-.5-1.3-1.1-1.9-1.9-.2-.4-.6-.7-1-.8-.5-.2-.8-.6-1.2-1-.2-.2-.4-.4-.7-.6-.3-.2-.5-.4-.7-.6-.2-.2-.4-.4-.7-.5-.2-.1-.3-.2-.5-.3s-.3-.2-.5-.4c-.1-.1-.2-.1-.3-.2-.2-.1-.4-.2-.5-.3-.2-.1-.3-.2-.5-.3s-.3-.3-.5-.4c-.1-.1-.2-.1-.3-.2-.1-.1-.2-.1-.4-.2-.1-.1-.2-.1-.4-.2-.1-.1-.2-.1-.4-.2-.1-.1-.2-.1-.4-.2-.1-.1-.2-.1-.4-.2-.1-.1-.2-.1-.3-.2-.2-.1-.3-.2-.5-.2-.1 0-.2-.1-.4-.1-.2-.1-.4-.1-.6-.2-.1 0-.3-.1-.4-.1-.2-.1-.4-.2-.6-.2-.1 0-.3-.1-.4-.1-.2-.1-.4-.1-.6-.2-.1 0-.3-.1-.4-.1-.3-.1-.6-.1-.9-.2-.2 0-.3-.1-.4-.1l-.9-.3c-.2 0-.3-.1-.4-.1-.4-.2-.9-.1-1.4-.3-.2 0-.3-.1-.5-.1-.5-.2-1-.1-1.4-.2-.3 0-.5-.1-.8-.2-1.4-.1-2.6-.7-4-.7-.5-.1-.8-.3-1.1-.7-.3-.6-.4-1.3-.4-2V2.6c0-.9 0-1.8.7-2.4.7-.3 1.4-.1 2-.1h130.8c.7 0 1.4-.2 2 .2.4.6.2 1.3.2 2v145.6c.5.8.7 1.5.3 2.1z"/><path d="M89.8.4v37.3c-.2.3-.5.4-.8.5-.2 0-.3.1-.5.1-.2.1-.5.1-.7.2-.5.1-.9.2-1.4.4-.2.1-.4.1-.6.1h-.7c-.3.1-.6.2-1 .3-.9 0-1.7.4-2.6.5C73 42 66.1 46.4 60.7 53.3c-.4.5-.9 1-1.6 1.1-.2 0-.3 0-.5.1.2 0 .3.2.3.3v.5c-.5 1.3-1.2 2.6-1.9 3.9-.1.1-.2.3-.3.4-.1.1-.2.2-.3.4-.4.3-.3.7-.3 1.1-.4 2-1.4 3.8-1.8 5.7-.1.3-.2.6-.3 1v.5c0 .2-.1.5-.1.7-.1.4-.2.8-.2 1.2 0 .3 0 .7-.1 1-.2.5-.2 1.1-.3 1.7-.1.5-.1.9 0 1.4.1.4.1.8.1 1.2v.5c-.1.5-.1 1 .1 1.5.5 2.4.6 4.9 1.3 7.3.5 1.5.9 3.1 1.6 4.6.2.8.6 1.4.9 2.2.1.2.1.3.2.5.2.8.9 1.4 1.2 2.2.1.2.2.5.2.7-.1.6.2.7.7.7 2.7 3.5 5.5 6.7 9.1 9.3 4.5 3.2 9.4 5.3 14.8 6.3.3.1.6.2 1 .3h.8c.2 0 .5.1.7.1.6.3 1.2.2 1.9.3.2 0 .4.1.7.1h.7c.3 0 .7.1.9.3.1.2.1.3 0 .4v37.4H.3C0 100.1 0 50.2 0 .4.6 0 1.3.2 2 .2h85.8c.7 0 1.4-.2 2 .2z" fill="#060"/><path class="st2" d="M89.8.4c-.7 0-1.4-.1-2-.1H0V0h225v150h-.4V.4H89.8z"/><path class="st3" d="M122 93.9c-.2 0-.3.2-.3.4-.2.2-.1.6-.4.8-.3.4-.5.8-.8 1.1-.2.4-.5.7-1 .6-.5-.2-.8-.7-1.2-.9-.6-.4-1.1-1-1.6-1.6-.3-.5-.7-.8-1.2-1.1-.3-.2-.6-.5-.9-.8-.4-.4-.8-.8-1.3-1.1-.2-.1-.4-.3-.6-.4-.3-.3-.6-.5-.9-.7-.2-.1-.4-.3-.6-.4-.4-.4-.8-.6-1-1.1-.2-.3-.2-.7-.1-1 .2-.7.5-1.2.7-1.9.4-.8.3-1.8 1-2.6.1-.1.3-.2.5-.2.3 0 .7.1 1 .3.4.2.7.4 1 .7.2.3.5.5.9.7.2.1.4.3.5.4.3.4.7.6 1.1.8.4.2.7.5.9.8.4.7 1 1.1 1.6 1.5.7.8 1.7 1.3 2.3 2.3.2.5.6.8.9 1.2.2.2.3.5.3.7.1.5-.2 1.1-.8 1.5z"/><path class="st4" d="M99.1 111.1h-.2c-.4.4-1.1 0-1.5.4-.6.5-1.3-.1-1.9.4h-.4c-.3.3-.6.2-.9.2-.2 0-.3-.1-.4-.2-.8-.3-2-.2-2-1.5 0-1 .5-1.5 1.4-1.6 1.6-.3 3.2-.5 4.8-.9.9-.2 1.8-.4 2.6-.7.7-.2 1.3-.4 1.9-.7 1.2-.4 2.2-.9 3.3-1.5.1-.1.2-.2.4-.3l.6-.3c.1-.1.2-.1.4-.2s.3-.2.5-.4c.2-.1.3-.2.5-.3.2-.1.5-.3.7-.5.2-.1.3-.3.5-.4.4-.1.6-.4.9-.6.2-.2.4-.3.5-.4.6-.3 1-.8 1.4-1.2.9-.9 1.7-2 2.8-2.9.6-.4.9-.9 1.3-1.5.2-.2.4-.3.7-.4.8-.1 1.3.3 1.6 1 .2.4.2.7.1 1.1-.2.6-.6 1.2-1.1 1.6-1.6 1.1-2.7 2.6-4.1 3.9-.2.2-.4.3-.6.5-.5.2-.9.6-1.3 1-.1.1-.2.2-.4.3-.3.1-.6.4-.9.6-.2.1-.3.3-.5.4s-.5.3-.7.4-.3.2-.5.3c-.2.1-.3.2-.5.3-.1.1-.2.1-.3.2-.2.1-.3.2-.5.3-.1.1-.2.1-.3.2-.2.1-.4.2-.5.3-.1.1-.3.1-.4.1-.4.1-.9.1-1.3.4-.3.2-.6.2-.8.4-.6.2-1.2.4-1.8.7-.4.2-.8 0-1.2.4-.4.2-.9.1-1.2.4-.7 0-1.3.3-1.5.4.3 0 1-.3 1.7-.5.3-.3.8-.1 1.2-.4.3-.3.8-.1 1.2-.4.6-.3 1.2-.4 1.8-.7.3-.2.6-.2.9-.5.3-.1.6-.2 1 0 .1.1.1.2.1.3 0 .1 0 .2-.1.2-.2.2-.6.2-.8.4-.2.2-.6.2-.8.4-.2.2-.6.2-.8.4-.3.4-.8 0-1.1.4-.3.4-.8 0-1.1.4-.3.4-.8 0-1.1.4-.4-.1-.9-.4-1.3-.1z"/><path class="st5" d="M108.2 43.1c0 .2.2.3.4.3l.2.2c0 .2-.1.3-.2.4-.2.1-.4.1-.7.1-.3-.1-.6-.2-.8-.3-.3-.1-.5-.3-.8-.4-.3-.1-.5-.3-.8-.4-.3-.1-.6-.2-.9-.4-.6-.3-1.2-.5-1.9-.7-1.9-.9-4-1.3-5.9-1.9-.2-.1-.3-.3-.3-.5s0-.4.1-.6c.2-.2.3-.2.5 0 .6.5 1.3-.1 1.9.4.3.3.8 0 1.2.4h.3c.3.3.9 0 1.2.4.3.3.8 0 1.1.4.2.2.6.1.8.4.3.4.8 0 1.1.4.2.2.6.1.8.4.2.2.6.2.8.4.2.2.6.2.8.4.2.2.6.2.8.4-.3 0 .1-.1.3.2z"/><path class="st6" d="M112.7 46.1c.3.4.6.8 1.1 1.1.4.3.8.4 1.1.8.5.7 1.1 1.3 1.8 1.8.3.2.3.4.2.7-.1.1-.3.2-.4.2-1.2-.3-1.7-1.6-2.8-2-.5-.3-.9-.7-1.3-1.1-.2-.3-.5-.6-.9-.8-.2-.1-.4-.3-.5-.4-.3-.2-.6-.5-.9-.7-.1-.1-.2-.2-.4-.2-.2-.2-.5-.3-.7-.5l-.3-.3c-.2-.3-.3-.5-.1-.8.3-.2.5-.2.7 0 .2.2.6.1.7.4 0 .2.2.3.4.3.2.2.6.1.7.4.2.3.4.6.8.7.2.2.6.1.8.4z"/><path class="st7" d="M126.9 72.9c0 .2.2.4.4.4.1 1-.1 1.9-.5 2.7-.3.2-.5.2-.8.1s-.5-.3-.6-.5v-.5c.8-1-.1-1.3-.7-1.6-.7-.4-1.7-.5-2-1.5.1-.2.2-.3.3-.4.2-.1.5-.1.7-.1.3 0 .6.2.9.2s.5 0 .8-.1h.4c.3.1.4.3.6.6.1.3.3.6.5.7z"/><path class="st8" d="M94 111.8h1.1c-.1.3-.2.4-.5.4h-2.2c-.2.2-.3.5-.5.7-.4 0-.8.2-.9-.3 0-.2.1-.3.1-.5.3-1.1-.1-2.3.4-3.4.1-.2.3-.3.4-.3.5-.1.9 0 1.3.4.1.2.1.3 0 .5-.3 0-.6 0-.9.1-.3.6-.1 1.1-.2 1.8 1 0 1.8.1 2.6.1-.2.4-.5.3-.7.3-.5.2-1 .3-1.5 0 .4.3 1-.1 1.5.2z"/><path class="st9" d="M91.4 112.6h-1.5c0-.1 0-.2-.1-.3.8-2.5.3-5 .4-7.5.1-1-.1-2.1.6-3 .2-.1.5-.1.6.1.7 1.3.4 2.7.3 4 .1 2.2-.2 4.4-.3 6.7z"/><path d="M118.7 52.4c.5 0 .8.2.7.7.2.3.1.5-.1.8-.1.1-.2.2-.3.2l-.3.3c-.1.1-.3.2-.4.2-.8.1-1.4-.1-1.9-.7-.1-.2.2-.5-.2-.5-.4-.1-.7-.2-.9-.6 0-.2 0-.3.1-.5.8-.7 1.6 0 2.4-.2.3 0 .6.2.9.3z" fill="#8a8700"/><path class="st11" d="M117.5 99.8c-1.1.9-2.1 1.9-3 3-.2.3-.4.3-.7.2-.1-.1-.2-.3-.1-.5 1-1.3 2.2-2.4 3.5-3.5.2 0 .3 0 .5.1.1.3.1.6-.2.7z"/><path d="M123.1 58c.6.5.6.7.4 1.3-.1.2 0 .4 0 .5-.1 0-.2.1-.2.1-.4-.1-.8-.3-1.2-.3-.7-.5-1.6-.9-1.6-2.1.3-.3.6-.3 1-.3.7.1.9.9 1.6.8z" fill="#6a6500"/><path class="st13" d="M108.6 106.2c0-.2.1-.4.4-.4.2-.2.5-.1.7-.4 0-.2.1-.4.4-.4.1-.1.3-.2.4-.1s.2.3.2.5c0 .4-.4.5-.6.7-.2.2-.5.2-.7.4-.2 0-.4.1-.4.3-.2.3-.5.2-.7.4-.2.2-.6.2-.8.4-.2.2-.5.2-.7.2s-.3 0-.5-.1c-.1-.2-.1-.3.1-.5s.6-.2.8-.4c.2-.2.6-.2.8-.4 0 0 .4.1.6-.2z"/><path d="M127.3 76.6c.5.2.4.6.3.9s-.5.6-.6.8c-.3.8.3 1.6-.5 2.1-.2-.1-.3-.3-.4-.4-.2-.9-.2-1.8 0-2.6.1-.2.2-.3.3-.5.3-.2.6-.3.9-.3z" fill="#613400"/><path class="st15" d="M121.3 54.6c1.1.7 1 2 1.5 3-.2.2-.5.2-.7.1-.3-.3-.5-.7-.8-1-.3-.5-.7-.9-.9-1.5 0-.4.3-.6.6-.6h.3z"/><path d="M127.3 76.6c0 .2-.1.4-.4.4l-.3-.3c-.2-.3-.3-.5 0-.8.2 0 .4-.2.4-.3-.2-.8.3-1.5.4-2.3.5 0 .5.4.4.7-.6.9-.5 1.8-.5 2.6z" fill="#551800"/><path d="M91 37.8c.1-.6.5-.3.9-.3.2.2.3.5.4.6.8.4 1.8-.3 2.4.5l-.2.2c-.7.5-1.4.3-2.1.3-.2 0-.3-.1-.5-.1-.3-.1-.6-.4-.7-.7 0-.1-.1-.1-.1-.2-.1-.2-.1-.2-.1-.3z" fill="#5f2c00"/><path class="st5" d="M118.7 52.4c-.3.9-.5-.2-.8 0-.8 0-1.3-.3-1.4-1.1 0-.3.1-.6.3-.8.7-.2.8.5 1.1.8.3.3.6.7.8 1.1z"/><path d="M126.9 72.9c-.3 0-.6.1-.7-.4v-.3c0-.7-.4-1.5.2-2.2l.2-.2c.3.1.4.2.4.5-.1 1-.1 1.8-.1 2.6z" fill="#613a00"/><path class="st19" d="M112.7 103.2c0-.2.1-.4.4-.4.3-.2.5-.2.8 0 .2.7-.5.8-.8 1.1-.2 0-.3.1-.4.3-.2.2-.4.3-.6.2-.1-.1-.2-.3-.2-.4.1-.3.5-.5.8-.8z"/><path class="st20" d="M122 93.9c.1-.6.6-1.2.4-1.9 0-.1.1-.1.1-.2.1 0 .3 0 .4.1.1.2.2.4.2.6v.2c-.1 1-.2 1.1-1.1 1.2z"/><path d="M117.5 99.8c0-.2.1-.5.1-.7.2-.5.5-1 1.1-1 .3.1.5.3.3.6-.5.4-1 .8-1.5 1.1z" fill="#6c3a00"/><path class="st22" d="M119.4 96.5c.5.1.7-.3 1.1-.4-.1.7-.2 1.4-.7 1.9-.1 0-.1-.1-.2-.1-.3-.3-.4-.7-.3-1.2 0 0 .1-.1.1-.2z"/><path d="M113 104c.3-.4.5-.7.8-1.1.2 0 .5 0 .7-.1-.3.6-.6 1.3-1.5 1.2z" fill="#7d3b00"/><path d="M124.7 87.9c0 .7-.1 1.4-.8 1.9l-.2-.2c-.2-.3-.2-.6-.1-1 .2-.4.4-.7.8-.8.1 0 .2.1.3.1z" fill="#6c3f00"/><path d="M126.2 67.7c.3.1.4.2.4.5V70c-1.2-.4-.9-1.2-.6-2 0-.2.1-.2.2-.3z" fill="#623a00"/><path d="M119.1 98.8c0-.3-.1-.4-.4-.4-.2-.4 0-.6.2-.8.1-.1.3-.1.5-.1.2.1.3.3.5.5 0 .6-.3.8-.8.8z" fill="#4f3900"/><path d="M88.7 37.8H91c.1.2.1.4-.1.6-.7.4-1.4.4-2.1 0-.2-.2-.2-.4-.1-.6z" fill="#3b2b00"/><path class="st28" d="M110.5 105.5v-.4c.1-.4.5-.5.8-.8.3-.2.5-.2.8 0 .2.4-.2.5-.4.7-.2 0-.3.1-.4.3-.3.4-.6.4-.8.2z"/><path d="M117.9 51.3c-.4-.3-.7-.5-1.1-.8 0-.2-.1-.5-.1-.7.7.3 1.3.6 1.2 1.5z" fill="#7e4c00"/><path d="M119.1 53.8c.1-.2.2-.5.4-.7.5.3.9.6 1.1 1.1l-.2.2c-.6.2-1.1 0-1.3-.6z" fill="#584c00"/><path d="M98.8 39.3h-1.4c-.3 0-.4-.1-.5-.4h1.4c.3 0 .5.1.5.4z" fill="#6f3200"/><path d="M95.4 111.8c.5-.7 1.3-.2 1.9-.4 0 .3-.2.4-.5.4h-1.4z" fill="#653500"/><path d="M126.5 80.8v1.4c0 .3-.1.4-.4.5l-.2-.2c-.3-.6-.3-1.1.1-1.7.2-.1.4-.1.5 0z" fill="#5b3100"/><path class="st34" d="M122.1 57.6c.2 0 .5.1.7.1 0 .2.2.3.4.4 0 .2-.2.4-.3.3-.4-.2-.9-.2-1.1-.7l.2-.2c-.1 0 0 0 .1.1z"/><path d="M97 38.9h-.4c-.3.3-.7.3-1.1.1-.2-.2-.2-.3-.1-.5.6.2 1.2-.4 1.6.4z" fill="#7d2800"/><path d="M114.9 48c-.5-.1-.9-.3-1.1-.8.6-.1 1 .1 1.1.8z" fill="#824300"/><path d="M97.3 111.5c.4-.7 1-.3 1.5-.4-.3.7-1 .2-1.5.4z" fill="#613900"/><path d="M111.5 105.1c.1-.2.3-.5.4-.7.2 0 .5 0 .7-.1-.1.6-.4.9-1.1.8z" fill="#794c00"/><path d="M110.5 105.5c.2 0 .5-.1.7-.1-.1.6-.5.8-1.1.8.1-.2.2-.4.4-.7z" fill="#763800"/><path d="M120.5 96.1c0-.6.2-.9.8-1.1 0 .6-.2 1-.8 1.1z" fill="#6a4200"/><path d="M125.8 66.2c.7.3.2 1 .4 1.5-.9-.1-.7-.7-.6-1.3l.2-.2z" fill="#5b3800"/><path d="M125.4 64.7c.7.3.2 1 .4 1.5-1-.1-.8-.7-.6-1.3l.2-.2z" fill="#663900"/><path class="st43" d="M126.2 82.7c-.2.5.4 1.2-.4 1.5l-.2-.2c-.1-.2-.1-.3-.2-.5.1-.4.1-.9.8-.8z"/><path d="M125.8 84.2c-.2.5.4 1.1-.4 1.5l-.2-.2c-.2-.6-.4-1.2.6-1.3z" fill="#592700"/><path d="M101.5 40c-.4-.1-.9.2-1.2-.4.4.2 1-.3 1.2.4z" fill="#672700"/><path d="M125.4 85.7c-.1.4.3.9-.4 1.1l-.2-.2c0-.5-.1-1 .6-.9z" fill="#5a3800"/><path d="M125 63.6c.7.2.3.7.4 1.1-.7 0-.6-.5-.5-.9 0-.1.1-.1.1-.2z" fill="#5c3200"/><path d="M124.7 62.5c.7.2.3.7.4 1.1-.8 0-.6-.5-.5-.9-.1-.1 0-.2.1-.2z" fill="#653400"/><path d="M100 39.7c-.4-.1-1 .3-1.2-.4.4.1 1-.3 1.2.4z" fill="#5d4000"/><path d="M99.1 111.1c.2-.6.8-.3 1.2-.4-.2.7-.8.3-1.2.4z" fill="#683400"/><path d="M100.3 110.7c.2-.6.8-.3 1.1-.4-.1.7-.7.3-1.1.4z" fill="#6a4900"/><path d="M104.4 41.2c-.4-.1-.9.3-1.1-.4.4.1 1-.3 1.1.4z" fill="#773d00"/><path d="M101.4 110.3c.2-.6.7-.3 1.1-.4-.1.8-.7.3-1.1.4z" fill="#6d4c00"/><path d="M123.9 60.6c.7.2.3.7.4 1.1-.1 0-.2 0-.3.1-.4-.2-.4-.6-.3-1 .1-.1.2-.1.2-.2z" fill="#6a4300"/><path d="M102.6 40.4c-.4-.1-.9.3-1.1-.4.3.1.9-.3 1.1.4z" fill="#722b00"/><path d="M102.6 110c.2-.6.7-.3 1.1-.4-.2.7-.8.3-1.1.4z" fill="#773c00"/><path d="M125 86.8c-.1.4.3.9-.4 1.1-.3-.5-.4-1 .4-1.1z" fill="#5d3900"/><path d="M106.7 107.7h.7c0 .5-.4.4-.7.4 0-.1-.1-.1-.1-.2 0 0 .1-.1.1-.2z" fill="#745d00"/><path class="st59" d="M95.5 38.5v.3c-.1.1-.3.2-.4.2-.3-.1-.4-.2-.3-.5v-.1c.2.1.4.1.7.1z"/><path d="M105.9 108.5v-.4c0-.1.1-.1.1-.2.2 0 .4 0 .6.1 0 .6-.4.5-.7.5z" fill="#725900"/><path d="M105.2 108.9c.1-.5.5-.4.8-.4-.1.5-.5.3-.8.4z" fill="#685500"/><path class="st43" d="M104.4 109.2c.1-.5.5-.4.8-.4-.1.6-.5.4-.8.4z"/><path d="M103.7 109.6c.1-.5.5-.3.8-.4-.1.5-.5.4-.8.4z" fill="#5e3400"/><path d="M123.6 59.9c.5.1.3.4.4.7-.7 0-.7-.3-.4-.7z" fill="#522f00"/><path d="M109.3 106.6c.1-.5.4-.4.7-.4 0 .5-.4.4-.7.4z" fill="#6d4900"/><path d="M124.3 61.7c.5.1.3.5.4.8-.6-.1-.7-.4-.4-.8z" fill="#503a00"/><path d="M108.2 107.4c.1-.5.4-.4.7-.4 0 .5-.4.3-.7.4z" fill="#6f3600"/><path d="M107.4 107.7c.1-.5.4-.4.8-.4-.1.6-.5.4-.8.4z" fill="#6c4700"/><path d="M123.9 89.8c0 .3.1.7-.4.8l-.2-.2c.1-.4.1-.7.6-.6z" fill="#523a00"/><path class="st20" d="M123.6 90.5c0 .3.1.7-.4.8l-.2-.2c0-.4 0-.7.6-.6z"/><path d="M110 44.2c-.3-.1-.7 0-.7-.4.3 0 .7-.2.7.4z" fill="#6b3500"/><path class="st20" d="M123.2 91.3v.7l-.2.2-.2-.2c-.2-.2-.2-.4-.1-.7.1-.1.3-.1.5 0zm0 .7c.5.3.5.5 0 .8-.2-.3-.3-.5 0-.8z"/><path class="st70" d="M126.5 80.8h-.3c-.1-.1-.2-.3-.2-.4.1-.3.2-.4.5-.4v.4c.1.2 0 .3 0 .4z"/><path d="M112.7 46.1c-.3-.1-.7 0-.7-.4.2 0 .7-.2.7.4z" fill="#7a4600"/><path class="st72" d="M111.2 44.9c-.3-.1-.7 0-.7-.4.2 0 .7-.1.7.4z"/><path d="M106.7 42.3c-.3 0-.7.1-.8-.4.3 0 .7-.1.8.4z" fill="#704b00"/><path d="M106 41.9c-.3 0-.7.1-.8-.4.3 0 .7-.1.8.4z" fill="#603b00"/><path d="M105.2 41.5c-.3 0-.7.1-.8-.4.3.1.7-.1.8.4z" fill="#642a00"/><path d="M103.3 40.8c-.3 0-.7.1-.8-.4.4 0 .8-.1.8.4z" fill="#5f3400"/><path d="M109.3 43.8h-.7v-.4c.3 0 .7-.1.7.4z" fill="#6f5900"/><path d="M121.3 95c0-.3 0-.7.4-.8 0 .4.1.8-.4.8z" fill="#6f4f00"/><path d="M108.2 43.1c-.3-.1-.7.1-.7-.4.2 0 .7-.2.7.4z" fill="#723100"/><path d="M107.4 42.7c-.3 0-.7.1-.8-.4.4 0 .8-.2.8.4z" fill="#6f3f00"/><path class="st15" d="M120.6 54.2c.3 0 .7-.1.7.4-.4.2-.8.3-.7-.4z"/><path class="st3" d="M56.5 59.1c.7-1.4 1.3-2.9 2.2-4.1.7-.7 1.7-.5 2.5-.5.2 0 .4.1.6.1 1.1.5 2.3.8 3.4 1.2.7.4 1.5.5 2.1 1.1.9 1.9.7 3.9.2 5.9-.8.6-1.5-.1-2.2-.2-.3-.1-.6-.3-1-.4-.4-.2-.7-.3-1.1-.4-.3-.1-.6-.2-.9-.4-.4-.2-.8-.2-1.1-.4-.4-.2-.8-.2-1.2-.4-1.1-.6-2.5-.4-3.5-1.5z"/><path class="st81" d="M58 94.2c-.4-.7-.7-1.5-1.5-1.7 0-.3.1-.4.3-.5.3-.5.5-1.1 1.3-.9.8.5 1.3-.3 1.9-.5.3-.2.6-.3.9-.4.4-.2.8-.2 1.2-.4.4-.1.8-.2 1.2-.4.9-.1 1.7-.5 2.6-.8.6-.1 1.2-.2 1.7-.4 2.3 0 2.6.3 2.5 2.2-.4.7-1.3.6-1.9.9-1.3.3-2.7.6-4 1.1-.4.2-.8.2-1.2.4-.4.2-.8.2-1.1.4-.3.1-.6.2-.8.4-.3.1-.5.3-.8.4s-.6.3-.9.4c-.4.1-.9.3-1.4-.2z"/><path class="st82" d="M52.8 75.5V74c.7-1.8 2.6-1.9 4-2.7 1-.4 2.1-.7 3.1-1.1 1.5-.3 3-.7 4.5-1.1l2.1-.3c1.4.2 1.5 1.1 1.1 2.2-1.2 1.3-3 1-4.5 1.5-.5.2-1.1.2-1.6.4s-1 .1-1.5.4c-.4.1-.8.2-1.2.4-.4.1-.8.2-1.2.4-.4.1-.8.2-1.1.4-.6.2-1.2.4-1.8.7-.6.2-1.2.8-1.9.3z"/><path d="M90.9 101.8V112c-.4.3-.8.1-1.1.3h-1.1c-.1-.1-.3-.2-.3-.4-.3-3.4-.5-6.7.2-10.1.8-.7 1.6-.7 2.3 0z" fill="#f6f600"/><path class="st84" d="M83.5 111.5c-2.4-.2-4.6-1-6.8-1.8-3-1.2-5.9-2.7-8.5-4.6s-5-4-6.9-6.6c-.6-.8-1.3-1.6-2-2.4-.2-.2-.2-.5-.2-.7.6-.3 1 .1 1.4.4.2.2.4.4.5.6.2.4.4.7.7 1 .2.2.3.4.4.6.3.7.8 1.2 1.4 1.7.7.8 1.5 1.5 2.3 2.3.4.4.8.8 1.3 1 .2.1.4.3.6.4.3.3.6.5.9.7.2.1.4.3.5.4.2.3.5.5.8.7.1.1.2.2.4.2.2.2.4.3.7.5.1.1.3.1.4.2l.6.3c.1.1.3.2.4.3.6.4 1.3.8 2 1 .1 0 .3.1.4.2l.6.3c.1.1.2.1.4.2s.4.2.5.3c.1 0 .3.1.4.1.3.1.5.2.8.3.1 0 .3.1.4.2.5.3 1 .4 1.6.5.2 0 .3.1.5.1.8.3 1.6.5 2.4.6.2 0 .3.1.5.1.5.2 1.1.2 1.7.3.2.1.3.1.4.2s.2.3.2.4c0 .2-.1.3-.2.4h-.7c-.3-.3-.6-.2-.8-.4z"/><path d="M60.3 53.1c1.1-1.4 2.2-2.8 3.5-4 4.3-4.2 9.2-7.1 14.9-9 .8-.3 1.6-.8 2.6-.7.1.1.2.3.2.4 0 .1 0 .2-.1.2-.1.1-.2.3-.4.3-.6.2-1.3.4-1.9.6-.1.1-.3.1-.4.2-.3.1-.6.1-.8.2-.1.1-.3.1-.4.2-.2.1-.4.2-.6.2-.1.1-.2.1-.4.1-.1.2-.3.2-.5.3-.1.1-.2.1-.4.1-.2.1-.4.2-.5.2-.1.1-.2.1-.4.2-.1.1-.2.1-.4.2 0 .1-.1.2-.3.2-.1.1-.2.1-.4.2-.1.1-.2.1-.4.2-.1.1-.2.1-.4.2-.1.1-.2.1-.4.2s-.3.2-.5.3c-.1.1-.2.1-.3.2-.2.1-.4.3-.7.4-.1.1-.2.2-.3.2-.2.1-.3.2-.5.3s-.3.2-.5.3c-.2.2-.4.3-.7.5-.2.1-.4.3-.5.4-.4.2-.6.4-.9.7-.4.4-.8.9-1.3 1.2-1.6.9-2.8 2.3-3.8 3.7-.2.3-.4.6-.6.8-.1.1-.3.2-.4.3-.3.2-.8 1.1-1.1 0z" fill="#e9e900"/><path class="st86" d="M55.9 89.8c-1.3-2.8-1.9-5.9-2.7-8.9-.1-.4-.1-.7 0-1.1 0-.9 0-1.8-.4-2.7.1-.3.3-.5.7-.5 1.2.9.3 2.3.9 3.3.2.7.1 1.5.4 2.2.1 1 .3 2 .7 2.9.1.4.2.8.4 1.2.1.4.2.8.4 1.2l.3 1.2c.1.3 0 .5 0 .8-.3.2-.4.4-.7.4z"/><path class="st3" d="M88 38.1c0-.2.1-.4.4-.3.3.4.5.8.5 1.4 0 3.3.2 6.5-.1 9.8-.1.2-.3.4-.5.5-.3 0-.4-.1-.6-.3-.8-2.4-.4-4.8-.2-7.3.1-1.3-.4-2.6.5-3.8z"/><path class="st59" d="M88.3 49.4V37.9h.4v.4c.2.2.4.4.4.6.4 3.5.7 7-.2 10.4-.1.1-.3.2-.6.1z"/><path d="M53.6 68.1v-.4c.2-.2.1-.6.3-.8.2-2 1-3.8 1.7-5.6.1-.2.1-.5.2-.7.5-.8.8-.6 1 .2 0 .3-.1.7-.2 1-.2.4-.3.7-.4 1.1-.1.4-.2.8-.4 1.1-.2.4-.2.8-.4 1.2-.4.9-.5 1.8-.9 2.7-.1.1-.3.2-.4.3-.2.1-.4 0-.5-.1z" fill="#eaea00"/><path class="st59" d="M88.8 101.8v10.4c0 .3-.1.4-.4.4-.4-.6-.6-1.2-.5-2 .2-2.9-.4-5.8.3-8.7.1-.2.3-.3.6-.1z"/><path class="st88" d="M52.8 73c.1-.6-.4-1.4.3-1.9.3.3.2.6.2.9.1-.4 0-.8.1-1.2.1-.1.3-.2.5-.2 1.8.7 1.4-1.2 2.2-1.8 1-.1.8.9 1.2 1.4.1.2.1.3.2.5v.3c0 .2-.1.3-.2.4l-1.5.6c-.2.2-.5.2-.8.4-.1.1-.3.2-.4.2-.2.1-.4.3-.6.4-.4.1-.8.2-1.2 0z"/><path class="st3" d="M88.3 101.8v10.8c-.3 0-.3-.1-.4-.3-.9-1.1-.4-2.5-.5-3.7-.1-2.2-.5-4.4.3-6.6.2-.3.4-.4.6-.2z"/><path d="M87.9 108.5v3.8h-1.7c-.3 0-.5-.1-.6-.3.3-.4.8-.2 1.1-.2.2 0-.2-.4 0-.2-.6.3-1.2.2-1.9 0v-.4c.3-.6 1.1-.4 1.5-.9 0-.6-.9-.6-.8-1.3.4-.7 1.1-.6 1.7-.7.4 0 .6 0 .7.2z" fill="#6b6c00"/><path class="st90" d="M52.8 73c.3 0 .5-.7.9-.1.1.1.2-.1.3-.3.2-.2.5-.2.7-.4.2-.2.5-.2.7-.4.4-.7 1.1-.8 1.9-.8.3.5-.4.5-.4.8-.6.6-1.4.6-2.1 1-.7.4-1.3.8-1.9 1.2-.1-.2-.3-.4-.4-.5.1-.2.2-.3.3-.5z"/><path class="st91" d="M88 38.1v3.8c-.1.1-.3.1-.5.2-.4 0-.9 0-1.3-.2-.3-.2-.6-.3-.5-.8.2-.4.7-.5 1-.8.2-.6-.4-.7-.6-1-.1-.1-.1-.3-.1-.4.2-.1.4-.1.7-.2 0-.2-.2 0-.2-.2.3-.7 1-.2 1.5-.4z"/><path class="st92" d="M60.3 96.1c-.5 0-.6-.7-1.2-.7l-.6.3c-.2-.5-.3-1-.5-1.4.6.2.9-.5 1.5-.4 0 .1.1.1.1.2.1.3.4.5.6.7.3.4.5.9.1 1.3z"/><path d="M60.3 53.1c.1.3.2.4.4.2s.3-.5.7-.5c.2.1.5.2.5.6 0 .3.4.6.2 1-.1.1-.3.2-.5.2-1-.1-2 .3-2.9-.4.1-.1.1-.3.2-.3.7.2.9-.6 1.4-.8z" fill="#727300"/><path class="st94" d="M81.2 39.6v-.3c1-.1 1.9-.6 3-.5.2-.2.6-.1.8-.3h.7c.1.2.1.4 0 .6-1.4.9-2.9 1.2-4.5.5z"/><path class="st5" d="M58.8 54.2h3.7c.5.1 1.3.1.6.9-.4 0-.9.1-1.3-.2-1-.5-2.1.1-3-.4-.1 0-.3-.1-.3-.3 0 .1.2.1.3 0z"/><path class="st95" d="M56.5 61c0-.2 0-.5-.1-.7-.3.1-.4.2-.6.3-.6-.5-.5-.6.4-1.1.8.2 1.6.3 2.4.4.2.1.3.2.3.3 0 .2-.1.3-.2.5-.6.4-1.3.5-2 .4 0 0-.1-.1-.2-.1z"/><path class="st96" d="M58.4 91.3c-.7-.2-.9.7-1.5.7v-.3c-.2-.7-.7-1.2-.6-2 0-.2.1-.3.3-.4.8.1 1.3.8 2 1 .1.1.2.2.3.4 0 .2-.1.3-.2.4s-.2.1-.3.2z"/><path class="st97" d="M56.5 59.1c1.3.2 2.6.4 3.7 1.2l-.2.2c-.5.3-.9.2-1.3-.2-.7-.4-1.7 0-2.3-.8.1-.2.1-.3.1-.4z"/><path class="st98" d="M58.8 54.6h2.5c.3 0 .4.1.5.4h-3v-.4z"/><path class="st81" d="M56.5 59.5c.7.1 1.4.5 2.1.5 0 0 .1.2.1.3-.9-.1-1.9.2-2.6-.7.2-.1.3-.1.4-.1z"/><path class="st6" d="M56.5 89.4c-.2.8.6 1.4.4 2.3-.6-.5-.7-1.2-1-1.9.2 0 .3-.2.3-.4.1-.1.2-.1.3 0z"/><path class="st99" d="M52.8 75.5c.7-.1 1.1-.8 1.9-.7 0 .1.1.1.1.2s0 .3-.1.4c-.1.2-.3.3-.4.4-.2.1-.3.2-.5.3-.1.1-.3.1-.4.1-.2 0-.4-.1-.5-.3-.1-.1-.1-.2-.1-.4z"/><path class="st100" d="M85 111.5h2.5c-.6.5-1.2.3-1.8.4-.2 0-.5-.1-.7-.1v-.3z"/><path d="M52.8 76h.7c.2.4-.1.6-.4.7 0 .3-.1.4-.4.4-.8-.4.1-.8.1-1.1z" fill="#d8d800"/><path class="st4" d="M53.6 70.7c0 .5 0 .9-.1 1.5-.5-.3-.2-.8-.3-1.1 0-.4 0-.7.1-1.1l.2-.2c.2 0 .3.1.4.3l-.3.6z"/><path class="st81" d="M85.7 38.9v-.3c.2 0 .5-.1.7-.1.3 0 .7.1 1.1.1-.5.6-1 .1-1.4.3-.1.1-.3.1-.4 0z"/><path class="st102" d="M53.6 68.1h.3c.5.8.8 1.5-.4 1.9-.3-.4-.2-.8 0-1.2 0-.2.1-.5.1-.7z"/><path class="st103" d="M53.5 68.8V70h-.4c.1-.4-.2-.9.4-1.2zM85 38.6c-.1.5-.5.3-.8.3.1-.5.5-.4.8-.3z"/><path class="st104" d="M83.5 111.5c.3 0 .7-.2.8.3-.4 0-.7.1-.8-.3z"/><path class="st103" d="M53.9 66.9c0 .3.1.7-.3.8-.1-.3-.2-.6.3-.8z"/><path class="st105" d="M122.8 91.3v.8h-.4c0-.2-.1-.4-.3-.4-.3-.4-.5-.8-.8-1.1-.7-.8-1.8-1.2-2.2-2.2-.7-.4-1.2-1.1-1.9-1.5-.1-.4-.3-.6-.7-.7-.4-.3-.8-.5-1.1-.8 0-.2-.1-.3-.4-.4-.4-.3-.8-.5-1.1-.8 0-.2-.1-.3-.3-.4-.3 0-.4-.1-.5-.4-.2-.2-.6-.2-.8-.4-.5-.2-.7-.5-.5-1.1.4-.4.8-.2 1.2 0 .2.1.4.3.6.4.3.3.6.5 1 .7.3.2.6.5.9.8s.6.5.9.7.6.5.9.8.7.6 1.1.8c.5.4 1 .9 1.4 1.3.3.3.5.6.8.8l.8.8.8.8c.3.3.4.6.4 1.1.2.2.2.3.2.4z"/><path class="st5" d="M114.9 92c.4.1.6.3.7.7.5.4 1 .8 1.5 1.1.4.6.9 1.1 1.5 1.5.2.2.2.4.1.7-.1.1-.3.2-.4.2-.8-.7-1.6-1.2-2.5-1.7-.5-.3-1-.6-1.3-1.1-.2-.4-.5-.7-.5-1.2 0-.2.1-.3.2-.4.3 0 .5 0 .7.2z"/><path class="st19" d="M113.1 90.5c.2 0 .4.1.4.4.3.3 1 .4.8 1.1-.2.2-.4.3-.7.2-.3-.1-.5-.2-.7-.3-.3-.3-.7-.5-1-.7-.4-.2-.7-.5-.9-.9-.2-.3-.3-.7 0-1 .3-.2.5-.2.7.1.2 0 .4.1.4.4.2.3.6.4 1 .7z"/><path class="st106" d="M112 81.9c-.2.5.3.7.4 1.1-.6.6-.7 1.3-.7 2.1 0 .3-.1.5-.4.5-.2-.1-.3-.3-.4-.5 0-1.3-.2-2.7 1-3.7.1.2.2.3.1.5z"/><path d="M110.5 87.5v1.3c0 .2 0 .4-.1.6-.1.1-.1.3-.2.4-.4.4-.7 1-1.3.4-.1-1.2.3-2.2 1.4-2.9 0 .2.1.2.2.2z" fill="#69693d"/><path class="st104" d="M117.2 86.8c1 .1 1.4.8 1.9 1.5-1-.1-1.5-.8-1.9-1.5z"/><path d="M111.2 85.3v.4c0 .7 0 1.4-.7 1.9-.6-1.1-.6-1.9.7-2.3z" fill="#78783e"/><path class="st109" d="M117.2 93.9c-.8 0-1.2-.5-1.5-1.1.8 0 1.2.5 1.5 1.1z"/><path class="st110" d="M114.2 92c0-.5-.7-.6-.8-1.1.8 0 1.2.5 1.5 1.1h-.7z"/><path class="st99" d="M113.1 90.5c-.6.1-1-.2-1.1-.8.5 0 .9.3 1.1.8z"/><path class="st111" d="M121.3 90.5c.6.2.8.6.8 1.1-.6-.1-.8-.5-.8-1.1z"/><path class="st112" d="M115.3 85.3c.6 0 .9.2 1.1.8-.5 0-.9-.3-1.1-.8z"/><path class="st70" d="M111.6 89.4h-.8c-.1 0-.2-.1-.2-.1-.2-.2-.3-.4-.1-.6.5-.1.9.2 1.1.7z"/><path class="st9" d="M118.7 96.1v-.7c.5.2.8.5.8 1.1-.5.2-.7 0-.8-.4z"/><path class="st113" d="M113.8 84.2c.6-.1 1 .2 1.1.8-.5 0-.9-.3-1.1-.8z"/><path class="st106" d="M112.3 83c.3 0 .7-.1.8.4-.4 0-.7.1-.8-.4z"/><path class="st114" d="M116.4 96.1c0 .8-.5 1.2-1.1 1.5-.9-.1-1.1 1-2 1-.9-.1-1.9.6-2.8-.2-.3-1 .6-1 1.1-1.1 1.3-.2 2.4-1 3.5-1.7.2-.1.3-.1.5-.1.3.2.6.4.8.6z"/><path class="st114" d="M116 94.2c1.1.2 1.6 1.1 2.3 1.9 0 .1.1.1.1.2s-.1.1-.1.2c-.6-.1-.8-1-1.5-.7-.4-.1-.7.2-1.1 0-.9 0-1.7 1-2.6 0 .4-1.6 2-1 2.9-1.6z"/><path class="st5" d="M113.4 98.4c.8-.2 1.1-1.1 1.7-1.4.3.2.1.5.1.7-1.2.8-1.8 2.2-3 3-.2.2-.4.2-.7.2-.1-.1-.2-.2-.2-.4 0-.4.3-.8.6-1.1.4-.3.7-.7 1.2-.9.2-.1.2-.1.3-.1z"/><path class="st115" d="M113.8 102.9h-.8c1.2-1.5 2.6-2.9 4.1-4.1.1.1.2.2.1.2 0 .1-.1.1-.1.1-.6 1-1.6 1.7-2.3 2.5-.3.4-.8.7-1 1.3z"/><path class="st116" d="M108.2 103.6c-.2 0-.4.1-.4.4-.2.2-.6.1-.8.4-.2.2-.6.2-.8.4-.4.2-.8.7-1.4.5-.3-.3-.2-.6 0-.9s.5-.4.8-.6.6-.3.9-.5c.4-.2.7-.4 1-.6.4-.2.8-.5 1.3-.7.2 0 .3-.1.5 0 .2 0 .3.1.4.3.1.4-.2.5-.5.7-.2 0-.4.1-.4.4-.1.1-.4 0-.6.2z"/><path class="st110" d="M93.2 109.2v-.3c.6-1.2 1.9-.7 2.8-1.1.5-.2.9-.2 1.4-.1.2 0 .4.1.5.2l.2.2c-.3.8-1.3 0-1.7.7-1.1-.1-2.1.4-3.2.4zm11.6-4.1c.6.2 1-.5 1.5-.4-1 1.1-2.3 1.7-3.8 1.9 0-.1-.1-.2-.1-.2.1-.5.6-.7 1-1 .1-.1.3-.1.4-.2.2-.1.4-.1.7-.1h.3z"/><path class="st84" d="M110.8 101.8c0 .2-.1.3-.4.4-.3.2-.5.2-.8 0-.2-.4 0-.7.1-1 .3-.4.6-.7 1-.8.3 0 .5.1.7.3.4.6-.3.7-.6 1.1z"/><path class="st117" d="M117.2 99.1v-.4c.7 0 .5-1 1.1-1.1.3-.2.5-.2.8 0-.1.2-.3.5-.4.7-.3.3-.7.5-1 .8h-.5z"/><path class="st118" d="M100 110c-.9.8-1.9.9-2.9.6.9-.1 1.8-.8 2.9-.6z"/><path class="st110" d="M100.7 107.4c-.7.7-1.7.8-2.6.7.1-1.2 1.1-1 1.9-1.2.2 0 .4.1.5.2s.1.2.2.3z"/><path class="st119" d="M115.7 95.8c.5 0 .6-.6 1-.7.2.2.1.4.1.7 0 .2-.1.4-.4.4l-.6.3c-.2-.2-.1-.5-.1-.7z"/><path class="st110" d="M102.6 106.6c-.4.7-1.1.8-1.9.7.2-1.2.9-1.2 1.9-.7z"/><path class="st114" d="M119.1 97.6h-.8v-1.1c.8 0 1.2.3 1.1 1.1h-.3z"/><path class="st120" d="M104.1 108.5c-.4.7-1.1.8-1.9.7.4-.7 1.1-.8 1.9-.7z"/><path class="st113" d="M110.8 101.8c0-.5.7-.6.8-1.1h.8c-.4.5-.8 1.1-1.6 1.1z"/><path class="st96" d="M111.9 104.4h-.8c.3-.6.7-1.1 1.5-1.1.1.5-.6.5-.7 1.1z"/><path class="st4" d="M94 111.8h-2.2c.9-.5 1.6-.3 2.2-.3v.3z"/><path class="st99" d="M106.3 107.3v.4c0 .2-.3.2-.4.4h-1.1c.4-.6.9-.7 1.5-.8z"/><path class="st121" d="M111.2 104.4c-.1.4-.4.6-.8.8h-.4c.2-.6.6-.9 1.2-.8z"/><path class="st9" d="M109.7 102.1h.8c-.2.5-.5.8-1.1.7 0-.2.2-.4.3-.7z"/><path class="st122" d="M102.2 109.2c-.2.7-.7.3-1.1.4.2-.7.7-.3 1.1-.4z"/><path class="st123" d="M100 110c.2-.7.7-.3 1.1-.4-.2.7-.8.3-1.1.4z"/><path class="st110" d="M106.3 104.7c.1-.5.5-.4.8-.4-.1.6-.5.4-.8.4z"/><path class="st88" d="M108.2 103.6c.1-.5.4-.4.7-.4 0 .5-.4.4-.7.4z"/><path class="st122" d="M107.1 104.4c.1-.5.4-.4.8-.4-.1.5-.5.3-.8.4z"/><path class="st124" d="M104.8 108.1c0 .5-.4.3-.7.4 0-.5.4-.4.7-.4z"/><path class="st118" d="M109.7 105.5c-.1.5-.4.4-.7.4 0-.5.4-.4.7-.4z"/><path class="st114" d="M108.6 106.2c-.1.5-.5.3-.8.4.1-.5.5-.4.8-.4z"/><path class="st125" d="M107.8 106.6c-.1.5-.5.4-.8.4.1-.5.5-.4.8-.4z"/><path class="st99" d="M107.1 107c0 .5-.5.4-.8.4.1-.5.5-.4.8-.4z"/><path class="st59" d="M96.6 39.7c2.3 0 4.4.6 6.4 1.9l-.2.2c-2.3.1-4.3-.6-6.2-1.8v-.3zm0-.4v.4c-1 .9-2 .7-3-.1-.1-.2-.2-.4-.1-.6.6-.6 1.1.2 1.7.1.4.1.9-.2 1.4.2z"/><path class="st95" d="M103 41.5c.7 0 1.4 0 1.9.8l-.2.2c-.9.2-1.7.1-1.7-1z"/><path class="st125" d="M108.6 43.8c.1.3.3.5.4.8-.6.4-1 .1-1.2-.5 0-.1.1-.2.1-.3h.7z"/><path class="st81" d="M96.6 39.3h-1.5c-.1-.1-.2-.2-.1-.3 0-.1.1-.1.1-.1h.4c.4 0 .7 0 1.1.1v.3z"/><path class="st126" d="M107.1 43.4c.3 0 .7-.1.7.4-.3.3-.6.2-.8-.1 0-.1.1-.2.1-.3z"/><path class="st127" d="M106.3 43c.3 0 .7-.1.7.4-.3.3-.6.2-.8-.1.1-.1.1-.2.1-.3z"/><path class="st127" d="M105.6 42.7c.3 0 .7-.1.7.4-.3.3-.6.2-.8-.1 0-.2.1-.3.1-.3zm-.8-.4c.3 0 .7-.1.7.4-.4.2-.7.2-.7-.4z"/><path class="st4" d="M104.8 42.3c.1.5.4.3.7.4 0 .5.4.4.7.4 0 .5.4.4.7.4 0 .5.4.4.7.4.2.6.6.8 1.1.8.4.3.8.5 1.1.8.4.3.8.5 1.1.8.2 0 .4.1.4.4.4.3.8.5 1.1.8l1.1 1.1c1.2.9 2.2 1.9 3 3 0 .7.9.5 1.1 1.1-.1.6-.7.5-.9.3-.6-.4-1.2-.3-1.8-.3h-.2c-.6 0-1.1-.5-1.6-.7-.5-.3-.9-.7-1.2-1.2-.3-.7-1.1-.6-1.7-.7-.2-.1-.4-.2-.6-.4s-.3-.4-.4-.6c0-.1-.1-.3-.1-.4-.1-.2-.1-.4-.3-.5-.2-.1-.3-.3-.5-.4-.2-.1-.4-.3-.6-.4-.2-.1-.3-.2-.5-.4-.2-.1-.3-.2-.5-.3-.1-.1-.2-.1-.4-.2l-.6-.3c-.1-.1-.3-.2-.4-.3-.8-.5-1.6-.9-2.5-1.1-.3-.1-.6-.3-1-.4-1.4-.6-2.8-1.1-4.2-1.4-.6-.3-1.2-.2-1.8-.4-.5-.2-1.1-.2-1.6-.4-.4-.1-.8-.2-1.2-.2-1.2-.1-1.9-.6-1.6-1.8.2-1 1-1.1 1.8-.6.9.7 2 .3 3 .4.2.7.8.2 1.2.4 1.4.6 2.9.7 4.2 1.4.2.1.6 0 .9.1.9.3 1.6.4 2.3.4z"/><path class="st115" d="M116.8 51.3c-1.1-.9-2.2-1.9-3-3 .4-.1.7.1 1 .4.7.6 1.2 1.4 2 1.9v.7z"/><path class="st112" d="M110.1 45.3c-.6 0-1-.2-1.1-.8.5 0 .9.2 1.1.8z"/><path class="st120" d="M111.2 46c-.6 0-1-.2-1.1-.8.5 0 .9.3 1.1.8z"/><path class="st99" d="M112.7 47.1c-.6 0-1-.2-1.1-.8.5 0 .9.3 1.1.8z"/><path class="st4" d="M120.5 57.6c.7.5 1.4 1.2 1.9 1.9.1 0 .1.1.2.1.2.2.3.4.4.5s.1.3.2.4c.2.4.3.9.5 1.3.1.1.1.3.2.5.4 1 .6 2 1 2.9.1.2.1.3.1.5.2 1 .5 2.1.7 3.1 0 .5 0 1 .2 1.5 0 .3.1.7.1 1 0 .2-.1.3-.2.4h-.4c-.1.1-.3.2-.4.2-.2-.1-.5-.2-.7-.3-.1-.1-.3-.2-.4-.3-1.1-.6-.6-1.8-1.1-2.6-.2-.6-.1-1.3-.4-1.8-.3-1.5-.8-2.9-1.4-4.3-.2-.5-.3-1-.6-1.4-.5-1.1-1.1-2.1-1.6-3.2-.1-.4 0-.7.3-.9.5-.1.9 0 1.2.2.1.2.2.2.2.3zm2.3 14.2c.3.6.9.5 1.3.8.8.4 1.7.6 2.4 1.5v1.4c-.4-.1-.7-.4-1.1-.3h-.2c-.2 0-.4 0-.7-.1-.1 0-.3-.1-.4-.2-.4-.2-.9-.4-1.3-.5-.4-.2-.8-.3-1.1-.4-.4-.2-.8-.2-1.1-.4-.4-.2-.8-.2-1.2-.4-.5-.2-1-.2-1.5-.4s-1.1-.2-1.6-.4c-1.4-.6-3-.2-4.2-1.5-.3-.7-.4-1.4.3-2 2.3-.4 4.4.7 6.6 1.1.2 0 .4.1.5.1 1 .5 2.2.6 3.2 1.3 0 .3 0 .3.1.4z"/><path d="M123.2 71.8h-.4c-1.1-.5-2.2-.8-3.4-1.1-2.2-.7-4.4-1.1-6.6-1.6-.3-.1-.6-.2-.4-.6s.5-.4.9-.5h.5c.5.2 1.1.2 1.6.3.2 0 .3.1.4.1.4.1.7.2 1.1.3.1 0 .3.1.4.1.3.1.7.2 1.1.3.1 0 .3.1.4.1.3.1.7.2 1 .3.1 0 .3.1.4.1.3.1.5.2.8.3.1 0 .3.1.4.1.3.1.5.2.8.3.1 0 .3.1.4.2.4.2.6.4.7.9.1.1 0 .3-.1.4z" fill="#e8e700"/><path class="st129" d="M125.4 75.2v.4c-.1.1-.2.2-.4.3-.2 0-.3.1-.5 0-.2 0-.3-.1-.5-.1-.3-.2-.6-.4-.6-.7 0-.2.1-.3.3-.4.3 0 .7 0 1 .2.2.1.5.1.7.3z"/><path d="M126.6 75.9c.1.2.2.5.3.7-.6.4-1 .2-1.2-.5 0-.1.1-.2.1-.3.2.1.5.1.8.1z" fill="#d5d500"/><path class="st100" d="M125.1 71.8h.3c0 .3.1.6-.3.7-.3.1-.4-.1-.5-.4-.1-.1-.1-.2-.1-.3 0-.1 0-.2.1-.2.2.1.3.1.5.2z"/><path class="st131" d="M125.8 71.8v-.4c.1-.7.4-.4.5 0s.1.8-.1 1.2c-.5-.1-.4-.5-.4-.8z"/><path class="st81" d="M124.7 71.9v.3c-.3 0-.7.1-.8-.4-.1-.1-.1-.2-.1-.3 0-.1 0-.2.1-.2.2-.1.3-.1.4.1.1.2.4.2.4.5z"/><path class="st102" d="M125 75.6h.4c.2 0 .4.1.4.4-.1.1-.2.2-.4.2s-.3-.1-.4-.2c-.1-.2-.1-.3 0-.4z"/><path class="st4" d="M123.9 71.5v.3h-.7v-.4c.2-.2.5-.2.7.1z"/><path d="M88.3 101.8h-.4c-.1-.2-.1-.4.1-.6 2.5-.5 5.1-.8 7.7-1 .8.4 1.8.1 2.4.8-.2 1.1-1.1 1-1.9 1.1-1 .1-2.1-.1-3.2.4-.7 1.7-.1 3.5-.5 5.3-.1.2-.1.4-.3.6-.1.1-.2.1-.2.2h-.4c-.5-1.6-.1-3.2-.2-4.7-.1-.7.2-1.4-.2-2h-2.6c0-.1-.1-.1-.3-.1z" fill="#6b380f"/><path class="st3" d="M91.4 101.8c.5 0 .4.4.4.7v9.4c0 .3.1.6-.3.7-.1-3.6-.1-7.2-.1-10.8z"/><path class="st4" d="M96.2 108.1c0 .2-.1.4-.3.4-.9-.1-1.8.1-2.7.4-.4-.2-.9.3-1.1-.4.3-.3.6-.6 1-.7.2-.1.3-.1.5-.1.6-.1 1.2-.1 1.8 0 .3 0 .5.1.8.4-.1-.1 0-.1 0 0z"/><path class="st100" d="M120.5 55c.4.5 1 .8 1.2 1.5.2.5-.2.6-.5.7-.2 0-.4 0-.5-.1-.8-.3-1.5-.9-2.4-1-1.2-.4-2.4-.6-3.1-.8.7.1 1.8.6 3.1.8.3.5 1.2-.1 1.2.8-.5.5-1.1.5-1.8.3-.2-.1-.5-.1-.7-.2-.2 0-.3-.1-.5-.1-.4-.2-.9-.3-1.3-.4-.2 0-.3-.1-.5-.1-.5-.2-.9-.1-1.4-.3-.2 0-.3-.1-.5-.2-.6-1.1-1.4-2.1-.5-3.4 1.1-.5 2 0 2.9.4.3.2.7.1 1 .3l.2.2c.6.6 1.4.7 2.3.8.7 0 1.3.3 1.8.8z"/><path d="M120.5 55c-.7.1-1.4-.1-1.9-.7v-.4h.4c.6-.1.9.5 1.5.4.1.5.4.3.7.4 0 .4-.4.3-.7.3z" fill="#b7b700"/><path class="st100" d="M115.3 52.4v.4c-.1.1-.2.1-.2.2-.4-.2-1.3.5-1.1-.6.4-.4.9-.3 1.3 0z"/><path class="st100" d="M115.3 52.7c.4.1.9-.3 1.1.4l-.2.2c-.3 0-.7.1-1-.1-.1-.2 0-.3.1-.5z"/><path class="st129" d="M116.4 53.1h1.3c-.5.5-.9.3-1.3.4-.2-.1-.2-.3 0-.4z"/><path class="st100" d="M118.7 53.9c-.2 0-.5.1-.7-.2.3-.3.5-.3.7.2z"/><path class="st86" d="M126.2 72.6v-1.4c-.3 0-.4.1-.4.3-.5-.1-.3-.5-.3-.8.3-.8.3-1.6-.2-2.3 0-1-.3-2-.6-2.9-.3-1.1-.6-2.3-1.1-3.4-.3-.6-.4-1.3-.8-1.9-.2-.2-.1-.6-.4-.8 0-.2-.1-.5.1-.7.7 0 .4.9 1 1 .1.3-.1.7.4.8.1.4-.2.9.4 1.1 0 .3-.1.7.4.8.1.4-.3.9.4 1.1.1.4-.3.9.4 1.1.2.5-.3 1.1.4 1.5.2.5-.3 1.1.4 1.5v1.7c0 .3.1.4.3.5v2.1c0 .5-.2.6-.4.7z"/><path class="st19" d="M121.7 57.6h-1.1c-.1-.1-.2-.2-.2-.4s.1-.3.2-.4c.2-.1.3 0 .4.1.1.3.9 0 .7.7z"/><path class="st81" d="M105.9 108.1c0-.3.1-.4.4-.4h.4v.4h-.8z"/><path class="st70" d="M125 75.9h.8c.2.5.5.8 1.1.7v.4h-.4c-.4 1.1.1 2.3-.6 3.4 0 .4.1.8-.1 1.2-.2.1-.4 0-.6-.1-.7-1.8.1-3.7-.2-5.6z"/><path class="st81" d="M125.8 80.4c.3-.9.4-1.9.3-2.8 0-.3.1-.5.4-.5v3c-.2 0-.3.2-.4.4-.1.1-.2.1-.3-.1z"/><path class="st97" d="M121.7 57.6c0-.2-.1-.4-.3-.4-.3 0-.4-.1-.5-.4.3 0 .7.1.8-.4.6.2.2.7.4 1.1-.2.1-.3.1-.4.1z"/><path class="st99" d="M91 38.2v-.4h.4c.6 3.8.9 7.6.1 11.5-.2.2-.4.2-.7 0-.5-.5-.6-1.2-.6-1.9v-7.2c.1-.7.2-1.5.8-2z"/><path class="st3" d="M91.4 49.4V37.9c.5 0 .3.5.4.7.4 1.1-.1 2.3.5 3.4 0 2.4.3 4.9-.2 7.3-.3.1-.5.2-.7.1z"/><path class="st91" d="M91.8 41.9v-3.4h.4c.4.4 1.1-.1 1.5.4v.3h-1.3c-.3.6-.2 1.2-.2 1.9H94l.2.2c0 .2-.1.3-.2.4-.5.3-1.1.3-1.7.4-.3 0-.4-.1-.5-.2z"/><path class="st82" d="M93.6 38.9h-1c-.3 0-.4-.1-.4-.4h2.6c0 .2.2.3.4.4v.3c-.7.3-1-.5-1.6-.3z"/><path class="st19" d="M123.2 92v.7c-.5-.1-.3-.5-.4-.8.1.1.2.1.4.1z"/><path class="st117" d="M119.4 97.7c-.2-.6-.5-.9-1.1-1.1v-.4h.4c.2.1.5.3.7.4.3.5.5.9.3 1.5-.1-.1-.3-.2-.3-.4z"/><path class="st13" d="M125 86.8c-.6.2-.3.7-.4 1.1-.5 0-.2.8-.7.8l-.3-.3c-.1-.2-.1-.4-.1-.7 0-.1.1-.3.1-.4l.3-.9c0-.2.1-.3.1-.5.4-.8.2-1.9 1.2-2.3.2 0 .3 0 .5.2 0 .1.1.2 0 .4-.7.4-.2 1-.4 1.5-.5.2-.2.7-.3 1.1z"/><path class="st5" d="M123.9 88.3v1.5c-.5.1-.3.5-.4.8-.4.1-.4.4-.4.7h-.3c-.2-.2-.2-.5-.3-.8v-.4c.1-.2.1-.4.2-.6 0-.1.1-.3.2-.4l.3-.6.3-.3c.2-.1.3 0 .4.1z"/><path d="M91 38.2v11.2c-.7.7-1.4.7-2.2 0V38.2H91z" fill="#f7f700"/><path class="st4" d="M125.7 83.8h-.3c-.8-.9-.4-1.6.4-2.2 0-.4 0-.7.1-1.1h.3c0 .1 0 .3.1.4 0 .6 0 1.2-.1 1.8-.7.1-.3.7-.5 1.1z"/><path class="st135" d="M67.4 71v-1.7c-.4-.3-.8-.1-1.1-.2 0-.1 0-.1-.1-.2.1-.4.5-.6.6-1v-.5c.1-1.2 0-2.4-.3-3.6 0-.3.3-.6.3-.9 0-.1.1-.1.1-.2.2 0 .4-.1.4-.3v-4.7c0-.4-.4-.6-.4-1 0-.1-.1-.1-.1-.2-.4-.3-.9-.4-1.1-.9v-.5c.2-.3.6-.4.9-.7.1-.2.1-.4.1-.6 0-.5-.3-.8-.5-1.2-.1-.3.1-.6-.1-.9v-.5c.3-.5.6-1 .7-1.6.3-.6.7-1.1 1.4-1.2.7.1 1.4-.1 2.1.1 5.2-.3 10.4-.1 15.6-.1.8 0 1.5.1 2.1.7.1.3 0 .5-.2.6-.7.4-1.6.3-2.4.3H70.8c-2.4 0-2.6.2-2.6 2.5v27.6c0 .4 0 .9-.2 1.3-.3.5-.8.5-1.3.3-.5-.3-.1-.7-.1-1.1v-.5c.1-.6.1-1.1.1-1.7V77c-.2-1.6-.2-3.3 0-4.9 0-.3.1-.6.2-.9.2.2.3 0 .5-.2z"/><path class="st70" d="M61.8 55h2.4c.2 0 .3.1.4.2.3.2.5.4.6.7 0 .1-.1.1-.1.2-1.2-.1-2.3-.5-3.3-1.1z"/><path class="st112" d="M65.1 62.1c.7 0 1.5 0 1.9.8-.3.3-.6.4-1 .3-.5-.1-.8-.3-1-.8.1-.1.1-.2.1-.3z"/><path class="st9" d="M67 56.9c-.7 0-1.4 0-1.9-.7.9-.5 1.6-.3 1.9.7z"/><path class="st70" d="M61.4 60.6c.4.1.9-.3 1.1.4l-.2.2c-.1.1-.3.1-.5.1-.3 0-.5-.2-.6-.4.2-.1.2-.2.2-.3z"/><path class="st136" d="M60.3 60.2c.4.1.9-.3 1.1.4-.5.3-1 .5-1.1-.4z"/><path class="st95" d="M63.3 61.3c.4.1.9-.3 1.1.4l-.2.2c-.4.1-.7.1-1-.3 0-.1.1-.2.1-.3z"/><path class="st70" d="M62.5 61c.3 0 .7-.2.8.4-.5.2-.8.2-.8-.4z"/><path class="st95" d="M64.4 61.7c.3 0 .7-.2.8.4-.2.2-.5.2-.7.1-.1-.1-.1-.2-.1-.3-.1-.1 0-.2 0-.2z"/><path class="st137" d="M70 90.5c.1-.7-.3-1.3-.5-1.9h-2.1c0-.1 0-.2-.1-.3.3-.7 1.2-.6 1.7-1 .2-.1.3-.1.5 0 1 .8 1.5 1.7 1.3 3-.2.3-.4.3-.7.2.1.1 0 .1-.1 0zM64 92c1.3-.8 2.7-1.1 4.1-1.1v.3c-1.1 1.1-2.5 1.4-4 1.1.1-.1 0-.2-.1-.3z"/><path class="st97" d="M60.3 90.9c-.5.7-1.4.7-2 1.2-.3-.5.3-.5.2-.8.3-.2.6-.3.8-.6.3-.2.6-.2.9 0 0 .1 0 .1.1.2z"/><path class="st9" d="M65.9 89c-.7.7-1.7.8-2.6.8v-.3c.7-.8 1.5-1.1 2.5-.7 0 .1 0 .2.1.2z"/><path class="st137" d="M68.1 90.9c0-.3.2-.4.5-.4H70c-.4 1.2-1.1.9-1.9.4z"/><path class="st114" d="M67.4 88.7c-.3.8-1 .2-1.5.4.3-1.1.9-.8 1.5-.4z"/><path class="st122" d="M62.1 90.1c-.2.7-.7.3-1.1.4v-.3c.2-.4.6-.4 1-.3 0 .1.1.2.1.2z"/><path d="M63.3 89.8c-.2.7-.7.3-1.1.4.1-.9.6-.7 1.1-.4z" fill="#7e7e00"/><path class="st70" d="M61.8 92.8c.2-.7.7-.3 1.1-.4v.3c-.2.4-.6.4-1 .3 0-.1-.1-.2-.1-.2z"/><path class="st139" d="M62.9 92.4c.2-.7.7-.3 1.1-.4-.1.9-.6.7-1.1.4z"/><path class="st91" d="M61 90.5c0 .5-.5.3-.7.4 0-.7.3-.6.7-.4z"/><path class="st70" d="M61 93.1c.1-.5.4-.4.7-.4.2.5-.2.5-.5.5 0 0-.1 0-.2-.1z"/><path class="st98" d="M60.3 93.5c0-.5.4-.4.7-.4.2.5-.2.5-.5.5-.1 0-.2 0-.2-.1z"/><path class="st136" d="M59.5 93.9c.1-.5.5-.4.8-.4 0 .7-.3.6-.8.4z"/><path class="st140" d="M64.4 69.6c-.3.8-1 .3-1.6.5-.9.4-1.9.7-2.9.6v-.3c1.3-1.1 2.7-1.5 4.3-1.1.1.1.1.2.2.3z"/><path class="st99" d="M67.4 71v.4c-1.2 1.1-2.7 1.4-4.3 1-.1-.1-.1-.2-.2-.2.3-.9 1.1-.3 1.7-.6.8-.5 1.8-.4 2.8-.6z"/><path class="st140" d="M56.9 71.9c-.2-.1-.5-.2-.1-.4.2-.1.5-.1.5-.4.8-.7 1.6-1.3 2.6-.4-.9.7-2 .8-3 1.2z"/><path class="st99" d="M54.7 74.8c.4-.7 1.1-.8 1.9-.7 0 .1 0 .2.1.3-.6.8-1.2 1-2 .4z"/><path class="st140" d="M66.3 69.2c0 .3-.2.4-.5.4h-1.4c-.1-.2-.1-.4.1-.6.6-.4 1.2-.3 1.8.2z"/><path class="st114" d="M61.4 72.6c.3-.8 1-.2 1.5-.4-.1 1-.7.7-1.3.6-.1-.1-.1-.2-.2-.2z"/><path d="M59.9 72.9c.3-.8 1-.2 1.5-.4-.1 1-.7.8-1.3.6-.1 0-.1-.1-.2-.2zm-1.1.4c.2-.7.7-.3 1.1-.4 0 .7-.4.7-.9.6l-.2-.2z" fill="#838300"/><path class="st136" d="M57.7 73.7c.2-.7.7-.3 1.1-.4.1.7-.4.7-.9.6-.1-.1-.2-.1-.2-.2z"/><path class="st122" d="M56.5 74.1c.2-.7.7-.3 1.1-.4-.1.9-.6.6-1.1.4z"/><path class="st4" d="M60.3 96.1c-.1-.5-.3-1-.4-1.5 0-.1.1-.1.1-.2.2-.2.3-.3.5-.4.1-.1.3-.1.4-.1.3-.1.6 0 .9.1.2.1.4.2.5.4.2.3.3.5.5.8s.5.6.7.9c.3.5.7.9 1.1 1.2 1.1.8 1.7 2.1 2.9 2.8.4.5.8 1 1.4 1.2.2.1.4.3.6.4.2.3.5.5.9.7.2.1.4.2.5.4.2.2.4.3.7.5.2.1.4.2.5.4.2.1.3.3.5.4.1.1.2.2.4.3.4.4.9.6 1.4.8.1.1.3.1.4.2.6.3 1.3.7 2 .9.2 0 .3.1.4.2.5.2 1 .5 1.5.6.2 0 .3.1.5.2.7.3 1.4.5 2.1.6.2 0 .3.1.5.1 1.2.5 2.4.3 3.6.8l.2.2c.4.9 1.3.1 1.8.6.1.5.1 1 0 1.7h-2.5c-.7-.5-1.6.1-2.3-.4-1-.3-2-.4-3-.8-.7-.3-1.6-.3-2.3-.8-.3-.3-.8 0-1.1-.4-.2-.2-.6-.2-.8-.4-.2-.2-.6-.2-.8-.4-1-.4-2.1-.8-3-1.5-.2-.2-.6-.2-.8-.4-.4-.3-.8-.5-1.1-.8-.4-.3-.8-.5-1.1-.8 0-.2-.1-.4-.4-.4-.4-.3-.8-.5-1.1-.8 0-.2-.1-.3-.4-.4-.5-.3-1-.8-1.5-1.1-.9-.6-1.6-1.3-2.2-2.2-.4-.7-1.1-1.2-1.5-1.9 0-.2-.1-.4-.4-.4-.3-.4-.5-.8-.8-1.1.3 0 .2-.2 0-.2z"/><path class="st104" d="M71.9 106.6c1.1.3 2.1.8 3 1.5-1.2-.1-2.3-.5-3-1.5zm7.8 3.4c1.1 0 2.1.1 3 .8-1-.1-2.1 0-3-.8zM61.8 98c.7.5 1.4.9 1.5 1.9-.7-.5-1.5-.9-1.5-1.9zm15.7 11.2c.8 0 1.6.2 2.3.8-.9 0-1.7 0-2.3-.8z"/><path class="st109" d="M65.5 102.1c.8-.1 1.2.5 1.5 1.1-.8.1-1.2-.5-1.5-1.1z"/><path class="st104" d="M82.7 110.7h1.8c.3 0 .4.1.5.4h-1.8c-.3 0-.4-.1-.5-.4z"/><path class="st99" d="M67.4 103.6c.6 0 .9.2 1.1.8-.6 0-.9-.3-1.1-.8z"/><path class="st95" d="M70 105.5c.6 0 1 .2 1.1.8-.5 0-.9-.3-1.1-.8z"/><path class="st120" d="M68.9 104.7c.6 0 1 .2 1.1.8-.6 0-.9-.2-1.1-.8z"/><path class="st99" d="M60.6 96.5c.5.2.8.6.8 1.1-.5-.1-.8-.5-.8-1.1z"/><path class="st104" d="M76.4 108.8c.4.1.9-.3 1.1.4-.4-.1-.9.4-1.1-.4zm-1.5-.7c.3 0 .7-.1.8.4-.4 0-.8.1-.8-.4z"/><path class="st142" d="M75.6 108.5c.3 0 .7-.1.8.4-.3-.1-.7.1-.8-.4z"/><path class="st125" d="M71.1 106.2c.3 0 .7-.1.8.4-.3 0-.7.1-.8-.4z"/><path class="st81" d="M68.1 49c-.5.3-.9.6-1.1 1.1 0 .7-.5 1-1 1.4-.4.5-.9.9-1.4 1.1-.2.1-.3.1-.5.2-.8 0-1.6.7-2.3-.1 0-.3-.1-.7.4-.7 1.2-1.5 2.6-2.9 4.2-4.1.7 0 .5-1 1.1-1.1.4-.3.8-.5 1.1-.8.2 0 .4-.1.4-.4.2-.2.5-.2.7-.4 0-.2.1-.4.4-.4.2-.2.6-.1.8-.4.4-.3.8-.5 1.1-.8.2-.2.6-.2.8-.4.2-.2.6-.2.8-.4.2-.2.6-.2.8-.4.2-.2.6-.2.8-.4.2-.2.6-.2.8-.4.3-.4.8 0 1.1-.4.2-.2.6-.2.8-.4.3-.4.8 0 1.1-.4.9-.3 1.8-.4 2.6-.8 1.6-.5 3.2-.6 4.9-.8h1.3c.3.6.2 1.2.2 1.9h-1.8c-1.1 1.3-2.8.9-4.2 1.4-.7.2-1.5.4-2.2.7-.1.1-.3.1-.5.2-.6.1-1.1.4-1.6.6-.1.1-.3.1-.5.2-1.3.4-2.5 1.1-3.7 1.7-.1.1-.2.2-.4.3-.3.1-.5.3-.8.4-.2.1-.3.2-.5.3-.2.2-.5.3-.7.5-.2.1-.3.3-.5.4l-.9.6c-.7.8-1.1.8-1.6 1z"/><path class="st115" d="M66.3 47.9c-1.3 1.5-2.6 2.9-4.2 4.1.4-1.5 1.9-2.2 2.8-3.3.4-.4.7-1 1.4-.8z"/><path class="st103" d="M86.1 39.3c-.2.1-.4.4-.6.3-1.4-.1-2.8.6-4.3.4v-.4c1.5-.2 3-.2 4.5-.8h.4v.5z"/><path class="st122" d="M61.8 52.7c.9.1 1.7-.6 2.6-.4.2.8-.5.8-.9 1s-.8.2-1.2.2c-.2 0-.3-.1-.5-.2-.1-.2-.2-.5-.4-.7.1.2.2.2.4.1z"/><path class="st103" d="M81.2 40c-.7.7-1.7.8-2.6.8.8-.8 1.7-.8 2.6-.8z"/><path class="st70" d="M71.9 43.8c-.2.6-.6.8-1.1.8.1-.6.5-.9 1.1-.8z"/><path class="st113" d="M68.5 46c-.2.5-.6.8-1.1.8.2-.6.5-.9 1.1-.8zm10.1-5.2c-.2.7-.8.3-1.1.4.2-.7.7-.3 1.1-.4zm-1.8.7c-.2.7-.8.3-1.1.4.1-.7.7-.3 1.1-.4z"/><path class="st118" d="M70.8 44.5c-.1.5-.4.4-.8.4.1-.5.5-.4.8-.4z"/><path class="st113" d="M69.6 45.3c-.1.5-.4.4-.7.4 0-.6.4-.4.7-.4z"/><path class="st143" d="M75.6 41.9c-.1.5-.5.4-.8.4.1-.5.5-.4.8-.4z"/><path class="st113" d="M77.5 41.1c-.1.5-.5.3-.8.4.1-.5.5-.3.8-.4z"/><path class="st125" d="M72.6 43.4c-.1.5-.5.4-.8.4.1-.5.5-.4.8-.4z"/><path class="st144" d="M73.4 43c-.1.5-.5.4-.8.4.1-.5.5-.4.8-.4z"/><path class="st145" d="M74.1 42.6c-.1.5-.5.4-.8.4.1-.5.5-.3.8-.4z"/><path class="st124" d="M74.9 42.3c-.1.5-.5.4-.8.4.1-.6.5-.4.8-.4z"/><path class="st127" d="M53.2 76.7c.1-.2.3-.5.4-.7.3-.2.5-.2.8 0 .5 1 .2 2.1.2 3.1 0 .3-.1.6-.3.8-.2 0-.3.1-.4.1-.3 0-.4-.2-.4-.5v-2.4c.1-.2-.1-.4-.3-.4z"/><path class="st121" d="M55 85.3c-.8-.9-.8-1.9-.7-3h.3c.9.8 1.1 1.7.7 2.8-.1.1-.2.1-.3.2z"/><path class="st123" d="M54.3 82.3c-.3 0-.4-.2-.4-.5V80c.2-.1.4-.1.6.1.4.8.5 1.5-.2 2.2z"/><path class="st121" d="M55.8 87.5c-.7-.2-.2-.7-.4-1.1h.3c.4.2.4.6.3 1-.1 0-.2.1-.2.1zm-.4-1.1c-.7-.2-.2-.7-.4-1.1.9.1.7.6.4 1.1zm.8 2.3c-.7-.2-.3-.7-.4-1.1.7 0 .7.4.6.9-.1 0-.2.1-.2.2z"/><path class="st96" d="M56.5 89.4h-.4v-.7c.7 0 .7.3.4.7z"/><path d="M88 49.4H70.7c-.4 0-.9.3-1.1-.4-.2-.4.1-.7.3-.9 1.7-1 3.3-2.2 5-3.1 2.9-1.3 5.9-2.4 9-3 .3-.1.5-.1.8-.1s.5-.1.8 0c.2 0 .5.1.8.1h1.5c.2 2.4.2 4.9.2 7.4z" fill="#006500"/><path d="M88 49.7v-.4h3.6c.1.2.1.4-.1.6-1.1.5-2.4.7-3.5-.2z" fill="#616118"/><path class="st103" d="M54.3 68.1c0-1.1-.1-2.1.8-3l.2.2c.4 1.1.2 2.1-.7 2.8h-.3z"/><path class="st103" d="M53.5 69.9c.3 0 .4-.2.4-.5V68h.4c.7 1 1 1.9-.4 2.6h-.3c0-.1-.1-.4-.1-.7z"/><path class="st70" d="M55.4 64c.1-.4-.3-.9.4-1.1l.2.2c.1.4.1.7-.3 1-.1-.1-.2-.1-.3-.1z"/><path class="st70" d="M55 65.1c.1-.4-.3-.9.4-1.1.3.5.5 1-.4 1.1z"/><path class="st120" d="M55.8 62.8c.1-.4-.3-.9.4-1.1l.2.2c0 .5.1 1-.6.9z"/><path class="st120" d="M56.2 61.7c0-.3-.1-.7.4-.8.2.5.2.8-.4.8z"/><path class="st81" d="M56.2 61.7c.5 0 .4-.4.4-.7.7-.5 1.5-.4 2.3-.4l.2.2c.2.3.2.6.1 1-.1.3-.2.6-.4.9-.2.5-.5 1-.6 1.5 0 .2-.1.3-.2.4-.3.7-.5 1.3-.6 2 0 .2-.1.3-.1.5-.1.4-.3.7-.4 1.1-.1.3-.4.5-.7.7v1.6c-.5.8-1.4.9-2.1 1.3-.3-.3-.1-.7-.2-1.1.3 0 .4-.2.4-.5v-2.1c.6-.9.8-1.9.7-3 .7-.2.3-.7.4-1.1.7-.2.3-.7.4-1.1.7-.2.3-.8.4-1.2z"/><path d="M57.3 70.7h-.4c-.4-1.7.1-3.3.6-4.9.3-.4.6-.8 1.1-.9 2.1.6 3.6 2.1 5.1 3.6 0 .2 0 .4-.1.5-2 .8-4.1 1.5-6.3 1.7z" fill="#056200"/><path class="st19" d="M57.3 70.7c1.8-.5 3.7-1 5.5-1.5.3-.1.5-.3.8-.4.1-.1.3-.1.4-.1.2.1.3.3.4.5v.4c-1.6 0-3.1.3-4.5 1.1-.9-.2-1.7.5-2.6.4v-.4z"/><path class="st149" d="M58 65.8c-.6 1.6-.9 3.2-1.1 4.9-.6-.1-.3-.5-.4-.8-.1-.4.3-.9-.4-1 0-.3-.1-.7.3-.8.4-.3 0-.8.4-1.1.3-.9.5-1.8.8-2.6.1-.1.3-.2.5-.2s.3.1.4.3c-.1.4-.3.9-.5 1.3z"/><path class="st82" d="M54.7 72.2c0 .5-.4.4-.7.4 0-.6.4-.4.7-.4z"/><path class="st82" d="M55.4 71.8c-.1.5-.5.3-.7.4 0-.5.4-.4.7-.4z"/><path class="st150" d="M88 101.4v.4c0 2.2 0 4.5-.1 6.7h-.3c-.9.4-1.9-.2-2.8 0-.5-.1-.9-.2-1.4-.2-.4-.1-.9-.1-1.4-.2-4.3-1.2-8.3-3.1-11.9-5.6-.6-.7-1.4-1.1-2.1-1.6-.5-.9-1.8-1.1-1.8-2.4.1-.2.3-.3.5-.3 3.2.3 6.3 1.2 9.5 1.6 1.9.1 3.8.4 5.7.6.7.1 1.3.1 2-.1 1.4.1 3-.3 4.1 1.1z"/><path class="st4" d="M84.6 108.1c1-.2 2 .4 3 .4 0 .3-.2.4-.5.4h-1.4c-.7-.5-1.6.1-2.3-.4-.1-.2 0-.3.1-.5.4-.1.8-.2 1.1.1z"/><path class="st11" d="M84.3 42.3c-.5.8-1.6 0-2.2.7-2.1.3-4 1.2-6 2-.4.2-.8.3-1.2.3 0-.1-.1-.1-.1-.2.6-.8 1.6-.9 2.3-1.3.6-.3 1.3-.4 1.9-.8.7-.3 1.6-.3 2.3-.8.1-.1.1-.3.2-.3 1.5-.1 2.9-.6 4.4-.8 0 .5.5.3.7.4.1.1.2.2.2.4s-.1.3-.2.3h-.7c-.2-.2-.5-.1-.8-.1-.4 0-.7-.2-.8.2z"/><path class="st81" d="M86.5 41.9v-.4c.4.1.9-.3 1.1.4-.4.3-.7.2-1.1 0z"/><path class="st105" d="M59.5 93.9c.3 0 .7.1.7-.4.3 0 .7.1.7-.4.3 0 .7.2.8-.4.4-.1.9.3 1.1-.4.4-.1.9.3 1.1-.4 1.5-.1 2.9-.3 4.1-1.1h1.4c.3 0 .4-.1.5-.4h.7c.1.2.1.3 0 .5-.7.9-1.8.9-2.8 1.2-1.7.5-3.5.9-5.2 1.5-.7.2-1.5 0-2.1.4-.2.2-.6.1-.8.4-.2 0-.5.1-.7-.1.3 0 .4-.2.5-.4z"/><path class="st82" d="M66.3 52.7h1c.3.6.1 1 .1 1.5-.8 1-1.9 1.2-3.1.8-.7-.2-1.4-.6-2.2-.8v-.4c0-.1.1-.1.1-.2.2-.2.5-.2.8-.3.1-.1.3-.1.4-.2.3-.1.7 0 1-.3.1-.1.3-.1.4-.2.4-.1.7-.1 1.1 0 .2.1.3.1.4.1z"/><path class="st81" d="M61.8 53.5h.4c0 .1.1.1.1.2l-.2.2H61c.2-.5.6-.3.8-.4z"/><path class="st70" d="M62.1 54.2c.5.1 1-.1 1.6.2 1.2.7 2.5.3 3.7-.2v.8c-.4.4-1.1-.1-1.5.4v.3c-.6.2-1-.2-1.5-.3-.3-.4-.8 0-1.1-.4 0-.3-.2-.4-.5-.4s-.6 0-.7-.4z"/><path class="st81" d="M60.3 60.2c.2.7.7.3 1.1.4 0 .5.5.3.7.4.1.1.1.2.1.3s0 .2-.1.2c-.3.2-.6.3-1 .3-.2 0-.3-.1-.5-.1-.7-.3-1.4-.4-1.9-1v-.4c.6-.1 1.1-.1 1.6-.1z"/><path class="st3" d="M56.5 89.4c0-.3.2-.7-.4-.7-.1-.4.3-.9-.4-1.1-.1-.4.3-.9-.4-1.1-.1-.4.3-.9-.4-1.1.1-1.1-.1-2.1-.8-3v-2.2c-.2-.2-.1-.6-.3-.8v-2c-.1-.5.2-.9.4-1.3l.2-.2c.2-.2.4-.3.7-.4.2 0 .4 0 .6.1 1 1 .4 2.2.6 3.3.4 1.5.4 3 .9 4.5.2.9.4 1.8.7 2.6.2.7.4 1.3.7 1.9.1.9 1 1.7.3 2.6-.1 0-.2.1-.2.1-.5-.1-.7.3-1.2.4-.5-.4-.3-1.3-1-1.6z"/><path class="st119" d="M61 90.5c-.3 0-.7-.2-.7.4h-1.1c-.1.1-.2.1-.4 0v-.4c.4-.2.8-.6 1.2-.8 2.4-1.1 4.9-1.8 7.4-2.4.6-.2 1.3-.4 1.9.3v.5c-.4.4-.9.1-1.3.2-.3 0-.4.1-.5.4-.5.1-1.2-.4-1.5.4-1 0-1.9 0-2.6.7-.4.1-.9-.3-1.1.4-.5.1-1.1-.4-1.3.3z"/><path class="st3" d="M58.8 90.9h.4c-.1.5-.5.3-.8.4 0-.3.2-.4.4-.4z"/><path d="M56.5 74.1c.4-.1.9.3 1.1-.4.4-.1.9.3 1.1-.4.4-.1.9.3 1.1-.4.5-.2 1.2.4 1.5-.4.5-.2 1.2.4 1.5-.4 1.5.1 3-.5 4.5-.7v.6c-.5.7-1.2.8-2 .9-2.7.6-5.4 1.3-8.1 2.1-.3.2-.7.2-1.1.3-.4 0-.7-.1-1.1-.1-.2 0-.3 0-.5-.2v-.4c.9.2 1.6.2 2-.5z" fill="#eced00"/><path class="st82" d="M54.3 75.9h-.8c.1-.5.4-.4.8-.4 0 .1.1.1.1.2s-.1.2-.1.2z"/><path class="st82" d="M54.7 75.2h.4c.1.1.2.2.1.3 0 .1-.1.1-.1.1-.3.2-.5.2-.8 0 0-.3.1-.4.4-.4z"/><path d="M115.3 84.2c-.3-.1-.6-.4-.7-.7-.3-.4-.8-.5-1.2-.8-.2 0-.3-.1-.3-.3-.3-.8.4-.8.8-1.1.2-.1.3-.1.5-.2.5-.1 1.1-.1 1.7-.3.2 0 .3-.1.5-.1.5-.1.9-.1 1.4-.2.1 0 .3-.1.4-.1.4-.1.9-.1 1.3-.2.1-.1.3-.1.5-.1.4-.1.8-.1 1.2-.3.2 0 .3-.1.5 0 .6.1 1 .4 1 1.1-.1.6-.1 1.2-.3 1.9-.2.5-.3 1-.4 1.5-.2.4-.3.8-.4 1.2-.2.4-.3.8-.4 1.2-.4.6-.5 1.5-1.5 1.3-.6-.3-1-.9-1.5-1.4-.3-.4-.8-.5-1.1-.8-.4-.1-.6-.4-.8-.7-.4-.5-.9-.7-1.2-.9z" fill="#fd0000"/><path class="st4" d="M125 75.9c0 .5.6.6.7 1 .3 1.6-.6 3.1-.3 4.6-.2 1.7-.7 3.3-1.1 4.9-.4.3 0 .8-.4 1.1-.2.2-.1.6-.4.8-.4.3 0 .8-.4 1.1-.2.2-.2.6-.4.8-.2.2-.5.2-.8 0-.4-.1-.6-.3-.7-.7-.3-.4-.5-.9-.4-1.4.6-1.5 1.2-3.1 1.5-4.7.5-1.6.7-3.3.9-5 .3-.9-.6-2.2.9-2.7.4.1.8 0 .9.2z"/><path class="st153" d="M114.2 81.5c0 .3-.2.4-.5.4s-.6 0-.6.5c-.4-.1-.7-.3-1.1-.4v-.4c-.7-.7-.5-1.6-.5-2.5V52.9c0-1.1 0-2.1-.9-2.9-.1-.2-.2-.4 0-.7.5.2.7-.2 1.1-.3.4.3.8.6 1.1 1.1-.3.8.6 1 .9 1.5v.5c-.2.3-.6.3-.9.4l-.3.3v1.6c.2.5.8 0 1.1.5-.3.1-.7.1-1 .2.1.5.7.2.7.6-.1.7-.2 1.4.3 2.1.3.6-.2.9-.4 1.2 0 .1-.1.3-.1.4v1.9c.1.4.4.8.3 1.2-.4 2.1-.5 4.1.6 6h-1.4c0 .3 0 .4.2.4.1.1.1.1.1.2s-.1.1-.1.1c-.3.1-.4.2-.4.5v1.4c.1.1.2.3.3.4.2.7 1.9-.1 1.4 1.3-1 .6-1.1 1.5-1.1 2.6 0 .7 0 1.5-.1 2.2v1.3c0 .6.1 1.3.5 1.8.2.3.1.5-.1.7.3-.2.6-.2.9.1z"/><path d="M119.8 87.9c.6-.1.5-.7.7-1.1.1-.2.1-.4.4-.5l.2.2c.4.7-.1 1.3-.3 1.9l-.2.2c-.4-.1-.7-.3-.8-.7z" fill="#5c3d00"/><path class="st145" d="M121.3 87.9v1.5c-.4-.1-.7-.4-.8-.8.3-.2.1-.7.5-.8.1.1.2.1.3.1z"/><path class="st155" d="M122 90.1h.8v1.1c-.5-.1-.5-.7-.8-1.1z"/><path d="M117.2 85.7c.6-.1 1 .2 1.1.8-.5-.1-1-.3-1.1-.8z" fill="#854500"/><path d="M113.4 82.7c.6 0 1 .2 1.2.8-.6-.1-1-.3-1.2-.8z" fill="#873400"/><path d="M115.3 84.2c.6 0 1 .2 1.1.8-.5-.1-.9-.3-1.1-.8z" fill="#864c00"/><path class="st4" d="M116 94.2v.7c-.9 0-1.7.6-2.7.5-.1 0-.2.2-.3.4-.1.1-.1.2-.2.2-1.4.3-2.7 1.1-4.2.3-.2-.1-.2-.3-.2-.6.4-.6 1-.5 1.6-.6.7-.1 1.5.2 2.2-.2.5-.4 1.2 0 1.8-.3.2-.2.5-.2.8-.2-.4 0-.6.1-.9.3-.6.2-1.3-.2-1.8.3-.6.2-1.3.1-1.9.1-1.2 0-2-.7-3-1.2-.2-.2-.4-.4-.4-.7 0-.3.1-.5.2-.7.3-.4.6-.7.9-1.1.1-.1.2-.3.2-.4.1-.2.3-.4.4-.5.1 0 .1-.1.2-.1.7 0 .5-1 1.1-1.1.5.1.7.5 1.1.8-.1.5.8.2.7.7.4.3.8.5 1.1.8.2 0 .4.1.4.4.5.4 1 .8 1.5 1.1.4.8 1.3.6 1.4 1.1z"/><path class="st97" d="M114.9 93.2c-.8 0-1.2-.5-1.5-1.1h.7c.1.4.8.5.8 1.1z"/><path class="st99" d="M113.1 91.6c-.6.1-1-.2-1.1-.8.5 0 .9.3 1.1.8z"/><path class="st109" d="M111.2 90.2c-.6.1-.9-.2-1.1-.8.3-.2.5-.2.8 0 0 .2.2.5.3.8z"/><path d="M107.5 92.8c0 .2-.2.3-.4.4-.2.6-.5 1.1-.8 1.6-.3.4-.6.7-.9.9-1 .6-1.7 1.6-2.7 2.2-.2.1-.4.3-.6.4l-.6.3c-.1.1-.3.1-.4.2-.3.1-.7.3-1 .5-.1.1-.3.1-.4.2l-.6.3c-.1.1-.3.2-.4.2-.8.3-1.6.6-2.4.6H96c-1-.2-2 .3-2.9.5-1.7.3-3.3.2-5 .3-1.4-.3-2.7-.5-4.1-.8h-.3c-1 0-1.8-.3-2.7-.7-.3-.1-.6-.3-.8-.4-.3-.1-.5-.3-.8-.4s-.5-.3-.8-.4c-.4-.3-.8-.5-1.2-.8-.5-.4-1.1-.7-1.6-1.1-.4-.4-1-.8-.9-1.5.1-.3.4-.4.7-.4.8.1 1.4.7 2.1 1.2 2.7 2.1 5.9 3.3 9.3 3.9 2 .4 4.1.4 6.1 0 8.2-1.5 13.8-6.3 16.7-14.1.1-.4.3-.8.4-1.3 0-.2.1-.4.1-.5.2-.5.2-1.1.3-1.7 0-.2.1-.4.1-.6.2-.7.2-1.3.2-2V54c0-2.3-.4-2.8-2.7-2.8H71.8c-.8 0-1.5.1-2.1.5-.8.8-.7 1.8-.7 2.8v24c0 .8.4 1.9-.9 2.4 0-4.3-.1-8.7-.1-13V51.1c0-.4-.1-.7.1-1.1.3-.2.7-.1 1.1-.1H92c.6-.6 1.4-.5 2.1-.5h14.5c.7 0 1.5 0 2.1.5h1.5v31.8c-.1 0-.2 0-.2.1-.2 1.2-.4 2.5-.6 3.7-.5.6-.8 1.4-.8 2.2-.7.9-1.2 1.9-1.5 3-.2.2-.2.6-.4.8-.4.3-.9.7-1.2 1.3z" fill="#f5f5f4"/><path class="st129" d="M110.8 89.4h-.8c0-.3-.1-.7.4-.7.2.2.3.5.4.7z"/><path class="st81" d="M101.8 98c0-.2.2-.3.4-.3 1-.4 1.9-1.1 3.1-.9 1-.2 2-.5 3.1-.4h.6c1.4.1 2.8-.4 4.1-.6.8 0 1.6.1 2.3-.4.1-.1.3.1.3.3l-2.1 1.8c-1.1.1-2.2.1-3.2.8-.1.1-.1.2-.2.2-1.1.5-2.3.6-3.5.8-2.1.6-4.3.5-6.4.9-.6-.1-1.4.1-1.5-.9.2-.2.6-.2.8-.4.5-.3 1.1-.3 1.5-.8.2.1.5.1.7-.1z"/><path class="st81" d="M110.4 98.4c.8 0 1.6.1 2.3-.4.2-.1.6-.1.7.3-.6.5-1.2.8-1.9 1.1-.2.1-.3.1-.5.1-.5.1-1 .1-1.4.3-.2.1-.3.1-.5.1-.5.1-1 .1-1.4.3-.2.1-.3.1-.5.1-.6.1-1.3 0-2 .3-.2.1-.3.1-.5.1-.8 0-1.5.1-2.3 0-.3-.1-.6-.2-.7-.5-.1-.2 0-.4.2-.5 1.6 0 3.2-.3 4.7-.7 1.4 0 2.6-.3 3.8-.6z"/><path d="M111.2 99.1c.7-.5 1.5-.5 2.3-.8-.2.5-.6.9-1.1 1.2h-.3c-.4 0-.7 0-.9-.4z" fill="#5f4f00"/><path d="M111.5 100.6h-.8c0-1.1.5-1.4 1.5-1.1 0 .5-.6.6-.7 1.1z" fill="#754900"/><path d="M105.2 104.4c-.1.2-.3.5-.4.7-.2.2-.6.2-.8.4-.3.3-.7.3-1 .1 0-1.4 1-1.4 2-1.3.1 0 .2 0 .2.1z" fill="#644400"/><path d="M109 102.1c-.2.5-.6.8-1.1.8 0-.1-.1-.2-.1-.3.1-.5.5-.8 1-.7 0 .1.1.2.2.2z" fill="#643000"/><path d="M110.1 101.4c-.1.2-.3.5-.4.7h-.7c-.1-.8.3-1.1 1.1-.7z" fill="#654700"/><path class="st22" d="M107.8 102.9c-.2.5-.6.7-1.1.7 0-.1-.1-.2-.1-.3.2-.5.6-.9 1.2-.4z"/><path d="M106 104c-.1.4-.5.3-.8.4-.1-.5.2-.5.6-.5 0 0 .1.1.2.1z" fill="#562700"/><path d="M106.7 103.6c-.1.4-.4.4-.7.4-.1-.6.3-.6.7-.4z" fill="#553e00"/><path class="st119" d="M100.3 107.3c-.8.1-1.6.1-2.2.8h-.4c-.2-.2-.2-.4-.2-.7.2-.4.7-.5 1.1-.7.2-.1.3-.1.5-.1.5-.1.9 0 1.2.3.2.1.2.3 0 .4z"/><path class="st102" d="M97.7 107.4v.7h-1.5c-.1-.1-.2-.2-.1-.4.2-.3.6-.5 1-.5h.2c.2 0 .3.1.4.2z"/><path class="st84" d="M100.3 107.3v-.4c-.1-.4.1-.6.3-.8.1-.1.2-.2.4-.2.3-.1.5-.2.8-.3.1-.1.2-.1.4-.1.2-.1.4-.1.6-.1h1.3c-.1.6-.7.5-1 .7-.2.1-.4.1-.4.4-.7 0-1.4 0-1.9.7-.2.1-.3.1-.5.1z"/><path class="st100" d="M104.1 105.5c.1-.5.5-.4.8-.4-.1.5-.5.4-.8.4z"/><path class="st0" d="M106.7 103.6c-.3 0-.7-.1-.7.4-.3 0-.7-.1-.7.4-.9.1-1.6.5-2.2 1.1-.2.2-.6.2-.8.4-.3.4-.8 0-1.1.4-.7.4-1.5.4-2.3.8-.4.4-1.1-.1-1.5.4-.5.4-1.2.1-1.7.4-.2.1-.3.1-.5.1-.6.1-1.3-.2-2 .2-.4.2-.8.3-1.1 0v-6.1c.3-.5.7-.6 1.2-.6h4.1c.3 0 .6 0 .7-.4.2-.3.4-.4.7-.5.9-.1 1.8-.1 2.7-.1h1.3c.8-.1 1.6.2 2.4-.2.7-.5 1.6.1 2.3-.4.6-.4 1.3.1 1.9-.4.6-.4 1.3.1 1.9-.4.4.1.9-.3 1.1.4-.8 0-1.2.5-1.5 1.1-.5 0-.2.8-.7.7-.6-.1-1 .2-1.2.7-.6 0-.9.2-1.1.7-.6.1-1 .4-1.2.9z"/><path d="M110.4 49.7H91.7v-.4c0-2.5 0-5 .1-7.4h.4c.6-.3.8-.1.9.5-.2 2-.3 3.9 0 6.1 5.6.6 11.2-.2 16.7.5h.3c.2 0 .3.1.4.3 0 .2-.1.3-.1.4z" fill="#7c180f"/><path class="st116" d="M107.8 46.4c.2 0 .4.1.4.4.2.2.5.1.7.4.2 0 .4.1.4.4.2.2.6.3.4.8-.2.2-.4.3-.6.3s-.5-.1-.7-.2c-.2-.1-.4-.3-.5-.4l-.3-.3c-.2-.2-.4-.3-.6-.5-.1-.1-.2-.1-.3-.2-.2-.1-.3-.2-.5-.3-.1-.1-.2-.1-.4-.2s-.4-.2-.5-.3l-.3-.3c-.1-.3-.1-.6.2-.8.5-.1.9.3 1.3.5.2.2.6.2.8.4 0 .1.3 0 .5.3z"/><path class="st112" d="M98.1 42.3c1.4 0 3.3.7 4.5 1.5l-.2.2c-1.7.2-3.1-.3-4.3-1.4v-.3z"/><path class="st99" d="M106.3 45.6c-.6.2-.9-.5-1.5-.4h-.2c-.1 0-.3 0-.4-.1-.1 0-.3-.1-.4-.2-.2-.2-.5-.4-.5-.7 0-.1.1-.1.1-.2 1.2.2 2.2.7 2.9 1.6z"/><path class="st126" d="M113.4 52v-.3c0-.2.2-.3.4-.4.5.4 1 .8 1.5 1.1h-1.7c-.1-.2-.2-.3-.2-.4z"/><path class="st5" d="M113.8 51.2c0 .2-.1.4-.4.4-.5-.2-.7-.6-1-.9-.2-.3-.1-.5.3-.6.2.5.6.9 1.1 1.1z"/><path class="st145" d="M94.7 41.5h1c.3 0 .4.1.5.4-.1.1-.1.2-.2.2-.8.3-1.7.6-2-.6.2-.2.5-.2.7 0z"/><path class="st112" d="M96.2 41.9h1.4c.3 0 .4.1.5.4-.8.5-1.5.8-1.9-.4z"/><path class="st95" d="M109.7 48.3c-.1-.3-.2-.5-.4-.8.5-.1.9.1 1 .6-.1.3-.4.1-.6.2z"/><path d="M108.9 48.3h.7c.1.2.3.5.4.7v.1c-.7.2-1.1 0-1.1-.8z" fill="#6a3f00"/><path class="st99" d="M102.6 43.8c.3 0 .7-.2.7.4-.4.2-.7.2-.7-.4z"/><path class="st114" d="M108.9 47.1c-.3 0-.7.1-.7-.4.3.1.7-.1.7.4z"/><path class="st125" d="M107.8 46.4c-.3 0-.7.1-.7-.4.3 0 .7-.1.7.4z"/><path class="st139" d="M107.1 46c-.3 0-.7.1-.8-.4.3.1.7-.1.8.4z"/><path class="st117" d="M94.7 41.5h-.8v-.4c.3.1.7-.1.8.4z"/><path class="st131" d="M123.9 71.5c-.2 0-.5 0-.7-.1 0-.5-.8-.2-.8-.7-.2-.3-.4-.6-.3-1 0-.2.1-.3.2-.5.3-.1.5-.2.6.2.2-.1 0-.3.1-.4s.1-.1.2-.1c.8.5.2 1.3.4 1.9.1.4.7.2.7.7h-.4z"/><path class="st9" d="M121.3 62.5c.8 1.1 1.5 3.1 1.5 4.5-.1 0-.2 0-.3.1-1.2-1.2-1.6-2.7-1.4-4.3.1-.2.1-.3.2-.3z"/><path class="st125" d="M117.5 56.5c.6.3 1.2.4 1.9.3l.1.1v.1l-.1.1c-.5.1-.3.5-.4.7-.1 0-.1.1-.2.1-.2 0-.4.2-.6.3-.4.2-.8 0-1.1-.3-.2-.3-.2-.6-.1-1 .2 0 .4-.2.5-.4z"/><path class="st121" d="M119.1 58c.6.1.7.7.9 1.1.3.6.6 1.3 1 1.9-.1.1-.2.2-.4.2s-.3-.1-.4-.2c-.2-.2-.4-.5-.6-.7-.2-.3-.3-.5-.4-.8s-.3-.6-.3-.9c-.1-.2-.1-.5.2-.6z"/><path class="st113" d="M123.5 62.1c.9.9 1.1 2.1 1.1 3.4-.6-1.1-1-2.2-1.1-3.4zm1.2 3.4c.8.9.8 1.9.8 3 .1.1.1.2.1.2 0 .1-.1.1-.1.1h-.2c-.2-1.1-.7-2.2-.6-3.3z"/><path class="st142" d="M125.4 68.8v-.4c.5.7.5 1.5 0 2.2v-1.8z"/><path class="st95" d="M122.8 60.2c.7.4.8 1.1.8 1.9-.8-.4-.8-1.1-.8-1.9zm-2.2.8h.3c.3.5.5.9.4 1.5-1-.1-1.2-.7-.7-1.5z"/><path class="st9" d="M122.8 67c.3 0 .4.2.4.5v1.4c-1.2-.5-.9-1.2-.4-1.9z"/><path class="st123" d="M120.6 57.2v.4c-.4-.1-1 .3-1.1-.4.3-.3.7-.3 1.1 0z"/><path class="st145" d="M122.4 59.5c.5.1.4.5.4.8-.5-.1-.4-.5-.4-.8z"/><path class="st131" d="M124.7 71.9c-.2-.1-.4-.2-.4-.4.3 0 .7-.1.8.4-.2-.1-.3 0-.4 0z"/><path class="st7" d="M112.7 69.2v-.3c2.2.5 4.3 1 6.5 1.4.2 0 .3.2.3.4-1.5.1-2.8-.6-4.2-.8-.7-.1-1.4-.3-2.1-.3-.3 0-.5-.1-.5-.4z"/><path class="st99" d="M112.3 71.5v-.4c1.2.3 2.4.5 3.6.8.3.1.4.1.5.4-.1.1-.1.2-.2.2-1.5.4-2.6-.5-3.9-1z"/><path class="st7" d="M119.4 70.7c1.3 0 2.4.2 3.4 1.1-1.2 0-2.3-.5-3.4-1.1z"/><path class="st95" d="M124.7 74.8h-1.1c-.4 0-.7-.1-.8-.5 0-.1 0-.2.1-.3.6 0 1.3.1 1.8.8z"/><path class="st118" d="M116.4 72.2h1c.3 0 .4.1.5.4l-.2.2c-.6.1-1.2.4-1.3-.6z"/><path class="st169" d="M117.9 72.6c.5.1 1.2-.4 1.5.4l-.2.2c-.6.1-1.2.4-1.3-.6z"/><path class="st9" d="M121.7 73.7c.4.1.9-.3 1.1.4-.4.4-.8.4-1.2-.1 0-.1.1-.2.1-.3zm-2.3-.8c.4.1.9-.3 1.1.4l-.2.2c-.4.1-.9.2-.9-.6zm1.1.4c.4.1.9-.3 1.1.4-.4.3-.9.5-1.1-.4z"/><path class="st7" d="M125.4 75.2c-.3 0-.7.2-.8-.4.4 0 .8-.1.8.4z"/><path class="st0" d="M122.4 69.6v1.1h-.3c-.2-.2-.6-.2-.8-.3-.3-.4-.8-.1-1.1-.4-.4-.5-1.1 0-1.5-.4-.4-.4-1.1 0-1.5-.4-.4-.4-1.1 0-1.5-.4-.6-.5-1.3.1-1.9-.4-.2-.8-1-.1-1.4-.6v-5.4c0-.2.7.1.7-.4l.2-.2c.4-.3.9-.3 1.4-.4.1-.1.3-.1.4-.1.4-.1.7-.1 1.1-.2.1-.1.3-.1.4-.1.3-.1.7-.1 1-.2.1-.1.3-.1.4-.1.3-.1.6-.1.8-.2h.4c.2.1.4.2.6.4.1.1.2.2.2.4.1.2.1.4.2.6.1.1.2.2.2.4.1.2.1.4.3.6.1.1.1.3.1.4 0 .2.1.4.2.6.1.1.1.2.2.4 0 .3.1.6.2.8.1.1.1.2.2.4 0 .3.1.6.2.8.1.1.1.3.1.4 0 .4.1.7.3 1.1 0 .2.1.3.1.5.3.2-.2.8.1 1.3z"/><path d="M113.8 68.4h1.4c.3 0 .4.1.5.4h-1.4c-.3 0-.4-.1-.5-.4zm1.9.4c.5.1 1.2-.4 1.5.4-.5-.1-1.2.4-1.5-.4z" fill="#7b2a00"/><path d="M118.7 69.6c.5.2 1.2-.4 1.5.4-.5-.2-1.2.3-1.5-.4z" fill="#843500"/><path d="M117.2 69.2c.5.2 1.2-.4 1.5.4-.5-.2-1.2.3-1.5-.4z" fill="#814000"/><path d="M120.2 70c.4.1 1-.3 1.1.4-.4-.2-.9.2-1.1-.4z" fill="#7a2b00"/><path class="st131" d="M121.3 70.3c.3 0 .7-.1.8.3-.3.1-.7.2-.8-.3z"/><path class="st19" d="M120.6 73.3c.2.7.7.3 1.1.4.2.7.7.3 1.1.4 0 .3.2.4.5.4.2 0 .3.2.3.3v.3c.1.1.2.2.1.4-.1.1-.2.2-.4.2-.3 0-.5-.3-.8-.4-.1-.1-.3-.1-.4-.2-.2-.1-.4-.2-.6-.2-.1 0-.3-.1-.4-.1-.3-.1-.5-.2-.8-.3-.1 0-.3-.1-.4-.1-.3-.1-.6-.1-.9-.2-.1 0-.3-.1-.4-.1-.3-.1-.6-.2-.8-.3-.1 0-.3-.1-.4-.1-.3-.1-.7-.2-1.1-.3-.1 0-.3-.1-.4-.1-.5-.2-1.1-.1-1.5-.5 0-.1-.1-.1-.1-.2-.1-.1-.2-.3-.3-.3h-1.3c-.4-.3-.3-.5-.3-.7 1.3.5 2.7.8 4.1.7.3.8 1 .2 1.5.4.3.8 1 .2 1.5.4.1.5.7.1 1.1.2z"/><path class="st174" d="M123.5 75.6c0-.1 0-.3.1-.4.3.1.7 0 .8.4-.3 0-.4.2-.4.5v2.5c-.2.1-.4.1-.6-.1-.5-1.1-.6-2 .1-2.9z"/><path class="st174" d="M125.1 75.9c-.3 0-.7.1-.8-.4h.8c-.1.2-.1.3 0 .4z"/><path class="st119" d="M98.8 101h-2.5c-.3 0-.4-.1-.5-.4 1.4-.5 2.8-.8 4.3-.6.6.1 1.1-.7 1.7-.2v.4c.2.1.2.2 0 .4-.9.5-2-.1-3 .4z"/><path class="st8" d="M92.1 108.1h1.1c-.2.6-.8.2-1.1.4v-.4zm1.1 0c0-.3.2-.4.5-.4h1.8c.1.1.1.2.1.2 0 .1-.1.1-.1.1-.8.1-1.5.1-2.3.1z"/><path class="st110" d="M95.5 108.1v-.3c.3-.2.5-.2.8 0v.4c-.3-.1-.6-.1-.8-.1z"/><path d="M113.4 58h-1c-.3-.7-.1-1.4-.1-2.2.4 0 .6-.1.8-.1h.3c.4.4 1.1 0 1.5.4.4.4 1.1 0 1.6.4h.3c.2.2.1.5 0 .7-.1.1-.2.2-.4.3-.4.2-.8.2-1.1.4-.1.1-.3.1-.4.1-.4.1-.8.1-1.1 0h-.4z" fill="#fb0000"/><path d="M118.3 56.1c-.5-.1-1 0-1.6-.2-.9-.4-1.9-.5-3-.7 1.5-.3 3.3.1 4.6.9z" fill="#8a8900"/><path class="st70" d="M112.3 52.8v-.4c.5-.2 1-.3 1.5 0 0 .3.2.4.5.4h1.1v.4c.1.1.2.1.2.2s-.1.1-.1.1c-1.2-.3-2.1-.8-3.2-.7z"/><path class="st97" d="M120.9 56.9h-.4c-.4.2-.8.2-1.1 0 0-.3-.2-.4-.5-.4s-.6 0-.7-.4c1.1 0 2 0 2.7.8z"/><path d="M116.4 57.2c.1-.3.2-.5.3-.8h.8v.7c-.3.4-.7.5-1.1.1z" fill="#702700"/><path d="M115 56.1c-.5-.1-1.2.4-1.5-.4.4.2 1.1-.3 1.5.4z" fill="#733500"/><path d="M116.5 56.5h-1.1c-.3 0-.4-.1-.5-.4.6.1 1.2-.3 1.6.4z" fill="#832a00"/><path class="st123" d="M115.3 53.5v-.3h1.1v.4c-.3-.1-.7-.1-1.1-.1z"/><path d="M119.4 56.9h1.1v.3h-1.1v-.3z" fill="#f5f500"/><path class="st104" d="M124.3 86.4c.1-1.7.6-3.3 1.1-4.9h.4c0 .8-.6 1.4-.4 2.2-.6.6-.5 1.4-.7 2.2-.1.3-.2.5-.4.5z"/><path class="st117" d="M102.6 43.8c.1.5.5.3.7.4 0 .2.1.3.3.4.3 0 .4.1.4.4-.2.3-.5.3-.8.3-.1 0-.3 0-.4-.1-.2-.1-.4-.2-.6-.2-.1 0-.3-.1-.4-.2-.2-.1-.4-.1-.6-.2-.1 0-.3-.1-.4-.1-.3-.1-.5-.2-.8-.3-.1 0-.3-.1-.4-.1-.3-.1-.5-.2-.8-.2-.1 0-.3-.1-.4-.1-.3-.1-.6-.1-.8-.2-.1 0-.3-.1-.4-.1-.4-.2-.9-.2-1.3-.3-.2 0-.3-.1-.5-.1-.7-.3-1.5 0-2.2-.3-.2-.1-.3-.2-.4-.4-.1-.4-.5-.3-.8-.4 0-.3.2-.4.5-.4h1.4c0 .3.2.4.5.4h1.8c0 .3.2.4.5.4h1.4c.8.7 1.9.7 2.8 1.1.5.1 1 .5 1.7.3z"/><path class="st9" d="M123.9 87.5c.1-.4-.3-1 .4-1.1-.1.4.3 1-.4 1.1zm-.4.8c0-.3-.1-.7.4-.8v.8h-.4zm-.3 1.1c.1-.4-.3-.9.4-1.1-.2.4.3.9-.4 1.1z"/><path d="M122.8 90.2c0-.3-.1-.7.4-.8-.1.3.1.7-.4.8z" fill="#737300"/><path class="st150" d="M69.2 87.5c-2.2.3-4.2 1-6.3 1.6-1 .3-2 .8-3.1.9-.4-.3-.6-.7-.8-1.1-1-2.4-1.9-4.8-2.3-7.4v-.9c.1-.6.3-1 .8-1.3 3.1.4 6.2.7 9 2.2.2.6.8.2 1.2.3 1.4 1.8 1.8 3.7 1.5 5.7z"/><path d="M56.9 74.8c1.8-1 3.9-1.3 5.8-1.8 1.5-.4 3.1-.8 4.7-.9v5.7c-.2.2-.5.3-.8.3-.5-.1-.9-.1-1.4-.1-2.9-.5-5.8-.6-8.4-2.3-.1-.3-.1-.6.1-.9z" fill="#026500"/><path class="st3" d="M66.6 63.6c0 .4.4.3.7.6v3.9c-.4.6-1.1.3-1.5.6-.1.1-.3.1-.5.1-.5.1-.9-.2-1.4-.4l-.6-.3c-.2-.2-.5-.4-.7-.5s-.3-.3-.5-.4c-.3-.3-.6-.4-.9-.6-.3-.3-.6-.5-.9-.7-.3-.4-.7-.6-1.2-.9-.2-.2-.4-.4-.4-.7-.1-.5-.1-1 .1-1.4.5-.9.8-2 2.2-1.4.2.2.5.2.8.2h.4c.2.1.4.1.6.2.1.1.3.1.4.2.2.1.4.1.6.2.1 0 .3.1.4.2l.6.3c.1.1.3.2.4.2.4.2.9.4 1.3.6 0-.1.1-.1.1 0z"/><path d="M69.2 87.5c-.5-1.9-1-3.7-1.5-5.6v-1.1c.6-.3.3-.9.3-1.3V51.8c0-.4-.4-1 .4-1.2.2.2.3.4.4.6.4.7.1 1.3.1 2 0 6.5.2 12.9.1 19.4-.1 4-.2 8.1.6 12.1l.3 1.2c.8 2.8 2.3 5.2 4.3 7.3.5.5 1.2 1 .9 1.9-.2 0-.3.1-.4.3-.3.2-.6.2-.8 0-1.3-1.4-2.8-2.5-3.3-4.4v-.3c-.1-1.3-.6-2.3-1.4-3.2z" fill="#e3e2e1"/><path class="st4" d="M67.4 79v1.4c0 .3-.1.4-.4.5-.7.4-1.5-.1-2.2 0h-.5c-.5-.2-1-.4-1.6-.3-.2 0-.3 0-.4-.1-.3-.3-.6-.5-1-.5-.1 0-.3 0-.4-.1-.3-.2-.7-.3-1.1-.3-.1 0-.3 0-.4-.1-.3-.2-.7-.3-1.1-.3-.2 0-.3-.1-.5-.1-.3-.1-.6-.3-.9-.5-.2-.2-.3-.4-.4-.7-.1-.9.1-1.5 1.1-1.6.3 0 .5 0 .8.2s.6.2 1 .2c.2 0 .3.1.5.1.4.2.8.2 1.2.3.2 0 .3.1.5.2 1.4.3 2.7.7 4.1.7.7.1 1.2.4 1.7 1z"/><path class="st105" d="M58.4 77.1c-.2 0-.4-.1-.4-.3-.2-.5-1.7.2-1.1-1.1 2.3.6 4.6 1.2 6.9 1.7.5.1 1.1.1 1.6.1.3.3.8 0 1.2.3.2 0 .5.1.7.1v.7c-2.2-.1-4.2-.6-6.3-1.1-.4-.4-1.1 0-1.5-.4-.3-.3-.7-.3-1.1 0z"/><path class="st5" d="M66.6 81.6c-2.7-.6-5.5-1-8.2-1.9-.2-.1-.5 0-.7 0-.3-.1-.5-.4-.4-.7.1-.3.5-.3.8 0 .4.4 1.1 0 1.5.4.4.4 1.1 0 1.5.4.4.4 1.1 0 1.5.4.6.5 1.3-.1 1.9.4.8.4 1.9 0 2.7.7.2 0 .3.1.3.4-.4-.2-.6-.1-.9-.1z"/><path class="st184" d="M61 77.4c1.2-.2 2.4.4 3.6.5.5.1 1.1.3 1.6.2.5 0 .8.3 1.2.4v.4c-1.3-.3-2.6-.5-3.9-.8-.9-.1-1.8-.1-2.5-.7z"/><path class="st19" d="M63.3 53.1c0-.3.2-.4.5-.4s.6 0 .7-.4c.6-.2 1.2-.6 1.9-.4.3.1.7-.1 1 .2-.1.5-1-.1-1 .6-.4.4-1.1 0-1.5.4-.4.3-.9.2-1.3.2-.2-.1-.3-.1-.3-.2z"/><path class="st82" d="M64.4 69.2c-.2 0-.3-.1-.4-.3.4-.6 1.1 0 1.5-.4.6-.3 1.2-.3 1.9 0 0 .3-.2.4-.5.4s-.6-.1-.6.4c-.6-.1-1.3-.1-1.9-.1z"/><path class="st129" d="M64.4 55.4c.5 0 1.1.1 1.5.3.6 0 1 .4 1.4.6.1.3 0 .5-.3.5-.4-.7-1.1-.8-1.9-.7 0-.2-.1-.4-.3-.4-.2 0-.4-.1-.4-.3z"/><path class="st13" d="M70 48.3c-.1.2-.3.5-.4.7-.5.4-1 .5-1.5 0 .2-.5.5-.8 1.1-.7.2-.2.4-.2.6-.1.2 0 .2 0 .2.1z"/><path class="st5" d="M65.9 51.2c.7 0 .5-1 1.1-1.1.4.1.5.3.3.6-.3.3-.6.7-1 .9-.4.1-.5 0-.4-.4z"/><path class="st143" d="M65.9 51.2c0 .2.1.4.4.4v.3c-.6.5-1.2.4-1.9.4.5-.3 1-.7 1.5-1.1z"/><path class="st121" d="M67 81.1c-.8-.1-1.7-.3-2.5-.4-.1 0-.1-.2-.1-.3.9.1 1.8-.2 2.6.4v.3z"/><path class="st185" d="M65.9 62.8H67l.3.6c-.2.2-.5.1-.7.1-.2-.3-.7-.1-.8-.5 0 0 .1-.1.1-.2z"/><path class="st186" d="M67.4 68.5h-1.9c0-.3.2-.4.5-.4h1.4v.4z"/><path class="st4" d="M65.9 55.4c.3-.8 1-.2 1.5-.4-.4.7-1 .2-1.5.4z"/><path class="st100" d="M63.3 55c.4.1 1-.3 1.1.4-.4-.2-1 .3-1.1-.4z"/><path class="st185" d="M64.4 62.1h.8c0 .3.2.4.5.4.2 0 .3.2.3.4-.4.3-.8.3-1.1 0-.2-.2-.6-.2-.8-.4-.1-.1-.1-.2-.1-.3s0-.2.1-.2c0-.1.2-.1.3.1z"/><path class="st185" d="M64.4 62.1H64c-.4.3-.8.3-1.1 0-.2-.2-.6-.2-.8-.4-.1-.1-.2-.1-.2-.2l.2-.2V61h.4c0 .5.5.3.7.4.2.7.7.3 1.1.4.1 0 .1.2.1.3z"/><path class="st6" d="M70.1 102.1c.2 0 .4 0 .5.1 3.4 2.4 7.1 4.1 11.1 5.2.2 0 .3.2.3.4.1.1.1.2.1.3 0 .1 0 .2-.1.2-.2.1-.3.1-.4-.1-.9-.3-1.8-.5-2.6-.8-.6-.4-1.3-.4-1.9-.8-.9-.4-1.7-.8-2.6-1.1-.6-.5-1.3-.7-1.9-1.1-.2-.2-.6-.2-.8-.4 0-.2-.1-.4-.4-.4-.2-.2-.6-.2-.8-.4 0-.2-.1-.4-.4-.4-.2-.2-.4-.3-.5-.6.3 0 .3-.1.4-.1z"/><path class="st114" d="M64.4 97.7c-.6-.3-1.1-.7-1.1-1.5.3-.2.7-.4 1-.5 1.2.6 2.5 1.1 3.5 2.1-.2 1-1.2.2-1.6.7-.8.2-1-1.1-1.8-.8z"/><path d="M64.4 97.7c0-.2-.1-.5.1-.7.7.3 1 1.2 1.8 1.4.4.9 1.4 1.3 1.9 2.2l-.2.2c-.2.1-.5 0-.6-.2-.7-.7-1.7-1-2-2.1-.1-.5-.9-.3-1-.8z" fill="#ecec00"/><path class="st84" d="M64 95.8c0 .2 0 .5-.1.7-.3-.1-.5-.3-.7-.4-.4-.1-.6-.3-.7-.7-.2-.2-.1-.6-.4-.8 0-.2-.1-.3-.4-.4-.2-.5.2-.5.6-.5.2 0 .3.1.5.1.5.4.9 1 1.2 1.6v.4z"/><path class="st110" d="M81.6 108.1h.4c.5-.2 1-.3 1.5 0 .2.7.7.3 1 .4.4.1 1-.3 1.2.4-1.4.2-2.7-.2-4-.5 0 0 0-.2-.1-.3zm-7.1-2.6c1.1-.1 1.9.4 2.6 1.1-1 .1-1.9-.4-2.6-1.1z"/><path d="M68.2 100.6c.9.1 1.4.9 1.9 1.5-.2.2-.5.2-.7 0 0-.2-.1-.4-.4-.4-.4-.3-1.1-.4-.8-1.1z" fill="#e5e600"/><path class="st110" d="M79 107.4c1 0 1.9 0 2.6.8-.9-.1-1.9-.1-2.6-.8zm-6.4-3c.8.1 1.5.3 1.9 1.1-.8-.1-1.5-.3-1.9-1.1z"/><path class="st189" d="M62.5 93.9c-.3 0-.7-.1-.7.4h-1.1c.4-.7 1.2-.7 1.8-.8.1.1.1.2 0 .4.1 0 0 0 0 0z"/><path class="st110" d="M77.1 106.6c.7 0 1.4.1 1.9.8-.7 0-1.5-.1-1.9-.8z"/><path class="st121" d="M68.1 100.6c0 .5.7.6.8 1.1-.8.1-1.2-.6-1.5-1.1h.7z"/><path class="st112" d="M69.3 102.1h.7c.1.3.3.5.4.8-.6 0-1-.2-1.1-.8z"/><path class="st88" d="M70.8 103.2c.3 0 .7-.1.8.4-.4 0-.8.1-.8-.4z"/><path class="st125" d="M71.9 104c.3 0 .7-.1.8.4-.4-.1-.8.1-.8-.4z"/><path class="st122" d="M59.9 94.7c.1-.5.5-.4.8-.4-.1.5-.5.3-.8.4z"/><path class="st118" d="M62.1 94.6c.5.1.4.5.4.8-.5-.1-.4-.5-.4-.8z"/><path class="st11" d="M74.9 45.3c-.2.4-.6.6-1 .8-1.1.6-2.2 1.2-3.2 2-.2.1-.4.2-.7.2-.2-.4.2-.5.4-.7 0-.2.1-.4.4-.4.2-.2.5-.1.7-.4 0-.3.1-.4.4-.4.2-.2.6-.1.7-.4.8-.3 1.3-1.2 2.3-.7z"/><path class="st184" d="M74.9 45.3c-.6-.1-1 .3-1.4.5-.3.1-.5.2-.8.2.3-.9 1.2-.9 1.9-1.3.8-.4 1.6-1.1 2.6-1-.5.6-1.3.8-1.9 1.1-.3.2-.4.3-.4.5z"/><path class="st95" d="M81.2 42.2c.1.1.2.1.5.3-1 .1-1.8.7-2.7.5.6-.6 1.4-.7 2.2-.8zM79 43c-.5.7-1.1.8-1.9.8.4-.8 1.2-.8 1.9-.8zm-8.6 4.5c-.1.2-.2.5-.4.7h-.8c.2-.5.6-.7 1.2-.7z"/><path class="st113" d="M71.5 46.8c-.1.5-.4.4-.7.4 0-.6.4-.4.7-.4z"/><path class="st122" d="M72.6 46c-.1.5-.4.4-.7.4 0-.5.4-.4.7-.4z"/><path class="st81" d="M62.2 53.5c.2-.7.7-.3 1.1-.4.2.1.2.3 0 .4-.4.3-.8.3-1.1 0z"/><path class="st86" d="M53.9 79.3c.5.1.3.5.3.8h-.4c.1-.3.1-.5.1-.8z"/><path class="st4" d="M84.3 42.3c-.2 0-.3-.1-.3-.4h1c.1.1.2.1.1.2 0 .1-.1.1-.1.1-.3 0-.5.1-.7.1z"/><path class="st91" d="M86.5 41.9h1.1c-.2.7-.8.3-1.2.3.1-.1.1-.2.1-.3z"/><path class="st81" d="M85 42.2v-.3c.3 0 .6-.2.7.3H85z"/><path class="st91" d="M61 61.4h-.9c-.5.4-.3 1.2-1 1.5-.1 0-.1-.1-.2-.1-.1-.2-.1-.4-.1-.5v-.2s0-.1-.1-.1l-.1-.1v-1.1c1-.2 1.8-.1 2.4.6z"/><path class="st9" d="M57.7 64.3c0 1 0 1.9-.8 2.6 0-.9 0-1.8.8-2.6zm.3 0h-.4c0-.7 0-1.5.8-1.9.1 0 .1.1.2.1.1.2.2.4.2.6 0 .1-.1.3-.1.4-.2.5-.5.6-.7.8z"/><path class="st88" d="M56.9 66.9v1.4c-.3 0-.4-.1-.4-.3.2-.3-.3-.9.4-1.1z"/><path class="st91" d="M58.4 62.5c0-.3-.2-.7.4-.7.2.4.3.7-.4.7z"/><path d="M60.7 65.5c0 .3.2.4.5.4.2 0 .3.2.3.4.3.3.8.5 1.1.8.2 0 .4.1.4.4.2.2.5.2.7.4 0 .2.1.4.4.4.1.4 0 .5-.4.4-1-.1-1.4-1-2.2-1.5-.9-.5-1.7-1.3-2.6-2-.3-.4-.3-.7.3-.7 0 .2.1.4.4.4.3.1.7.3 1.1.6z" fill="#e7e800"/><path d="M59.2 64.3c-.5.1-.4.4-.3.7-.6-.1-.2.8-.8.8-.1-.5.1-1 .3-1.5-.2-.3-.2-.5.1-.7.3-.2 0-1 .7-.8v1.5z" fill="#535800"/><path class="st186" d="M63.6 68.5c.2 0 .4-.2.4-.4.6-.1.9.5 1.5.4 0 .3-.2.4-.5.4h-1c-.1 0-.3-.1-.4-.1v-.3z"/><path class="st90" d="M58.4 63.6c0 .2 0 .5-.1.7H58c.1-.3-.1-.7.4-.7z"/><path d="M66.3 98.4c0-.4.3-.4.6-.4s.7.2.8-.3c.2-.1.4-.1.7 0 .3.2.7.3 1.1.3.2 0 .3.1.4.1.5.2 1.1.1 1.6.1.2 0 .5.1.7.2.4.3.9.3 1.4.4.2 0 .3.1.5.1.8.3 1.6.1 2.4.1.3.1.4.2.6.4v.5c-.2.3-.6.1-.9.4-2.3-.4-4.7-.7-6.9-1.2-1.2-.3-2.1-.3-3-.7z" fill="#c6cc00"/><path class="st82" d="M76 100.2c.1-.5.5-.3.7-.4.7-.7 1.5-.5 2.3-.5.2 0 .4.1.6.1 1.4.4 2.9.6 4.2 1.1-.6.7-1.4.4-2 .2-.6-.2-1.2-.2-1.8-.2-1.3.2-2.6-.4-4-.3z"/><path class="st102" d="M83.5 108.1H82v-.4h1.5c.2.2.2.3 0 .4z"/><path class="st110" d="M83.5 108.1v-.4c.4.1.9-.3 1.2.3-.5.1-.8.1-1.2.1z"/><path d="M62.5 93.9v-.5c1.3-.8 2.8-.9 4.2-1.4 1.3-.5 2.8-.4 4.1-1.2 1.2 1 1.9 2.3 3 3.4.4.4.6.9 1.2 1.1.4.4.9.7 1.1 1.2-.1.1-.2.1-.2.2-4.1 0-8.1-1-12-2-.6-.2-.9-.6-1.4-.8z" fill="#046402"/><path class="st122" d="M64.8 53.1c0-.3.2-.4.5-.4h1.1c-.5.8-1.1.3-1.6.4z"/><path class="st9" d="M63.3 53.5v-.4h1.5c-.4.8-1 .2-1.5.4zm-1.2 0h1.1c-.2.7-.8.3-1.1.4v-.4z"/><path class="st122" d="M62.1 61.4v.4c-.4-.1-1 .3-1.1-.4.4-.1.8-.1 1.1 0z"/><path class="st194" d="M56.9 83.4c-.7-.5-.5-1.4-.7-2.1-.2-.8-.3-1.6-.4-2.4.1-.1.3-.2.4-.2.1 0 .2 0 .2.1.1.1.3.2.3.4.2.7 0 1.5.1 2.2.1.2.1.3.1.5-.1.5.2 1 0 1.5.1-.1.1 0 0 0z"/><path class="st96" d="M59.6 89c.6.2.3.7.3 1.1-.2.7-.7.3-1.1.4.1-.2.2-.3.3-.6-.2-.6-.8-1.2-.6-2.1.1 0 .1-.1.2-.1.5.3.3 1.1.9 1.3z"/><path d="M56.1 78.9h-.3v-3.1c-.3-.3-.6-.3-.8-.3v-.4h1.1c.1.1.1.2.2.2.3 1.3.5 2.5-.2 3.6z" fill="#6c6c00"/><path class="st113" d="M57.7 86c-.7-.7-.8-1.7-.8-2.6 1 .5 1 1.5.9 2.4 0 .1-.1.2-.1.2z"/><path class="st113" d="M58.4 87.9c-.7-.4-.8-1.1-.7-1.9.9.4 1 1 .7 1.9z"/><path class="st127" d="M54.3 75.6h.8c0 .5-.5.4-.8.4v-.4z"/><path class="st196" d="M56.9 75.6c0 .4 0 .7.5.7.3 0 .6 0 .6.4-.3 0-.7-.1-1 .1-.2.4-.1.9-.1 1.4-.2.1-.4.1-.5-.1-.2-1 .2-2-.2-2.9 0-.5.4-.3.7-.4v.8z"/><path d="M114.2 81.5c-.6 0-1.2.1-1.8-.1.1-.4.3-.3.5-.3s.3 0 .4-.2c-.1-.1-.2-.1-.3-.2-.1-.5.3-.6.6-.7.6 0 1.3.2 1.9-.1.5-.2 1.1-.1 1.6-.3.1-.1.3-.1.5-.1.4-.1.8-.1 1.1-.3.1-.1.3-.1.4-.1.4-.1.8-.1 1.1-.3.2-.1.3-.1.5-.1.6 0 1.2-.4 1.7.2.2 1.1-.9.6-1.3 1s-1.1 0-1.5.4c-.4.4-1.1 0-1.5.4h-.4c-.5.4-1.1 0-1.6.4h-.3c-.3.5-1.1 0-1.6.4z" fill="#e6e500"/><path d="M121.3 80c.1-.3.2-.4.5-.4.6.1.7-.2.6-.7-.1-.2-.1-.3.1-.5.2 0 .4.1.5.2.4.6.2 1.2.1 1.9-.1.2-.2.3-.4.4-.1 0-.2-.1-.3-.1.1-1-.6-.7-1.1-.8z" fill="#594400"/><path d="M114.2 81.6c.1-.3.2-.4.5-.4h1.4c-.1.3-.2.4-.5.4-.5-.1-.9 0-1.4 0z" fill="#882b00"/><path d="M122 82.7v-1.4c0-.3.1-.4.4-.5.5.7.6 1.3-.1 1.9h-.3z" fill="#5f3100"/><path d="M121.7 84.2c.2-.5-.4-1.2.4-1.5.5.5.5 1.1-.1 1.5h-.3z" fill="#573700"/><path d="M116.4 81.2c.4-.7 1-.2 1.6-.4-.4.7-1.1.2-1.6.4z" fill="#7b3700"/><path d="M118.3 80.8c.4-.7 1-.2 1.5-.4-.4.8-1 .3-1.5.4z" fill="#842c00"/><path d="M119.8 80.4c.4-.7 1-.2 1.5-.4-.3.8-1 .3-1.5.4z" fill="#833500"/><path d="M120.9 86.4c.1-.4-.3-.9.4-1.1l.2.2c.1.5.2.9-.6.9z" fill="#523600"/><path d="M121.3 85.3c.1-.4-.3-.9.4-1.1.3.5.4.9-.4 1.1z" fill="#4e3700"/><path class="st104" d="M123.6 78.5h.3c-.3 1.6-.4 3.3-.9 4.8h-.2l-.2-.2c-.1-.8 0-1.5.3-2.3.3-.6-.4-1.7.7-2.3zm-.8 4.9c0 1.4-.7 3.4-1.5 4.5-.1-1.7.3-3.2 1.5-4.5z"/><path class="st0" d="M118.7 73.7h.3c.3.3.8 0 1.2.4.3.4.8 0 1.1.4.3.4.8 0 1.1.4.2.2.5.4.5.7l-.3.3c-.3.2-.7.2-1.1.3-.1.1-.3.1-.4.1-.4.1-.7.1-1.1.3-.1.1-.3.1-.4.1-.4.1-.7.1-1.1.3-.1.1-.3.1-.4.1-.4.1-.9.2-1.3.3-.1 0-.3.1-.5.1-.5 0-.9.1-1.4.3-.2 0-.3.1-.5.1-.6.1-1.1.1-1.7.1-.2 0-.3-.1-.4-.2v-5.3h1.8c.6.5 1.3-.1 1.9.4.4.4 1.1 0 1.5.4.4.4.9.1 1.2.4z"/><path class="st4" d="M122.8 78.5h-.4c-.5.5-1.3.5-1.9.8-.4.4-1.1 0-1.5.4-.4.4-1.1 0-1.5.4-.5.4-1.2.1-1.8.2-.6.3-1.3.6-2 .2-.3 0-.7-.1-.8.4h-.7v-1.8c1.2-1.3 2.9-1 4.4-1.4.2-.1.3-.1.5-.2 1-.1 2-.3 3-.6.2-.1.3-.1.5-.2.5 0 1.1-.3 1.6-.2 1 .4.8 1.1.6 2 .1-.1.1 0 0 0zM117.2 58c.5-.1.7.3 1.1.4.1 0 .1.1.2.1.2.2.3.4.4.6 0 .2.1.3 0 .5-.1.5-.6.7-1 .9-.1.1-.3.1-.4.2-.4.1-.8.1-1.1.3-.1.1-.3.1-.4.1-.5.1-1.1.1-1.6.3-.2.1-.3.1-.5.1-.6.1-1.1 0-1.4-.5v-1.8c.9-.6 1.9-.8 2.9-1 .2-.1.3-.1.5-.2.4-.1.8-.1 1.2 0h.1z"/><path class="st207" d="M114.6 77.4h.3c.5-.4 1.1 0 1.6-.4h.3c.4-.4 1.1 0 1.5-.4.4-.4 1.1 0 1.5-.4.4-.4 1.1 0 1.5-.4.3-.3.8-.1 1.2-.4h.3c.4.6.1.8-.4.9-.5.3-1.2.3-1.8.6-1.1.3-2.3.4-3.4.8-1.6.2-3.2.8-4.8.7v-.7h.3c.6-.3 1.3.2 1.9-.3z"/><path class="st19" d="M113.1 62.1c-.5.1-.9-.1-.7-.7.5-.5 1.3.1 1.8-.4.6-.5 1.3.1 1.9-.4.4-.4 1.1 0 1.5-.4.6-.2 1.2-.7 1.5.4-.3.3-.8 0-1.1.4-.4.4-1.1 0-1.5.4-.4.4-1.1 0-1.5.4-.6.4-1.4-.2-1.9.3z"/><path class="st185" d="M116.4 57.2h1.1c-.1.2-.3.5-.4.7-.4.4-1.1 0-1.5.4-1.1.1-2.2.9-3.4.4 0-.3.2-.4.5-.4s.6 0 .7-.4c.4-.4 1.1 0 1.5-.4.5-.3 1.1.1 1.5-.3z"/><path class="st99" d="M112.3 78.5c1.6-.3 3.2-.9 4.8-.7-.1.1-.1.3-.2.3-1.6.3-3.1.6-4.7.9.1-.2.1-.3.1-.5z"/><path class="st125" d="M112.3 58.7c1.2.2 2.2-.6 3.4-.4-1 .7-2.2.7-3.4.8v-.4z"/><path class="st96" d="M114.2 61c0 .3-.2.4-.5.4h-1.4V61h1.9z"/><path class="st102" d="M113.8 52.4h-1.5c.2-.7.7-.2 1.1-.4.3 0 .4.1.4.4z"/><path class="st84" d="M122.8 83.4c-.7.8-.7 1.9-1.1 2.8-.2.5-.6 1.1-.4 1.7-.5 0-.2.8-.8.7-.1-.8.5-1.4.4-2.2.6-.2.3-.7.4-1.1.6-.2.3-.8.4-1.1.7-.4.2-1 .4-1.5.7-.5.2-1.3.4-1.9h.3c.2 0 .2.3.4.4-.5.7-.4 1.4-.4 2.2z"/><path class="st81" d="M108.6 95.8v.3l.2.2c-.1.1-.2.1-.2.2-.9.4-2-.1-2.9.6-.5 0-1 .1-1.5-.1-.2-.7.5-.7.8-1 .2-.1.4-.1.5-.2.7-.2 1.5-.1 2.2-.3h.5c.1 0 .3.2.4.3z"/><path class="st9" d="M108.6 96.5v-.4c1.5.2 3-.6 4.5-.4-.1.1-.1.3-.2.3-1.4.1-2.8.7-4.3.5z"/><path class="st110" d="M107.4 93.5c.9.5 1.9.7 2.6 1.5l-.2.2c-.2.1-.5.2-.7.2s-.3-.1-.5-.1c-.6-.3-1.3-.5-1.5-1.3.1-.2.2-.3.3-.5z"/><path d="M107.4 93.5v.3c-.3.3-.1.9-.7 1-.4.1-.7 0-.9-.3.2-.7.6-1.2 1.2-1.4.1.3.2.4.4.4z" fill="#745733"/><path d="M108.6 95.8c-.1 0-.3 0-.4-.1-.2-.3-.2-.5 0-.8.3-.1.6-.2.8.1.3.3.6.2.9.2l.2.2c0 .3-.2.4-.5.4h-1z" fill="#725000"/><path class="st155" d="M112.3 95c0 .3-.2.4-.5.4H110c-.2-.1-.2-.3 0-.4h2.3z"/><path d="M107.5 92.8c-.1-.8.5-1.2 1.1-1.5 0 .8-.6 1.1-1.1 1.5z" fill="#7a7a3b"/><path class="st120" d="M112.3 95c0-.3.2-.4.5-.4h1.4c0 .3-.2.4-.5.4h-1.4zm1.9-.4c.3-.8.9-.2 1.4-.2-.4.4-1 .2-1.4.2z"/><path d="M108.5 91.3c0-.3-.1-.7.4-.8 0 .3.2.7-.4.8z" fill="#6a6a2d"/><path class="st0" d="M69.3 85.3c-.5-1.2-.8-2.5-.8-3.8 0-3.3-.1-6.6-.1-9.9V50.9c1.1-.4 2.2-.2 3.3-.1.6.8.2 1.3-.4 1.8-.3.3-.9.4-.9 1 0 .4-.1.8-.2 1.2-.2 1-.1 1.9 0 2.9 1.7.8 3.4.7 5.2 0 .1-.5.1-1 0-1.4v-.5c0-.3.1-.6 0-.9 0-.1-.1-.3-.1-.4-.1-.3 0-.7-.1-1.1 0-.1-.1-.3-.2-.4-1.6-1.1-1.6-1.2-.8-2.4 4.8.1 9.7-.2 14.5.1.9 1.2.1 1.7-.9 2.2-.1.1-.2.2-.3.4-.1.4-.1.8-.2 1.2-.3.5-.1 1 0 1.5s.1 1 .1 1.5c.1.7.6.7 1.1.7 1.3 0 2.6.1 3.8-.1l.3-.3c.1-.4 0-.7-.1-1s0-.6 0-.9c.1-.4.2-.9 0-1.3-.1-.4-.1-.8-.2-1.1-.1-.1-.2-.3-.3-.4-1-.5-1.8-1-.9-2.2 4.7-.3 9.5-.1 14.2-.1.7.1.7.7.7 1.2 0 .2-.1.3-.2.5-.4.4-.9.1-1.3.4-.2.4 0 .7 0 1 .1.5-.1 1-.2 1.5 0 .8-.1 1.5 0 2.3 1.3.9 4 .8 5.2 0 .1-.8 0-1.5 0-2.3-.1-.5-.3-1-.2-1.5 0-.4.2-.7 0-1.1-.3-.2-.8-.1-1.2-.3-.1-.1-.2-.3-.3-.5-.1-.6 0-1.1.7-1.3.7 0 1.5-.1 2.2.1.4.4.3.8.3 1.3v29c0 .4.1.9-.2 1.3v.3c-.4.5 0 1.1-.3 1.6v.3c-.3.3-.1.9-.3 1.2-.6 2.6-1.9 4.8-3.5 6.8-1.3 1.6-2.8 3.1-4.5 4.3-2.7 1.7-5.5 3.2-8.8 3.4-2.3.3-4.6.3-6.8 0-3.3-.3-6.2-1.6-8.8-3.5-.8-.6-1.6-1.2-2.3-1.8-1.3-1.6-2.8-2.9-3.8-4.7-.7-1.3-1.6-2.6-1.9-4.2-.4-.3-.3-.6-.5-.8z"/><path class="st212" d="M110.8 82.4V50.9h-2.6c-.9.7-1.7.7-2.6 0H92.1c-.4 0-.9-.3-1.1.4-.7.6-1.5.6-2.2 0-.1-.1-.2-.4-.3-.4H74.2c-.2 0-.3.2-.3.4 0 .1-.1.2-.1.2-.3.4-.8.4-1.2.2-.3-.1-.5-.2-.6-.5 0-.3-.2-.4-.5-.4h-2.9v-.4h42.5c.3.4.2.7.2 1v29.1c-.1.7.2 1.4-.5 1.9z"/><path d="M108.2 95v.7h-.3c-.7.4-1.6-.1-2.3.4h-.3c-1-.2-.1-.6-.1-.9l.7-.7h1.3c.4-.2.7.1 1 .5z" fill="#e60401"/><path class="st214" d="M105.2 95.3c0 .2-.1.3-.2.5-.3.4 0 .3.2.4-.2.6-.8.2-1.1.5.4.4 1 .1 1.4.2.1.1.2.1.1.2 0 .1-.1.1-.1.1-1.2-.2-2.2.4-3.4.4 1.1-.7 1.9-1.8 3.1-2.3z"/><path d="M86.4 100.3h6.8c-.1.1-.3.3-.4.3h-6.1s-.1-.2-.3-.3z" fill="#8d2525"/><path d="M100.3 100.2c-1.5-.3-3 .4-4.5.4.9-.7 2-.8 3-1.1.3.8 1 .2 1.5.4.1.1.2.2 0 .3.1 0 .1 0 0 0zm-16.4.4c-1.5-.1-2.9-.5-4.3-.5-.1 0-.1-.2-.2-.3.3-.5.8-.4 1.3-.4h.2c1 .4 2.1.6 3 1.2z" fill="#6c6c1c"/><path d="M76 96.5c.6.3 1.2.5 1.5 1.1-.1.1-.2.1-.2.2-1.2.1-2.4.5-3.2-.9.5-.8 1.3.1 1.9-.4z" fill="#686817"/><path d="M101.1 98.4c-.2.8-.9.8-1.5.8.3-.6.9-.8 1.5-.8z" fill="#7d7d43"/><path d="M77.5 97.6c.5 0 .9.2 1.1.7l-.2.2c-.6.1-1-.1-.9-.9z" fill="#7b7b3f"/><path class="st212" d="M110.5 84.3c.1-.5-.4-1.2.3-1.6-.1.5.3 1.1-.3 1.6z"/><path d="M110.1 85.7c.1-.4-.3-1 .3-1.2 0 .4.3 1-.3 1.2z" fill="#813838"/><path d="M101.8 98c0 .6-.4.4-.7.4 0-.5.4-.4.7-.4z" fill="#6a6a26"/><path d="M78.7 98.3c.3 0 .6 0 .7.4l-.2.2c-.4 0-.7 0-.5-.6zm.7.4c.3 0 .7 0 .7.4-.1 0-.1.1-.2.1-.3.1-.6.1-.5-.5z" fill="#7e7e3a"/><path d="M80.1 99.1c.3 0 .7-.1.7.4-.4.2-.7.3-.7-.4z" fill="#63633f"/><path d="M99.6 99.1c-.1.5-.5.4-.8.4.1-.5.5-.4.8-.4z" fill="#6a6a45"/><path class="st225" d="M100.3 100.2v-.3c.4-.2.8-.5 1.4-.4 1.5.3 2.9-.5 4.4-.4.2 0 .4-.2.6-.3.1.1.2.2.1.2 0 .1-.1.1-.1.1-.1.1-.1.3-.2.3-1.6.1-3.1.6-4.7.5-.5-.2-.9.5-1.5.3z"/><path class="st95" d="M106.7 99.1v-.3c1.3.1 2.5-.6 3.7-.4-.3.2-2.2.8-2.5.8-.3-.1-.8-.1-1.2-.1z"/><path class="st9" d="M105.6 97.2v-.3c.9-.7 2-.3 3-.4 0 .2-.1.4-.3.4-1-.1-1.9 0-2.7.3z"/><path d="M105.2 100.2c0 .3-.2.4-.5.4h-2.1c-.1-.1-.2-.2-.1-.2.1-.1.1-.1.2-.1.8 0 1.6 0 2.5-.1z" fill="#783d00"/><path d="M107.4 99.9c0 .3-.2.4-.5.4h-1.8c.1-.3.2-.4.5-.4h1.8z" fill="#7b3400"/><path d="M109.3 99.5c0 .3-.2.4-.5.4h-1.4c.1-.3.2-.4.5-.4h1.4z" fill="#704c00"/><path d="M111.2 99.1c0 .3-.2.4-.5.4h-1.4c.1-.3.2-.4.5-.4h1.4z" fill="#764a00"/><path class="st225" d="M102.6 100.3v.3h-.8v-.4c.3.1.5.1.8.1z"/><path d="M98.8 107c.7-.5 1.4-.8 2.3-.8 0 .6-.8.2-.8.7-.5.1-1 .1-1.5.1z" fill="#583f00"/><path d="M97.3 107.4c.3-.8 1-.2 1.5-.4-.2.7-.8.2-1.1.4h-.4z" fill="#530"/><path d="M96.2 107.8h-.8c.1-.3.2-.4.5-.4h1.4c-.1.6-.7.2-1.1.4z" fill="#572c00"/><path d="M101.1 106.3c.2-.7.7-.3 1.1-.4-.2.6-.7.2-1.1.4z" fill="#634500"/><path d="M102.2 105.9c.1-.5.5-.4.8-.4-.1.5-.5.3-.8.4z" fill="#4b3800"/><path d="M98.8 101c.1-.2.3-.4.5-.4h2.5c-.1.3-.2.4-.5.4h-2.5z" fill="#855000"/><path class="st0" d="M92.9 42.3h.3c.8.5 1.8-.1 2.6.4.4.4 1.1 0 1.6.4h.3c.3.3.8 0 1.2.4.3.4.8.1 1.1.4.3.4.8.1 1.1.4.3.4.8 0 1.1.4.2.2.6.2.8.4.8.4 1.6.5 2.3 1.1.2.3.5.2.8.4.2.2.6.2.8.4.4.3.8.5 1.1.8.2.2.5.2.7.4.1.2.2.3.4.4.2.5.6.8 1.1.8-.2.6-.7.3-1.1.3H92.4c-.3-1.1-.1-2.3-.1-3.5v-3.6c.1-.3.4-.3.6-.3z"/><path d="M105.2 46c-.9 0-1.6-.5-2.3-1.1h1.1c.2.2.6.1.8.4.1.2.3.5.4.7z" fill="#6d3b00"/><path d="M107.8 47.5c-.6 0-1-.2-1.1-.8.6 0 .9.3 1.1.8z" fill="#6a3800"/><path d="M108.5 47.9c-.3 0-.7.1-.7-.4.3 0 .7-.1.7.4z" fill="#5d4200"/><path d="M106.7 46.8c-.3 0-.7.1-.8-.4.4 0 .7-.1.8.4z" fill="#5f3300"/><path d="M106 46.4c-.3 0-.7.1-.8-.4.3 0 .7-.1.8.4z" fill="#672600"/><path class="st100" d="M104.8 45.3c-.3 0-.7.1-.8-.4.4 0 .8-.1.8.4z"/><path class="st6" d="M122.8 67v1.4c0 .3.1.4.4.5v1.9c-.7-.4 0-1.3-.7-1.5-.5-.4 0-1.1-.4-1.5-.4-.4 0-1.1-.4-1.5-.4-.3 0-.8-.4-1.1-.4-.3-.1-.8-.4-1.1-.4-.3 0-.8-.4-1.1-.2-.2-.2-.6-.4-.8-.3-.3-.2-.6-.2-.9l.2-.2h.4c0 .6.2 1.1.7 1.5.4 1.4.8 3 1.6 4.4z"/><path d="M122 67.7c.7.3.2 1 .4 1.5v.4c-.3-.1-.4-.2-.4-.5.1-.5 0-.9 0-1.4z" fill="#553700"/><path class="st84" d="M119.1 58v.8c.1.1.1.2.1.3s0 .2-.1.2c-.2.1-.3.1-.4-.1-.2-.2-.1-.6-.4-.8.1-.4-.3-.7-.2-1.1.7-.3.4.7 1 .7z"/><path class="st100" d="M119.1 59.1v-.4c.5.1.3.4.4.7h-.3c-.1-.1-.2-.2-.1-.3-.1 0-.1 0 0 0z"/><path class="st6" d="M119.8 60.2c.5.1.4.4.4.7-.1.2-.3.2-.4 0-.2-.2-.2-.4-.2-.6.1 0 .1 0 .2-.1z"/><path class="st100" d="M119.4 59.5c.5.1.4.4.4.7-.7 0-.6-.3-.4-.7z"/><path class="st242" d="M119.4 59.5c0 .3-.1.7.4.8v.7c-.3-.1-.5-.3-.8-.4 0-.3-.1-.4-.4-.4h-1.1c.1-.3.2-.4.5-.4.6.1.7-.3.6-.8h.4c.1.3.2.5.4.5z"/><path d="M113.1 62.1c.1-.3.2-.4.5-.4h1.4c0 .3-.2.4-.5.4h-1.4z" fill="#883c00"/><path d="M116.4 61.3c.4-.7 1-.2 1.5-.4-.3.8-1 .3-1.5.4z" fill="#783c00"/><path d="M121.7 66.2c.7.4.2 1 .4 1.5-.3 0-.4-.2-.4-.5v-1z" fill="#553900"/><path d="M114.9 61.7c.4-.7 1-.2 1.5-.4-.3.8-1 .3-1.5.4z" fill="#7f3900"/><path d="M121.3 65.1c.6.2.3.8.4 1.1-.7-.2-.3-.7-.4-1.1z" fill="#513000"/><path d="M120.9 63.9c.6.2.3.8.4 1.1-.7-.1-.3-.7-.4-1.1z" fill="#5b2a00"/><path d="M120.5 62.8c.7.2.3.7.4 1.1-.7-.1-.2-.7-.4-1.1z" fill="#623300"/><path class="st242" d="M117.9 61c.2-.7.8-.3 1.1-.4-.1.7-.7.3-1.1.4z"/><path d="M119.8 61h.4v1.1c-.7-.2-.3-.7-.4-1.1z" fill="#734200"/><path d="M120.2 62.1c.5.1.3.5.4.8-.6-.1-.4-.5-.4-.8z" fill="#512b00"/><path class="st4" d="M123.1 81.2c-.3 0-.3-.2-.4-.4v-2.2c.6-.9-.3-2.1.5-3h.2c0 1 .1 2 .1 3-.6.7-.3 1.7-.4 2.6z"/><path class="st174" d="M123.2 75.6c0 .8-.1 1.7-.1 2.5 0 .3-.1.4-.4.5v-1.8c-.3 0-.5-.1-.7-.1-.1-.1-.2-.1-.1-.2 0-.1.1-.1.1-.1.5 0 .9-.1.7-.8-.1-.3-.2-.5-.3-.8.6-.1.9.2.8.8z"/><path d="M116.1 72.9h-1.4c-.3 0-.4-.1-.5-.4h1.4c.2.1.4.2.5.4z" fill="#7c3f00"/><path d="M117.6 73.3c-.5-.2-1.2.4-1.5-.4.5.2 1.1-.3 1.5.4z" fill="#824900"/><path class="st254" d="M121.3 74.4c-.4-.1-1 .3-1.1-.4.4.2.9-.2 1.1.4z"/><path d="M122.4 74.8c-.4-.1-1 .3-1.1-.4.4.1.9-.2 1.1.4z" fill="#813b00"/><path d="M118.7 73.7c-.4-.1-1 .4-1.2-.4.5.1 1-.2 1.2.4z" fill="#793300"/><path d="M120.2 74.1c-.4-.1-1 .3-1.2-.4.4.1 1-.3 1.2.4z" fill="#7a4200"/><path d="M116.4 57.2c-.3.7-1 .2-1.5.4.4-.8 1-.2 1.5-.4z" fill="#7c3500"/><path class="st254" d="M115 57.6c-.4.7-1 .2-1.5.4.3-.8.9-.2 1.5-.4z"/><path d="M95.8 42.6h-2.1c-.3 0-.4-.1-.5-.4h2.1c.3.1.5.2.5.4z" fill="#6c2d00"/><path class="st260" d="M97.4 43c-.5-.1-1.2.4-1.6-.4.5.2 1.2-.3 1.6.4z"/><path d="M98.9 43.4c-.4-.1-1 .3-1.2-.4.4.1.9-.3 1.2.4z" fill="#593b00"/><path d="M100 43.8c-.4-.1-1 .3-1.1-.4.3.1.9-.3 1.1.4z" fill="#612800"/><path d="M101.1 44.1c-.4-.1-1 .3-1.1-.4.3.2.9-.2 1.1.4z" fill="#692900"/><path d="M102.2 44.5c-.4-.1-1 .3-1.1-.4.4.1.9-.2 1.1.4z" fill="#653300"/><path d="M103 44.9c-.3 0-.7.1-.8-.4.3 0 .7-.1.8.4z" fill="#543500"/><path class="st116" d="M58.4 87.9c0-.7 0-1.4-.8-1.9 0-1 0-1.9-.7-2.6v-1.9c.1-.1.2-.1.4 0 .4 2.3 1.2 4.6 2.1 6.7.1.2.2.5.2.7-.1.1-.1.2-.2.3-.5-.2-.3-1.1-1-1.3z"/><path d="M58 78.9c-.2 0-.5-.1-.7.1l.3.6c-.7.2-.2.8-.4 1.1-.2.1-.4.1-.5-.1-.1-.6 0-1.2 0-1.8.1-.3.2-.5.6-.4.3.2.7.1.7.5z" fill="#575900"/><path class="st194" d="M56.9 80.8h.3v.7h-.4c-.1-.2-.1-.5.1-.7z"/><path class="st135" d="M66.6 77.8c-.4 0-.9.3-1.2-.3.5 0 1-.4 1.2.3z"/><path class="st120" d="M64.8 62.8h1.1c0 .2.1.3.3.4.3 0 .4.1.5.4-.8 0-1.5 0-1.9-.8z"/><path class="st95" d="M60.7 65.5c-.6.1-.9-.2-1.1-.8.5 0 .9.2 1.1.8z"/><path class="st112" d="M62.5 67c-.6.1-.9-.2-1.1-.8.6 0 1 .2 1.1.8z"/><path class="st122" d="M62.9 62.1H64v.4c-.4-.1-.9.3-1.1-.4z"/><path class="st142" d="M64 62.5c.3 0 .7-.1.8.4-.3-.1-.7.1-.8-.4z"/><path class="st122" d="M62.1 61.7c.3 0 .7-.1.8.4-.3 0-.7.1-.8-.4z"/><path class="st111" d="M63.6 67.7c-.3 0-.7.1-.7-.4.3 0 .7-.1.7.4z"/><path d="M69.3 85.3c.5.1.3.5.3.8-.4-.2-.3-.5-.3-.8z" fill="#793434"/><path class="st139" d="M64.4 80.4H63c-.3 0-.4-.1-.5-.4h1.4c.3 0 .5.2.5.4z"/><path class="st184" d="M59.5 77.1h1.1c.3 0 .4.1.5.4-.6-.2-1.2.3-1.6-.4z"/><path class="st169" d="M59.5 79.3c-.5-.2-1.2.4-1.5-.4.5.2 1.2-.4 1.5.4z"/><path class="st169" d="M61 79.7h-1.1c-.3 0-.4-.1-.5-.4.6.1 1.3-.4 1.6.4z"/><path class="st169" d="M62.5 80.1h-1.1c-.3 0-.4-.1-.5-.4.6.1 1.3-.4 1.6.4z"/><path class="st196" d="M58.4 77.1c.4-.5.7-.5 1.1 0h-1.1z"/><path class="st194" d="M57.3 78.5c-.3 0-.4.2-.4.4-.1.2-.2.1-.3 0-.2-.3-.2-.5 0-.8h.4c.2.1.3.2.3.4z"/><path class="st82" d="M80.1 99.1c.1.5.5.3.7.4-.4.7-1 .2-1.5.3-.8-.5-1.8.1-2.6-.4 0-.2-.1-.4-.4-.3-.9.2-1.7.3-2.6 0-.6-.5-1.3.1-1.9-.4 0-.2-.1-.4-.4-.3-.6.3-1.2.3-1.9 0-.4-.4-1.1 0-1.5-.4 0-.2-.1-.4-.4-.4-1.2.1-2.1-.3-2.9-1.2-.2-.3-.4-.6-.8-.7-.2-.6.3-.6.6-.7 1.4.1 2.7.6 4.1.7h.5c.6.2 1.3.4 2 .3.2 0 .3 0 .5.1.7.4 1.5.1 2.2.4l.2.2c.1.4.4.4.7.4.9-.1 1.8.1 2.6.4.2.5.6.8 1.1.7.1.5.4.3.7.4.3.7.7.5 1 .5z"/><path class="st189" d="M64.8 95.4c-.3.1-.7-.1-.7.4-.9-.3-1.1-1.1-1.5-1.9.4.1.9-.3 1.2.3.2.5.8.5 1.2.7-.1.2-.1.3-.2.5z"/><path class="st105" d="M59.2 62.8c-.3 0-.4.2-.4.5 0 .2-.2.3-.4.3v-1.2c.5-.1.3-.5.4-.7h.4v1.1z"/><path class="st82" d="M59.1 61.7c0-.2-.1-.5.2-.7.4.4.3.6-.2.7z"/><path class="st95" d="M73.8 99.1h2.6c-.9.5-1.9.5-2.6 0z"/><path class="st123" d="M76.7 99.5h2.1c.3 0 .4.1.5.4h-2.6c.1-.2 0-.3 0-.4z"/><path class="st95" d="M69.6 98.4h1.9c-.6.5-1.2.5-1.9 0zm2.3.3h1.4c.3 0 .4.1.5.4h-1.4c-.3 0-.5-.1-.5-.4z"/><path class="st114" d="M68.1 98c.5.2 1.2-.4 1.5.4h-1c-.3 0-.4-.1-.5-.4z"/><path class="st82" d="M64.8 95c-.5 0-1.1 0-1.4-.5-.1-.2.1-.3.3-.3 1.9.5 3.8.8 5.7 1.2 2.2.4 4.4.7 6.6 1.1-.1.3-.2.4-.5.4h-1.4c-.8-.5-1.8.1-2.6-.4-.7-.5-1.6.1-2.3-.4-1.4-.4-3.1-.2-4.4-1.1z"/><path class="st81" d="M56.6 78.2v.8h-.4v-3.7c.3 0 .4.2.4.5-.1.7-.1 1.5 0 2.4z"/><path class="st4" d="M56.5 78.9h.3c0 .6 0 1.2.1 1.8v.8c-.3-.1-.4-.2-.4-.5v-2.1z"/><path class="st111" d="M120.5 79.3c.5-.6 1.2-.5 1.9-.8v.4c-.6.5-1.2.4-1.9.4z"/><path class="st144" d="M113.8 80.4c.6 0 1.3 0 1.9-.3.1.1.2.1.1.2 0 .1-.1.1-.1.1-.6.6-1.3.6-1.9 0z"/><path class="st124" d="M115.7 80.4v-.3c.6 0 1.3 0 1.9-.1 0 .3-.2.4-.5.4h-1.4z"/><path class="st111" d="M119 79.7c.3-.8 1-.2 1.5-.4 0 .3-.2.4-.5.4h-1zm-1.5.4c.3-.8 1-.2 1.5-.4 0 .3-.2.4-.5.4-.3-.1-.6 0-1 0z"/><path class="st153" d="M114.6 77.4c-.5.7-1.3.2-1.9.4.1-.3.2-.4.5-.4h1.4z"/><path d="M119.8 76.3c-.4.7-1 .2-1.5.4.3-.8 1-.2 1.5-.4z" fill="#823600"/><path d="M118.3 76.7c-.4.7-1 .2-1.5.4.3-.8 1-.3 1.5-.4z" fill="#7f4200"/><path d="M116.5 77.1c-.4.7-1 .2-1.6.4.4-.8 1.1-.3 1.6-.4z" fill="#7a3800"/><path d="M121.3 75.9c-.3.7-1 .2-1.5.4.3-.8 1-.2 1.5-.4z" fill="#843a00"/><path d="M122.5 75.6c-.2.6-.8.3-1.2.4.2-.8.8-.3 1.2-.4z" fill="#7c3000"/><path class="st99" d="M117.2 77.8c1-.7 2.2-.8 3.4-.8-1.1.8-2.2.8-3.4.8zm4.9-1.4v.3c-.3.8-1 .2-1.5.4.1-.1.2-.4.3-.4.4.1.7-.2 1.2-.3z"/><path class="st96" d="M116.1 60.6c0 .3-.2.4-.5.4h-1.4c0-.3.2-.4.5-.4h1.4z"/><path class="st125" d="M115.7 58.4c0-.3.2-.4.5-.4h1.1c-.4.7-1.1.2-1.6.4z"/><path class="st96" d="M117.6 60.2c-.3.8-1 .2-1.5.4.3-.8 1-.2 1.5-.4z"/><path class="st242" d="M118.3 58.3c.5.1.4.5.4.8-.5-.1-.4-.4-.4-.8z"/><path class="st214" d="M105.6 96.1c.1-.3.2-.4.5-.4h1.8c-.1.2-.3.4-.5.4h-1.8z"/><path class="st207" d="M108.2 95c-.4-.1-.6-.5-1.1-.4-.1-.2-.2-.4-.4-.7.3 0 .5-.1.7-.1.1.6.7.5 1.1.7.2.1.4.1.4.4-.2.1-.5.1-.7.1z"/><path class="st84" d="M110.1 95v.4c-.4-.1-.9.3-1.1-.4h1.1z"/><path class="st2" d="M102.2 82.3c-.5 1.3-1 2.7-1.8 3.9-1.5 2.3-3.5 3.9-6 4.9-.4.2-.8.3-1.2.5-.5.4-1.1 0-1.6.4h-.3c-1 .3-2 .3-3 0-2.1-.5-4.1-1.2-5.9-2.4-1.2-.8-2-1.8-2.8-2.9-1-1.3-1.5-2.9-2.1-4.4-.3-.7-.1-1.6-.5-2.3V61c0-.5-.1-1.1.2-1.6 2.8-.3 5.6-.1 8.4-.1h14.9c.6 0 1.2-.2 2 .3v21.3c-.2.5 0 1-.3 1.4z"/><path d="M81.2 90.9c-1.2 1.6-2.7 2.8-4 4.2-.5-.4-.6-.9-.8-1.3.5-.9 0-1.1-.8-1.2-.5-.2-.9-.5-1.1-1-.2 0-.4-.2-.4-.4-.2-.3-.5-.5-.6-.8 0-.5.2-.9.6-1.1.9-.2 1.4 1.1 2.3.4.1-.1.2-.3.2-.4.3-.8-.7-1-.7-1.6 0-.5.5-.7.8-1 .3-.2.5-.2.8 0 .2.2.1.6.4.7.1 0 .2 0 .3.1.5.4.9.8 1 1.4 0 .4-.1.7-.4 1 .6.1 1.1.3 1.1.9-.1.3-.3.5-.5.6v.1c.4-.3.6-.8 1-1 .3 0 .9-.5.8.4z" fill="#a29700"/><path d="M70 70.7c-.7-.2-.2-.7-.4-1.1h1.6c.6-.3.2-.8.6-1.1H74c.2.4.2.6-.2.7-.2-.3-.6-.2-.9-.2.3 0 .6 0 .9.2.1.3.2.4.5.4h1.6c.2.5.4.9-.2 1.1-.3-.2-.5-.4-.8-.1.2.1.3 0 .5-.1.2 0 .3 0 .4.1 0 .5 0 .9.3 1.3.2.2.3.8-.3.9-1.5.3-3.1 0-4.6.3-.1.1-.2.2-.2.3-.1.4.2.3.5.3.1 0 .3 0 .4.1.2.2.4.4.7.5h.4c.9-.4 2.1-.1 2.9-.9.5.6.4 1.4.6 2.1 0 0-.2.1-.3.1-2.1-.3-4.2-.3-6.3 0-.2 0-.4-.1-.4-.3.6-1.2.4-2.4 0-3.6.2-.3.4-.2.7-.2.3-.2.5-.4.8-.6.1-.1.1-.2 0-.3-.4 0-.7.1-1 .1z" fill="#634400"/><path d="M104.8 69.6h.7c.9.1.6.6.5 1.1 0 .2-.5.2-.2.5h2.1c.2-.3-.2-.3-.2-.5-.2-.4-.3-.8.1-1.2.6 0 1.2 0 1.9.1.3.4.3.7 0 1.1.6 1.6.1 3.3.7 4.9.1.2-.2.3-.4.3-2.1-.3-4.2-.3-6.3 0-.2 0-.4-.1-.4-.3 0-.4.4-.6.4-1-.1-1.3-.1-2.6.3-3.9-.5-.9.4-.8.8-1.1z" fill="#654f00"/><path d="M102.2 81.2V59.8c-.4-.3-.7-.2-1-.2H78.1c-.3 0-.6 0-.9.1-.2-.1-.2-.3 0-.4h25.4v22.1c-.1 0-.2 0-.4-.2z" fill="#765252"/><path class="st277" d="M99.9 89.1c-.1-.6.4-1 .6-1.5h.9c.1 0 .1.1.2.1.3.2.4.5.6.7.2.4.5.7.9 1 .2.1.3.3.5.5.2.3.5.5.8.7.4.3.7.6.8 1.1-.1.3.1.7-.1 1-.3.2-.7.1-1 .1-.5-.1-1.1-.3-1.6.1-.2 0-.3 0-.5-.1-.4-.5-1-.7-1.7-.8-.2-.1-.4-.2-.5-.5 0-.3.2-.6.3-.9.1-.1.1-.3.2-.4.1-.5-.1-.8-.4-1.1z"/><path d="M71.9 51.2h.8c.3.7.7.5 1 0 .7.1.1.8.7 1.1h1.4c.3.4.2.7-.2.8-.2-.3-.6-.2-.8-.2.2 0 .5-.1.8.2v1.5c-.1.1-.3.1-.4.1-.4-.3-.8 0-1.2.1-.4.1-.6-.1-.9-.4-.1-.1-.1-.4-.3-.5l-.3.6c-1.3.9-1.7-.6-2.5-1-.6-.1-.3-.6-.3-.9.5-.5 1.2 0 1.8-.4.2-.2-.3-.9.4-1z" fill="#6b3b00"/><path d="M77.1 59.1v21.2c.1.1.1.2.1.3 0 .1-.1.1-.1.1-.4-.1-.3-.4-.3-.7V59.7c-.1-.2-.1-.5.3-.6z" fill="#a51010"/><path d="M88.8 51.2H91c0 .3 0 .6.1.9.4.4.9.1 1.4.2.3 0 .4.1.5.4-.5.3-1 .2-1.4.1.3.3.9-.2 1.4.2v1.5c-.1 0-.1.1-.2.1-.2 0-.3 0-.4-.1-.4-.2-.7.1-1 .2-.4 0-.7-.1-.9-.4-.2-.2-.2-.6-.4-.8-.3.2-.3.5-.5.8s-.5.5-.9.4c-.4 0-.7-.4-1.1-.2-.1.1-.3.1-.4.1s-.1-.1-.2-.1V53c.4-.4 1.1.1 1.5-.3-.5.3-1 .2-1.5 0 0-.2.1-.4.3-.4h1.3c.3-.3.1-.7.2-1.1z" fill="#6a3b00"/><path class="st281" d="M76.7 86.8c0 .5-.6.6-.7 1 .7.1 1 .9 1.8 1-.4.4-.6.8-1.1.9l-.9-.6c.2.3.6.3.9.6l.3.6c-1 .6-1.7.3-2.8-.9-.4.2-.6.6-.5 1.1.1.4 0 .5-.4.4-.3 0-.4-.2-.7-.5.6-.4 1.1-.9 1.1-1.7-.2-.3 0-.4.1-.6.3-.2.5-.4.7-.6s.4-.3.6-.3c.7.1 1.1-.6 1.6-.4z"/><path d="M105.2 52.3h.3c.2-.2.3-.5.5-.6.5-.3 1.1-.3 1.6 0 .2.2.3.4.5.6h.3c.5-.2 1-.3 1.5 0-.1.4.3.9-.4 1.1l-.3.3c-.6.2-.8.8-1.3 1-.4 0-.6-.1-.9-.4-.1-.1-.2-.3-.2-.5-.3 0-.2.4-.3.5-.2.3-.5.5-.8.4-.6-.1-.8-.8-1.4-1-.1-.1-.2-.2-.4-.3-.7-.2-.3-.7-.4-1.1.7-.2 1.2-.2 1.7 0z" fill="#6a3d00"/><path d="M93.2 58v.3c-2 .4-4.1.1-6.1.2-.6-.5-.1-.8.3-.9.7-.2.9-.7 1.1-1.3.1-.3.3-.4.6-.6.5-.2.9-.2 1.4-.1 1.1.2 1.4 1.3 2.4 1.7.1.2.1.5.3.7z" fill="#acab00"/><path d="M75.6 73.7V75c-.7.6-1 .2-1.3-.4l-.3.6c-.3-.1-.2-.4-.3-.6-.4 0-.1.5-.7.6h-.7c-.3-2.2.5-2.7 3-1.9.2 0 .3.2.3.4z" fill="#eceb00"/><path d="M88.7 56.5c0 .5-.1 1 .5 1.5h-2.3c-.1-.1-.2-.2-.1-.3 0-.1.1-.1.1-.1v-1.9c-.1-.5.3-.7.6-.7 1.6-.2 3.1-.2 4.7 0 .4 0 .7.3.6.7v1.1c-.1 0-.2.1-.2.1-.7-.2-1.1-1.1-2-.8H89c-.3-.2-.6 0-.9.1.2.3.5.1.6.3z" fill="#8b8000"/><path d="M100 91.2c0 .3.1.4.4.4.6.3 1.3.7 1.9 1.1.6.3.6.9.8 1.4 0 .3.1.6-.3.8-.1-.1-.3-.1-.4-.2-1.1-1.2-2.4-2.2-3.4-3.6-.1-.3 0-.5.3-.6.2-.1.5-.1.7 0 .1 0 .1.1.2.1-.1.4-.1.5-.2.6z" fill="#696300"/><path class="st287" d="M107.8 69.5c.1.4-.4 1 .4 1.2.3.4.3.7 0 1.1h-.8c-.2-.2-.4-.5-.5-.7-.2.2-.3.5-.5.7h-.8c-.3-.4-.3-.7 0-1.1.5-.4.5-.7 0-1.1v-1c.8-.3 1.7-.1 2.4-.1.3.4.2.7-.2.8-.2-.3-.6-.2-.9-.2.3 0 .6 0 .9.2v.2z"/><path d="M103.7 58v-3c2.1-.5 4.2-.5 6.4 0v3c-.1 0-.2 0-.3.1-.3-.1-.4-.3-.5-.5-.2-.4-.2-.8-.4-1.1-1.3-.8-2.6-.6-3.9-.1-.3.4-.3.9-.5 1.3-.1.2-.3.4-.5.5-.1-.2-.2-.2-.3-.2z" fill="#6d4500"/><path class="st92" d="M70 53.5h1.3c.4.2.1.7.3 1 .3.2.5.1.6-.3.4-.3.7-.3 1.1 0 .1.5.5.4.8.4.4-.3.7-.3 1.1 0h.4c0 .3-.1.6-.4.7-1.7.4-3.4.4-5.1 0-.3-.1-.5-.3-.5-.7.7-.2.3-.7.4-1.1z"/><path d="M69.7 54.6c0 .2.1.4.3.4h5.3c.2 0 .3-.2.3-.4.5.4.5.7 0 1.2-1.6.4-3.2-.2-4.7.4-.5.3-.3.9-.5 1.3-.1.2-.3.4-.5.5-.1 0-.2-.1-.2-.1 0-1 .2-2.1-.3-3-.2-.1 0-.3.3-.3z" fill="#6f4900"/><path d="M110.1 55h-6.4c.3-.4.5-.9.4-1.5h.4l1.1 1.1c.3 0 .7.1.8-.4.4-.3.7-.3 1.1 0 .1.5.5.4.8.4l1.1-1.1h.4c-.2.5 0 1 .3 1.5z" fill="#8f8a00"/><path d="M75.3 73.3c-.5.1-1-.1-1.6.2-.4.2-.9-.5-1.4 0l.6.3c0 .4-.6.1-.7.4v.9h-.4c-.3-.3 0-.8-.4-1.1-.5-.3-1.1-.2-1.5-.7v-.4c1.8-.3 3.5-.3 5.3 0 .1.2.1.3.1.4z" fill="#7b7800"/><path d="M92.8 55.7c0-.2-.1-.4-.3-.4h-5.3c-.2 0-.3.2-.3.4-.5-.4-.5-.7 0-1.1 2 .1 4 .1 6 0 .5.4.5.7-.1 1.1z" fill="#6b4b00"/><path class="st119" d="M102.9 94.2c-.9-.1-.7-.8-.8-1.4.9-.2 0-1 .6-1.4.4.4 1 .8 1.3 1.4-.2.2-.1.6-.4.7-.3.2-.5.4-.7.7z"/><path d="M76 58c.3.1.4.2.3.5-.1.1-.2.2-.3.2h-6.6c-.3-.4-.2-.6.2-.7.8 0 1.5-.3 2.3-.2 1.3 0 2.5-.1 3.8.1.1 0 .2 0 .3.1zm34.1 0c.3.1.4.2.3.5-.1.1-.2.2-.3.2h-6.6c-.3-.4-.2-.6.2-.7 2.1-.3 4.2-.3 6.4 0z" fill="#774200"/><path class="st94" d="M100 90.9h-.8c-.5-.3-.8-.6-.3-1.1.3-.3.8-.3 1.1-.7.8-.2 1 .5 1.4.9-.2.3-.8.2-.7.7-.2.1-.5.2-.7.2z"/><path d="M81.2 90.9c0-.3-.2-.4-.4-.1-.7.6-1.4 1.3-2 1.9l-.1-.1v-.2c-.2-.5.1-.8.4-1.1.3 0 .7.1.7-.4.3-.5 0-1.1.3-1.5.6-.2.9.6 1.4.4.1.5.4.9-.3 1.1z" fill="#7e6e00"/><path d="M86.8 57.6v.4c.1.4.4.4.7.4h5.7c0 .2-.1.4-.3.4h-6.3c-.2-.6-.4-1 .2-1.2z" fill="#764800"/><path d="M70 70.7v-.6c.4-.4.9-.2 1.3-.1.2.2.1.5.2.7.3.4.2.7 0 1.1H70v-1.1z" fill="#b0aa00"/><path class="st297" d="M70 55.8c0-.2.1-.4.3-.4h5c.1 0 .2.3.3.4v.4c-.1 0-.1.1-.2.1-.6.2-1.2-.1-1.7.1-.2 0-.3.1-.5.1-.5 0-1 .1-1.5 0-.6-.2-1.2-.2-1.7-.7z"/><path class="st102" d="M75.7 92.4c.4 0 .5-.5.9-.6.9.2.4 1.2.9 1.6-.3.4-.5.7-1.1.5-.2-.3-.4-.6-.7-.7-.3-.3-.3-.5 0-.8z"/><path class="st298" d="M103.7 75.9c0-.2.1-.4.3-.4h5.7c.2 0 .3.1.3.4h-6.3z"/><path d="M80.1 89.4c.1.3.3.5.4.7-.1.4-.4.7-.8.7-.3-.6-1-.5-1.4-.9.2-.3.4-.6.7-1 .3-.3.5-.2.7 0 .1.4.2.5.4.5z" fill="#faf900"/><path class="st298" d="M69.6 75.9c0-.2.1-.4.3-.4h5.7c.2 0 .3.1.3.4h-6.3z"/><path class="st72" d="M104.1 90.9c-.4-.1-.6-.4-.7-.7.4-.6.9-1.2 1.3-1.9.4-.3.8-.2 1.2.1 0 .1.1.2.1.2-.3.4-.3.8 0 1.1-.4.9-1.2 1-1.9 1.2z"/><path d="M102.9 89.8c-.5-.2-.9-.6-1.1-1.1.4-.6.8-1.1 1.6-1.2h.3c.2-.1.5-.2.7-.4l.2.2c.1.2.1.5 0 .7-.2.3-.3.5-.5.8l-.3.3c-.2.3-.6.4-.9.7z" fill="#6f3700"/><path class="st301" d="M108.2 52.3c-.3 0-.4-.1-.4-.4-.6-.4-1.2-.4-1.9 0 0 .3-.1.4-.4.4v-1.5h2.6c.1.6.1 1.1.1 1.5z"/><path d="M104.1 90.9c.4-.8 1.1-1.1 1.9-1.1.2.2.2.4.2.7-.1.3-.4.6-.6.8 0 .2-.1.3-.4.4-.5-.1-.6-.8-1.1-.8z" fill="#bcb600"/><path class="st13" d="M75.3 73H70c0-.2.1-.4.3-.4h5c.2 0 .3.2.3.4-.1-.1-.2 0-.3 0z"/><path d="M79.7 89.1H79c-.1-.6-1-.8-.8-1.5.5-.1.9.1 1.1.5.2.3.3.6.4 1z" fill="#7c4700"/><path class="st260" d="M98.9 89.8c-.2.5.3.7.3 1.1-.2 0-.3.1-.4.4-.5-.1-.7-.6-1-.9.2-.5.6-.7 1.1-.6z"/><path d="M75.7 92.4v.7c-.5-.3-1.1-.3-1.5-.9l.3-.6c.5 0 .6.8 1.2.8z" fill="#794600"/><path d="M88.3 92h3c-.9.5-2 .5-3 0z" fill="#8b1b1b"/><path d="M102.2 86.4c0-.2.1-.3.5-.4.2.6.8.9 1 1.5-.3.3-.7.2-1 0l-.3-.3c-.1-.2-.1-.4-.2-.6v-.2z" fill="#793800"/><path class="st72" d="M106 90.5v-.8c.9.6.9.6.4 1.1-.4.3-.6.1-.4-.3z"/><path d="M101.5 87.5c.3-.4.2-.9.7-1.1.2.2.1.5.4.7-.1.9-.6.7-1.1.4z" fill="#793e00"/><path d="M75.3 87.1c0 .2-.1.4-.4.4-.2.2-.4.2-.6.2l-.2-.2c.6-.9.6-.9 1.2-.4z" fill="#652c00"/><path d="M77.1 80.8c0-.1 0-.3.1-.4.6.6.2 1.3.3 1.9-.7-.3-.2-1-.4-1.5z" fill="#7f4646"/><path class="st287" d="M104.8 69.6c0 .5-1.1.3-.8 1.1-.7-.2-.2-.6-.4-.9.5-.3.9-.2 1.2-.2z"/><path d="M75.6 56.1c.3 0 .4.2.4.5V58c-.4.1-.6-.1-.7-.4-.2-.6-.2-1.1.3-1.5z" fill="#792700"/><path class="st117" d="M92.8 53.1h-2.2c1-.5 1.6-.3 2.2-.3v.3z"/><path d="M86.9 52.8h1.8c-.6.5-1.2.3-1.8.3v-.3z" fill="#cfcf00"/><path d="M74.1 88.3c-.2 0-.4.1-.4.4-.5-.5-.5-.5.4-1.1.2.2.2.4 0 .7z" fill="#682a00"/><path d="M104.4 87.1c.5-.5.6-.5 1.1.4l-.2.2c-.4.2-.6-.2-.9-.6z" fill="#632800"/><path d="M105.6 87.5c.9.6.9.6.4 1.1-.5-.2-.9-.5-.4-1.1z" fill="#802200"/><path d="M91.6 92c.4-.6 1.1-.2 1.6-.4-.4.8-1 .3-1.6.4z" fill="#813e3e"/><path class="st301" d="M110 52.4h-1.5c.6-.5 1.1-.5 1.5 0zm-4.8-.1h-1.5c.5-.4 1-.4 1.5 0z"/><path class="st281" d="M77.5 86.8h-.8c0-.2 0-.4.1-.7.4.1.6.3.7.7z"/><path d="M93.2 58c-.3 0-.4-.2-.4-.4-.2-.2-.2-.5 0-.7h.1c.6.2.2.7.3 1.1z" fill="#871600"/><path d="M106 90.5c0 .3.2.4.4.4-.1.5-.5.3-.8.4 0-.3-.2-.7.4-.8z" fill="#673b00"/><path d="M73.4 90.9c.2 0 .4-.1.4-.4.5 0 .3.4.3.7-.3.1-.7.1-.7-.3z" fill="#643c00"/><path d="M77.9 87.5c-.2 0-.5.1-.7-.1l.3-.6c.5 0 .4.4.4.7z" fill="#644100"/><path d="M102.2 81.2h.3c-.1.4.3 1-.4 1.1.1-.4.1-.8.1-1.1z" fill="#843d3d"/><path class="st287" d="M109.7 70.7v-1.1c.5.4.5.7 0 1.1z"/><path class="st277" d="M103.6 93.5c.1-.3 0-.7.4-.7.1.3.2.7-.4.7z"/><path d="M73.7 51.3v.6c-.6.2-1.2.2-1.8.1 0-.5.7-.1.7-.6.4.2.8.1 1.1-.1z" fill="#e2e100"/><path class="st104" d="M64.8 95c1.4.2 2.8.7 4.2.7.2 0 .3.2.3.4-1.6 0-3.1-.2-4.5-.8V95zm6.7 1.5h2.2c.3 0 .4.1.5.4H72c-.3 0-.5-.1-.5-.4zm-2.2-.4h1.8c.3 0 .4.1.5.4h-1.8c-.4 0-.5-.1-.5-.4z"/><path d="M89 88.6c-.7-.5-1.2-1-1.7-1.7v-5.2c1.8-.2 3.5 0 5.3-.1.4 1.7.4 3.2.1 4.6-.3 1.9-1.4 2.5-3.7 2.4z" fill="#06379b"/><path d="M91.1 78.9h-.2c-2.8.2-3.7-.6-3.7-3.4v-3.3h5.4c.7 3.2.3 5.1-1.5 6.7zm-.1-9.7h-1.3c-1.3 0-2.4-1.1-2.4-2.3-.1-1.5 0-2.9 0-4.5h5.6c-.3 2.4.7 5-1.9 6.8zm3.8 3h5.6v4.1c-.1 1.7-1 2.6-2.6 2.6-.4 0-.7 0-1.1-.1-1.4-.8-1.8-2-1.8-3.5-.1-.9-.1-1.9-.1-3.1z" fill="#04369a"/><path d="M83.2 78.9c-2.5.1-2.5.1-3.8-1.8v-4.9h5.5c0 1.4.1 2.8 0 4.2 0 1.1-.7 1.8-1.7 2.5z" fill="#033599"/><path class="st100" d="M79 91.3c.1.5-.3.8-.4 1.1-.5-.1-.6-.5-.8-.8.4-.5.8-.2 1.2-.3z"/><path class="st119" d="M73.4 71.6c-.4.3-.7.2-1.1.1v-1.9c.2-.3.5-.2.9-.1.3.5.1 1.2.2 1.9z"/><path class="st4" d="M70 73.3h1.4v.7c-.7.1-.2.8-.5 1s-.6.2-1 0c.1-.5.1-1.1.1-1.7z"/><path d="M74.1 70.7c-.1-.2-.2-.4-.4-.7.6-.2 1.1-.1 1.6-.1.3.2.2.5.2.7h-.4c-.2.7-.6.7-1 .1z" fill="#9e9300"/><path class="st86" d="M74.1 70.7c.4.3.7.3 1.1 0v.9c-.3.3-.6.2-1 .1-.2-.3 0-.6-.1-1z"/><path d="M73.7 69.2h-1.8c.7-.3 1.3-.7 1.8 0z" fill="#d1cc00"/><path class="st84" d="M71.5 74.1c.7.2.3.7.4 1.1-.7-.2-.3-.8-.4-1.1z"/><path d="M71.5 71.8v-1.1c.5.4.5.7 0 1.1z" fill="#ba0200"/><path class="st28" d="M107.4 73.7c.6-.4 1.3-.4 2-.3.4.5.1 1.1.2 1.6-.5.5-.8.4-1.3-.4l-.3.6c-.5 0-.1-.7-.6-.6-.2-.4-.2-.7 0-.9zm-2.1.8c0 .2-.1.4-.1.5-.2.3-.6.2-.9.2-.3-.6-.2-1.2-.1-1.8h1.8c0 .2.1.5.1.7-.3.3-.7.1-.8.4z"/><path class="st19" d="M106.3 71.8v-2c.3-.4.6-.3 1.1-.1v2.1h-1.1z"/><path class="st13" d="M109.5 72.9H104c1.3-.4 3.5-.5 5.5 0z"/><path class="st70" d="M105.3 74.5c0-.6.5-.3.7-.4.2 0 .3-.2.3-.4.4-.2.8-.3 1.1 0v.8c-.4.3-.8.3-1.1.7h-.4c-.2-.2-.1-.6-.4-.7-.1-.1-.2-.1-.2 0z"/><path d="M108.2 71.8v-1.1h.9c.3.3.3.6.1 1-.3.2-.6.1-1 .1z" fill="#cece00"/><path d="M105.6 70.7v1.1h-.9c-.4-.3-.3-.6-.1-1 .3-.2.6-.1 1-.1z" fill="#cbcb00"/><path class="st28" d="M106.3 75.2c-.1-.5.1-.8.5-1l.6.3c.2.9-.5.7-1.1.7z"/><path class="st129" d="M107.5 73.7h-1.1c.3-.5.6-.5 1.1 0z"/><path class="st28" d="M105.5 74.4c.5 0 .4.4.4.7-.5 0-.3-.4-.4-.7z"/><path d="M103.7 88.7c.1-.4.3-.7.8-.7.2.1.3.2.3.3 0 1.2-.3 1.5-1.5 1.9 0-.3-.1-.4-.4-.4 0-.6.2-1 .8-1.1z" fill="#ebe800"/><path class="st5" d="M102.2 92.8l-.6.3c-.4-.5-1-.8-1.2-1.4.5.1.7-.4 1.2-.4.3.4.6.9.6 1.5z"/><path d="M101.5 87.6c.3-.2 1 .3 1.1-.4.4 0 .6.5 1.1.4-.6.3-1 1.1-1.8 1.1-.1-.4-.6-.7-.4-1.1z" fill="#cdca00"/><path class="st0" d="M100 90.9c.1-.4.4-.3.7-.2v.2c-.2.2-.5.2-.7 0z"/><path class="st94" d="M100 90.9c.2 0 .5 0 .7-.1 0 .6-.4.5-.7.4v-.3z"/><path class="st332" d="M73.4 54.2h-1.1v-1.6c.3-.4.6-.3 1.1-.1v1.7z"/><path d="M75.2 54.6h-1.1v-.9c.3-.4.6-.1.9-.2.4.4.2.8.2 1.1z" fill="#d7d700"/><path class="st6" d="M75.6 53.1h-1.8c.7-.3 1.3-.7 1.8 0z"/><path class="st149" d="M70 53c.5-.4 1-.1 1.5-.1-.5.3-1 .3-1.5.1z"/><path d="M89.1 54.2v-1.6c.4-.4.9-.3 1.5-.1v1.7c-.5.8-1 .8-1.5 0z" fill="#c2c000"/><path class="st99" d="M89.1 54.2c.5.4 1 .4 1.5 0 .1.5.5.3.8.4.4-.3.7-.3 1.1 0h.4c0 .2-.1.4-.3.4h-5.3c-.2 0-.3-.2-.3-.4h.4c.4-.3.7-.3 1.1 0 .1 0 .5.1.6-.4z"/><path d="M92.5 54.6h-1.1v-.9c.3-.3.6-.2 1-.1.2.3 0 .7.1 1z" fill="#d6d600"/><path d="M88.3 54.6h-1.1v-.9c.3-.3.6-.2 1-.1.3.3.1.7.1 1z" fill="#d4d400"/><path class="st3" d="M89.1 51.8c.5-.3.9-.2 1.5 0-.5.3-1 .2-1.5 0z"/><path d="M76.7 89.8c-.3.1-.5.3-.9.4-.4-.5-.8-.9-1.2-1.5.1-.3.5-.5.8-.8.5.7 1.4.9 1.3 1.9z" fill="#e4e200"/><path d="M74.1 88.3v-.7h.7c0 .3-.3.6-.7.7z" fill="#d0cd00"/><path class="st81" d="M107.4 54.2h-1.1v-1.6c.3-.4.6-.3 1.1-.1v1.7z"/><path d="M109.3 53.5c0 .3.1.7-.1 1-.3.2-.7.1-1 .1 0-.3-.1-.7.1-1 .3-.2.7-.1 1-.1z" fill="#c2c200"/><path d="M105.6 54.6h-.9c-.3-.4-.2-.8-.2-1.1h.9c.3.4.1.8.2 1.1z" fill="#c0c000"/><path d="M106 52v-.6c.6 0 1.1.2 1.7-.1.2.2.1.4.1.6-.6.1-1.2.1-1.8.1z" fill="#e0e000"/><path class="st149" d="M108 52.9c.5-.2 1.1-.3 1.8-.1-.7.5-1.3.3-1.8.1z"/><path class="st116" d="M104.2 53c.5-.3.9-.3 1.4 0-.5.3-1 0-1.4 0z"/><path class="st332" d="M92.8 56.9v.7c-.6.1-1.2 0-1.4-.7-.1-.4-.3-.6-.7-.7.5-.7 1.1-.2 1.6-.4.4.3-.1.9.5 1.1z"/><path class="st102" d="M88.7 56.5c-.7.1-.2.8-.5 1s-.6.1-.9 0v-1.8c.6.2 1.3-.3 1.8.4-.3 0-.4.1-.4.4zm.7.8c.6-.8.8-.1 1.3.1-.5.2-.9.4-1.3-.1z"/><path d="M107.8 69.2H106c.7-.3 1.3-.7 1.8 0z" fill="#d6d200"/><path d="M110.1 58c0 .2-.1.4-.3.4h-5.7c-.2 0-.3-.2-.3-.4.2 0 .4-.2.4-.4.6-.6 1.1-1.2 0-1.8 0-.3.1-.4.4-.4h4.9c.3.3.3.5.3.8l-.6.3c-.1.5.3.8.6 1.1-.1.2 0 .4.3.4z" fill="#999400"/><path class="st332" d="M104.1 55.8h1.8l-.9 1.8h-.9v-1.8z"/><path class="st100" d="M109.7 57.6h-.9c-.3-.6-.6-1.1-.9-1.7.6-.3 1.2-.2 1.8.2v1.5z"/><path class="st102" d="M70 55.8h1.4c.3 0 .4.1.4.4.1.4-.2.8-.3 1.2-.1.2-.3.4-.5.5-.4.1-.7.1-1-.3v-1.8z"/><path class="st344" d="M70 57.6h1.1c.2 0 .5 0 .7.2s.3.3.1.6h-1.8c-.3 0-.4-.1-.5-.4.3 0 .4-.2.4-.4z"/><path class="st297" d="M71.9 58.3c0-.2-.1-.4-.4-.4-.1-.1-.1-.2-.1-.3v-.2c.1-.4.3-.8.7-.8.2 0 .4 0 .6-.2s.4-.3.7-.4c1.2-.1 1.5 1 2.2 1.5 0 .2.1.4.4.4 0 .3-.2.4-.5.4-1.2.1-2.4 0-3.6 0z"/><path class="st90" d="M75.6 57.6c-.7.1-1.3 0-1.5-.8-.1-.3-.3-.6-.7-.7.7-.8 1.5-.3 2.2 0v1.5z"/><path class="st344" d="M72.2 56.9c-.5 0-.2.8-.7.8-.3-.2-.1-.5-.3-.7 0-.4.3-.7.7-.8.5.1 1-.6 1.5 0-.1.3-.3.5-.4.8-.3.1-.5.1-.8-.1z"/><path d="M104.8 88.3c-.2 0-.3-.1-.3-.3v-.8c.4 0 .6.5 1.1.4-.1.5.3.7.4 1.1-.5.1-.8-.4-1.2-.4z" fill="#b3aa00"/><path d="M102.6 87.2c-.5 0-.4-.4-.4-.7.5 0 .4.4.4.7z" fill="#d2cb00"/><path d="M92.1 83.5c-.3.3-.6.3-.9.3-.3-.4-.4-.7 0-1.1.5 0 .8.2.9.8z" fill="#ccd6ea"/><path d="M92.1 86.5c-.3.3-.6.3-.9.2-.3-.4-.3-.7.1-1 .5 0 .7.3.8.8z" fill="#cbd5ea"/><path d="M88.1 85.7c.6.1.7.4.9.6-.2.3-.4.7-.8.5-.5-.4-.2-.7-.1-1.1z" fill="#dfe5f1"/><path d="M89.6 84.2c.5-.2.7.2.9.5-.1.3-.3.5-.7.6-.6-.2-.3-.7-.2-1.1z" fill="#dae1f0"/><path d="M88.1 82.7c.6-.1.7.3.9.5-.3.3-.4.7-.9.5-.2-.3-.2-.6 0-1z" fill="#d7dfee"/><path class="st352" d="M89.7 74.4c.6.1.7.4.9.6-.2.6-.5.5-.9.5-.4-.3-.3-.7 0-1.1z"/><path d="M91.5 76c.3.3.6.4.5.8-.3.4-.6.4-1 .1-.1-.5.2-.6.5-.9z" fill="#e2e8f3"/><path class="st354" d="M89.1 73.5c-.3.4-.5.8-.9.6-.3-.3-.1-.6-.1-.9.5-.4.6.1 1 .3z"/><path class="st355" d="M92 73.8c-.3.4-.6.2-.9.2-.4-.6 0-.8.4-1.1.3.3.7.5.5.9z"/><path class="st2" d="M88.3 76.3c.2 0 .5 0 .5.4 0 .2-.1.3-.3.4-.3 0-.5 0-.5-.4 0-.3.1-.4.3-.4z"/><path class="st352" d="M90.6 65.6c-.3.3-.6.3-.9.3-.4-.4-.3-.7 0-1.1.5-.1.8.2.9.8z"/><path d="M91.1 67.2c-.2-.5.1-.7.4-.9.4.1.6.3.6.7-.3.5-.7.5-1 .2z" fill="#e1e7f2"/><path class="st355" d="M91.5 63.3c.3.2.6.4.5.9-.3.4-.6.2-.9.2-.3-.7.1-.9.4-1.1z"/><path class="st354" d="M89 63.8c-.2.3-.4.7-.9.5-.3-.3-.2-.7.1-1 .5-.1.6.3.8.5z"/><path class="st2" d="M88.8 66.9c0 .4-.2.4-.5.4-.2 0-.3-.2-.3-.4 0-.3.2-.4.5-.4.1.1.3.2.3.4z"/><path d="M99.9 76.8c-.3.4-.6.3-.9.3-.4-.4-.2-.7-.1-1.1.7 0 .9.3 1 .8z" fill="#bbc8e3"/><path d="M97 75c.2-.2.3-.5.7-.5.4.2.4.6.2 1-.5.3-.6-.2-.9-.5z" fill="#dce3f0"/><path d="M96.6 76.9c-.5.3-.8.3-1.1-.1-.1-.4.3-.5.5-.7.3 0 .6.2.6.8z" fill="#bccae4"/><path d="M96.3 73c.6.3.3.7.3 1-.6.3-.8-.1-1-.4 0-.4.3-.6.7-.6z" fill="#c3cfe7"/><path d="M99.9 73.5c-.3.4-.5.7-.9.5-.3-.3-.1-.6-.1-.9.6-.3.7.1 1 .4z" fill="#c1cde6"/><path d="M81.2 73.8c-.3.3-.6.3-.9.2-.3-.4-.3-.7.1-1 .5 0 .7.3.8.8z" fill="#c6d1e7"/><path class="st363" d="M81.7 75.4c-.1-.5.2-.7.4-.9.4.1.6.3.6.7-.3.5-.6.5-1 .2z"/><path d="M84.2 76.9c-.4.3-.7.3-1 .1-.3-.5.2-.6.4-.9.4 0 .6.2.6.8z" fill="#e4e9f4"/><path d="M81.2 76.8c-.3.4-.7.3-.9.3-.4-.6 0-.8.4-1 .2.1.4.2.5.7z" fill="#dde3f1"/><path class="st363" d="M84.4 73.7c-.5.4-.8.4-1.1.2-.3-.5.1-.6.4-.9.3.1.4.4.7.7z"/><path class="st139" d="M103.7 88.7h.7c0 .4-.3.6-.6.7-.1-.3-.1-.5-.1-.7z"/><path d="M72.8 53.5c-.2-.2-.3-.4-.1-.7.5.2.2.4.1.7z" fill="#545400"/><path d="M106.9 53.5c-.3-.3-.2-.5 0-.7.1.2.3.4 0 .7z" fill="#404000"/><path class="st34" d="M107.3 57.9h-.7c-.7-.9.2-1.3.6-1.8.4.5.4.5.1 1.8z"/><path d="M71.2 56.9c.5.1.3.5.3.7v.4c-.3 0-.4-.2-.4-.4s0-.5.1-.7z" fill="#735900"/><path class="st81" d="M72.2 56.9h.8l.3.6c-.7.3-1.1.2-1.1-.6z"/></g></svg>