<svg xmlns="http://www.w3.org/2000/svg" width="85.946" height="54.955" viewBox="0 0 85.946 54.955"><path fill="#FFF" d="M0 0h85.946v54.955H0z"/><path d="M5.405 4.685h20v18.378h-20zm24.505 0h52.613v3.243H29.91zm0 6.486h52.613v40.901H29.91z"/><path fill="#FFF" d="M29.39 13.412h55.333v1.583H29.39zm-.84 3.392h55.333v1.583H28.55zm0 3.392h55.333v1.583H28.55zm0 3.393h55.333v1.583H28.55zm.506 3.392h55.333v1.583H29.056zm-.506 3.392h55.333v1.583H28.55zm-.41 3.393h55.333v1.583H28.14zm0 3.392h55.333v1.583H28.14zm0 3.392h55.333v1.583H28.14zm.41 3.393h55.333v1.583H28.55zm0 3.392h55.333v1.583H28.55zm.506 3.393h55.333v1.583H29.056zm0-40.709h55.333v1.583H29.056z"/></svg>