<svg xmlns="http://www.w3.org/2000/svg" width="85.946" height="54.955" viewBox="0 0 85.946 54.955"><path fill="#FFF" d="M0 0h85.946v54.955H0z"/><path d="M44.954 5.586h35.821V9.37H44.954zm.211 7.459h35.61v39.207h-35.61zm-40.75 0h35.61v39.207H4.415zm0-7.459h35.821V9.37H4.415z"/><path fill="#FFF" d="M1.806 14.978h80.688v1.583H1.806zm.917 3.75h79.771v1.583H2.723zm-.917 3.75h80.688v1.583H1.806zm1.5 3.75h79.188v1.583H3.306zm0 3.75h79.188v1.583H3.306zm-1.166 3.75h80.355v1.583H2.14zm.583 3.75h82.296v1.583H2.723zm-1.333 3.75h81.105v1.583H1.39zm2.552 3.75h78.553v1.583H3.942zm-2.552 3.75h84.05v1.583H1.39z"/></svg>