<svg xmlns="http://www.w3.org/2000/svg" width="85.946" height="54.955" viewBox="0 0 85.946 54.955"><path fill="#FFF" d="M0 0h85.946v54.955H0z"/><path d="M3.982 2.883H20.18v16.198H3.982zm0 18.304H20.18v16.198H3.982zm21.09-18.304H41.27v16.198H25.072zm20.703 0h16.198v16.198H45.775zm21.099 0h16.198v16.198H66.874zM3.982 42.198H20.18v12.757H3.982zm21.09 0H41.27v12.757H25.072zm20.703 0h16.198v12.757H45.775zm21.099 0h16.198v12.757H66.874zM24.946 21.187h16.198v16.198H24.946zm20.964 0h16.198v16.198H45.91zm20.964 0h16.198v16.198H66.874z"/><path fill="#FFF" d="M2.952 22.548h80.189v1H2.952zm0 4.223h80.189v1H2.952zm0-2.111h80.189v1H2.952zm0-4.223h80.189v1H2.952zm0 8.445h80.189v1H2.952zm0 2.112h80.189v1H2.952zm0 2.111h80.189v1H2.952zm0 2.111h80.189v1H2.952z"/></svg>