<svg xmlns="http://www.w3.org/2000/svg" width="85.946" height="54.955" viewBox="0 0 85.946 54.955"><path fill="#FFF" d="M0 0h85.946v54.955H0z"/><path d="M5.766 5.586h21.802V9.37H5.766zm0 7.459h21.802v39.207H5.766zm26.306-7.459h21.802V9.37H32.072zm26.901 0h21.802V9.37H58.973zm-26.901 7.459h21.802v39.207H32.072zm26.901 0h21.802v39.207H58.973z"/><path fill="#FFF" d="M4.89 14.978h77.605v1.583H4.89zm0 3.75h77.605v1.583H4.89zm0 3.75h77.605v1.583H4.89zm0 3.75h77.605v1.583H4.89zm0 3.75h77.605v1.583H4.89zm0 3.75h77.605v1.583H4.89zm0 3.75h80.13v1.583H4.89zm0 3.75h77.605v1.583H4.89zm0 3.75h77.605v1.583H4.89zm0 3.75h80.55v1.583H4.89z"/></svg>