<svg xmlns="http://www.w3.org/2000/svg" xmlns:xlink="http://www.w3.org/1999/xlink" width="135.279" height="131.906" viewBox="0 0 135.279 131.906"><defs><path id="a" d="M0 0h135.279v131.906H0z"/><clipPath id="b"><use height="131.906" width="135.279" overflow="visible" xlink:href="#a"/></clipPath></defs><g clip-path="url(#b)" opacity=".51" transform="translate(.398 -.096)"><defs><path id="c" d="M0 0h106.313v130.645H0z"/></defs><clipPath id="d"><use height="131.906" width="135.279" overflow="visible" xlink:href="#c"/></clipPath><path d="M65.876 73.374l7.32-32.223h7.498l.09-.179h-.011v-.494H73.31l1.493-6.468C80.337 9.462 83.64 2.678 92.031 2.678c3.124 0 5.443 3.035 5.443 6.07 0 1.339-.268 2.857-.802 4.463l.179.178c.534-1.517.803-3.123.803-4.462C97.654 4.195 93.101 0 87.12 0c-7.943 0-17.494 4.195-22.762 27.671l-2.922 12.807H54.45v.494l-.089.179h6.962l-7.23 32.223C19.995 75.606 0 99.35 0 115.238c0 23.922 48.469 26.779 65.787-41.507 29.634 2.054 40.168 17.852 40.168 30.35 0 10.89-6.336 15.8-11.247 15.8-3.035 0-5.534-1.876-5.534-5.536 0-2.409 1.16-5.177 2.41-6.068l-.09-.179c-1.518 1.159-2.588 4.553-2.588 6.247 0 3.751 2.678 5.713 5.892 5.713 5.087 0 11.516-4.819 11.516-15.798-.001-12.854-10.803-28.831-40.438-30.886m-12.675 4.017C38.472 143.087.447 135.145.447 115.686c0-15.533 18.745-39.724 53.559-41.954l-.805 3.659z" clip-path="url(#d)"/></g><path d="M97.602 60.066l14.486 2.177c10.264 1.542 19.923-5.593 21.465-15.856l1.517-10.09c1.542-10.263-5.593-19.921-15.856-21.464l-14.487-2.177c-10.264-1.542-19.921 5.593-21.464 15.856l-1.517 10.09c-1.543 10.263 5.592 19.922 15.856 21.464" clip-path="url(#b)" fill="#32b7d6" transform="translate(.398 -.096)"/><path clip-path="url(#b)" fill="#32b7d6" d="M102.47 66.463v-8.784l5.444 1.818z" transform="translate(.398 -.096)"/><path d="M111.297 44.203c1.144-.657 2.231-.929 3.168-.788 3.197.481 4.613 3.526 4.171 6.468-.499 3.325-3.332 6.517-8.489 5.742-4.434-.667-7.534-4.402-10.262-7.426-2.769 1.023-5.241 1.522-6.776 1.291-4.348-.653-4.402-6.676 2.591-5.626 2.173.327 4.507 1.331 6.741 2.408 5.104-3.504 10.058-9.778 11.262-17.792.563-3.751-.9-6.195-3.586-6.599-3.069-.461-8.791 1.949-9.478 6.51-.429 2.856.857 5.316 3.328 5.688 1.707.256 2.828-.535 3.465-1.877l.087.013c-.763 1.585-2.155 2.161-3.563 1.949-2.174-.327-3.896-2.503-3.402-5.786.955-6.351 8.683-11.075 13.84-10.3 5.756.865 7.736 5.086 6.948 10.329-1.082 7.204-10.188 14.423-18.092 18.292 2.801 1.38 5.29 2.8 6.91 3.044 4.688.704 7.146-1.15 7.423-2.983.217-1.449-.828-2.914-3.13-3.26-.896-.134-1.975.096-3.12.752l-.036-.049zm-11.636 3.744c-1.795-1.97-3.417-3.652-5.079-3.901-5.415-.814-5.724 4.719-1.461 5.36 1.79.268 4.094-.259 6.54-1.459" clip-path="url(#b)" fill="#fff" transform="translate(.398 -.096)"/><path d="M112.276 67.447c9.025 0 17.139 3.792 17.139 11.604 0 5.762-4.93 9.63-9.326 9.63-3.792 0-7.509-2.73-6.371-7.28 3.033-.605 4.626-3.108 4.626-5.914 0-5.082-3.564-7.355-7.507-7.355-4.777 0-10.087 3.26-10.087 8.493 0 11.603 28.287 10.691 28.287 29.955 0 13.8-14.483 25.327-31.698 25.327-14.864 0-22.145-8.646-22.145-17.519 0-8.493 6.599-15.089 15.395-15.089 7.279 0 15.168 4.321 15.168 11.98 0 5.081-3.868 9.327-9.859 9.327-4.322 0-8.038-3.488-6.674-8.114 3.64-.075 6.521-3.109 6.521-7.128 0-3.943-3.487-5.461-6.295-5.461-6.294 0-11.146 6.75-11.146 14.256 0 8.723 6.445 16.987 19.793 16.987 12.589 0 20.021-7.43 20.021-14.862 0-14.029-30.184-15.242-30.184-31.472 0-11.297 12.892-17.365 24.342-17.365" clip-path="url(#b)" fill="#ff6652" transform="translate(.398 -.096)"/></svg>