<svg xmlns="http://www.w3.org/2000/svg" viewBox="0 0 625 625"><path d="M312.5 227.2c20.9 0 62.6 10.3 62.6 31.1V278H249.8v-19.7c0-20.9 41.9-31.1 62.7-31.1zm0-15.8c-17.2 0-31.1-13.9-31.1-31v-.1c0-17.2 13.9-31.5 31.1-31.5s31.1 14.3 31.1 31.5c.1 17.2-13.8 31.1-31.1 31.1.1 0 .1 0 0 0z" fill="#237d91"/><path d="M212.6 383.8c20.9 0 62.6 10.3 62.6 31.1v19.7H149.9v-19.7c.1-20.9 41.9-31.1 62.7-31.1zm0-15.8c-17.2 0-31.1-13.9-31.1-31v-.1c0-17.2 13.9-31.5 31.1-31.5s31.1 14.3 31.1 31.5c.1 17.1-13.8 31-30.9 31.1h-.2z" fill="#97defa"/><path d="M412.7 383.8c20.9 0 62.6 10.3 62.6 31.1v19.7H350v-19.7c.1-20.8 41.9-31.1 62.7-31.1zm0-15.7c-17.2 0-31.1-13.9-31.1-31v-.1c0-17.2 13.9-31.5 31.1-31.5s31.1 14.3 31.1 31.5c.1 17.1-13.8 31-30.9 31.1h-.2z" fill="#29cbfc"/></svg>