<svg id="Calque_1" data-name="Calque 1" xmlns="http://www.w3.org/2000/svg" viewBox="0 0 113.42 113.39"><defs><style>.cls-3{fill:#a443c1}.cls-5{fill:#fd8d18}</style></defs><path d="M87.78 14.31A52.52 52.52 0 0 0 26 14.09c10.24 14.08 20 28.53 31 42C68 42.8 77.71 28.41 87.78 14.31z" fill="#fe3751"/><path d="M56.94 103.64c0 1.89.23 3.84-.53 5.6h.31a52.57 52.57 0 0 0 49.89-36l-49.36-16q-.16 23.19-.31 46.4z" fill="#6cbf1d"/><path class="cls-3" d="M56.94 56.14c-11-13.52-20.75-28-31-42A52.54 52.54 0 0 0 6.76 73l50-16.19a1.08 1.08 0 0 0 .18-.67z"/><path class="cls-3" d="M56.94 56.13c-11-13.52-20.75-28-31-42 10.24 14.08 20 28.52 31 42z"/><path d="M56.94 103.64q.16-23.21.3-46.43-.25-.2-.52-.39L6.76 73a52.57 52.57 0 0 0 49.64 36.24c.76-1.76.52-3.71.54-5.6z" fill="#40ade7"/><path class="cls-5" d="M56.94 56.14a1.08 1.08 0 0 1-.23.69q.27.18.52.39l49.36 16a52.54 52.54 0 0 0-18.81-58.91C77.71 28.41 68 42.8 56.94 56.14z"/><path class="cls-5" d="M56.94 56.13C68 42.8 77.71 28.41 87.78 14.31 77.71 28.41 68 42.8 56.94 56.13z"/></svg>