<svg version="1.1" id="Calque_1" xmlns="http://www.w3.org/2000/svg" x="0" y="0" width="50" height="60" viewBox="-87 46 50 60" xml:space="preserve"><style>.st1{fill:#fff}</style><switch><g><path d="M-62 98.3c-12.3 0-22.3-10-22.3-22.3s10-22.3 22.3-22.3 22.3 10 22.3 22.3-10 22.3-22.3 22.3z" fill="#4bafd5"/><path class="st1" d="M-62 54.7c11.8 0 21.3 9.6 21.3 21.3 0 11.8-9.6 21.3-21.3 21.3-11.8 0-21.3-9.6-21.3-21.3 0-11.8 9.5-21.3 21.3-21.3m0-2c-12.9 0-23.3 10.5-23.3 23.3S-74.9 99.3-62 99.3-38.7 88.9-38.7 76-49.1 52.7-62 52.7z"/><path class="st1" d="M-72.1 86.3V71.2l-3.3 3-2.2-3.4 5.9-5h3.9v20.5h-4.3zm25.7-10.4c0 1.8-.3 3.3-.9 4.7-.6 1.3-1.3 2.4-2.3 3.2-1 .8-2 1.5-3.2 1.9-1.2.4-2.4.6-3.6.6h-6.7V65.7h6.5c1.3 0 2.5.2 3.7.5 1.2.3 2.3.9 3.3 1.7 1 .8 1.7 1.8 2.3 3.1.6 1.4.9 3 .9 4.9zm-4.5 0c0-1.2-.2-2.1-.5-2.9-.3-.8-.8-1.4-1.3-1.8-.5-.5-1.2-.8-1.9-1-.7-.2-1.4-.3-2.2-.3h-2.1v12h2c.8 0 1.5-.1 2.2-.3.7-.2 1.3-.5 1.9-1 .5-.5 1-1.1 1.3-1.9.5-.7.6-1.6.6-2.8z"/></g></switch></svg>