<svg xmlns="http://www.w3.org/2000/svg" xmlns:xlink="http://www.w3.org/1999/xlink" viewBox="0 0 500 500"><style/><symbol id="Zoom_avant" viewBox="-31.6 -19.6 57.4 56.8"><path d="M24.6 7.8c4 11.6-2.1 24.2-13.7 28.2-2.4.8-4.8 1.2-7.2 1.2-9.2 0-17.7-5.7-20.9-14.9-4-11.6 2.1-24.2 13.7-28.2 2.4-.8 4.8-1.2 7.2-1.2 9.1 0 17.7 5.8 20.9 14.9zM3.7-1.1c-1.8 0-3.6.3-5.3.9C-5.7 1.2-9 4.2-10.9 8c-1.9 3.9-2.1 8.3-.7 12.3 2.2 6.5 8.4 10.9 15.2 10.9 1.8 0 3.6-.3 5.3-.9 4.1-1.4 7.4-4.3 9.2-8.2 1.9-3.9 2.1-8.3.7-12.3C16.7 3.3 10.5-1.1 3.7-1.1z"/><path d="M6.5 17.9v6.5H.9v-6.5h-6.6v-5.6H.9V5.7h5.6v6.6H13v5.6zM-9.7-5.3l-15.8-14.3-6.1 6.8 15.7 14.3z"/></symbol><linearGradient id="SVGID_1_" gradientUnits="userSpaceOnUse" x1="0" y1="0" x2="0" y2="-1"><stop offset="0" stop-color="#0017b8"/><stop offset=".618" stop-color="#001390"/><stop offset=".629" stop-color="#000ea6"/><stop offset=".983" stop-color="#00629e"/></linearGradient><g id="loupe"><use xlink:href="#Zoom_avant" width="57.4" height="56.8" id="XMLID_1_" x="-31.6" y="-19.6" transform="rotate(180 112.918 160.016) scale(7.9324)" overflow="visible"/></g></svg>