<svg version="1.1" id="Calque_1" xmlns="http://www.w3.org/2000/svg" x="0" y="0" width="225" height="150" viewBox="0 0 225 150" xml:space="preserve"><style>.st0{fill:#ce142b}.st1{fill:#fefdfd}.st2{fill:#00247d}</style><g id="english"><path class="st0" d="M0 90V60h100.3c.8 0 1.1-.3 1.1-1.4V0h22.5v58.4c0 1.6 0 1.6 1.2 1.6h99c.8 0 1.2.2 1.1 1.4-.1 9 0 18 0 27 0 1.3-.2 1.6-1.2 1.6-33.1 0-66.1 0-99.2-.1-.8 0-1 .2-1 1.3v57.4c0 1.1-.2 1.3-1 1.3h-20.5c-.8 0-1.1-.2-1.1-1.4V91.3c0-1.1-.2-1.4-1.1-1.4C66.9 90 33.5 90 0 90z"/><path class="st1" d="M0 89.8h100.3c.9 0 1.1.3 1.1 1.4v57.1c0 1.2.3 1.4 1.1 1.4H123c.8 0 1-.2 1-1.3V91.1c0-1.1.2-1.3 1-1.3 33.1 0 66.1 0 99.2.1 1 0 1.2-.4 1.2-1.6V61.4c0-1.3-.3-1.4-1.1-1.4h-99c-1.2 0-1.2 0-1.2-1.6V.1h7.5v45.6c.4-.2.7-.4.9-.6 20.3-13.5 40.5-26.9 60.8-40.4 2.3-1.5 4.6-2.9 6.8-4.6h8.4c-.3.2-.6.5-1 .7-24.3 16.1-48.6 32.3-72.8 48.4-.3.2-.5.4-.8.5v.2h15.3c.8 0 1.4-.2 2.1-.7C175.6 33 200 16.8 224.3.6c.3-.2.7-.3.9-.7.1.1.4-.2.4.2V1c-.2 49.2-.3 98.5 0 147.7 0 .9-.2 1.1-.9 1.1H1c-.7 0-.9-.2-.9-1.1v-16.1c.4.2.6-.2.9-.4 16-10.6 31.9-21.2 47.9-31.8.3-.2.5-.4 1-.7H.1C0 96.5 0 93.2 0 89.8zm25.3 60.1c.4 0 .5.1.5.1H93c.7 0 .8-.4.8-1.2v-43.5c0-.3.1-.6-.1-1-22.7 15.2-45.5 30.3-68.4 45.6zm174.4.1v-.2c-22.7-15.1-45.5-30.3-68.3-45.5v44.4c0 1.1.2 1.3 1 1.3h67.3zM.4 149.8v.2h15.4c.7 0 1.3-.2 1.9-.6 24.3-16.2 48.7-32.4 73-48.6.3-.2.5-.4.8-.6v-.2H76.2c-.7 0-1.4.2-2 .7-24.4 16.2-48.7 32.3-73.1 48.5-.2.2-.5.4-.7.6zm175.2-100v.2h48.8c.7 0 .8-.3.8-1.1V18.2c0-1.4 0-1.4-1-.8-10.9 7.2-21.7 14.5-32.6 21.7-5.3 3.6-10.6 7.1-16 10.7zm.1 50.2v.2c16.5 11 32.9 21.9 49.5 33v-31.9c0-1.1-.2-1.4-1-1.4h-47.6c-.3.1-.6.1-.9.1zm49.5 50v-10c0-.9-.2-1.3-.8-1.7-18.9-12.6-37.8-25.2-56.8-37.8-.5-.3-.9-.5-1.4-.5h-15.1c-.2 0-.5-.2-.7.2 25 16.6 49.8 33.2 74.8 49.8z"/><path class="st1" d="M101.3 0v58.6c0 1.1-.2 1.4-1.1 1.4H0V50h49.8c-.4-.3-.5-.4-.6-.4C33.1 38.8 16.9 28 .8 17.3c-.3-.2-.5-.5-.8-.3v-5.7c.3.2.6.3.9.5 18.8 12.5 37.6 25 56.4 37.6.6.4 1.3.6 2 .6h14.6c.3 0 .5.1.8-.2l-.9-.6C49.7 33.1 25.4 16.9 1.2.8.8.6.4.4.2 0h25.2c.2.2.4.4.6.5 22.3 14.9 44.7 29.8 67 44.7.2.2.5.5.8.3V0h7.5z"/><path class="st2" d="M93.8 0v45.5c-.4.2-.6-.1-.8-.3C70.7 30.3 48.3 15.4 26 .5c-.2-.1-.4-.3-.6-.5h68.4zm106.1 0c-2.2 1.7-4.5 3.1-6.8 4.6-20.3 13.5-40.5 27-60.8 40.5-.2.2-.5.3-.9.6V0h68.5z"/><path class="st0" d="M225 0c-.2.4-.6.5-.9.7-24.3 16.2-48.7 32.4-73 48.6-.7.5-1.4.7-2.1.7h-15.3v-.2c.3-.2.5-.4.8-.5C158.8 33.1 183.1 17 207.3.8c.3-.2.7-.5 1-.7C213.9 0 219.4 0 225 0z"/><path class="st2" d="M0 17c.3-.2.5.1.7.3C16.9 28 33.1 38.8 49.2 49.6c.1.1.2.2.6.4H0V17zm0 83h49.8c-.5.4-.8.6-1 .7-16 10.6-31.9 21.3-47.9 31.9-.3.2-.5.6-.9.4v-33z"/><path class="st0" d="M.2 0c.2.4.6.5.9.7C25.3 16.9 49.6 33 73.8 49.2c.3.2.5.4.9.6-.2.3-.5.2-.7.2H59.4c-.7 0-1.3-.2-2-.6C38.6 36.9 19.8 24.3 1 11.8c-.3-.2-.6-.4-.9-.5V.8C0 .5-.2.1.2 0z"/><path class="st2" d="M25.3 149.9c23-15.3 45.7-30.4 68.4-45.6.2.4.1.7.1 1v43.5c0 .8 0 1.2-.8 1.2H25.8s-.1 0-.5-.1zm174.4.1h-67.3c-.8 0-1-.2-1-1.3v-44.4c22.9 15.2 45.6 30.4 68.3 45.5v.2z"/><path class="st0" d="M.4 149.8c.3-.2.5-.4.8-.5l72.9-48.6c.7-.4 1.3-.7 2-.7h15.3v.2c-.3.2-.5.4-.8.6-24.3 16.2-48.7 32.4-73 48.6-.6.4-1.2.6-1.9.6H.3c.1-.1.1-.1.1-.2z"/><path class="st2" d="M175.6 49.8c5.3-3.5 10.6-7.1 16-10.6 10.9-7.2 21.7-14.5 32.6-21.7 1-.6 1-.6 1 .8V49c0 .8-.1 1.1-.8 1.1h-48.8c.1-.2.1-.2 0-.3zm.1 50.2h48.5c.8 0 1 .3 1 1.4v31.9c-16.6-11.1-33.1-22-49.5-33v-.3z"/><path class="st0" d="M225.2 150c-25-16.6-49.8-33.2-74.7-49.8.2-.4.5-.2.7-.2h15.1c.5 0 1 .2 1.4.5 18.9 12.6 37.8 25.2 56.8 37.8.6.4.8.8.8 1.7-.1 3.2-.1 6.5-.1 10z"/></g></svg>