<svg version="1.1" id="ode" xmlns="http://www.w3.org/2000/svg" x="0" y="0" width="1100" height="320" viewBox="-89 1341 1100 320" xml:space="preserve"><style>.st0{fill:#00c9ea}.st1{fill:#002d38}</style><path id="moov_1_" class="st0" d="M674.9 1601.9s.5.5 1.1 1.4c.7.9 1.6 2.3 3.2 3.9 2.7 3.2 7.5 7.5 14.4 11.4 6.8 3.9 16.2 7.3 27.1 7.7 10.9.5 23.5-2.1 33.9-9.8 5.2-3.9 9.6-9.3 12.8-15.5 3.2-6.4 5-13.4 5.7-21.2 0-1.8.2-3.9.2-5.7 0-2.1 0-3.9-.2-5.9 0-1.6-.2-4.1-.5-5.9l-.5-2.7c-.2-.9-.5-1.8-.7-2.7-.9-3.6-2.5-7.3-4.6-10-2.1-3-5-4.8-8-5.2-3-.5-6.4.7-8.7 3-1.1 1.1-2.1 2.5-2.7 4.1-.5 1.6-.9 3.2-.9 5 0 3.4 1.4 7.1 3.4 10.5.5.9 1.1 1.6 1.6 2.5s1.1 1.6 1.8 2.5l.9 1.1.2.2s-.2-.2 0 0l.2.2.7.7 2.5 2.5 2.5 2.5 2.5 2.1c1.6 1.4 3.2 2.7 5 4.1 3.4 2.7 7.3 5 11.2 6.8 7.7 3.9 16.4 5.9 24.8 5.9 8.4-.2 17.1-2.5 24.6-6.8s14.1-10 19.4-17.1c5.2-6.8 9.3-14.6 11.6-22.8 2.3-8.2 3.2-16.6 1.8-24.6-.2-.9-.2-2.1-.5-3l-.7-3-.5-1.4-.5-1.4-1.1-2.7-.2-.5s0 .2 0 0v-.2l-.5-.7-.3-1.3c-.5-.9-.9-2.1-1.4-2.7l-1.4-2.5-1.6-2.5c-2.3-3.2-5-5.9-7.7-8.2-3-2.3-6.2-4.1-9.6-5.5-6.8-2.5-14.4-3-20.7-1.1-3.2.9-5.9 2.7-8 4.8-.9 1.1-1.6 2.3-1.8 3.4-.2.7-.2 1.1-.2 1.8s0 1.4.2 2.1c.5 2.5 2.3 5.2 4.3 7.3l.9.9.7.7.7.7.9.5c1.1.7 2.5 1.4 3.9 1.8 5.5 1.6 11.2.9 16.4-.5 10.5-3 18.7-8.7 24.6-13.9 5.9-5.2 9.8-10.3 12.1-13.9 1.1-1.8 2.1-3.2 2.5-4.3.5-.9.7-1.6.7-1.6.2-.5.9-.7 1.4-.5.5.2.7.9.5 1.4 0 0-.2.5-.7 1.6s-1.1 2.7-2.3 4.6c-2.3 3.9-5.9 9.3-12.1 15-6.2 5.7-14.4 12.1-25.7 15.7-5.7 1.8-12.3 3-19.4 1.1-1.8-.5-3.4-1.1-5-2.1l-1.1-.7c-.5-.2-.9-.7-1.1-.9-.5-.2-.9-.7-1.1-.9l-.9-.9-.5-.5-.2-.2-.2-.2-.2-.2-.9-1.1c-.7-.7-1.1-1.6-1.8-2.3-.2-.5-.5-.9-.7-1.4l-.7-1.4c-.5-.9-.7-2.1-1.1-3-1.1-4.1.2-9.3 3-12.8 3-3.4 6.6-5.7 10.7-7.1 8-2.7 16.9-2.3 25.1.7 4.1 1.4 8.2 3.6 11.6 6.2 3.6 2.7 6.8 5.9 9.6 9.6l2.1 2.7 1.8 3c.7 1.1 1.1 2.1 1.6 3l.7 1.4.5.7v.2l.2.2.2.5 1.4 3.2.7 1.6.5 1.6.9 3.4c.2 1.1.5 2.3.7 3.4 1.6 9.3.9 18.9-1.6 28.2s-6.8 18-12.8 25.7c-5.7 7.7-13.2 14.6-21.9 19.6s-18.7 7.7-28.7 8c-10.3 0-20-2.5-28.9-7.1-4.3-2.3-8.7-4.8-12.5-7.7-2.1-1.4-3.9-3-5.7-4.6l-2.7-2.5-2.5-2.5-2.5-2.5-.7-.7-.2-.2-.2-.2-.2-.2-1.1-1.4c-.9-.9-1.6-1.8-2.3-3-.7-1.2-1.6-2.1-2.1-3.2-2.5-4.3-4.6-9.6-4.6-15 0-2.7.7-5.5 1.6-8.2 1.1-2.5 2.7-5 4.8-6.8 4.1-3.9 10-5.9 15.7-5 2.7.5 5.5 1.6 7.7 3 2.3 1.6 4.1 3.4 5.7 5.5 3 4.1 4.8 8.7 5.7 13 .2 1.1.5 2.3.7 3.4l.5 3.4c.2 2.3.5 4.1.5 6.4v6.4c-.2 2.1-.2 4.3-.5 6.4-.9 8.4-3.2 16.4-7.1 23.5-3.9 7.1-9.1 13.2-15 17.5-6.2 4.3-12.8 7.1-19.4 8.7-6.6 1.4-13 1.8-18.9 1.1-11.8-1.1-21.6-5-28.7-9.3-7.3-4.3-11.8-9.3-14.6-12.8-1.6-1.8-2.3-3.2-3-4.1s-.9-1.4-.9-1.4c-.5-.7-.2-1.4.2-1.8.1-.2.7-.2 1.2.5z"/><path id="avion_1_" class="st1" d="M838.5 1417.8l34.4 13.7 3.2 36.2 28-22.3 24.8 9.6 44.2-84.1-134.6 46.9zm39.4 47l12.3-25.3 12.3 5.7-24.6 19.6zm10.7-26.5l-11.8 25.5-2.3-32.3 67.9-38-53.8 44.8z"/><path class="st1" d="M30.5 1443.6c0 10.7-3.9 20-11.4 27.6s-16.9 11.4-27.6 11.4-20-3.9-27.6-11.4c-7.5-7.5-11.4-16.9-11.4-27.6 0-10.7 3.9-20 11.4-27.6s16.9-11.4 27.6-11.4 20 3.9 27.6 11.4 11.4 16.9 11.4 27.6zm-39-30.3c-8.4 0-15.5 3-21.4 8.9s-8.9 13.2-8.9 21.4 3 15.5 8.9 21.4 13.2 8.9 21.4 8.9c8.4 0 15.5-3 21.4-8.9s8.9-13 8.9-21.4-3-15.5-8.9-21.4c-5.9-6-13.2-8.9-21.4-8.9zm58.8 98.6c0 1.1-.5 2.3-1.4 3-.9.9-1.8 1.4-3 1.4s-2.3-.5-3-1.4c-.9-.9-1.4-1.8-1.4-3v-68.3c0-10.7 3.9-20 11.4-27.6s16.9-11.4 27.6-11.4 20 3.9 27.6 11.4c7.6 7.5 11.4 16.9 11.4 27.6s-3.9 20-11.4 27.6-16.9 11.4-27.6 11.4-20-3.9-27.6-11.4l-2.7-2.7v43.4h.1zm0-68.3c0 8.4 3 15.5 8.9 21.4s13.2 8.9 21.4 8.9c8.4 0 15.5-3 21.4-8.9s8.9-13 8.9-21.4-3-15.5-8.9-21.4-13.2-8.9-21.4-8.9c-8.4 0-15.5 3-21.4 8.9s-8.9 12.9-8.9 21.4zm141.9 22.3c1.1 0 2.3.5 3 1.4.9.9 1.4 1.8 1.4 3.2 0 1.1-.5 2.3-1.1 3-7.3 6.4-15.7 9.3-25.5 9.3-10.7 0-20-3.9-27.6-11.4-7.5-7.5-11.4-16.9-11.4-27.6s3.9-20 11.4-27.6c7.5-7.5 16.9-11.4 27.6-11.4s20 3.9 27.6 11.4c7.5 7.5 11.4 16.9 11.4 27.6 0 1.1-.5 2.3-1.4 3-.9.9-1.8 1.4-3 1.4h-65c1.4 7.1 4.3 12.8 8.9 17.1 5.9 5.9 13.2 8.9 21.4 8.9 3.9 0 7.3-.7 10.7-1.8s6.2-3 8.9-5.2c.9-1.1 1.8-1.3 2.7-1.3zm8-26.7c-1.4-6.8-4.1-12.8-8.7-17.1-5.9-5.9-13.2-8.9-21.4-8.9-8.4 0-15.5 3-21.4 8.9-4.6 4.6-7.3 10.3-8.9 17.1h60.4zm20-30.3c0-1.1.5-2.3 1.4-3 .9-.9 1.8-1.4 3-1.4s2.3.5 3 1.4c.9.9 1.4 1.8 1.4 3v8.2c8.7-8.2 17.8-12.3 27.6-12.3 10 0 18.5 3.6 25.5 10.7 7.1 7.1 10.7 15.5 10.7 25.5v37.6c0 1.1-.5 2.3-1.4 3-.9.9-1.8 1.4-3.2 1.4-1.1 0-2.3-.5-3-1.4-.9-.9-1.4-1.8-1.4-3v-37.8c0-7.7-2.7-14.1-8.2-19.4-5.5-5.5-11.8-8.2-19.4-8.2-7.5 0-14.1 2.7-19.4 8.2-5.2 5.2-8 11.8-8 19.4v37.6c0 1.1-.5 2.3-1.4 3-.9.9-1.8 1.4-3 1.4s-2.3-.5-3-1.4c-.9-.9-1.4-1.8-1.4-3v-69.5h.2zm195-33.4c0-1.1.5-2.3 1.4-3 .9-.9 1.8-1.4 3.2-1.4 1.4 0 2.3.5 3 1.4.9.9 1.4 1.8 1.4 3v68.1c0 10.7-3.9 20-11.4 27.6-7.5 7.5-16.9 11.4-27.6 11.4s-20-3.9-27.6-11.4c-7.5-7.5-11.4-16.9-11.4-27.6s3.9-20 11.4-27.6c7.5-7.5 16.9-11.4 27.6-11.4s20 3.9 27.6 11.4l2.7 2.7v-43.3l-.3.1zm0 68.1c0-8.4-3-15.5-8.9-21.4-5.9-5.9-13.2-8.9-21.4-8.9-8.4 0-15.5 3-21.4 8.9-5.9 5.9-8.9 13.2-8.9 21.4s3 15.5 8.9 21.4c5.9 5.9 13.2 8.9 21.4 8.9 8.4 0 15.5-3 21.4-8.9 5.9-5.7 8.9-13 8.9-21.4zm36.2-57.9c0 1.6-.5 3-1.6 4.1-1.1 1.1-2.5 1.6-4.1 1.6-1.6 0-3-.5-4.1-1.6-1.1-1.1-1.8-2.5-1.8-4.1s.5-3 1.8-4.1c1.1-1.1 2.5-1.8 4.1-1.8 1.6 0 3 .5 4.1 1.8.9 1.1 1.6 2.5 1.6 4.1zm-10.2 23.2c0-1.1.5-2.3 1.4-3 .9-.7 1.8-1.4 3-1.4s2.3.5 3.2 1.4c.9.9 1.4 1.8 1.4 3v69.5c0 1.1-.5 2.3-1.4 3-.9.9-1.8 1.4-3.2 1.4-1.1 0-2.3-.5-3-1.4-.9-.9-1.4-1.8-1.4-3v-69.5zm96.6 59.5c-8.4 9.3-18.7 14.1-30.3 14.1-10.7 0-20-3.9-27.6-11.4-7.5-7.5-11.4-16.9-11.4-27.6s3.9-20 11.4-27.6c7.5-7.5 16.9-11.4 27.6-11.4s20 3.9 27.6 11.4c7.5 7.5 11.4 16.9 11.4 27.6v39.4c0 8-3 15-8.7 21-8.2 8.2-18 12.3-29.6 12.3-11.6 0-21.4-4.1-29.6-12.3-3-3-5.5-5.9-7.3-9.3-.5-.9-.7-1.8-.7-2.5 0-1.1.5-2.3 1.4-3 .9-.9 1.8-1.4 3-1.4s2.3.5 3.2 1.4c.5.2.7.7.9 1.4 1.6 2.7 3.4 5.2 5.7 7.5 3.2 3.2 6.8 5.7 10.7 7.3 3.9 1.6 8.2 2.5 12.8 2.5 9.1 0 17.1-3.2 23.5-9.8 4.1-5 6.2-9.8 6.2-14.8v-14.8h-.2zm-30.3-55.1c-8.4 0-15.5 3-21.4 8.9-5.9 5.9-8.9 13.2-8.9 21.4 0 8.4 3 15.5 8.9 21.4 5.9 5.9 13.2 8.9 21.4 8.9 8.4 0 15.5-3 21.4-8.9 5.9-5.9 8.9-13 8.9-21.4s-3-15.5-8.9-21.4c-5.9-6-13-8.9-21.4-8.9zm66.7-27.6c0 1.6-.5 3-1.6 4.1s-2.5 1.6-4.1 1.6c-1.6 0-3-.5-4.1-1.6-1.1-1.1-1.8-2.5-1.8-4.1s.5-3 1.8-4.1c1.1-1.1 2.5-1.8 4.1-1.8 1.6 0 3 .5 4.1 1.8.9 1.1 1.6 2.5 1.6 4.1zm-10.2 23.2c0-1.1.5-2.3 1.4-3 .9-.7 1.8-1.4 3-1.4s2.3.5 3.2 1.4 1.4 1.8 1.4 3v69.5c0 1.1-.5 2.3-1.4 3-.9.9-1.8 1.4-3.2 1.4-1.1 0-2.3-.5-3-1.4-.9-.9-1.4-1.8-1.4-3v-69.5zm66.5 65.2c1.1 0 2.3.5 3.2 1.4s1.4 1.8 1.4 3-.5 2.3-1.4 3c-.9.9-1.8 1.4-3.2 1.4-18.2 0-27.6-9.1-27.6-27.6v-41.9h-7.3c-1.1 0-2.3-.5-3.2-1.4s-1.4-1.8-1.4-3 .5-2.3 1.4-3c.9-.9 1.8-1.4 3.2-1.4h7.3v-29.4c0-1.1.5-2.3 1.4-3 .9-.9 1.8-1.4 3-1.4s2.3.5 3.2 1.4 1.4 1.8 1.4 3v29.2h13c1.1 0 2.3.5 3.2 1.4s1.4 1.8 1.4 3-.5 2.3-1.4 3c-.9.9-1.8 1.4-3.2 1.4h-13v41.9c-.1 12.6 6 19 18.6 19zm81.8-5.7c-9.3 9.3-19.6 14.1-30.3 14.1s-20-3.9-27.6-11.4c-7.5-7.5-11.4-16.9-11.4-27.6s3.9-20 11.4-27.6c7.5-7.5 16.9-11.4 27.6-11.4s20 3.9 27.6 11.4c7.5 7.5 11.4 16.9 11.4 27.6v34.6c0 1.1-.5 2.3-1.4 3-.9.9-1.8 1.4-3 1.4s-2.3-.5-3.2-1.4-1.4-1.8-1.4-3l.3-9.7zm-30.3-55.1c-8.4 0-15.5 3-21.4 8.9s-8.9 13.2-8.9 21.4 3 15.5 8.9 21.4 13.2 8.9 21.4 8.9c8.4 0 15.5-3 21.4-8.9s8.9-13 8.9-21.4-3-15.5-8.9-21.4c-6-6-13-8.9-21.4-8.9zm50.8-38.1c0-1.1.5-2.3 1.4-3 .9-.9 1.8-1.4 3-1.4s2.3.5 3.2 1.4 1.4 1.8 1.4 3v98.9h7.3c1.1 0 2.3.5 3.2 1.4s1.4 1.8 1.4 3-.5 2.3-1.4 3c-.9.9-1.8 1.4-3.2 1.4h-11.6c-1.1 0-2.3-.5-3-1.4-.9-.9-1.4-1.8-1.4-3v-103.3h-.3z"/><path class="st0" d="M15.7 1604.2c1.1-.5 2.3-.2 3.4.5s1.8 1.4 2.1 2.5.2 2.3-.2 3.2c-5.2 8.2-12.3 13.4-21.6 16.4-10.3 3.2-20.3 2.1-29.8-3-9.6-5-15.7-12.8-18.9-23.2-3.2-10.3-2.1-20.3 3-29.8 5-9.6 12.8-15.7 23.2-18.9 10.3-3.2 20.3-2.1 29.8 3 9.6 5 15.7 12.8 18.9 23.2.5 1.1.2 2.3-.2 3.2-.5 1.1-1.4 1.8-2.5 2.1l-62.6 18.5c3.4 6.4 7.7 10.9 13.4 13.9 7.5 4.1 15 4.8 23.2 2.3 3.6-1.1 6.8-2.7 9.6-4.8 2.7-2.1 5-4.8 7.1-7.7.5-.8 1.1-1.2 2.1-1.4zm0-27.8c-3.2-6.2-7.7-10.9-13.2-13.9-7.5-4.1-15-4.8-23.2-2.3-8 2.5-14.1 7.3-18 14.8-3 5.5-4.1 11.8-3.4 18.9l57.8-17.5z"/><path class="st1" d="M106.8 1521.9c0-1.1.5-2.3 1.4-3 .9-.9 1.8-1.4 3.2-1.4 1.4 0 2.3.5 3 1.4.9.9 1.4 1.8 1.4 3v68.1c0 10.7-3.9 20-11.4 27.6-7.5 7.5-16.9 11.4-27.6 11.4s-20-3.9-27.6-11.4c-7.5-7.5-11.4-16.9-11.4-27.6s3.9-20 11.4-27.6c7.5-7.5 16.9-11.4 27.6-11.4s20 3.9 27.6 11.4l2.7 2.7-.3-43.2zm0 68.1c0-8.4-3-15.5-8.9-21.4s-13.2-8.9-21.4-8.9c-8.4 0-15.5 3-21.4 8.9s-8.9 13.2-8.9 21.4 3 15.5 8.9 21.4 13.2 8.9 21.4 8.9c8.4 0 15.5-3 21.4-8.9 6.1-5.6 8.9-12.9 8.9-21.4zm92.5 34.9c0 1.1-.5 2.3-1.4 3-.9.9-1.8 1.4-3.2 1.4-1.1 0-2.3-.5-3-1.4-.9-.9-1.4-1.8-1.4-3v-8.2c-8.7 8.2-17.8 12.5-27.6 12.5s-18.5-3.4-25.5-10.5c-7.1-7.1-10.5-15.7-10.5-25.7v-37.6c0-1.1.5-2.3 1.4-3 .9-.9 1.8-1.4 3-1.4s2.3.5 3 1.4c.9.9 1.4 1.8 1.4 3v37.6c0 7.5 2.7 14.1 8 19.4 5.5 5.5 12.1 8.2 19.4 8.2 7.5 0 13.9-2.7 19.4-8.2 5.5-5.2 8.2-11.8 8.2-19.4v-37.6c0-1.1.5-2.3 1.4-3 .9-.9 1.8-1.4 3-1.4s2.3.5 3.2 1.4 1.4 1.8 1.4 3l-.2 69.5zm72.6-12.8c1.1 0 2.3.5 3 1.4.9.9 1.4 1.8 1.4 3.2 0 1.1-.5 2.3-1.4 3.2-3.6 3-7.5 5.2-11.8 7.1-4.3 1.6-8.9 2.5-13.7 2.5-10.7 0-20-3.9-27.6-11.4-7.5-7.5-11.4-16.9-11.4-27.6s3.9-20 11.4-27.6c7.5-7.5 16.9-11.4 27.6-11.4 4.8 0 9.3.9 13.7 2.5 4.3 1.6 8.2 3.9 11.8 7.1.5.5.7.9 1.1 1.6.2.7.5 1.1.5 1.8 0 1.1-.5 2.3-1.4 3-.9.9-1.8 1.4-3 1.4s-2.1-.5-2.7-1.1c-5.7-5-12.3-7.5-19.8-7.5-8.4 0-15.5 3-21.4 8.9s-8.9 13-8.9 21.4 3 15.5 8.9 21.4 13.2 8.9 21.4 8.9c3.6 0 7.3-.7 10.7-2.1s6.6-3.2 9.3-5.5c.5-.7 1.4-1.2 2.3-1.2zm86.1 3c-9.3 9.3-19.6 14.1-30.3 14.1s-20-3.9-27.6-11.4c-7.5-7.5-11.4-16.9-11.4-27.6s3.9-20 11.4-27.6c7.5-7.5 16.9-11.4 27.6-11.4s20 3.9 27.6 11.4c7.6 7.5 11.4 16.9 11.4 27.6v34.7c0 1.1-.5 2.3-1.4 3-.9.9-1.8 1.4-3 1.4s-2.3-.5-3.2-1.4c-.9-.9-1.4-1.8-1.4-3v-9.8h.3zm-30.5-55.4c-8.4 0-15.5 3-21.4 8.9-5.9 5.9-8.9 13.2-8.9 21.4s3 15.5 8.9 21.4c5.9 5.9 13.2 8.9 21.4 8.9 8.4 0 15.5-3 21.4-8.9 5.9-5.9 8.9-13 8.9-21.4s-3-15.5-8.9-21.4c-5.7-5.9-13-8.9-21.4-8.9zm89.8 60.9c1.1 0 2.3.5 3.2 1.4.9.9 1.4 1.8 1.4 3s-.5 2.3-1.4 3c-.9.9-1.8 1.4-3.2 1.4-18.2 0-27.6-9.1-27.6-27.6v-41.9h-7.3c-1.1 0-2.3-.5-3.2-1.4-.9-.9-1.4-1.8-1.4-3s.5-2.3 1.4-3c.9-.9 1.8-1.4 3.2-1.4h7.3v-29.2c0-1.1.5-2.3 1.4-3 .9-.9 1.8-1.4 3-1.4s2.3.5 3.2 1.4 1.4 1.8 1.4 3v29.2h13c1.1 0 2.3.5 3.2 1.4s1.4 1.8 1.4 3-.5 2.3-1.4 3c-.9.9-1.8 1.4-3.2 1.4h-13v41.9c-.3 12.4 6 18.8 18.6 18.8zm32.8-88.4c0 1.6-.5 3-1.6 4.1-1.1 1.1-2.5 1.6-4.1 1.6-1.6 0-3-.5-4.1-1.6-1.1-1.1-1.8-2.5-1.8-4.1s.5-3 1.8-4.1c1.1-1.1 2.5-1.8 4.1-1.8 1.6 0 3 .5 4.1 1.8.9 1.1 1.6 2.5 1.6 4.1zm-10.3 23.2c0-1.1.5-2.3 1.4-3 .9-.7 1.8-1.4 3-1.4s2.3.5 3.2 1.4 1.4 1.8 1.4 3v69.5c0 1.1-.5 2.3-1.4 3-.9.9-1.8 1.4-3.2 1.4-1.1 0-2.3-.5-3-1.4-.9-.9-1.4-1.8-1.4-3v-69.5zm105.5 34.6c0 10.7-3.9 20-11.4 27.6-7.5 7.5-16.9 11.4-27.6 11.4s-20-3.9-27.6-11.4c-7.6-7.5-11.4-16.9-11.4-27.6s3.9-20 11.4-27.6c7.5-7.5 16.9-11.4 27.6-11.4s20 3.9 27.6 11.4c7.5 7.6 11.4 16.9 11.4 27.6zm-39.2-30.3c-8.4 0-15.5 3-21.4 8.9-5.9 5.9-8.9 13.2-8.9 21.4s3 15.5 8.9 21.4c5.9 5.9 13.2 8.9 21.4 8.9 8.4 0 15.5-3 21.4-8.9 5.9-5.9 8.9-13 8.9-21.4s-3-15.5-8.9-21.4c-5.9-5.9-13-8.9-21.4-8.9zm50.3-4.3c0-1.1.5-2.3 1.4-3 .9-.9 1.8-1.4 3-1.4s2.3.5 3 1.4c.9.9 1.4 1.8 1.4 3v8.2c8.7-8.2 17.8-12.3 27.6-12.3 10 0 18.5 3.6 25.5 10.7 7.1 7.1 10.7 15.5 10.7 25.5v37.6c0 1.1-.5 2.3-1.4 3-.9.9-1.8 1.4-3.2 1.4-1.1 0-2.3-.5-3-1.4-.9-.9-1.4-1.8-1.4-3v-37.6c0-7.7-2.7-14.1-8.2-19.4-5.5-5.5-11.8-8.2-19.4-8.2-7.5 0-14.1 2.7-19.4 8.2-5.2 5.2-8 11.8-8 19.4v37.6c0 1.1-.5 2.3-1.4 3-.9.9-1.8 1.4-3 1.4s-2.3-.5-3-1.4c-.9-.9-1.4-1.8-1.4-3l.2-69.7z"/></svg>